<svg xmlns="http://www.w3.org/2000/svg" xmlns:xlink="http://www.w3.org/1999/xlink" viewBox="0 0 1200 150"><defs><style>.cls-1{isolation:isolate;}.cls-2{mix-blend-mode:multiply;fill:url(#名称未設定グラデーション_75);}.cls-3{opacity:0.6;}.cls-22,.cls-4{fill:#fff;}.cls-10,.cls-11,.cls-12,.cls-13,.cls-14,.cls-15,.cls-16,.cls-17,.cls-18,.cls-21,.cls-23,.cls-4,.cls-5,.cls-6,.cls-7,.cls-8,.cls-9{opacity:0.5;}.cls-10,.cls-11,.cls-12,.cls-13,.cls-14,.cls-15,.cls-16,.cls-17,.cls-18,.cls-23,.cls-5,.cls-6,.cls-7,.cls-8,.cls-9{fill:none;stroke:#fff;stroke-miterlimit:10;}.cls-5{stroke-width:0.61px;}.cls-6{stroke-width:0.29px;}.cls-7{stroke-width:0.36px;}.cls-8{stroke-width:0.81px;}.cls-9{stroke-width:0.55px;}.cls-10{stroke-width:0.64px;}.cls-11{stroke-width:0.79px;}.cls-12{stroke-width:0.86px;}.cls-13{stroke-width:1.11px;}.cls-14{stroke-width:1.02px;}.cls-15{stroke-width:1.08px;}.cls-16{stroke-width:0.99px;}.cls-17{stroke-width:1.22px;}.cls-18{stroke-width:0.95px;}.cls-19{opacity:0.8;}.cls-20{fill:#14a5c0;}.cls-23{stroke-width:0.78px;}</style><linearGradient id="名称未設定グラデーション_75" x1="600" y1="1.6" x2="600" y2="145.79" gradientUnits="userSpaceOnUse"><stop offset="0" stop-color="#5ea9b7"/><stop offset="0.23" stop-color="#5aa6b7"/><stop offset="0.47" stop-color="#4e9eb5"/><stop offset="0.5" stop-color="#4b9cb5"/><stop offset="0.77" stop-color="#59a5b6"/><stop offset="1" stop-color="#5ea9b7"/></linearGradient></defs><title>アートボード 3</title><g class="cls-1"><g id="レイヤー_11" data-name="レイヤー 11"><rect class="cls-2" width="1200" height="150"/></g><g id="放射状"><g class="cls-3"><circle class="cls-4" cx="1145.14" cy="109" r="8.91"/><circle class="cls-4" cx="1171.38" cy="127.03" r="5.21"/><circle class="cls-4" cx="1114.1" cy="93.6" r="5.21"/><circle class="cls-4" cx="1182.31" cy="100.76" r="4.42"/><circle class="cls-4" cx="1137.06" cy="153.55" r="4.42"/><circle class="cls-4" cx="1164.17" cy="68.95" r="4.42"/><circle class="cls-4" cx="1068.15" cy="130.31" r="4.42"/><polyline class="cls-5" points="1163.97 69.97 1144.91 109.24 1114.79 93.73"/><line class="cls-5" x1="1144.91" y1="109.24" x2="1068.56" y2="130.31"/><polyline class="cls-5" points="1171.38 127.03 1143.78 111.15 1137.06 152.74"/><line class="cls-5" x1="1182.31" y1="100.76" x2="1145.62" y2="109.32"/></g><g class="cls-3"><circle class="cls-4" cx="129.63" cy="96.8" r="4.2" transform="translate(-25.87 52.15) rotate(-20.73)"/><circle class="cls-4" cx="144.21" cy="100.38" r="2.46" transform="translate(-26.19 57.55) rotate(-20.73)"/><circle class="cls-4" cx="113.36" cy="95.19" r="2.46" transform="translate(-26.36 46.29) rotate(-20.73)"/><circle class="cls-4" cx="144.65" cy="86.96" r="2.09" transform="translate(-21.42 56.83) rotate(-20.73)"/><circle class="cls-4" cx="133.5" cy="117.81" r="2.09" transform="translate(-33.06 54.88) rotate(-20.73)"/><circle class="cls-4" cx="126.48" cy="79.44" r="2.09" transform="translate(-19.93 49.92) rotate(-20.73)"/><circle class="cls-4" cx="113.68" cy="109.17" r="2.09" transform="translate(-31.28 47.31) rotate(-20.73)"/><polyline class="cls-6" points="126.56 79.92 129.56 96.95 113.69 95.14"/><line class="cls-6" x1="129.56" y1="96.95" x2="113.86" y2="109.1"/><polyline class="cls-6" points="144.21 100.38 129.39 97.98 133.36 117.45"/><line class="cls-6" x1="144.65" y1="86.96" x2="129.89" y2="96.86"/></g><g class="cls-3"><circle class="cls-4" cx="301.35" cy="28.39" r="5.19" transform="translate(42.47 185.23) rotate(-36.59)"/><circle class="cls-4" cx="302.03" cy="46.92" r="3.04" transform="translate(31.56 189.28) rotate(-36.59)"/><circle class="cls-4" cx="297.77" cy="8.51" r="3.04" transform="translate(53.61 179.18) rotate(-36.59)"/><circle class="cls-4" cx="318.11" cy="42.91" r="2.58" transform="translate(37.12 198.08) rotate(-36.59)"/><circle class="cls-4" cx="277.7" cy="40.07" r="2.58" transform="matrix(0.8, -0.6, 0.6, 0.8, 30.84, 173.44)"/><circle class="cls-4" cx="320.91" cy="18.79" r="2.58" transform="translate(52.05 195) rotate(-36.59)"/><circle class="cls-4" cx="281.28" cy="13.61" r="2.58" transform="translate(47.32 170.35) rotate(-36.59)"/><polyline class="cls-7" points="320.37 19.05 301.15 28.36 297.95 8.88"/><line class="cls-7" x1="301.15" y1="28.36" x2="281.42" y2="13.8"/><polyline class="cls-7" points="302.03 46.92 299.87 28.5 278.08 39.79"/><line class="cls-7" x1="318.11" y1="42.91" x2="301.37" y2="28.72"/></g><g class="cls-3"><circle class="cls-4" cx="941.63" cy="126.73" r="5.19" transform="translate(-1.19 9.19) rotate(-0.56)"/><circle class="cls-4" cx="931.28" cy="142.11" r="3.04" transform="translate(-1.34 9.09) rotate(-0.56)"/><circle class="cls-4" cx="950.43" cy="108.55" r="3.04" transform="translate(-1.01 9.28) rotate(-0.56)"/><circle class="cls-4" cx="946.65" cy="148.33" r="2.58" transform="translate(-1.4 9.24) rotate(-0.56)"/><circle class="cls-4" cx="915.63" cy="122.27" r="2.58" transform="translate(-1.15 8.94) rotate(-0.56)"/><circle class="cls-4" cx="963.1" cy="130.48" r="2.58" transform="translate(-1.23 9.4) rotate(-0.56)"/><circle class="cls-4" cx="934.09" cy="102.97" r="2.58" transform="translate(-0.96 9.12) rotate(-0.56)"/><polyline class="cls-7" points="962.5 130.36 941.49 126.59 950.36 108.96"/><line class="cls-7" x1="941.49" y1="126.59" x2="934.09" y2="103.21"/><polyline class="cls-7" points="931.28 142.11 940.37 125.95 916.11 122.27"/><line class="cls-7" x1="946.65" y1="148.33" x2="941.45" y2="127.01"/></g><g class="cls-3"><circle class="cls-4" cx="665.18" cy="41.63" r="9.16" transform="translate(28.33 238.15) rotate(-20.73)"/><circle class="cls-4" cx="649.5" cy="141.05" r="6.87" transform="translate(-7.88 239.04) rotate(-20.73)"/><circle class="cls-4" cx="669.68" cy="-3.79" r="6.87" transform="translate(44.7 236.81) rotate(-20.73)"/><circle class="cls-4" cx="692.66" cy="83.56" r="5.82" transform="translate(15.27 250.6) rotate(-20.73)"/><circle class="cls-4" cx="606.54" cy="52.44" r="5.82" transform="translate(20.71 218.1) rotate(-20.73)"/><circle class="cls-4" cx="745.46" cy="37.24" r="5.82" transform="translate(35.08 266.29) rotate(-20.73)"/><circle class="cls-4" cx="630.66" cy="-2.9" r="5.82" transform="translate(41.86 223.05) rotate(-20.73)"/><polyline class="cls-8" points="744.11 37.47 664.77 41.45 669.84 -2.88"/><line class="cls-8" x1="664.77" y1="41.45" x2="630.85" y2="-2.4"/><polyline class="cls-8" points="649.5 141.06 661.9 40.96 607.54 52.06"/><line class="cls-8" x1="692.66" y1="83.56" x2="665.01" y2="42.36"/></g><g class="cls-3"><circle class="cls-4" cx="500.6" cy="47.4" r="8.03" transform="translate(258.93 488.36) rotate(-66.68)"/><circle class="cls-4" cx="515.88" cy="71.68" r="4.7" transform="translate(245.87 517.07) rotate(-66.68)"/><circle class="cls-4" cx="480.39" cy="23.57" r="4.7" transform="translate(268.61 455.41) rotate(-66.68)"/><circle class="cls-4" cx="534.3" cy="53.83" r="3.99" transform="translate(273.39 523.2) rotate(-66.68)"/><circle class="cls-4" cx="478.01" cy="81.39" r="3.99" transform="translate(214.07 488.15) rotate(-66.68)"/><circle class="cls-4" cx="519.34" cy="19.37" r="3.99" transform="translate(296 488.64) rotate(-66.68)"/><circle class="cls-4" cx="462.26" cy="43.19" r="3.99" transform="translate(239.64 450.61) rotate(-66.68)"/><polyline class="cls-9" points="518.81 20.14 500.31 47.51 480.92 23.93"/><line class="cls-9" x1="500.31" y1="47.51" x2="462.6" y2="43.34"/><polyline class="cls-9" points="515.88 71.68 498.7 48.69 478.3 80.72"/><line class="cls-9" x1="534.3" y1="53.83" x2="500.88" y2="47.83"/></g><g class="cls-3"><circle class="cls-4" cx="46.99" cy="46.6" r="9.31" transform="translate(-16.69 28.58) rotate(-28.96)"/><circle class="cls-4" cx="80.1" cy="49.81" r="5.45" transform="translate(-14.1 45.01) rotate(-28.96)"/><circle class="cls-4" cx="11.46" cy="39.57" r="5.45" transform="translate(-17.73 10.5) rotate(-28.96)"/><circle class="cls-4" cx="76.8" cy="20.26" r="4.62" transform="translate(-0.2 39.72) rotate(-28.96)"/><circle class="cls-4" cx="62.14" cy="91.42" r="4.62" transform="translate(-36.5 41.52) rotate(-28.96)"/><circle class="cls-4" cx="34.59" cy="9.53" r="4.62" transform="translate(-0.29 17.94) rotate(-28.96)"/><circle class="cls-4" cx="15.94" cy="78.77" r="4.62" transform="translate(-36.15 17.57) rotate(-28.96)"/><polyline class="cls-10" points="34.92 10.57 46.89 46.94 12.16 39.34"/><line class="cls-10" x1="46.89" y1="46.94" x2="16.31" y2="78.56"/><polyline class="cls-10" points="80.1 49.81 46.83 49.25 61.72 90.68"/><line class="cls-10" x1="76.8" y1="20.26" x2="47.58" y2="46.65"/></g></g><g id="六角形"><circle class="cls-4" cx="1003.42" cy="24.39" r="16.21"/><circle class="cls-4" cx="175.38" cy="28.12" r="16.21"/><polygon class="cls-11" points="382.13 26.13 342.22 26.13 322.27 60.7 342.22 95.26 382.13 95.26 402.09 60.7 382.13 26.13"/><polygon class="cls-12" points="77.51 76.35 41.73 76.35 23.84 107.33 41.73 138.32 77.51 138.32 95.39 107.33 77.51 76.35"/><polygon class="cls-13" points="760.56 54.36 720.83 54.36 700.96 88.77 720.83 123.17 760.56 123.17 780.43 88.77 760.56 54.36"/><polygon class="cls-14" points="265.37 37.55 229.04 37.55 210.88 69.01 229.04 100.47 265.37 100.47 283.53 69.01 265.37 37.55"/><polygon class="cls-15" points="844.04 23.11 815.61 23.11 801.39 47.73 815.61 72.35 844.04 72.35 858.25 47.73 844.04 23.11"/><polygon class="cls-16" points="1124.71 10.98 1094.04 10.98 1078.7 37.55 1094.04 64.11 1124.71 64.11 1140.05 37.55 1124.71 10.98"/><polygon class="cls-17" points="498.27 83.35 465.25 83.35 448.75 111.94 465.25 140.53 498.27 140.53 514.78 111.94 498.27 83.35"/><polygon class="cls-11" points="123.5 7.7 98.85 7.7 86.53 29.04 98.85 50.38 123.5 50.38 135.82 29.04 123.5 7.7"/><polygon class="cls-18" points="1034.64 81.68 1005.02 81.68 990.21 107.33 1005.02 132.98 1034.64 132.98 1049.45 107.33 1034.64 81.68"/><path class="cls-4" d="M469.87,98.62h0Z"/><path class="cls-4" d="M495.93,98.62a1.71,1.71,0,0,0-1.69,0L491.56,100,488,98.14a1.72,1.72,0,0,0-1.63,0L482.9,100l-3.51-1.9a1.72,1.72,0,0,0-1.63,0L474.24,100l-2.68-1.45a1.71,1.71,0,0,0-2.53,1.5v22.48h1.76v-22.4l2.63,1.43a1.71,1.71,0,0,0,1.63,0l3.51-1.91,3.51,1.9a1.71,1.71,0,0,0,1.63,0l3.51-1.91,3.52,1.91a1.71,1.71,0,0,0,1.63,0l2.64-1.43v22.89a2.78,2.78,0,0,1-2.78,2.78h-21.1a4.11,4.11,0,0,1-4.11-4.11V103.41h-1.76v18.33a5.87,5.87,0,0,0,5.87,5.87h21.1a4.54,4.54,0,0,0,4.54-4.54v-23A1.71,1.71,0,0,0,495.93,98.62Z"/><rect class="cls-4" x="485.96" y="113.46" width="7.17" height="7.73"/><rect class="cls-4" x="472.82" y="113.58" width="10.56" height="1.17"/><rect class="cls-4" x="472.82" y="119.89" width="10.56" height="1.17"/><rect class="cls-4" x="472.82" y="116.74" width="10.56" height="1.17"/><path class="cls-4" d="M474.06,110.73v-3.29h0l1.86,3.29a.14.14,0,0,0,.13.08H477l.08-.08v-5.08l-.08-.08h-.87l-.08.08v3.3h0l-1.85-3.3a.14.14,0,0,0-.13-.08h-.92l-.08.08v5.08l.08.08H474Z"/><polygon class="cls-4" points="479.25 106.55 481.51 106.55 481.58 106.47 481.58 105.65 481.51 105.57 478.15 105.57 478.07 105.65 478.07 110.73 478.15 110.81 481.51 110.81 481.58 110.73 481.58 109.91 481.51 109.83 479.25 109.83 479.21 109.79 479.21 108.7 479.25 108.65 481.13 108.65 481.21 108.58 481.21 107.76 481.13 107.68 479.25 107.68 479.21 107.64 479.21 106.6 479.25 106.55"/><path class="cls-4" d="M488.43,105.57h-1a.08.08,0,0,0-.09.08l-.72,3.29h0l-.92-3.29-.09-.08h-.67a.1.1,0,0,0-.1.08l-.89,3.29h0l-.75-3.29a.09.09,0,0,0-.09-.08h-1c-.05,0-.07,0-.06.08l1.36,5.08.09.08h.77a.1.1,0,0,0,.1-.08l.92-3.26h0l.91,3.26a.1.1,0,0,0,.1.08H487a.09.09,0,0,0,.1-.08l1.35-5.08S488.48,105.57,488.43,105.57Z"/><path class="cls-4" d="M490.89,109.91a2.22,2.22,0,0,1-1.37-.54h-.12l-.58.67v.13a3.09,3.09,0,0,0,2,.72c1.36,0,2.06-.7,2.06-1.65s-.57-1.44-1.65-1.59l-.28,0c-.6-.08-.82-.28-.82-.58s.24-.57.7-.57a2.17,2.17,0,0,1,1.22.4l.11,0,.47-.7c0-.05,0-.08,0-.12a3,3,0,0,0-1.78-.55,1.64,1.64,0,0,0-1.86,1.6c0,.92.59,1.42,1.66,1.57l.28,0c.62.08.81.28.81.58S491.44,109.91,490.89,109.91Z"/><g class="cls-19"><circle class="cls-4" cx="295.95" cy="120.48" r="12.93"/><path class="cls-20" d="M303.33,118.61a1.55,1.55,0,0,0-1.55-1.55h-3.59l-.52,0h-.15a.41.41,0,0,1,0-.09s0-.06,0-.1l.88-2.19a1.71,1.71,0,1,0-3.17-1.28h0l-1.5,3.77h0c-.1.24-.18.46-.26.65a1.7,1.7,0,0,1-.37.63.7.7,0,0,1-.25.15,1.28,1.28,0,0,1-.42.06,1.68,1.68,0,0,0-.32,0h-2.42a1.3,1.3,0,0,0-1.3,1.3v5.89a1.3,1.3,0,0,0,1.3,1.3h1.8a.72.72,0,0,0,.72-.72v-.6a2.63,2.63,0,0,0,.4.19,5.11,5.11,0,0,0,1.81.27H300a1.55,1.55,0,0,0,1.55-1.55,1.51,1.51,0,0,0-.11-.57,1.55,1.55,0,0,0,1.06-1.47,1.52,1.52,0,0,0-.21-.77,1.25,1.25,0,0,0,.39-.57,2.12,2.12,0,0,0,.11-.71,1.22,1.22,0,0,0-.09-.44,1.52,1.52,0,0,0-.16-.3A1.55,1.55,0,0,0,303.33,118.61Zm-1.55.78h-.26a.38.38,0,0,0,0,.76.4.4,0,0,1,.19,0,.59.59,0,0,1,.23.23.56.56,0,0,1,.08.26,1.18,1.18,0,0,1-.11.56.42.42,0,0,1-.11.13.46.46,0,0,1-.19.08.38.38,0,0,0-.17.67.78.78,0,0,1,.29.6.79.79,0,0,1-.79.79h-.18a.38.38,0,0,0-.25.67.78.78,0,0,1,.27.59.79.79,0,0,1-.79.78h-5.58a4.73,4.73,0,0,1-1.41-.17,1.85,1.85,0,0,1-.65-.34l-.16-.16v-5.44a.89.89,0,0,1,.22,0,1.88,1.88,0,0,0,.86-.18,1.48,1.48,0,0,0,.45-.36,2.57,2.57,0,0,0,.4-.69c.1-.24.19-.49.29-.73h0l1.5-3.77a.95.95,0,0,1,1.76.71l-.9,2.24a.37.37,0,0,0,0,.09,1.82,1.82,0,0,0,0,.24,1,1,0,0,0,.07.4.74.74,0,0,0,.17.25.78.78,0,0,0,.35.19,1.26,1.26,0,0,0,.33,0c.22,0,.41,0,.52,0h3.59a.79.79,0,1,1,0,1.57Z"/></g><circle class="cls-4" cx="877.88" cy="101.61" r="17.35"/><path class="cls-4" d="M336.57,46c0,6.51,4.8,12.7,10.47,12.7.44,0,.87-.32.32-.71a2.49,2.49,0,0,1-1.27-2c0-.48.4-1.07,1.67-1.07h8.49a8.89,8.89,0,0,0,0-17.77H345.46A8.89,8.89,0,0,0,336.57,46Zm19.34,0a1.69,1.69,0,1,1,1.69,1.69A1.69,1.69,0,0,1,355.91,46Zm-6.75,0a1.69,1.69,0,1,1,1.69,1.69A1.69,1.69,0,0,1,349.17,46Zm-6.75,0a1.69,1.69,0,1,1,1.69,1.69A1.69,1.69,0,0,1,342.42,46Z"/><path class="cls-4" d="M1020.26,91.5a1.15,1.15,0,1,0-1.14-1.15A1.15,1.15,0,0,0,1020.26,91.5Z"/><path class="cls-4" d="M1020.84,95.38a.67.67,0,1,0-.67.67A.67.67,0,0,0,1020.84,95.38Z"/><path class="cls-4" d="M1021,93a.81.81,0,1,0,.81-.8A.81.81,0,0,0,1021,93Z"/><path class="cls-4" d="M1031.64,116.46l-6.45-10.3a5.89,5.89,0,0,1-.9-3.13V96.35h-1.14V103a7,7,0,0,0,1.07,3.73l6.45,10.3a1.85,1.85,0,0,1-1.57,2.84h0l-17.05,0a1.85,1.85,0,0,1-1.57-2.84l6.47-10.28A7,7,0,0,0,1018,103V96.35h-1.14V103a5.9,5.9,0,0,1-.9,3.13l-6.47,10.28A3,3,0,0,0,1012,121l17.06,0v0h0a3,3,0,0,0,2.5-4.58Z"/><path class="cls-4" d="M1016.66,109.9l-4.45,7.07a1,1,0,0,0,0,1,1,1,0,0,0,.85.52h15.09a1,1,0,0,0,.82-1.49l-4.43-7.08a1,1,0,0,0-.82-.46h-6.2A1,1,0,0,0,1016.66,109.9Zm5.88,4.92a.71.71,0,1,1-.71.71A.71.71,0,0,1,1022.54,114.81Zm-3.42-3.06a1.07,1.07,0,1,1-1.07,1.07A1.07,1.07,0,0,1,1019.12,111.75Z"/><path class="cls-4" d="M76.94,124.28a7,7,0,0,0-2.77-4,11.26,11.26,0,0,0-1.86-1.08c-1-.45-1.94-.8-2.85-1.13a15.07,15.07,0,0,1-2.38-1,5.06,5.06,0,0,1-.63-.44,2.72,2.72,0,0,1-.64-.75,2.41,2.41,0,0,1-.3-1,7.77,7.77,0,0,1,0-.78,9.31,9.31,0,0,1,.24-2,8.61,8.61,0,0,0,1.13-1.66,17.92,17.92,0,0,0,1-2.33,4.43,4.43,0,0,0,.64-.35,4.58,4.58,0,0,0,1.31-1.37,7.07,7.07,0,0,0,.89-2.26,3.43,3.43,0,0,0,.09-.76,3.48,3.48,0,0,0-.33-1.46,3.92,3.92,0,0,0-.54-.85c.11-.4.24-.94.36-1.57a16.84,16.84,0,0,0,.3-3,11.14,11.14,0,0,0-.2-2.18,7.83,7.83,0,0,0-.49-1.61,5.94,5.94,0,0,0-1.51-2.12A6.28,6.28,0,0,0,66,89.27,8.73,8.73,0,0,0,64.71,88a6.73,6.73,0,0,0-2.28-1.21,8.1,8.1,0,0,0-2.36-.32c-.42,0-.83,0-1.25.06s-.72.08-1,.12a6.74,6.74,0,0,0-1.14.29c-.35.12-.68.26-1.12.43-.17.06-.38.16-.65.29a11.52,11.52,0,0,0-1.68,1,10.85,10.85,0,0,0-2.82,3.06,9.51,9.51,0,0,0-1,2.3A10.18,10.18,0,0,0,49,96.94a12.17,12.17,0,0,0,.18,2c0,.05,0,.1,0,.15s0,.18,0,.28l0,.41c0,.06,0,.12,0,.16a.46.46,0,0,1,0,.05v0h0v.08l.17.77a4.07,4.07,0,0,0-.64.92,3.44,3.44,0,0,0-.37,1.56,3.34,3.34,0,0,0,.09.76h0a8,8,0,0,0,.54,1.61,5,5,0,0,0,1.2,1.65,4.4,4.4,0,0,0,1.11.72,18.38,18.38,0,0,0,1,2.33,8.63,8.63,0,0,0,1.13,1.66,9.27,9.27,0,0,1,.24,2,7.39,7.39,0,0,1,0,.78,2.57,2.57,0,0,1-.17.7,2.41,2.41,0,0,1-.56.82,4.47,4.47,0,0,1-.94.69,11.3,11.3,0,0,1-1.3.61c-.84.34-1.79.66-2.76,1a15.79,15.79,0,0,0-2.16,1,8.86,8.86,0,0,0-1.5,1.09,6.89,6.89,0,0,0-1.71,2.42,9,9,0,0,0-.65,3.53,1.53,1.53,0,0,0,.11.55,2,2,0,0,0,.25.45,3.47,3.47,0,0,0,.74.72,8.94,8.94,0,0,0,2.15,1.1A26.75,26.75,0,0,0,50.82,131a63.29,63.29,0,0,0,8.8.55,66,66,0,0,0,7.82-.42,35.94,35.94,0,0,0,4.24-.74,20,20,0,0,0,2.34-.71,11.27,11.27,0,0,0,1.32-.59,6.58,6.58,0,0,0,.76-.47,3.53,3.53,0,0,0,.81-.78,1.93,1.93,0,0,0,.25-.46,1.48,1.48,0,0,0,.1-.52A9.8,9.8,0,0,0,76.94,124.28ZM65.87,118l-4.4,6.87L61,121.5l1.25-1.32-.81-1.35,3.41-1.8a4.29,4.29,0,0,0,.3.35A5,5,0,0,0,65.87,118ZM53.7,109.75a17.44,17.44,0,0,1-1-2.43l-.12-.32-.32-.12a3,3,0,0,1-.65-.33,3.08,3.08,0,0,1-.89-.94,5.64,5.64,0,0,1-.7-1.8h0a2,2,0,0,1,0-.43,2,2,0,0,1,.22-.9,2.66,2.66,0,0,1,.48-.66,11,11,0,0,0,.72,1c.33.33.38-.45.22-1.32-.29-1.61.49-.88,2.47-4.74,4,.88,10.9-3.33,10.9-3.33a7.32,7.32,0,0,0,1.41,3.69c1.26,1.67,2,5.6,2,5.6s.17-.32.42-.76a2.53,2.53,0,0,1,.37.57,2,2,0,0,1,.19.84,2,2,0,0,1,0,.43,6.5,6.5,0,0,1-.44,1.32A3.6,3.6,0,0,1,68,106.3a2.94,2.94,0,0,1-1,.57l-.32.12-.12.33a17.69,17.69,0,0,1-1,2.44,6.9,6.9,0,0,1-1,1.5l-.14.15,0,.2a11.29,11.29,0,0,0-.32,2.5,9.15,9.15,0,0,0,0,.93,4,4,0,0,0,.26,1.07l0,0-4.46,2.35L54.9,116.2a4,4,0,0,0,.3-1.17h0a8.76,8.76,0,0,0,0-.93,11.23,11.23,0,0,0-.32-2.51l0-.2-.14-.15A6.94,6.94,0,0,1,53.7,109.75Zm0,8a4.57,4.57,0,0,0,.7-.7l3.77,1.75-.81,1.34,1.25,1.32-.46,3.18L53.31,118Zm22.08,9.11a1.62,1.62,0,0,1-.36.38,4.64,4.64,0,0,1-.68.45,11.46,11.46,0,0,1-2,.83,29.66,29.66,0,0,1-5.17,1.05,64,64,0,0,1-7.86.44,64.88,64.88,0,0,1-7.64-.41,35,35,0,0,1-4.07-.71,18.65,18.65,0,0,1-2.17-.66,10.38,10.38,0,0,1-1.15-.51,5.5,5.5,0,0,1-.6-.37,2.06,2.06,0,0,1-.47-.44.53.53,0,0,1-.07-.11v0a8.38,8.38,0,0,1,.25-2.14,5.55,5.55,0,0,1,2.18-3.17,9.76,9.76,0,0,1,1.6-.94c.86-.41,1.79-.74,2.71-1.08a21.43,21.43,0,0,0,2.22-.92L60,129l6.74-10.51c.34.17.69.33,1,.48.9.37,1.87.69,2.8,1.06a14.63,14.63,0,0,1,2,.93,7.49,7.49,0,0,1,1.27.91,5.4,5.4,0,0,1,1.38,1.92,7.48,7.48,0,0,1,.54,3A.37.37,0,0,1,75.74,126.89Z"/><rect class="cls-4" x="65.12" y="125.98" width="5.88" height="1.03"/><path class="cls-4" d="M740.6,78.29a6.24,6.24,0,1,0-6.24-6.24A6.24,6.24,0,0,0,740.6,78.29Z"/><rect class="cls-4" x="717.46" y="103.52" width="46.27" height="4.47"/><path class="cls-4" d="M731.76,93.83l1,8.16h7.14V98.34a4.88,4.88,0,0,1-4.17-4.82V92.44a.69.69,0,1,1,1.39,0v1.09a3.48,3.48,0,0,0,7,0V92.44a.7.7,0,1,1,1.39,0v1.09a4.88,4.88,0,0,1-4.17,4.82V102h7.14l1-8.16.62,8.16h5.37l-.52-11.58c-.43-8.81-9.88-9.76-14.31-9.76s-13.88.95-14.31,9.76L725.77,102h5.37Zm6.4-4.83A2.43,2.43,0,1,1,743,89v4.52a2.43,2.43,0,0,1-4.87,0V89Z"/><g class="cls-21"><path class="cls-22" d="M376.09,48.58c-7.88-.48-14.52,4.47-14.37,12.55v.73l-3.42,6a1.17,1.17,0,0,0,.79,1.72l2.12.58.66,6.41a2.21,2.21,0,0,0,2.45,2.14l1.69.13a1.17,1.17,0,0,1,1.3,1.16v5h14.3v-3.4a10.33,10.33,0,0,1,1-4.22c2.32-3.71,6.09-5.68,6.73-13.28S385.4,49.15,376.09,48.58Z"/></g><g class="cls-19"><path class="cls-20" d="M170,32a1.47,1.47,0,0,1-.59.66,1.33,1.33,0,0,1-.32.14l-.36-1.32h-2.54l.89,4.47a.58.58,0,0,0,.57.47h1.66a.58.58,0,0,0,.56-.74l-.62-2.29.14,0a2,2,0,0,0,.92-.69,2.46,2.46,0,0,0,.42-1l-.61-.1A2,2,0,0,1,170,32Z"/><path class="cls-20" d="M177.19,20.78c-.47,0-1.22.8-1.54,1.12s-2.5,2.49-8.13,2.49V31c5.63,0,7.85,2.21,8.13,2.49s1.08,1.12,1.54,1.12a.84.84,0,0,0,.84-.84V21.62A.84.84,0,0,0,177.19,20.78Z"/><path class="cls-20" d="M166.75,24.39a3.29,3.29,0,1,0,0,6.59Z"/><path class="cls-20" d="M178.72,26.45v2.47a1.24,1.24,0,0,0,0-2.47Z"/><rect class="cls-20" x="182.75" y="27.27" width="3.33" height="0.65"/><polygon class="cls-20" points="185.29 22.92 184.94 22.37 181.92 24.3 182.26 24.85 185.29 22.92"/><polygon class="cls-20" points="181.92 31.16 184.94 33.09 185.29 32.54 182.26 30.61 181.92 31.16"/></g><polygon class="cls-23" points="954 18.16 914.82 18.16 895.23 52.09 914.82 86.02 954 86.02 973.59 52.09 954 18.16"/><path class="cls-4" d="M948.27,28.08a1.53,1.53,0,0,0-.91-.36h-2.06a1.31,1.31,0,0,0-.88.4L943,29.76a.43.43,0,0,1-.68,0l-1.41-1.65a1.31,1.31,0,0,0-.88-.4H938a1.53,1.53,0,0,0-.92.36l-1.62,1.55a1.4,1.4,0,0,0-.38.88v3.14a1.11,1.11,0,0,0,.44.81l6.72,4.62a.83.83,0,0,0,.87,0l6.72-4.62a1.11,1.11,0,0,0,.44-.81V30.51a1.4,1.4,0,0,0-.38-.88Z"/><path class="cls-4" d="M925.29,38a3.85,3.85,0,1,0-3.85-3.85A3.85,3.85,0,0,0,925.29,38Z"/><path class="cls-4" d="M932.81,43.46c-.78-2.64-2.53-4.38-4.5-4.38h-6c-2,0-3.72,1.75-4.5,4.38l-2.84,10.06a1.59,1.59,0,0,0,1.16,1.92A1.56,1.56,0,0,0,918,54.31l2.83-10h.83l-4.92,17.45h4.64V74.68a1.79,1.79,0,0,0,3.58,0V61.73h1V74.68a1.79,1.79,0,0,0,3.58,0V61.73h4.29l-4.92-17.45h.83l2.83,10a1.56,1.56,0,0,0,1.91,1.13,1.59,1.59,0,0,0,1.16-1.92Z"/><path class="cls-4" d="M946.88,51.57a3.37,3.37,0,1,0-3.37-3.37A3.37,3.37,0,0,0,946.88,51.57Z"/><path class="cls-4" d="M950.76,53.65h-8.23a3.52,3.52,0,0,0-3.17,3.17v7.33a1.37,1.37,0,1,0,2.75,0V58.69h.63V74.55a1.8,1.8,0,1,0,3.61,0v-9.2h.58v9.2a1.8,1.8,0,1,0,3.61,0V58.69h.63v5.46a1.37,1.37,0,1,0,2.75,0V56.82A3.52,3.52,0,0,0,950.76,53.65Z"/><path class="cls-4" d="M1106.86,45.31a.62.62,0,0,1-.21.14.65.65,0,0,1-.36,0,.63.63,0,0,1-.33-.18l-4.73-4.73a.63.63,0,0,1-.14-.21.65.65,0,0,1,0-.36.63.63,0,0,1,.18-.33L1111,29.9l-1.46-1.46-9.77,9.77a2.7,2.7,0,0,0,0,3.83l4.73,4.73a2.68,2.68,0,0,0,.89.59,2.7,2.7,0,0,0,2.93-.59l9.77-9.77-1.46-1.46Z"/><path class="cls-4" d="M1099.13,45.67a.76.76,0,0,0-.14,1l.84.84a.76.76,0,0,0,1-.14l1.58-1.58-1.74-1.74Z"/><polygon class="cls-4" points="1093.63 51.97 1095.2 52.28 1099.23 48.24 1098.29 47.31 1093.63 51.97"/><path class="cls-4" d="M1112.86,24.57a1.84,1.84,0,0,0-2.61,2.61l9.11,9.11a1.84,1.84,0,0,0,2.61-2.61Z"/><path class="cls-4" d="M1124.69,26.66l-4.82-4.82a1.84,1.84,0,0,0-2.61,2.61l.5.5-1.46,1.46,1.46,1.46,1.46-1.46.9.9-1.46,1.46,1.46,1.46,1.46-1.46.5.5a1.84,1.84,0,1,0,2.61-2.61Z"/><rect class="cls-4" x="1111.73" y="35.21" width="0.89" height="2.47" transform="translate(299.98 797.1) rotate(-45)"/><polygon class="cls-4" points="1110.17 40.2 1110.79 39.58 1109.05 37.83 1108.42 38.46 1110.17 40.2"/><rect class="cls-4" x="1106.7" y="40.25" width="0.89" height="2.47" transform="translate(294.94 795.02) rotate(-45)"/><path class="cls-4" d="M122.81,38.12a3.45,3.45,0,0,0-2.22-2v-.53a3.86,3.86,0,1,0-7.72,0v2.65a1.92,1.92,0,0,1-.15.75,1.94,1.94,0,0,1-1.78,1.18,1.91,1.91,0,0,1-.75-.15,1.94,1.94,0,0,1-.85-.7,1.92,1.92,0,0,1-.33-1.08V32.49a8.52,8.52,0,0,0,2.19-.56,10.17,10.17,0,0,0,3.72-2.64,10.9,10.9,0,0,0,1.3-1.77,9.57,9.57,0,0,0,.86-1.91,8.73,8.73,0,0,0,.44-2.66,6.32,6.32,0,0,0-.16-1.47,4.56,4.56,0,0,0-.35-1,3.43,3.43,0,0,0-.41-.65,2.77,2.77,0,0,0-.91-.73,2.63,2.63,0,0,0-1.18-.27v1.92a.75.75,0,0,1,.21,0l.15.06a.88.88,0,0,1,.25.22,2,2,0,0,1,.34.72,4.27,4.27,0,0,1,.14,1.15,6.82,6.82,0,0,1-.34,2.07,8,8,0,0,1-1,2,8.82,8.82,0,0,1-2.66,2.55,7.25,7.25,0,0,1-1.69.76,6.43,6.43,0,0,1-1.85.28,6.52,6.52,0,0,1-2.44-.48,7.64,7.64,0,0,1-1.63-.9,8.91,8.91,0,0,1-2-2A8.09,8.09,0,0,1,100.84,25a6.82,6.82,0,0,1-.34-2.07,4.44,4.44,0,0,1,.11-1,2.62,2.62,0,0,1,.2-.57,1.56,1.56,0,0,1,.18-.29.83.83,0,0,1,.27-.23.68.68,0,0,1,.32-.07V18.84a2.67,2.67,0,0,0-.72.1,2.58,2.58,0,0,0-.58.24,2.81,2.81,0,0,0-.8.69,3.92,3.92,0,0,0-.7,1.41,6.2,6.2,0,0,0-.22,1.67A8.73,8.73,0,0,0,99,25.6a9.88,9.88,0,0,0,1.25,2.52,10.75,10.75,0,0,0,3.25,3.1,9.2,9.2,0,0,0,2.14,1,8.45,8.45,0,0,0,1.45.3v5.78a3.86,3.86,0,1,0,7.72,0V35.62a1.92,1.92,0,0,1,.85-1.6,1.94,1.94,0,0,1,1.83-.18,2,2,0,0,1,.85.7,1.92,1.92,0,0,1,.33,1.08v.53l-.38.13a3.45,3.45,0,1,0,4.52,1.83Zm-1.49,2.06a1.85,1.85,0,0,1-.67.81,1.84,1.84,0,0,1-2.72-2.23,1.85,1.85,0,0,1,.67-.81,1.84,1.84,0,0,1,1.74-.17,1.85,1.85,0,0,1,.81.67,1.84,1.84,0,0,1,.17,1.74Z"/><path class="cls-4" d="M104.4,21.59a1.27,1.27,0,0,0,.48-1V19.08a1.27,1.27,0,0,0-1.56-1.24l-1,.24v3.5l1,.24A1.27,1.27,0,0,0,104.4,21.59Z"/><path class="cls-4" d="M111.69,21.59a1.27,1.27,0,0,0,1.08.24l1-.24v-3.5l-1-.24a1.27,1.27,0,0,0-1.56,1.24v1.5A1.27,1.27,0,0,0,111.69,21.59Z"/><path class="cls-4" d="M830.3,34l-13.44,7.51V61.72H827.7V53.83h5.2v7.89h10.84V41.49Zm-6.75,22.45h-2.17V53.83h2.17Zm0-5.74h-2.17V48.08h2.17Zm7.83,0h-2.17V48.08h2.17ZM833.69,43h-2.18v2.18h-2.43V43H826.9V40.59h2.18V38.4h2.43v2.18h2.18ZM837,48.08h2v2.59h-2Zm2.18,8.33H837V53.83h2.17Z"/><path class="cls-4" d="M230.61,48.2V89.07h33V48.2Zm30.32,38.23H249.06V78.52h-4v7.91H233.24V50.84h27.68Z"/><rect class="cls-4" x="237.2" y="54.79" width="3.95" height="3.95"/><rect class="cls-4" x="245.11" y="54.79" width="3.95" height="3.95"/><rect class="cls-4" x="253.02" y="54.79" width="3.95" height="3.95"/><rect class="cls-4" x="237.2" y="62.7" width="3.95" height="3.95"/><rect class="cls-4" x="245.11" y="62.7" width="3.95" height="3.95"/><rect class="cls-4" x="253.02" y="62.7" width="3.95" height="3.95"/><rect class="cls-4" x="237.2" y="70.61" width="3.95" height="3.95"/><rect class="cls-4" x="245.11" y="70.61" width="3.95" height="3.95"/><rect class="cls-4" x="253.02" y="70.61" width="3.95" height="3.95"/><rect class="cls-4" x="237.2" y="78.52" width="3.95" height="3.95"/><rect class="cls-4" x="253.02" y="78.52" width="3.95" height="3.95"/><g class="cls-19"><path class="cls-20" d="M992.28,23.46c0,4.94,3.64,9.63,7.95,9.63.33,0,.66-.24.24-.54a1.89,1.89,0,0,1-1-1.54c0-.37.3-.81,1.26-.81h6.44a6.74,6.74,0,0,0,0-13.48H999A6.74,6.74,0,0,0,992.28,23.46Zm14.67,0a1.28,1.28,0,1,1,1.28,1.28A1.28,1.28,0,0,1,1006.95,23.46Zm-5.12,0a1.28,1.28,0,1,1,1.28,1.28A1.28,1.28,0,0,1,1001.83,23.46Zm-5.12,0A1.28,1.28,0,1,1,998,24.74,1.28,1.28,0,0,1,996.71,23.46Z"/></g><g class="cls-19"><path class="cls-20" d="M884.71,101.65a4.8,4.8,0,0,1-1.24,3.28,3.17,3.17,0,0,1-4.08.82,24.06,24.06,0,0,0-4.39-1.91c-.68-.12-3-.16-3-.16h-7.62v-.78h8a11.28,11.28,0,0,1,5.26.78c2.44,1.11,3.16,1.6,4.14,1.35s2-2.16,2-3.39-.9-3.12-2-3.39-1.7.24-4.14,1.35a11.28,11.28,0,0,1-5.26.78h-8v-.78H872s2.35,0,3-.16a24.06,24.06,0,0,0,4.39-1.91,3.17,3.17,0,0,1,4.08.82A4.83,4.83,0,0,1,884.71,101.65Z"/><path class="cls-20" d="M870.42,101.65a4.8,4.8,0,0,0,1.24,3.28,3.17,3.17,0,0,0,4.08.82,24.06,24.06,0,0,1,4.39-1.91c.68-.12,3-.16,3-.16h7.62v-.78h-8a11.28,11.28,0,0,0-5.26.78c-2.44,1.11-3.16,1.6-4.14,1.35s-2-2.16-2-3.39.9-3.12,2-3.39,1.7.24,4.14,1.35a11.28,11.28,0,0,0,5.26.78h8v-.78h-7.62s-2.35,0-3-.16a24.06,24.06,0,0,1-4.39-1.91,3.17,3.17,0,0,0-4.08.82A4.83,4.83,0,0,0,870.42,101.65Z"/></g><line class="cls-13" x1="322.27" y1="60.7" x2="283.53" y2="69.01"/><line class="cls-13" x1="123.49" y1="50.38" x2="210.88" y2="69.01"/><line class="cls-13" x1="98.85" y1="50.38" x2="77.51" y2="76.35"/><line class="cls-13" x1="780.43" y1="88.77" x2="815.61" y2="72.35"/><line class="cls-13" x1="858.25" y1="47.73" x2="895.23" y2="52.09"/><line class="cls-13" x1="974.15" y1="52.18" x2="1078.7" y2="37.55"/><line class="cls-13" x1="1049.45" y1="107.33" x2="1094.04" y2="64.12"/><line class="cls-13" x1="382.13" y1="95.26" x2="448.75" y2="111.94"/><line class="cls-13" x1="514.78" y1="111.94" x2="700.96" y2="88.77"/></g></g></svg>