<svg xmlns="http://www.w3.org/2000/svg" xmlns:xlink="http://www.w3.org/1999/xlink" viewBox="0 0 745 400"><defs><style>.cls-1,.cls-10,.cls-11,.cls-12,.cls-13,.cls-16,.cls-18,.cls-5,.cls-6,.cls-7,.cls-8,.cls-9{fill:none;}.cls-2{clip-path:url(#clip-path);}.cls-3{fill:#cad9e0;}.cls-4{fill:#9bcc9b;}.cls-10,.cls-11,.cls-12,.cls-13,.cls-5,.cls-6,.cls-7,.cls-8,.cls-9{stroke:#fff;}.cls-10,.cls-11,.cls-12,.cls-13,.cls-16,.cls-18,.cls-5,.cls-6,.cls-7,.cls-8,.cls-9{stroke-miterlimit:10;}.cls-5{stroke-width:45px;}.cls-6{stroke-width:12px;}.cls-7{stroke-width:48px;}.cls-8{stroke-width:11px;}.cls-9{stroke-width:19.84px;}.cls-10{stroke-width:10px;}.cls-11{stroke-width:5.67px;}.cls-12{stroke-width:11.34px;}.cls-13{stroke-width:23px;}.cls-14{fill:#8888e2;opacity:0.44;}.cls-15{fill:#6489bf;}.cls-16,.cls-18{stroke:#000;}.cls-17{fill:#ff0039;}.cls-18{stroke-width:0.5px;}</style><clipPath id="clip-path"><rect class="cls-1" width="745" height="400"/></clipPath></defs><title>アートボード 5</title><g id="レイヤー_2" data-name="レイヤー 2"><g class="cls-2"><rect class="cls-3" width="745" height="400"/><rect class="cls-4" x="569.17" width="175.83" height="400"/><line class="cls-5" x1="-4.07" y1="126" x2="555.24" y2="126"/><line class="cls-6" x1="58.61" y1="74.34" x2="555.24" y2="74.34"/><line class="cls-7" x1="575.24" y1="-0.74" x2="575.24" y2="406.64"/><line class="cls-6" x1="-4.07" y1="192.75" x2="555.24" y2="192.75"/><line class="cls-6" x1="-4.07" y1="252.74" x2="555.24" y2="252.74"/><line class="cls-6" x1="111.65" y1="314.73" x2="429.88" y2="314.73"/><polyline class="cls-6" points="111.65 363.64 290.11 363.64 352.38 381.13 429.88 389.81"/><line class="cls-6" x1="352.39" y1="-0.74" x2="352.39" y2="406.64"/><line class="cls-8" x1="289.08" y1="126" x2="289.08" y2="362.95"/><line class="cls-8" x1="196.03" y1="126" x2="196.03" y2="406.64"/><line class="cls-9" x1="111.65" y1="126" x2="111.65" y2="406.64"/><line class="cls-10" x1="352.39" y1="353.99" x2="429.88" y2="353.99"/><line class="cls-6" x1="209.96" y1="-4.86" x2="228.56" y2="124.88"/><line class="cls-6" x1="288.33" y1="-0.74" x2="288.33" y2="74.34"/><line class="cls-6" x1="492.56" y1="-0.74" x2="492.56" y2="190.75"/><line class="cls-11" x1="258.91" y1="190.75" x2="258.91" y2="252.74"/><line class="cls-11" x1="150.75" y1="-0.74" x2="148.84" y2="74.34"/><line class="cls-11" x1="217.04" y1="43.82" x2="288.33" y2="43.82"/><line class="cls-9" x1="73.08" y1="117.73" x2="28.3" y2="-6.64"/><line class="cls-12" x1="79.96" y1="-6.23" x2="40.36" y2="14.76"/><line class="cls-13" x1="429.88" y1="406.64" x2="429.88" y2="-0.74"/><polygon class="cls-14" points="12.2 -6.64 66.78 148.68 98.37 135.76 46.2 -6.64 12.2 -6.64"/><rect class="cls-14" x="413.11" y="-0.74" width="33.49" height="242.46"/><circle class="cls-15" cx="511.08" cy="162.21" r="8.17"/><circle class="cls-15" cx="506.25" cy="273.04" r="8.17"/><circle class="cls-15" cx="284.27" cy="383.12" r="8.17"/><circle class="cls-15" cx="472.25" cy="387.21" r="8.17"/><circle class="cls-15" cx="370.58" cy="234.38" r="8.17"/><circle class="cls-15" cx="89.74" cy="172.11" r="8.17"/><circle class="cls-15" cx="183.42" cy="31.71" r="8.17"/><circle class="cls-15" cx="253.42" cy="20.71" r="8.17"/><circle class="cls-15" cx="266.27" cy="162.21" r="8.17"/><circle class="cls-15" cx="61.33" cy="271.71" r="8.17"/><path class="cls-15" d="M248.71,130c-.24-.29-.72-.77-1.16-1.19v2.84h-1.08v-2.81a9.05,9.05,0,0,1-1.79,2,4.59,4.59,0,0,0-.72-.8,8.21,8.21,0,0,0,2.29-2.52h-2v-.95h2.22v-1.09h-2.25v-.95h1.24A5.74,5.74,0,0,0,245,123l.82-.2h-1.47v-.92h2.1v-1.14h1.08v1.14h2.1v.92H248.2l.84.19c-.23.56-.46,1.15-.66,1.56h1.4v.95h-2.23v1.09h2.12v.95h-2.12v.2c.43.3,1.54,1.2,1.81,1.43Zm-2.82-7.2a5.54,5.54,0,0,1,.48,1.57l-.7.18h2.64l-.83-.18a11.55,11.55,0,0,0,.54-1.57Zm9.22,2.87h-1.26v5.94h-1.08v-5.94h-1.55v.11c0,1.77-.22,4.27-1.87,5.94a2.68,2.68,0,0,0-.79-.77c1.45-1.48,1.6-3.53,1.6-5.18V121.6l.74.22a15.82,15.82,0,0,0,3.19-1l.9.8a18.28,18.28,0,0,1-3.77,1.09v1.94h3.89Z"/><path class="cls-15" d="M259.84,123.47a13.4,13.4,0,0,1-1,1.75v6.44h-1.06v-5a9.52,9.52,0,0,1-1.2,1.2,8.53,8.53,0,0,0-.67-1,10.22,10.22,0,0,0,2.89-3.67Zm-2.12.34h-1.1v-2.18H261v-1h1.15v1h4.47v2h-1.14v-1h-7.8Zm6.09,1.08c-.12.37-.24.74-.36,1.09h2.81v5.68h-1.1v-.42H261.4v.43h-1.06V126h2c.08-.35.18-.73.24-1.09h-2.72v-1h6.87v1Zm1.34,2.05H261.4v1.14h3.75Zm0,3.36V129H261.4v1.29Z"/><path class="cls-15" d="M270.84,129.14a3.15,3.15,0,0,0,2.78,1.26c1.36.06,4.11,0,5.64-.08a5.51,5.51,0,0,0-.36,1.09c-1.38.06-3.9.08-5.29,0a4,4,0,0,1-3.25-1.38c-.58.49-1.17,1-1.85,1.49l-.53-1.1a18.74,18.74,0,0,0,1.79-1.25v-2.87h-1.64v-1h2.71Zm-.53-5.55a9.22,9.22,0,0,0-2-2l.78-.7a9.52,9.52,0,0,1,2.05,1.87Zm2.71,6.18h-1v-6.14h3.08c-.65-.31-1.37-.62-2-.86l.72-.6c.47.17,1,.38,1.55.61a9.77,9.77,0,0,0,1.32-.8H272v-.88h5.67l.23-.06.67.54a11.86,11.86,0,0,1-2.29,1.63c.31.14.59.29.82.42h1.48v5.11c0,.5-.08.76-.43.91a4.57,4.57,0,0,1-1.61.16,3.07,3.07,0,0,0-.3-.9c.5,0,1,0,1.1,0s.18,0,.18-.19v-.84h-1.79v1.85h-1v-1.85H273Zm0-5.31v.88h1.73v-.87Zm1.73,2.59v-.9H273v.9Zm2.79-2.59h-1.79v.88h1.79Zm0,2.59v-.9h-1.79v.9Z"/><path class="cls-15" d="M283.08,121.21a20.69,20.69,0,0,0-.52,2.94,3.82,3.82,0,0,1,3.09-2.36c1.62,0,2.82,1.6,2.82,4.15,0,3.31-2.08,4.83-5.1,5.38l-.72-1.08c2.6-.41,4.54-1.37,4.54-4.31,0-1.85-.61-3.06-1.75-3.06-1.44,0-2.76,2.13-2.85,3.69a5.37,5.37,0,0,0,0,1.37l-1.16.08a14.21,14.21,0,0,1-.14-1.92,31,31,0,0,1,.36-3.83c0-.4.08-.8.1-1.12Z"/><path d="M9.88,126.66a8.91,8.91,0,0,1,1.79,1.82l-.88.49a13.23,13.23,0,0,0-3.09-2.82,13.23,13.23,0,0,0,3.09-2.82l.88.49a8.92,8.92,0,0,1-1.79,1.82H18.8v1Z"/><path d="M30.24,121.72v9.5H29.07v-.72H21.48v.82H20.36v-9.59Zm-1.18,7.7V126.2a2.45,2.45,0,0,1-.11.6.8.8,0,0,1-.44.48,2.21,2.21,0,0,1-.72.11H27a1.36,1.36,0,0,1-.84-.25c-.22-.17-.31-.4-.31-1.15v-3.2H24.51c-.13,2.41-.48,4.23-2.23,5.34a2.87,2.87,0,0,0-.7-.83c1.5-.91,1.75-2.46,1.83-4.51H21.48v6.63Zm0-6.63H26.92V126c0,.19,0,.32.08.36a.54.54,0,0,0,.26.06h.44a.79.79,0,0,0,.32,0c.07,0,.13-.11.16-.26a7.9,7.9,0,0,0,.06-1,2.83,2.83,0,0,0,.82.46Z"/><path d="M34.59,125.6l-1.21.44A31.25,31.25,0,0,0,32,122.71l1.2-.43C33.56,123,34.3,124.8,34.59,125.6ZM42,122.4a6.45,6.45,0,0,0-.25.79,13.34,13.34,0,0,1-2,4.51A10.59,10.59,0,0,1,35,131.18l-1-1.06A9.61,9.61,0,0,0,38.66,127a11,11,0,0,0,1.9-5Zm-4.17,2.33-1.19.42a30.17,30.17,0,0,0-1.2-3.2l1.16-.4A33.77,33.77,0,0,1,37.78,124.73Z"/><path d="M48.8,122.92a13.13,13.13,0,0,0,5.1,4.29,4.74,4.74,0,0,0-.72,1,14.64,14.64,0,0,1-1.43-.89v4.35H50.56v-.44H46.1v.46H45v-4.37a13.45,13.45,0,0,1-1.45.91,4.49,4.49,0,0,0-.68-.88,12.87,12.87,0,0,0,4.86-4.41Zm-1.51-1.64a13,13,0,0,1-3.21,3.17,8.29,8.29,0,0,0-.9-.8,9.89,9.89,0,0,0,3-2.75Zm3.81,5.55A13.88,13.88,0,0,1,48.29,124a12.87,12.87,0,0,1-2.71,2.82Zm-.54,3.39v-2.41H46.1v2.41Zm1.87-5.9a17.44,17.44,0,0,0-3.14-2.88l.88-.6a17.53,17.53,0,0,1,3.2,2.79Z"/><path d="M456.4,285.67a2.57,2.57,0,0,0,.82-.11l.9.55a3.83,3.83,0,0,0-.31.67,10.89,10.89,0,0,1-1.94,3.74,9.9,9.9,0,0,1-4.4,3l-1-.91a8.81,8.81,0,0,0,4.41-2.74,8.35,8.35,0,0,0,1.67-3.25H453.1a11.41,11.41,0,0,1-2.78,2.68l-1-.71A9.41,9.41,0,0,0,452.8,285a5.2,5.2,0,0,0,.41-1l1.28.42c-.22.33-.45.75-.57,1s-.1.19-.17.29Zm.88-1.85a16,16,0,0,1,.89,1.51l-.73.31a13.22,13.22,0,0,0-.87-1.52Zm1.24-.47a13,13,0,0,1,.91,1.5l-.71.32a11.09,11.09,0,0,0-.9-1.52Z"/><path d="M467.94,287.44a3.29,3.29,0,0,0-.17.37,7.89,7.89,0,0,1-1.62,3.09,8.13,8.13,0,0,1-3.94,2.34l-.86-1a7.44,7.44,0,0,0,3.85-2,5.2,5.2,0,0,0,1.22-2.2h-5.6c-.26,0-.75,0-1.17,0V287c.43,0,.85.08,1.17.08h5.63a2.2,2.2,0,0,0,.7-.1Zm-7.27-3a10.1,10.1,0,0,0,1,.06H466a10.42,10.42,0,0,0,1.08-.06v1.13c-.27,0-.71,0-1.09,0h-4.28c-.34,0-.74,0-1,0Z"/><path d="M473.61,290.33a10.47,10.47,0,0,0,3.82-4.15l.67,1.2a11.34,11.34,0,0,1-3.86,4A12.13,12.13,0,0,1,470,293l-.74-1.13A11.43,11.43,0,0,0,473.61,290.33Zm-.37-3.52-.87.89a25,25,0,0,0-2.75-2.33l.8-.86A22.27,22.27,0,0,1,473.24,286.81Z"/><path d="M481.38,287.21A35.57,35.57,0,0,1,486,289l-.48,1.19a30.78,30.78,0,0,0-4.17-1.71v3.4c0,.34,0,1,.08,1.41h-1.34a11.52,11.52,0,0,0,.09-1.41v-6.36a7.81,7.81,0,0,0-.1-1.23h1.35c0,.36-.09.84-.09,1.23Zm3.15-.53a10,10,0,0,0-1-1.68l.74-.32a13.42,13.42,0,0,1,1,1.66Zm1.43-.58a11,11,0,0,0-1-1.65l.74-.34a13.75,13.75,0,0,1,1,1.63Z"/><path d="M496.92,285.27c-.1.12-.27.33-.36.46a10.88,10.88,0,0,1-2.7,3L493,288a6.85,6.85,0,0,0,2.25-2.28h-6c-.43,0-.81,0-1.29.07V284.6a9.87,9.87,0,0,0,1.29.1h6.15a5.7,5.7,0,0,0,.92-.08Zm-4.44,1.46c0,2.87-.17,5-3.06,6.47l-1-.83a4.19,4.19,0,0,0,1.06-.54c1.57-1,1.83-2.4,1.83-4.22a4.91,4.91,0,0,0-.07-.88Z"/><path d="M497.54,287.8c.35,0,1,.07,1.63.07h6c.54,0,1,0,1.23-.07v1.35c-.24,0-.74,0-1.22,0h-6c-.62,0-1.26,0-1.63,0Z"/><path d="M516.78,285.85a3.75,3.75,0,0,0-.31.67,10.89,10.89,0,0,1-1.94,3.74,10,10,0,0,1-4.4,3l-1-.91a8.89,8.89,0,0,0,4.41-2.75,8.26,8.26,0,0,0,1.67-3.25h-3.43a11.46,11.46,0,0,1-2.79,2.68l-1-.71a9.34,9.34,0,0,0,3.45-3.64,4.87,4.87,0,0,0,.41-1l1.28.42c-.22.33-.45.76-.57,1s-.1.19-.15.27H515a2.58,2.58,0,0,0,.83-.11Z"/><path d="M494.66,304.56h-4.4v3h-1.08v-3h-4.31v-1h4.31V302h-3.63v-1h3.63v-3.49h1.08V301h3.8v1h-3.8v1.56h4.4Zm-7.65-4a11.07,11.07,0,0,0-1.19-2.45l.94-.36a10.53,10.53,0,0,1,1.25,2.4Zm6.73-2.51a23,23,0,0,1-1.42,2.46l-.92-.34a13.78,13.78,0,0,0,1.25-2.48Z"/><path d="M505.1,301.91a11.13,11.13,0,0,1-1.45,3.42c.32.85.69,1.28,1,1.28s.32-.31.38-1.39a2.75,2.75,0,0,0,.84.5c-.15,1.56-.51,1.85-1.31,1.85-.61,0-1.13-.48-1.55-1.39a7.68,7.68,0,0,1-1.57,1.42,7.18,7.18,0,0,0-.79-.7l.45-.29h-2.32v.53H498v-5.38h3.75v.69h-1.28v.63h1.24v2.12h-1.24v.67h1.36V306a7.53,7.53,0,0,0,.78-.88,19.93,19.93,0,0,1-.67-3.92h-4.46v1.9a7.86,7.86,0,0,1-1.07,4.49,3.81,3.81,0,0,0-.79-.53,6.78,6.78,0,0,0,.92-4v-2.76h5.34c0-.29,0-.58,0-.88H502V299h-2.63v.76h-1V299h-2.48v-.85h2.48v-.64h1v.64H502v-.64h1v.64h2.51V299h-2.51v.7h-.28c0,.23,0,.46,0,.68h1.62a5.44,5.44,0,0,0-1-.8l.62-.45a5.4,5.4,0,0,1,1.09.87l-.48.38h.92v.87h-2.76a20.08,20.08,0,0,0,.41,2.86,10,10,0,0,0,.85-2.35Zm-6.33.54v.63h1v-.63Zm2.22,1.28h-2.22v.81H501Zm-2.22,2.15h1v-.67h-1Z"/><path d="M511.27,302h-3v5.52h-1V298h4Zm-3-3.23v.78h2v-.78Zm2,2.4v-.86h-2v.86Zm6,5c0,.64-.14.95-.56,1.12a6.75,6.75,0,0,1-2.12.19,3.66,3.66,0,0,0-.36-1.06c.73,0,1.5,0,1.72,0s.29-.08.29-.27v-4.2h-3.1V298h4.15Zm-3.17-7.45v.78h2.12v-.78Zm2.12,2.42v-.88h-2.12v.88Z"/><path d="M346.33,221.75c0,.38,0,1.33,0,1.42h-1.2c0-.05,0-.31,0-.62h-5.7c0,.3,0,.56,0,.62h-1.19c0-.1,0-1,0-1.42v-5.4c0-.29,0-.66,0-1,.43,0,.78,0,1.06,0h7c0,.3,0,.64,0,.95Zm-6.86-5.24v5h5.71v-5Z"/><path d="M348.68,218.14c.35,0,1,.07,1.63.07h6c.54,0,1,0,1.23-.07v1.35c-.24,0-.74,0-1.22,0h-6c-.62,0-1.26,0-1.63,0Z"/><path d="M360.12,215c.51.74,1.47,2.42,1.87,3.16l-1.13.64a26.4,26.4,0,0,0-1.84-3.23Zm4.31,4.46a9.15,9.15,0,0,0,1.34-3.48,6.23,6.23,0,0,0,.11-1.08l1.39.19c-.1.35-.21.8-.26,1A11.19,11.19,0,0,1,365.5,220a9.45,9.45,0,0,1-3.87,3.39l-1-.89A8.39,8.39,0,0,0,364.43,219.46Z"/><path d="M372.74,220.67a10.47,10.47,0,0,0,3.82-4.15l.67,1.2a11.34,11.34,0,0,1-3.86,4,12.13,12.13,0,0,1-4.21,1.64l-.74-1.13A11.44,11.44,0,0,0,372.74,220.67Zm-.37-3.52-.87.89a25.06,25.06,0,0,0-2.75-2.33l.8-.86A22.27,22.27,0,0,1,372.36,217.15Z"/><path d="M511.09,176a4.36,4.36,0,0,0-.17.61,10.74,10.74,0,0,1-1.25,4.1,7.84,7.84,0,0,1-4.17,3.11l-1-1a7,7,0,0,0,4.07-2.73,8.24,8.24,0,0,0,1-3.52h-5.72v2a7.67,7.67,0,0,0,0,.79h-1.26c0-.3,0-.55,0-.79v-2.34c0-.26,0-.55,0-.81.31,0,.75,0,1.24,0h5.48a4,4,0,0,0,.85-.07Z"/><path d="M519.2,183.54c0-.15,0-.36,0-.59H514c-.45,0-1,0-1.32,0v-1.24c.32,0,.8.06,1.28.06h5.27V176.9h-5.14c-.43,0-1,0-1.28,0v-1.21c.38,0,.91.07,1.28.07h5.47l.88,0c0,.24,0,.64,0,.92v5.69c0,.38,0,.92,0,1.17Z"/><path d="M523,178.47c.35,0,1,.07,1.63.07h6c.54,0,1,0,1.23-.07v1.35c-.24,0-.74,0-1.22,0h-6c-.62,0-1.26,0-1.63,0Z"/><path d="M532.91,183a5.18,5.18,0,0,0,1.89-2.67,19.06,19.06,0,0,0,.32-4.39,3.46,3.46,0,0,0-.09-.89h1.28a8,8,0,0,0-.06.88,24.11,24.11,0,0,1-.34,4.7,6.19,6.19,0,0,1-2,3.08Zm5.06.1a3.18,3.18,0,0,0,.08-.69v-6.51a8,8,0,0,0-.07-.88h1.28a6.69,6.69,0,0,0-.05.88V182a7.75,7.75,0,0,0,3-2.53l.66.95a11.55,11.55,0,0,1-3.74,3,2.26,2.26,0,0,0-.42.28Z"/><path d="M260.1,179.41a6.12,6.12,0,0,1-3.5,3.85,3.16,3.16,0,0,0-.61-.85,5.26,5.26,0,0,0,2.78-2.32h-2.37v-.91h2.86l.18,0Zm5.47-.25a26.1,26.1,0,0,1-2.37,1.6,7,7,0,0,0,3,1.57,3.86,3.86,0,0,0-.66.9,7.33,7.33,0,0,1-4-2.89v2.13c0,.55-.11.81-.51,1a6.06,6.06,0,0,1-1.83.15,3.59,3.59,0,0,0-.33-.95c.62,0,1.24,0,1.41,0s.23,0,.23-.2v-4h-3.19v-4.08h2.71a7.65,7.65,0,0,0,.44-1l1.21.2c-.17.27-.33.55-.5.8h3.64v4.08h-3.29v.14a6.38,6.38,0,0,0,1,1.51,15.14,15.14,0,0,0,2.09-1.63Zm-7.16-3.08h5.42v-.86H258.4Zm0,1.62h5.42v-.87H258.4Z"/><path d="M277,182.46v.84h-8.11v-.84h3.5v-1h-2.71v-.81h2.71v-.8l-2.9.12-.05-.83,1.2,0c.21-.32.44-.69.63-1h-2a11.69,11.69,0,0,1-1.28,5.51,4.12,4.12,0,0,0-.91-.53c1.08-1.73,1.18-4.2,1.18-6V174h8.17v2.63h-7.15v.6h7.45v.83h-2a11.38,11.38,0,0,1,2,1.67l-.83.55a6.41,6.41,0,0,0-.55-.57l-1.94.09v.84h2.79v.81h-2.79v1Zm-7.75-7.61v1h6.12v-1Zm3.15,3.22c-.23.34-.46.69-.69,1l2.76-.09c-.26-.2-.53-.4-.78-.56l.58-.36Z"/><path d="M31.45,286.44a11.81,11.81,0,0,1-2.54,4.25,10.26,10.26,0,0,0,4.32,2,5.54,5.54,0,0,0-.74,1,10.78,10.78,0,0,1-4.45-2.27,12.69,12.69,0,0,1-4.37,2.29,5.37,5.37,0,0,0-.65-1,11.45,11.45,0,0,0,4.24-2,12.48,12.48,0,0,1-2.47-4.28H23.2v-1h4.39v-1.8h1v1.8h4.46v1Zm-5.53,0A10,10,0,0,0,28.11,290a9.72,9.72,0,0,0,2.14-3.52Z"/><path d="M43.27,289.35a.24.24,0,0,0,.17,0s.08-.08.09-.2,0-.43,0-.8a1.89,1.89,0,0,0,.59.31,5.83,5.83,0,0,1-.11,1,.55.55,0,0,1-.3.34.81.81,0,0,1-.45.11h-.44a.85.85,0,0,1-.58-.21c-.14-.13-.2-.32-.2-.92V287h-.76a5,5,0,0,1-.17,1,5.11,5.11,0,0,1,.87.62l-.5.63a4.53,4.53,0,0,0-.66-.52,4,4,0,0,1-1.45,1.5,2.25,2.25,0,0,0-.36-.37c-1.68.13-3.41.25-4.63.32l-.05-.62,2-.1V289H34.84v-.55h1.51V288h.78a1.23,1.23,0,0,1,0-.38v-.25h-.84c-.18.62-.62,1-1.65,1.16a1.62,1.62,0,0,0-.36-.5c.81-.12,1.18-.31,1.33-.66H34.42v-.56h1.93v-.37H34.94v-.55h1.41v-.32h.87v.32h1.4v.55h-1.4v.37h1.9v.56h-1.4v.25c0,.16,0,.19.18.19h.51c.14,0,.19,0,.21-.32a1.59,1.59,0,0,0,.53.19c-.05.47-.24.61-.63.61h-.7a.85.85,0,0,1-.58-.13v.4h1.53V289H37.23v.41l1.87-.1v.2a3.37,3.37,0,0,0,1.07-1.21c-.33-.18-.66-.35-1-.5l.45-.56c.25.1.52.23.79.36a4.1,4.1,0,0,0,.09-.61H39.36v-.75h1.18v-.7h.79v.7h1.58V289c0,.21,0,.32,0,.34s.07.05.12.05Zm-9,2.11H44v.62H41.43a10.48,10.48,0,0,1,2.18,1.33l-.7.47a8.23,8.23,0,0,0-.73-.56c-2.63.17-5.39.31-7.22.4l-.11-.69,1.47-.05a10.09,10.09,0,0,0,.56-.89H34.24ZM36.8,285H34.29v-.74H36.8v-.67h1v.67h2.63v-.67h1v.67H44V285H41.42v.44h-1V285H37.79v.44h-1Zm5.9,5.34V291H35.61v-.62Zm-4.77,1.69c-.22.3-.44.59-.65.85,1.22,0,2.6-.11,4-.18-.27-.14-.54-.28-.79-.38l.48-.29Z"/><path d="M52.71,288.42a6.59,6.59,0,0,0,2.6,1.91,3.33,3.33,0,0,0-.68.84,7,7,0,0,1-1.61-1v3.53H52v-.31H48.29v.35h-1v-3.46a8.56,8.56,0,0,1-1.65,1.11,2.64,2.64,0,0,0-.66-.81,7.59,7.59,0,0,0,2.68-2.15H45.23v-.85h3c.13-.24.25-.48.36-.73H46.17V286h2.75c.08-.23.14-.47.2-.71h-3.3v-.84h3.47c0-.28.07-.56.09-.84l1,.08c0,.25-.06.51-.09.76h4.11v.84H50.16c-.05.24-.12.47-.19.71h4.1v.81H51.69a7.83,7.83,0,0,0,.4.73H55v.85ZM52,290H48.29v.9H52Zm0,2.61v-1H48.29v1Zm-3.06-4.15c-.17.25-.34.5-.53.74H52a9,9,0,0,1-.54-.74Zm.79-1.57c-.1.24-.2.48-.32.73H51a7.24,7.24,0,0,1-.33-.73Z"/><path d="M59.77,290.34c-.15-.31-.48-.86-.78-1.32v4.74H58v-4.53A10.9,10.9,0,0,1,56.44,292a5.19,5.19,0,0,0-.52-1,10.81,10.81,0,0,0,1.86-3.25H56.17v-.95H58v-1.58c-.52.1-1,.19-1.52.24a3.36,3.36,0,0,0-.3-.79,19.39,19.39,0,0,0,3.59-.88l.66.79A11.17,11.17,0,0,1,59,285v1.79h1.51v.95H59v.2c.26.27,1.17,1.34,1.35,1.62Zm3.88-6.67c0,1.51,0,2.9-.13,4.19.37,2.32,1.14,4.2,2.75,5.06a3.59,3.59,0,0,0-.64.8,6,6,0,0,1-2.49-3.61,5.75,5.75,0,0,1-2.62,3.64,2.86,2.86,0,0,0-.68-.74c2.94-1.71,2.85-5,2.86-9.35Zm-3.33,5.21a6.31,6.31,0,0,0,.75-2.82l.88.12a6.74,6.74,0,0,1-.75,3ZM66,286.31a28.29,28.29,0,0,1-1.22,2.87l-.86-.25A17.59,17.59,0,0,0,65,286Z"/><path d="M85.83,188.58a8.16,8.16,0,0,1-1.73,2.68,9.58,9.58,0,0,0,4.28,1.67,4.9,4.9,0,0,0-.68,1A9.53,9.53,0,0,1,83.29,192a11.73,11.73,0,0,1-4.4,2,5.71,5.71,0,0,0-.65-1,10.82,10.82,0,0,0,4.28-1.73,8.74,8.74,0,0,1-1.62-2.63l1-.3a6.64,6.64,0,0,0,1.43,2.23,6.32,6.32,0,0,0,1.43-2.29Zm-3.56-1.79a11.63,11.63,0,0,1-3,2.72,8.61,8.61,0,0,0-.85-.8,8.45,8.45,0,0,0,2.83-2.31Zm5.82-.62H78.49v-1h4.25v-1.36h1.06v1.36h4.29Zm-2.78.15a16.37,16.37,0,0,1,2.92,2.38l-.9.7a16.5,16.5,0,0,0-2.85-2.46Z"/><path d="M95.76,187.68a11.09,11.09,0,0,0,3.67,1.77,3.91,3.91,0,0,0-.67.86c-.3-.1-.61-.21-.9-.34v3.92h-1v-.32h-5v.36h-1v-4c-.34.17-.69.31-1,.43a3.94,3.94,0,0,0-.65-.79,10.92,10.92,0,0,0,3.55-1.89H89.47v-.86h2.26a6.62,6.62,0,0,0-.73-1.24l.58-.22-1.28,0a3.27,3.27,0,0,0-.21-.79,51.18,51.18,0,0,0,7.45-.68l.66.74a30.9,30.9,0,0,1-3.44.48v1.67h1.38l-.35-.11a11,11,0,0,0,.83-1.65l1.11.3c-.32.52-.66,1.07-.95,1.46h2.35v.86Zm1.49,2a10.08,10.08,0,0,1-2.49-1.78v1.6h-1v-1.55a11.08,11.08,0,0,1-2.39,1.74Zm-3.46.8H91.85v.77h1.94Zm-1.94,2.3h1.94v-.83H91.85Zm1.9-7.54-1.79.11a5.3,5.3,0,0,1,.77,1.3l-.45.18h1.47Zm3.09,5.24H94.75v.77h2.09Zm0,2.3v-.83H94.75v.83Z"/><path d="M162.46,47.92a7.7,7.7,0,0,1-1.25,2.71,5.51,5.51,0,0,0,3.61.92h3.42a3,3,0,0,0-.37.92h-3.08c-1.77,0-3.15-.24-4.16-1.17a6.25,6.25,0,0,1-2,1.38,2.87,2.87,0,0,0-.58-.77,6,6,0,0,0,2-1.29,5.92,5.92,0,0,1-.67-1.32,7.16,7.16,0,0,1-.81.89,6.19,6.19,0,0,0-.63-.73A6.55,6.55,0,0,0,159.66,47H158.2v-.83H160v-.67h-1.54v-.76H160v-.62h-1.66v-.78H160v-.79h.89v.79h1.61v.78h-1.61v.62h1.46v.37a6.18,6.18,0,0,0,1.47-2.55l.89.2a7.2,7.2,0,0,1-.38,1H168s0,.32,0,.44c-.09,4.58-.17,6.09-.46,6.53a.93.93,0,0,1-.71.43,5.91,5.91,0,0,1-1.11,0,2.22,2.22,0,0,0-.25-.87c.41,0,.75,0,.93,0a.27.27,0,0,0,.32-.17c.21-.3.3-1.68.37-5.59h-3.14a9.25,9.25,0,0,1-.6.86l.27-.09a5.19,5.19,0,0,1,.51,1.34l-.67.22a5,5,0,0,0-.42-1.3c-.18-.13-.45-.31-.64-.42v.29h-1.46v.67h1.77V47h-2.06c-.09.23-.19.46-.3.68h1.41l.15,0Zm-2.56.56a5.38,5.38,0,0,0,.69,1.47,5.94,5.94,0,0,0,.77-1.49H159.9Zm4.48,2.4V48.67A7,7,0,0,1,163,50.41a3.1,3.1,0,0,0-.59-.62,6.39,6.39,0,0,0,1.74-2H162.7v-.75h1.67V45h.73v2.06h1.57v.75h-1.45c.4.3,1.19.95,1.4,1.12l-.44.74a14.87,14.87,0,0,0-1.08-1.2v2.41Zm2.24-5.38c-.22.51-.47,1-.68,1.42l-.61-.19a9.58,9.58,0,0,0,.61-1.43Z"/><path d="M174.15,50.6h-3.83v.84h-.87V43.09h4.7ZM170.33,44v2.35h1.06V44Zm0,5.72h1.06V47.23h-1.06ZM173.26,44H172.2v2.35h1.07Zm0,5.72V47.23H172.2V49.7Zm6-4.88h-1.49v6.59c0,.59-.13.9-.55,1.08a6.79,6.79,0,0,1-2.11.18,3.65,3.65,0,0,0-.35-1c.73,0,1.47,0,1.69,0s.27-.07.27-.25V44.82h-2.33v-1h4.86Z"/><path d="M190,49.67h-4.33V51.5c0,.56-.14.85-.59,1a7.67,7.67,0,0,1-2.06.15,5.5,5.5,0,0,0-.43-1c.77,0,1.54,0,1.76,0s.27-.05.27-.22v-1.8h-4.29v-.95h4.29V48h.52a8.77,8.77,0,0,0,1.24-.83h-4.18v-.89h5.16l.22-.05.66.5a9.9,9.9,0,0,1-2.57,1.89v.14H190Zm-8.53-2.81h-1V44.34h1.58a7,7,0,0,0-.86-1.26l.88-.4a6.77,6.77,0,0,1,1,1.47l-.4.19h2a8.12,8.12,0,0,0-.77-1.51l.89-.33a6.55,6.55,0,0,1,.89,1.63l-.54.21h1.86a11.58,11.58,0,0,0,1.07-1.72l1.08.34c-.32.47-.68,1-1,1.38h1.59v2.52h-1V45.24h-7.35Z"/><path d="M200.71,43v9.65h-1v-.43h-7.22v.43h-1V43Zm-1,8.3V43.94h-7.22v7.37Zm-.51-2.45a9.9,9.9,0,0,1-1.26.86,6.63,6.63,0,0,0,1.54.61,3.39,3.39,0,0,0-.54.65,6.65,6.65,0,0,1-2.55-1.5V51h-.9v-1.4a11.78,11.78,0,0,1-2.18,1.09,5.27,5.27,0,0,0-.57-.66,9.5,9.5,0,0,0,2.75-1.33H193.6V46.86h5.06v1.66Zm0-2.42H193v-.61h2.65v-.57h-2.07v-.59h2.07v-.55h.92v.55h2.18v.59h-2.18v.57h2.7Zm-4.77,1.74h3.3v-.75h-3.3Zm2.16.56a4.36,4.36,0,0,0,.75.64c.3-.2.62-.43.89-.65h-1.64Z"/><path d="M166.4,60.14A8.9,8.9,0,0,1,164.76,64a20.43,20.43,0,0,1,3.08,1.78l-.77.95a19.81,19.81,0,0,0-3.14-1.89,10.34,10.34,0,0,1-5.1,1.87,3.24,3.24,0,0,0-.54-1,10.1,10.1,0,0,0,4.51-1.42c-.74-.34-1.49-.66-2.2-.92l-.22.47-1-.37c.43-.88,1-2.07,1.47-3.3H158.2v-1h3c.35-.88.69-1.76,1-2.54l1.11.2c-.28.73-.59,1.53-.91,2.34h5.67v1Zm-4.42,0c-.33.79-.66,1.57-1,2.29.85.3,1.77.66,2.67,1.06a7.12,7.12,0,0,0,1.55-3.34Z"/><path d="M179.1,62.4h-4.43v3c0,.63-.15.92-.62,1.1a7.61,7.61,0,0,1-2.21.18,4.34,4.34,0,0,0-.44-1.06c.83,0,1.65,0,1.9,0s.3-.07.3-.25v-3h-4.44v-1h4.44V59.63h.59a12.88,12.88,0,0,0,1.94-1.34h-5.84v-1h6.92l.23-.07.77.58a16.5,16.5,0,0,1-3.54,2.66v.91h4.43Z"/><path d="M189.86,57.54v.89h-9.49v-.89h4.17v-1h1v1Zm-.37,8c0,.52-.11.8-.48,1a5.51,5.51,0,0,1-1.82.17,3.69,3.69,0,0,0-.32-.95h-2.94v.53H183V63.32h4.16v2.38a9.3,9.3,0,0,0,1,0c.18,0,.23,0,.23-.19V62.71h-6.63v3.95h-1V61.85h8.66ZM188.08,59v2.3h-5.92V59Zm-1,.7h-3.89v.89H187ZM186.29,64h-2.35V65h2.35Z"/><path d="M196.12,60.33a1.28,1.28,0,1,1-1.28,1.28A1.28,1.28,0,0,1,196.12,60.33Z"/><path d="M211.56,58.49v5.26h-1.07v-.59h-2.86v3.5h-1.07v-3.5h-2.85v.65h-1V58.49h3.87V56.57h1.07v1.91Zm-5,3.66V59.49h-2.85v2.66Zm3.93,0V59.49h-2.86v2.66Z"/><path d="M242.66,36.92a7.7,7.7,0,0,1-1.25,2.71,5.51,5.51,0,0,0,3.61.92h3.42a3,3,0,0,0-.37.92H245c-1.77,0-3.15-.24-4.16-1.17a6.25,6.25,0,0,1-2,1.38,2.87,2.87,0,0,0-.58-.77,6,6,0,0,0,2-1.29,5.92,5.92,0,0,1-.67-1.32,7.16,7.16,0,0,1-.81.89,6.19,6.19,0,0,0-.63-.73A6.55,6.55,0,0,0,239.85,36H238.4v-.83h1.82v-.67h-1.54v-.76h1.54v-.62h-1.66v-.78h1.66v-.79h.89v.79h1.61v.78h-1.61v.62h1.46v.37A6.18,6.18,0,0,0,244,31.57l.89.2a7.2,7.2,0,0,1-.38,1h3.63s0,.32,0,.44c-.09,4.58-.17,6.09-.46,6.53a.93.93,0,0,1-.71.43,5.91,5.91,0,0,1-1.11,0,2.22,2.22,0,0,0-.25-.87c.41,0,.75,0,.93,0a.27.27,0,0,0,.32-.17c.21-.3.3-1.68.37-5.59h-3.14a9.25,9.25,0,0,1-.6.86l.27-.09a5.19,5.19,0,0,1,.51,1.34l-.67.22a5,5,0,0,0-.42-1.3c-.18-.13-.45-.31-.64-.42v.29h-1.46v.67h1.77V36h-2.06c-.09.23-.19.46-.3.68h1.41l.15,0Zm-2.56.56a5.38,5.38,0,0,0,.69,1.47,5.94,5.94,0,0,0,.77-1.49H240.1Zm4.48,2.4V37.67a7,7,0,0,1-1.41,1.74,3.1,3.1,0,0,0-.59-.62,6.39,6.39,0,0,0,1.74-2H242.9v-.75h1.67V34h.73v2.06h1.57v.75h-1.45c.4.3,1.19.95,1.4,1.12l-.44.74a14.87,14.87,0,0,0-1.08-1.2v2.41Zm2.24-5.38c-.22.51-.47,1-.68,1.42l-.61-.19a9.58,9.58,0,0,0,.61-1.43Z"/><path d="M254.35,39.6h-3.83v.84h-.87V32.09h4.7ZM250.52,33v2.35h1.06V33Zm0,5.72h1.06V36.23h-1.06ZM253.46,33h-1.07v2.35h1.07Zm0,5.72V36.23h-1.07V38.7Zm6-4.88h-1.49v6.59c0,.59-.13.9-.55,1.08a6.79,6.79,0,0,1-2.11.18,3.65,3.65,0,0,0-.35-1c.73,0,1.47,0,1.69,0s.27-.07.27-.25V33.82h-2.33v-1h4.86Z"/><path d="M263.11,34.44a13,13,0,0,1-1.94,4.82,4.81,4.81,0,0,0-1-.54A10.66,10.66,0,0,0,262,34.23Zm2.81-2.73v8.59c0,.68-.18,1-.6,1.15a6.86,6.86,0,0,1-2.19.19,4.94,4.94,0,0,0-.41-1.07c.75,0,1.55,0,1.78,0s.31-.08.31-.3V31.71Zm2.51,2.43A17.85,17.85,0,0,1,270.53,39l-1.11.44a18.69,18.69,0,0,0-2-4.93Z"/><path d="M305.58,381.84a12.48,12.48,0,0,1-1.51,3.72c.23.91.5,1.45.79,1.45s.29-.53.32-1.73a2.33,2.33,0,0,0,.74.53c-.13,1.66-.41,2.15-1.19,2.15-.58,0-1-.54-1.35-1.44a8.14,8.14,0,0,1-1.71,1.55,5.33,5.33,0,0,0-.7-.7,7.18,7.18,0,0,0,2.11-2,30.4,30.4,0,0,1-.52-4.88h-2.39v1.34h2s0,.25,0,.36c0,2.49-.08,3.42-.27,3.71a.8.8,0,0,1-.58.32,5.19,5.19,0,0,1-1,0,2.34,2.34,0,0,0-.24-.85,5.8,5.8,0,0,0,.76,0,.27.27,0,0,0,.26-.13,9.17,9.17,0,0,0,.18-2.64h-1.14v.37c0,1.57-.2,3.7-1.37,5a3.48,3.48,0,0,0-.76-.64,4.51,4.51,0,0,0,1-2l-3,1.21-.33-1c.35-.11.77-.25,1.22-.42v-3.67h-1.07v-.95h1.07v-2.51h.95v2.51h1v.95h-1v3.33l1-.35.19.89a11.29,11.29,0,0,0,.21-2.38V379.6h3.3c0-.54,0-1.09,0-1.63h1c0,.55,0,1.09,0,1.63h1.2a8.68,8.68,0,0,0-1.08-1.18l.7-.43a6.38,6.38,0,0,1,1.2,1.25l-.54.35h.74v.92h-2.2c.06,1.35.17,2.59.31,3.61a11.3,11.3,0,0,0,.85-2.45Z"/><path d="M313.36,379.63V381h2.83v7h-1v-.62h-6.79V388h-1v-7h2.57v-1.41h-3v-1h9.66v1Zm1.79,6.8v-1.86a.91.91,0,0,1-.69.22h-1c-.91,0-1.11-.26-1.11-1.18V382h-1.4v.35a3.21,3.21,0,0,1-1.89,3.07,3.16,3.16,0,0,0-.68-.64v1.66ZM308.36,382v2.73A2.5,2.5,0,0,0,310,382.3V382Zm4-2.35h-1.41V381h1.41Zm2.81,2.35h-1.84v1.63c0,.25,0,.28.29.28h.74c.22,0,.26-.09.3-.72a1.88,1.88,0,0,0,.52.25Z"/><path d="M323.56,382.08a7.77,7.77,0,0,0,4.21,5,4,4,0,0,0-.76,1,8.42,8.42,0,0,1-4.25-5.07,7.61,7.61,0,0,1-4.25,5.07,3.59,3.59,0,0,0-.78-.86,6.84,6.84,0,0,0,4.13-5.12H318V381h4.09a27.56,27.56,0,0,0,.13-3h1.11a27.48,27.48,0,0,1-.15,3h4.43v1.06Z"/><path d="M338.61,385.09h-4.33v1.84c0,.56-.14.85-.59,1a7.66,7.66,0,0,1-2.06.15,5.5,5.5,0,0,0-.43-1c.77,0,1.54,0,1.76,0s.27-.05.27-.22v-1.8h-4.29v-.95h4.29v-.76h.52a8.61,8.61,0,0,0,1.24-.83h-4.18v-.89H336l.22-.05.66.49a9.9,9.9,0,0,1-2.57,1.89v.14h4.33Zm-8.53-2.8h-1v-2.52h1.58a6.92,6.92,0,0,0-.86-1.27l.88-.4a6.74,6.74,0,0,1,1,1.47l-.4.19h2a8.09,8.09,0,0,0-.77-1.51l.89-.33a6.54,6.54,0,0,1,.89,1.63l-.54.21h1.86A11.54,11.54,0,0,0,336.8,378l1.08.34c-.32.47-.68,1-1,1.38h1.59v2.52h-1v-1.62h-7.35Z"/><path d="M493,382v9.63h-1.09V391h-7v.54h-1V382Zm-1.09,8.14v-7.19h-7v7.19Zm-.52-1.69v.85h-5.86v-.85h2.39v-1.63h-1.95v-.87h1.95v-1.33h-2.23v-.9h5.49v.9h-2.3v1.33h2.06v.87h-2.06v1.63h1.52a7,7,0,0,0-1-1.2l.65-.35a7.71,7.71,0,0,1,1,1.14l-.67.41Z"/><path d="M504.35,390.11v1h-9.82v-1H500A32.19,32.19,0,0,0,501.4,385l1.17.22a44.69,44.69,0,0,1-1.47,4.92Zm-.33-5.58h-9.14v-1h4v-2h1.07v2H504Zm-6.72,5.13a16.91,16.91,0,0,0-1-4.37l1-.26a17,17,0,0,1,1.06,4.36Z"/><path d="M507,386.47a11.17,11.17,0,0,1-.93,5.12,3.68,3.68,0,0,0-.76-.47,10.09,10.09,0,0,0,.81-4.64v-3h2v-1.91h1v.62h2.37v.73h-2.37v.57H511l.15,0,.58.13a8.44,8.44,0,0,1-.48,1.69l-.73-.18a8.08,8.08,0,0,0,.23-.87H509v.57l1.32-.14.08.58-1.4.17v.2c0,.24.07.27.4.27h1.17c.23,0,.29-.07.32-.52a2,2,0,0,0,.64.21c-.07.67-.29.86-.86.86H509.3c-.86,0-1.08-.17-1.08-.83v-.11l-1,.11-.08-.59,1.08-.12v-.66H507Zm4.46,1.57c-.43.36-.89.74-1.29,1,.55.32,1.51.89,1.77,1.08l-.51.7c-.24-.22-.73-.6-1.19-.95a1.63,1.63,0,0,1-.45,1.4,1.25,1.25,0,0,1-.87.3l-.64,0a1.68,1.68,0,0,0-.24-.72,6.59,6.59,0,0,0,.71,0,.58.58,0,0,0,.47-.15,1.13,1.13,0,0,0,.24-.92,9.53,9.53,0,0,1-2.53,1.42,2.34,2.34,0,0,0-.4-.55,7.58,7.58,0,0,0,2.78-1.47,2.6,2.6,0,0,0-.17-.35,8.16,8.16,0,0,1-1.84,1,2.27,2.27,0,0,0-.37-.51,6.18,6.18,0,0,0,1.93-.89,2.7,2.7,0,0,0-.24-.26,8.23,8.23,0,0,1-1.23.5,2.7,2.7,0,0,0-.32-.52,7.33,7.33,0,0,0,1.88-.78h-1.72v-.67h4.32v.67h-1.71a5.21,5.21,0,0,1-.64.47,2.68,2.68,0,0,1,.58.7,9.71,9.71,0,0,0,1-1Zm1.5.9H512v-6.16h.91ZM515,381.8v8.55c0,.56-.11.86-.48,1a4.81,4.81,0,0,1-1.76.18,4.35,4.35,0,0,0-.32-1c.59,0,1.19,0,1.38,0s.22-.06.22-.22V381.8Z"/><path d="M519.9,388.09c-1.1.56-2.29,1.16-3.21,1.59l-.4-1c.4-.15.89-.36,1.43-.59v-3.28h-1.21v-1h1.21V381.6h.95v2.22h1.11v1h-1.11v2.86l1-.46Zm2.13-1.3a5,5,0,0,1-.41.66h4.6s0,.25,0,.39c-.18,2.2-.34,3.06-.64,3.39a1,1,0,0,1-.66.31,8.69,8.69,0,0,1-1.1,0,2,2,0,0,0-.23-.83,7.36,7.36,0,0,0,.86,0c.17,0,.25,0,.34-.12a5.73,5.73,0,0,0,.44-2.37h-.66a7.61,7.61,0,0,1-2.21,3.34,3.32,3.32,0,0,0-.74-.57,6.38,6.38,0,0,0,2.09-2.77h-.87a8.46,8.46,0,0,1-2.62,2.87,2.83,2.83,0,0,0-.68-.62,7.13,7.13,0,0,0,2.38-2.26H521a7.5,7.5,0,0,1-1.35,1.18,5.61,5.61,0,0,0-.69-.64,5.89,5.89,0,0,0,2.08-2H519.6v-.87h6.88v.87Zm3.67-1.4h-5.08v-3.61h5.08Zm-.95-2.87h-3.21v.72h3.21Zm0,1.41h-3.21v.73h3.21Z"/><path d="M390.36,233a7.49,7.49,0,1,1,7.49,7.49A7.5,7.5,0,0,1,390.36,233Zm14.45,0a7,7,0,1,0-7,7A7,7,0,0,0,404.81,233Zm-7.43-2.51h-1.73v-1a6.53,6.53,0,0,0,2.11-.7H399V237h-1.63Z"/><path d="M94.76,146.86a7.49,7.49,0,1,1,7.49,7.49A7.5,7.5,0,0,1,94.76,146.86Zm14.45,0a7,7,0,1,0-7,7A7,7,0,0,0,109.22,146.86Zm-7.43-2.51h-1.73v-1a6.53,6.53,0,0,0,2.11-.7h1.25v8.34h-1.63Z"/><path d="M390.36,208.3a7.49,7.49,0,1,1,7.49,7.49A7.5,7.5,0,0,1,390.36,208.3Zm14.45,0a7,7,0,1,0-7,7A7,7,0,0,0,404.81,208.3Zm-9.8,3.14c2.53-2.19,4.1-3.65,4.1-4.9a1.3,1.3,0,0,0-1.47-1.41,2.79,2.79,0,0,0-1.86.91l-.91-.88a3.94,3.94,0,0,1,2.95-1.31,2.57,2.57,0,0,1,2.88,2.54c0,1.5-1.54,3-3.35,4.69.48,0,1.09-.08,1.62-.08h2.08v1.38h-6Z"/><path d="M405.34,155.8a7.49,7.49,0,1,1-7.49-7.49A7.5,7.5,0,0,1,405.34,155.8Zm-.53,0a7,7,0,1,0-7,7A7,7,0,0,0,404.81,155.8Zm-5.06-2.5a2.3,2.3,0,0,0-1.52-.62c-1.17,0-2.15.75-2.23,3a3.12,3.12,0,0,1,2.16-1,2.39,2.39,0,0,1,2.63,2.61,2.75,2.75,0,0,1-2.93,2.77c-1.84,0-3.38-1.26-3.38-4.11,0-3.23,1.75-4.61,3.68-4.61a3.42,3.42,0,0,1,2.45,1Zm-.48,4a1.38,1.38,0,0,0-1.5-1.49,2.22,2.22,0,0,0-1.71.94c.18,1.46.86,2,1.82,2A1.41,1.41,0,0,0,399.28,157.35Z"/><path class="cls-15" d="M579.59,191.76c0,.66-.16,1-.6,1.17a6.63,6.63,0,0,1-2.24.2,4.54,4.54,0,0,0-.38-1.13c.78,0,1.59,0,1.82,0s.3-.07.3-.29v-6.54h-3.17a9.57,9.57,0,0,1-.19,1.48,36,36,0,0,1,3.18,3.17l-.91.73a28.73,28.73,0,0,0-2.62-2.82,6.37,6.37,0,0,1-2.78,3,4,4,0,0,0-.79-.84,5.08,5.08,0,0,0,3-4.73h-3.12v7.94h-1.12v-9h4.25v-2h1.15v2h4.26Z"/><path class="cls-15" d="M574.12,197.83v.89c0,2-.24,4.65-1.87,6.32a3.72,3.72,0,0,0-.83-.66,5.8,5.8,0,0,0,1.44-2.93c-1.14.54-2.34,1.1-3.29,1.54l-.42-1.13c.41-.14.92-.35,1.47-.58V198H569.4V197h1.24v-2.71h1V197h1.09V198h-1.09v2.82l1-.43.2.83a14.59,14.59,0,0,0,.18-2.55v-4.16h6.76v3.29Zm0-2.27v1.25h4.67v-1.25Zm5.83,6.12v3.39h-1v-.48h-3.74v.53h-1v-3.44h1v2h1.37V201.2h-2.05v-2.66h.9v1.78h1.15v-2.24h1v2.24h1.26v-1.78h.92v2.66h-2.18v2.47H579v-2Z"/><path class="cls-15" d="M572,214.61a3.15,3.15,0,0,0,2.78,1.26c1.36.06,4.11,0,5.64-.08a5.51,5.51,0,0,0-.36,1.09c-1.38.06-3.9.08-5.29,0a4,4,0,0,1-3.25-1.38c-.58.49-1.17,1-1.85,1.49l-.53-1.1a18.74,18.74,0,0,0,1.79-1.25v-2.87h-1.64v-1H572Zm-.53-5.55a9.22,9.22,0,0,0-2-2l.78-.7a9.52,9.52,0,0,1,2.05,1.87Zm2.71,6.18h-1V209.1h3.08c-.65-.31-1.37-.62-2-.86l.72-.6c.47.17,1,.38,1.55.61a9.77,9.77,0,0,0,1.32-.8h-4.64v-.88h5.67l.23-.06.67.54a11.86,11.86,0,0,1-2.29,1.63c.31.14.59.29.82.42h1.48v5.11c0,.5-.08.76-.43.91a4.57,4.57,0,0,1-1.61.16,3.07,3.07,0,0,0-.3-.9c.5,0,1,0,1.1,0s.18,0,.18-.19v-.84h-1.79v1.85h-1v-1.85h-1.73Zm0-5.31v.88h1.73v-.87Zm1.73,2.59v-.9h-1.73v.9Zm2.79-2.59h-1.79v.88h1.79Zm0,2.59v-.9h-1.79v.9Z"/><path class="cls-15" d="M573,218.56a19.75,19.75,0,0,0-.52,2.87,3.73,3.73,0,0,1,3-2.3c1.57,0,2.75,1.56,2.75,4.05,0,3.25-2,4.74-5,5.28l-.7-1.07c2.54-.38,4.45-1.33,4.45-4.2,0-1.81-.61-3-1.71-3-1.42,0-2.7,2.07-2.79,3.61a5.1,5.1,0,0,0,0,1.33l-1.14.08a14.41,14.41,0,0,1-.13-1.88,32.23,32.23,0,0,1,.34-3.74,9.88,9.88,0,0,0,.1-1.09Z"/><path d="M578.78,347V357h-1.19v-.73h-5.65v.78H570.8V347Zm-6.84,1.13V351h5.65v-2.93Zm5.65,7.08v-3h-5.65v3Z"/><path d="M572,367.23l2.82-.61.11,1.08c-1.85.44-3.83.9-5.3,1.24l-.33-1.15,1.56-.31v-9.19H572v3.51h2.54v1.09H572Zm6.69.66c.52,0,.59-.42.67-2.1a3.31,3.31,0,0,0,1,.49c-.12,2-.43,2.69-1.62,2.69h-1.85c-1.26,0-1.59-.41-1.59-1.86v-8.83h1.14v4.07a18,18,0,0,0,2.73-1.56l.8.95a26.83,26.83,0,0,1-3.54,1.7v3.68c0,.67.08.77.6.77Z"/><path d="M575.23,372.45a13.13,13.13,0,0,0,5.1,4.29,4.72,4.72,0,0,0-.72,1,14.47,14.47,0,0,1-1.43-.89v4.35H577v-.44h-4.46v.46h-1.14v-4.37a13.3,13.3,0,0,1-1.45.91,4.48,4.48,0,0,0-.68-.87,12.87,12.87,0,0,0,4.86-4.41Zm-1.51-1.64A13,13,0,0,1,570.5,374a8.4,8.4,0,0,0-.9-.8,9.89,9.89,0,0,0,3-2.75Zm3.81,5.55a13.85,13.85,0,0,1-2.81-2.82,12.87,12.87,0,0,1-2.71,2.82Zm-.54,3.39v-2.41h-4.46v2.41Zm1.87-5.9a17.4,17.4,0,0,0-3.14-2.88l.88-.6a17.53,17.53,0,0,1,3.2,2.79Z"/><path d="M575.25,391.09a8.92,8.92,0,0,1,1.82-1.79l.49.88a13.23,13.23,0,0,0-2.82,3.09,13.28,13.28,0,0,0-2.82-3.09l.49-.88a8.92,8.92,0,0,1,1.82,1.79v-8.91h1Z"/><path d="M574.24,10.3a8.89,8.89,0,0,1-1.82,1.79l-.49-.87a13.28,13.28,0,0,0,2.82-3.09,13.24,13.24,0,0,0,2.82,3.09l-.49.88a8.89,8.89,0,0,1-1.82-1.79v8.91h-1Z"/><path d="M579,29.93c.31,0,.37-.29.41-1.76a3.4,3.4,0,0,0,1.06.5c-.11,1.78-.4,2.36-1.36,2.36h-1.33c-1,0-1.37-.36-1.37-1.64V24.3h-2.47c-.28,2.94-1.13,5.42-4,6.9a3.63,3.63,0,0,0-.82-.9c2.58-1.27,3.35-3.41,3.59-6h-3V23.17h3.08c0-.91,0-1.86,0-2.84h1.21c0,1,0,1.93-.06,2.84h3.56V29.4c0,.47,0,.53.4.53Z"/><path d="M574.23,40.68l-3,.5v2h-1.05V41.35l-.8.13-.18-1.08,1-.14V33.05l.53.16a12.43,12.43,0,0,0,2.71-1l.94.79a16.39,16.39,0,0,1-3.12,1v1.19h2.59v1H571.2v1.25h2.69v1H571.2V40.1l3-.46Zm5.53-3A7.65,7.65,0,0,1,577.85,41a7.19,7.19,0,0,0,2.51,1.14,4.84,4.84,0,0,0-.72,1A7.2,7.2,0,0,1,577,41.79a9.43,9.43,0,0,1-3,1.43,3.56,3.56,0,0,0-.6-1A8.35,8.35,0,0,0,576.2,41a8,8,0,0,1-1.39-2.37l.67-.19h-1.13v-1h4.51l.19,0ZM576,34.37a3.25,3.25,0,0,1-1.49,3,3.49,3.49,0,0,0-.76-.76A2.35,2.35,0,0,0,575,34.35V32.65h3.67v2.88c0,.23,0,.35,0,.4a.31.31,0,0,0,.17,0h.26a.49.49,0,0,0,.22,0,.42.42,0,0,0,.12-.28,8.13,8.13,0,0,0,0-1,3,3,0,0,0,.83.44,5.38,5.38,0,0,1-.13,1.2.69.69,0,0,1-.38.43,1.37,1.37,0,0,1-.6.12h-.62a1.1,1.1,0,0,1-.73-.24c-.19-.17-.26-.4-.26-1.12V33.64H576Zm-.22,4.08A5.94,5.94,0,0,0,577,40.33a5.86,5.86,0,0,0,1.32-1.88Z"/><path d="M580.12,53.49v1.13H569.39V53.49h4.38V44.35H575v3.56h4.33V49H575v4.46Z"/><path d="M665.18,202.32v1.23H652v-1.23h5.91v-1.11h-4.26v-1.16h4.26V199h-5v-1.2h11.34V199h-4.92v1.06h4.27v1.16h-4.27v1.11Zm-1.48-5.45h-10.2v-5.43h3.9a12.18,12.18,0,0,0,.43-1.32l1.7.14c-.18.42-.37.81-.56,1.18h4.73Zm-1.46-4.33h-7.35v1.08h7.35Zm0,2.12h-7.35v1.13h7.35Z"/><path d="M660.48,212.44V214h3.64v4.88h-1.38v-.46H657v.48h-1.33V214h3.42v-1.51H654.9v-1.26h4.18v-1.47h-4.45v.48c0,2.56-.23,6.27-1.83,8.7a5.38,5.38,0,0,0-1.23-.73c1.53-2.29,1.65-5.58,1.65-8v-4.33h11.08v3.85h-3.82v1.47h4.69v1.26Zm-5.85-4h8.26v-1.38h-8.26Zm8.11,6.72H657v2h5.75Z"/><path class="cls-15" d="M436.21,319.25h-4.8v3.27h-1.18v-3.27h-4.7v-1.12h4.7v-1.7h-4v-1.1h4v-3.8h1.18v3.8h4.14v1.1h-4.14v1.7h4.8Zm-8.33-4.35a12,12,0,0,0-1.3-2.67l1-.4a11.46,11.46,0,0,1,1.37,2.61Zm7.34-2.74a25.17,25.17,0,0,1-1.55,2.69l-1-.37a15,15,0,0,0,1.37-2.7Z"/><path class="cls-15" d="M435.59,328.38a12.14,12.14,0,0,1-1.58,3.73c.35.92.75,1.39,1.09,1.39s.35-.34.42-1.51a3,3,0,0,0,.91.54c-.17,1.7-.55,2-1.43,2-.66,0-1.24-.53-1.69-1.51a8.39,8.39,0,0,1-1.71,1.55,7.84,7.84,0,0,0-.86-.77c.17-.1.34-.2.49-.31H428.7v.58h-.85v-5.86h4.09V329h-1.39v.68h1.36V332h-1.36v.73H432v.16a8.14,8.14,0,0,0,.85-1,21.67,21.67,0,0,1-.73-4.27h-4.86v2.08a8.56,8.56,0,0,1-1.16,4.89,4.15,4.15,0,0,0-.86-.58,7.39,7.39,0,0,0,1-4.33v-3h5.82c0-.31,0-.64,0-1h.23v-.55h-2.87V326h-1.1v-.83h-2.7v-.92h2.7v-.7h1.1v.7h2.87v-.7h1.12v.7h2.73v.92h-2.73v.77h-.3c0,.25,0,.5,0,.74h1.76a5.91,5.91,0,0,0-1-.88l.67-.49a5.87,5.87,0,0,1,1.19.95l-.53.42h1v.95h-3a22.08,22.08,0,0,0,.44,3.12,10.82,10.82,0,0,0,.92-2.57Zm-6.9.59v.68h1V329Zm2.42,1.39H428.7v.89h2.42Zm-2.42,2.34h1V332h-1Z"/><path class="cls-15" d="M430.33,340.52h-3.27v6H426V336.06h4.38ZM427.05,337v.85h2.23V337Zm2.23,2.61v-.94h-2.23v.94Zm6.55,5.5c0,.7-.16,1-.61,1.22a7.36,7.36,0,0,1-2.31.2,4,4,0,0,0-.4-1.15c.79,0,1.63,0,1.87,0s.31-.08.31-.3v-4.58h-3.38v-4.47h4.52ZM432.38,337v.85h2.32V337Zm2.32,2.64v-1h-2.32v1Z"/><path class="cls-15" d="M428.09,356a3.15,3.15,0,0,0,2.78,1.26c1.36.06,4.11,0,5.64-.08a5.51,5.51,0,0,0-.36,1.09c-1.38.06-3.9.08-5.29,0a4,4,0,0,1-3.25-1.38c-.58.49-1.17,1-1.85,1.49l-.53-1.1a18.72,18.72,0,0,0,1.79-1.25v-2.87h-1.64v-1h2.71Zm-.53-5.55a9.22,9.22,0,0,0-2-2l.78-.7a9.57,9.57,0,0,1,2.05,1.87Zm2.71,6.18h-1v-6.14h3.08c-.65-.31-1.37-.62-2-.86l.72-.6c.47.17,1,.38,1.55.61a9.58,9.58,0,0,0,1.32-.8h-4.64V348h5.67l.23-.06.67.54a11.85,11.85,0,0,1-2.29,1.63c.31.14.59.29.82.42h1.48v5.11c0,.5-.08.76-.43.91a4.54,4.54,0,0,1-1.61.16,3.06,3.06,0,0,0-.3-.9c.5,0,1,0,1.1,0s.18,0,.18-.19v-.84H433v1.85h-1v-1.85h-1.73Zm0-5.31v.88H432v-.88Zm1.73,2.59V353h-1.73v.9Zm2.79-2.59H433v.88h1.79Zm0,2.59V353H433v.9Z"/><path class="cls-15" d="M429.11,360a19.73,19.73,0,0,0-.52,2.87,3.73,3.73,0,0,1,3-2.3c1.57,0,2.75,1.56,2.75,4.05,0,3.25-2,4.74-5,5.28l-.7-1.07c2.54-.38,4.45-1.33,4.45-4.2,0-1.81-.61-3-1.71-3-1.42,0-2.7,2.08-2.79,3.61a5.1,5.1,0,0,0,0,1.33l-1.14.08a14.43,14.43,0,0,1-.13-1.88,32.21,32.21,0,0,1,.34-3.74,9.9,9.9,0,0,0,.1-1.09Z"/><path d="M34.76,7.57c-.06.56-.16,1.13-.26,1.67L41.2,7,43.6,14c.24.71.23,1.16-.21,1.53a7.72,7.72,0,0,1-2.4,1,5.22,5.22,0,0,0-.85-1.14c.85-.24,1.71-.53,1.94-.63s.29-.18.22-.39l-.41-1.22-5.55,1.88.94,2.77L36,18.35l-2.2-6.51a11.83,11.83,0,0,1-1.47,2.68,7.82,7.82,0,0,0-1.21-.73A12.43,12.43,0,0,0,33.3,8.07L29.95,9.2,29.53,8l3.89-1.32a16.09,16.09,0,0,0,0-2l1.46-.14c0,.54,0,1.09,0,1.63l7.06-2.39L42.35,5Zm5.53,1-5.55,1.88.42,1.24L40.71,9.8Zm1.21,3.58-.42-1.24-5.55,1.88L36,14Z"/><path d="M37.28,23.44a10.85,10.85,0,0,0-3-1.43l.65-1.08a10.41,10.41,0,0,1,3,1.34Zm1.63,1.13c-.81,1-1.72,2-2.46,2.89l-1-.87c.71-.7,1.74-1.84,2.77-3Zm5.87,2.29a13.22,13.22,0,0,0,5.66.86,5.86,5.86,0,0,0-.52,1.41,14,14,0,0,1-6.08-1.35L45,31.1l-1.34.45-1.14-3.37a14,14,0,0,1-3.9,4.89,6.8,6.8,0,0,0-1.25-.8,13.62,13.62,0,0,0,3.85-4.2l-4.4,1.49-.39-1.16,5.54-1.88-.37-1.08-2,.66-1.86-5.5L39.46,20c0-.51-.07-1.1-.14-1.54l1.52-.29c0,.48,0,1-.06,1.38l2.3-.78,1.17,3.45.39-.94a19.46,19.46,0,0,1,3.9.9l-.49,1.27a19.23,19.23,0,0,0-3.73-1l.62,1.82-2,.69.37,1.08,5.63-1.91.39,1.16Zm-5.05-4.4,2.84-1-.42-1.24-2.84,1Zm.75,2.22,2.84-1-.42-1.25-2.84,1Zm6-7.06a19.54,19.54,0,0,1-1.65,3.08l-1.2-.31a16.57,16.57,0,0,0,1.48-3.07Z"/><path d="M48.29,42.88l-4.94,1.67.37,1.08L42.59,46,38.94,35.23,45,33.18ZM40.45,36l1,3,1.36-.46-1-3ZM43,43.39l1.36-.46-1.08-3.2-1.36.46Zm1.29-8.67-1.38.47,1,3,1.38-.47Zm2.5,7.39-1.08-3.2-1.38.47,1.08,3.2Zm5.58-8.92-1.92.65,2.88,8.51c.26.77.22,1.22-.24,1.63a9.22,9.22,0,0,1-2.65,1.15A5,5,0,0,0,49.5,44c1-.27,1.91-.62,2.19-.73s.33-.21.25-.45l-2.88-8.5-3,1L45.61,34l6.28-2.13Z"/><path d="M48.71,55l2,5.9-1.16.39-2-5.81c-.75.3-1.44.6-2.06.84L45,55.16l1-.39c.14-.39.29-.84.42-1.3A14.38,14.38,0,0,0,44,52l.37-1.11.51.24a18,18,0,0,0,.27-3l1.31,0c-.17,1.13-.4,2.48-.64,3.43a9.15,9.15,0,0,1,.89.55,27.15,27.15,0,0,0,.58-2.92l1.26.13c-.37,1.53-.88,3.39-1.41,4.88l1.64-.67a11.09,11.09,0,0,0-.9-.88l.8-.71A12.27,12.27,0,0,1,51,54.53l-.85.81a8.59,8.59,0,0,0-.55-.78Zm-1.18,1.71a13.71,13.71,0,0,1,.3,3.92,7.18,7.18,0,0,0-1.12-.14,11.48,11.48,0,0,0-.33-3.59Zm11.15-4.35c-.47.81-1,1.69-1.51,2.38a6,6,0,0,0,3,1.13,5.4,5.4,0,0,0-.43,1.33A7.16,7.16,0,0,1,55.85,55l.79,2.33c.2.6.23,1-.12,1.29a5.06,5.06,0,0,1-1.78.82,5,5,0,0,0-.73-1c.57-.18,1.11-.36,1.28-.43s.2-.12.15-.27l-1.75-5.17-2.78.94-1.73-5.1,2.27-.77a13,13,0,0,0,0-1.63l1.58-.25c-.07.48-.16,1-.25,1.42L56,46.13l1.73,5.1-2.8.95,0,.1A10.18,10.18,0,0,0,56.32,54a15.21,15.21,0,0,0,1-2.09Zm-8.37,3.15a11.65,11.65,0,0,1,1.55,2.23l-.9.65a10.19,10.19,0,0,0-1.5-2.28Zm.76-5.39,4.33-1.47-.35-1-4.33,1.47ZM54,54a7.15,7.15,0,0,1-1.42,5.59A4.42,4.42,0,0,0,51.45,59a5.48,5.48,0,0,0,1.42-3.66l-1.68.57-.37-1.09L53,54l.17-.09Zm-2.25-1.92,4.33-1.47-.35-1L51.4,51.06Z"/><path d="M60.66,82.34a10.52,10.52,0,0,1-.44,4c1.49.56,3.15.26,5.06-.38.63-.21,3.61-1.22,4.41-1.51a4,4,0,0,0-.08,1.36l-4,1.35c-2.29.77-4.17,1.06-5.88.31a8.52,8.52,0,0,1-2,2.66,3.88,3.88,0,0,0-1.09-.74,8.19,8.19,0,0,0,2-2.54,8.17,8.17,0,0,1-1.44-1.41A9.67,9.67,0,0,1,56.58,87a8.52,8.52,0,0,0-1.13-.66,8.92,8.92,0,0,0,1.19-3.93L54.76,83,54.4,82l2.34-.79-.29-.87-2,.67-.33-1,2-.67-.27-.8-2.15.73-.34-1,2.15-.73-.35-1,1.15-.39.35,1,2.07-.7.34,1-2.07.7.27.79,1.89-.64.16.48a8.42,8.42,0,0,0,.79-3.94l1.24-.13a9.73,9.73,0,0,1-.06,1.47L66,74.58s.13.42.18.57C68,81.1,68.61,83.1,68.42,83.8a1.26,1.26,0,0,1-.74.87,8.11,8.11,0,0,1-1.43.52,3,3,0,0,0-.71-1c.54-.15,1-.28,1.22-.38s.31-.12.34-.35c.14-.48-.35-2.3-2-7.38l-4,1.37a12.49,12.49,0,0,1-.41,1.37l.32-.23a7.1,7.1,0,0,1,1.24,1.51l-.77.58a6.89,6.89,0,0,0-1.11-1.49c-.29-.09-.72-.2-1-.26l.13.37-1.89.64.29.87L60.18,80l.36,1.07-2.66.9c0,.34,0,.68-.09,1l1.82-.62.19-.1ZM57.6,84.19a7.39,7.39,0,0,0,1.54,1.6,8,8,0,0,0,.34-2.25l-1.89.64Zm6.83,1.14-1-2.86a9.57,9.57,0,0,1-1.06,2.86,4.29,4.29,0,0,0-1-.54,8.72,8.72,0,0,0,1.38-3.32l-1.82.62-.33-1,2.16-.73-.9-2.66.94-.32.9,2.66,2-.69.33,1L64.18,81c.64.21,1.95.7,2.29.84L66.23,83a20.63,20.63,0,0,0-1.92-1.08L65.36,85ZM65,77.39c-.06.75-.15,1.56-.26,2.13l-.86,0A13.17,13.17,0,0,0,64,77.44Z"/><path d="M67.54,99.71l-4.94,1.67.37,1.08-1.12.38L58.19,92.06,64.26,90ZM59.7,92.83l1,3,1.36-.46-1-3Zm2.5,7.39,1.36-.46-1.08-3.2L61.12,97Zm1.29-8.67L62.12,92l1,3,1.38-.47ZM66,98.93l-1.08-3.2-1.38.47,1.08,3.2ZM71.58,90l-1.92.65,2.88,8.51c.26.77.23,1.22-.24,1.63A9.27,9.27,0,0,1,69.65,102a5,5,0,0,0-.9-1.17c1-.28,1.91-.62,2.19-.73s.33-.21.24-.45l-2.88-8.5-3,1-.44-1.29,6.28-2.13Z"/><path d="M70.75,110.61s.1.35.14.51c1,3.5,1.27,4.83,1.07,5.39a1.14,1.14,0,0,1-.66.68,7.82,7.82,0,0,1-1.29.45,2.93,2.93,0,0,0-.64-1,8.39,8.39,0,0,0,1-.29.49.49,0,0,0,.34-.29,3.86,3.86,0,0,0-.19-1.68l-.41.34a8,8,0,0,0-1.36-1.58l.5-.39A8.44,8.44,0,0,1,70.45,114c-.13-.53-.3-1.17-.53-1.94l-4.29,1.45-2.52-7.44,5.29-1.79.37,1.09-1.9.65.36,1.05,1.65-.56.35,1-1.65.56.37,1.08,1.65-.56.35,1-1.65.56.37,1.09Zm-6.14-3.83.36,1.05,1.16-.39-.36-1.05Zm1.87,1.69-1.17.39.37,1.08,1.17-.39Zm-.33,9.23a7.08,7.08,0,0,0-.35-3.46l.8-.11a7.57,7.57,0,0,1,.39,3.73Zm.25-5.63,1.17-.39-.37-1.09L66,111Zm1.13,1.83a16,16,0,0,1,1.07,2.5l-.63.33a16.22,16.22,0,0,0-1-2.54Zm1.64,1.93a11.32,11.32,0,0,0-1.27-2.12l.57-.33a11.24,11.24,0,0,1,1.31,2.09Zm5.72-7.1c1.24,2.3,2.76,4.07,4.65,4.56a4.1,4.1,0,0,0-.49,1.35c-2.24-.67-3.87-2.71-5.33-5.51l-1,.34c.68,2.15,1.31,4.91.68,7.07a5.14,5.14,0,0,0-1.3-.32c.65-2.23-.14-4.89-.83-6.94l-1.82-5.37L75,102l2,6Zm-3.81-4,1.2,3.55,3.15-1.07-1.2-3.55Z"/><path d="M109,364.91a9.17,9.17,0,0,1-2.06,3.08,6.85,6.85,0,0,0-.88-.61,7,7,0,0,0,1.8-2.77Zm4.71-1.06v4.71c0,.6-.12.92-.54,1.1a5.13,5.13,0,0,1-1.88.19,4.09,4.09,0,0,0-.38-1.12c.61,0,1.22,0,1.4,0s.23,0,.23-.2v-4.7H111v.62a6,6,0,0,1-2.6,5.48,3.93,3.93,0,0,0-.84-.83,5,5,0,0,0,2.33-4.68v-.6h-3.54v-1.08H111v-1.49h-3.49v-1.06H111v-1.34h1.14v1.34H116v1.06h-3.81v1.49H117v1.08Zm1.66.68a17.87,17.87,0,0,1,1.91,3l-1.07.52a16.62,16.62,0,0,0-1.83-3.07Z"/><path d="M110.06,378.29l-3.59,1.62-.42-1.13c.43-.16,1-.36,1.57-.6v-3.48H106.3v-1.06h1.33V371h1v2.67h1.16v1.06h-1.16v3.06l1.14-.48Zm6.73-3.72a10.86,10.86,0,0,1-2,4.7,7.08,7.08,0,0,0,2.51,1.56,5,5,0,0,0-.77,1,7.54,7.54,0,0,1-2.52-1.7,8.6,8.6,0,0,1-2.57,1.71,3.92,3.92,0,0,0-.66-.94,7.22,7.22,0,0,0,2.49-1.64,11.72,11.72,0,0,1-1.64-3.29c-.08,1.91-.49,4.25-2,5.78a3.75,3.75,0,0,0-.85-.71c1.61-1.68,1.76-4.13,1.76-6v-3.62h6.5v1.06h-5.42v1.87h4.22l.19,0Zm-4.28.83a9.36,9.36,0,0,0,1.49,3,9,9,0,0,0,1.45-3Z"/><path d="M112.15,391.78A8.92,8.92,0,0,1,114,390l.49.88a13.23,13.23,0,0,0-2.82,3.09,13.28,13.28,0,0,0-2.82-3.09l.49-.88a8.92,8.92,0,0,1,1.82,1.79v-8.91h1Z"/><polyline class="cls-16" points="413.52 152.21 406.71 157.02 413.52 161.83"/><polyline class="cls-16" points="85.35 140.6 93 143.91 93.56 135.59"/><polyline class="cls-16" points="413.52 204.04 406.71 208.85 413.52 213.66"/><polyline class="cls-16" points="413.52 228.83 406.71 233.64 413.52 238.45"/></g><circle class="cls-15" cx="334.25" cy="346.93" r="8.17"/><path d="M311,332.72h-4.41v3.74h-1.06v-3.74h-4.36v-1h4.36v-3.61H301.8v-1h8.63v1h-3.79v3.61H311Zm-7.61-4.19a11,11,0,0,1,1,2.38l-1,.33a12,12,0,0,0-.91-2.42Zm4.26,2.43a14.76,14.76,0,0,0,1.08-2.48l1.09.3a21,21,0,0,1-1.29,2.46Z"/><path d="M314,331.42c-.44-.31-1.36-.85-2-1.19l.55-.75a20.11,20.11,0,0,1,2,1.09Zm-1.72,4.21a30.82,30.82,0,0,0,2.08-3.48l.75.67c-.57,1.14-1.31,2.46-1.95,3.5Zm9.9-7.61h-.81v7.05c0,.69-.18,1-.64,1.18a8.38,8.38,0,0,1-2.46.2,4.52,4.52,0,0,0-.41-1.09c.91.05,1.87,0,2.14,0s.34-.09.34-.33v-7h-5.26v-.32l-.59.78c-.44-.32-1.35-.86-2-1.23l.58-.74c.64.33,1.54.83,2,1.14V327h7.1Zm-5.6,5.35v.75h-.92v-4.73h3.5v4Zm0-3.06v2.15h1.64v-2.15Z"/><path d="M328.85,331.55a5.75,5.75,0,0,0,4.39,3.94,5.09,5.09,0,0,0-.69,1,6.32,6.32,0,0,1-4.36-3.81c-.53,1.5-1.75,2.9-4.5,3.82a3.87,3.87,0,0,0-.63-.91c3-1,4-2.49,4.3-4h-3.72v-1h3.84c0-.17,0-.33,0-.48V328.2h-4.18v-1h9.62v1h-4.36V330c0,.15,0,.32,0,.47h4.08v1Z"/><path d="M336,331.29a7.46,7.46,0,0,0-2-1.07l.54-.79a8.39,8.39,0,0,1,2,1Zm-1.68,4.42a33.45,33.45,0,0,0,1.77-3.51l.8.62c-.48,1.16-1.11,2.46-1.66,3.5Zm2.1-7.28a7.9,7.9,0,0,0-1.86-1.23l.6-.73a7.19,7.19,0,0,1,1.88,1.17Zm4.51,1.82v.8h2.89v4.37c0,.47-.09.74-.42.88a5,5,0,0,1-1.61.13,3.72,3.72,0,0,0-.25-.86c.51,0,1,0,1.13,0s.19,0,.19-.18V332h-2v2h.75v-1.48h.64v2.7h-.64v-.46h-2.23v.66h-.64v-2.89h.64V334h.7v-2h-2v4.5h-.91V331h2.77v-.8h-3.17v-.92h1.85v-1h-1.5v-.89h1.5v-1h1v1h1.74v-1h1v1h1.54v.89h-1.54v1h1.85v.92Zm-1.35-.92h1.74v-1h-1.74Z"/><path d="M354.75,327.34v2.58h-1v-1.65h-7.18v1.65h-1v-2.58h4v-1h1.08v1ZM350.67,332c-.08.29-.14.58-.21.85h3.41v3.58h-1.07V336h-5.25v.43h-1v-3.61h2.92c0-.28.07-.57.09-.85h-2.26v-2.89h5.67V332Zm2.13,1.73h-5.25v1.41h5.25Zm-4.55-2.56h3.67V329.9h-3.67Z"/></g><g id="文字"><path class="cls-17" d="M382.5,263.66a7.23,7.23,0,0,1-.57,3.08L375.68,280a2.09,2.09,0,0,1-.82.89,2.22,2.22,0,0,1-2.32,0,2,2,0,0,1-.8-.89l-6.27-13.3a7.23,7.23,0,0,1-.57-3.08,8.8,8.8,0,0,1,17.6,0Zm-5.69,3.11a4.4,4.4,0,1,0-3.11,1.29A4.24,4.24,0,0,0,376.81,266.77Z"/><path class="cls-17" d="M363.81,288.67c0-2.86,1.84-4.54,4-4.54a3.54,3.54,0,0,1,2.54,1.11l-.91,1.1a2.24,2.24,0,0,0-1.59-.73c-1.31,0-2.3,1.13-2.3,3s.89,3,2.26,3a2.41,2.41,0,0,0,1.79-.86l.91,1.08a3.51,3.51,0,0,1-2.77,1.28C365.59,293.13,363.81,291.56,363.81,288.67Z"/><path class="cls-17" d="M371.39,289.7a3.16,3.16,0,1,1,3.15,3.43A3.21,3.21,0,0,1,371.39,289.7Zm4.55,0c0-1.24-.5-2.05-1.39-2.05s-1.39.81-1.39,2.05.5,2,1.39,2S375.94,290.93,375.94,289.7Z"/><path class="cls-17" d="M378.73,289.7a3.28,3.28,0,0,1,3.35-3.46A2.87,2.87,0,0,1,384,287l-.82,1.11a1.5,1.5,0,0,0-1-.43c-1,0-1.68.81-1.68,2.05s.68,2,1.63,2a2,2,0,0,0,1.28-.53l.68,1.14a3.26,3.26,0,0,1-2.14.8A3.14,3.14,0,0,1,378.73,289.7Z"/><path class="cls-17" d="M384.56,289.7a3.16,3.16,0,1,1,3.15,3.43A3.21,3.21,0,0,1,384.56,289.7Zm4.55,0c0-1.24-.5-2.05-1.39-2.05s-1.39.81-1.39,2.05.5,2,1.39,2S389.11,290.93,389.11,289.7Z"/><path class="cls-17" d="M392.31,283.62H394v5.63h0l2.27-2.84h1.88l-2.27,2.68,2.48,3.88h-1.86l-1.59-2.72-.95,1.08V293h-1.68Z"/><path class="cls-17" d="M399.4,286.41h1.41l.12.87h0a3,3,0,0,1,2.13-1c1.42,0,2,1,2,2.64V293h-1.72v-3.88c0-1-.28-1.37-.93-1.37a1.89,1.89,0,0,0-1.37.74V293H399.4Z"/><path class="cls-17" d="M406.51,289.7a3.16,3.16,0,1,1,3.15,3.43A3.21,3.21,0,0,1,406.51,289.7Zm4.55,0c0-1.24-.5-2.05-1.39-2.05s-1.39.81-1.39,2.05.5,2,1.39,2S411.05,290.93,411.05,289.7Z"/><path class="cls-17" d="M414.17,290.67v-2.91h-.93v-1.28l1-.08.2-1.76h1.44v1.76h1.62v1.36H415.9v2.91c0,.75.3,1.1.89,1.1a1.92,1.92,0,0,0,.64-.14l.28,1.25a4.24,4.24,0,0,1-1.38.25C414.77,293.13,414.17,292.15,414.17,290.67Z"/><path class="cls-17" d="M418.09,292.21l.79-1.08a2.85,2.85,0,0,0,1.76.71c.66,0,.95-.28.95-.69s-.68-.71-1.37-1-1.79-.82-1.79-1.91,1-2,2.44-2a3.67,3.67,0,0,1,2.24.81l-.77,1a2.53,2.53,0,0,0-1.42-.56c-.59,0-.87.26-.87.63s.64.66,1.34.91c.87.33,1.83.76,1.83,2s-.9,2.07-2.61,2.07A4.14,4.14,0,0,1,418.09,292.21Z"/><path d="M438.55,91.62h-6v4.09h-1.47V91.62H425.2V90.22h5.88V88.09h-5V86.71h5V82h1.47v4.75h5.17v1.38h-5.17v2.13h6Zm-10.42-5.44a15,15,0,0,0-1.62-3.34l1.28-.5a14.39,14.39,0,0,1,1.71,3.27Zm9.18-3.42a31.26,31.26,0,0,1-1.93,3.36l-1.26-.46a18.76,18.76,0,0,0,1.71-3.37Z"/><path d="M437.79,103a15.15,15.15,0,0,1-2,4.67c.44,1.16.95,1.74,1.37,1.74s.43-.42.52-1.89a3.74,3.74,0,0,0,1.14.67c-.21,2.13-.69,2.52-1.79,2.52-.83,0-1.54-.66-2.12-1.89a10.51,10.51,0,0,1-2.14,1.93,9.67,9.67,0,0,0-1.08-1c.21-.12.42-.25.62-.39h-3.17v.72h-1.07v-7.33h5.12v.95h-1.74v.85h1.7v2.9h-1.7v.91h1.86v.2a10.05,10.05,0,0,0,1.06-1.2,27.13,27.13,0,0,1-.91-5.34h-6.08v2.6c0,1.88-.21,4.45-1.46,6.12a5.2,5.2,0,0,0-1.08-.72c1.14-1.54,1.26-3.74,1.26-5.42v-3.76h7.28c0-.39,0-.79-.06-1.2h.29V99H430v1h-1.38V99h-3.37V97.84h3.38V97H430v.87h3.58V97H435v.87h3.42V99H435v1h-.37c0,.31,0,.63,0,.93h2.21a7.35,7.35,0,0,0-1.3-1.09l.84-.62a7.39,7.39,0,0,1,1.49,1.18l-.66.53h1.26v1.18h-3.76a27.58,27.58,0,0,0,.55,3.9,13.54,13.54,0,0,0,1.16-3.21Zm-8.62.74v.85h1.3v-.85Zm3,1.74h-3v1.11h3Zm-3,2.92h1.3v-.91h-1.3Z"/><path d="M431.2,118.2h-4.09v7.53h-1.38V112.62h5.47Zm-4.09-4.41v1.06h2.79v-1.06Zm2.79,3.27v-1.17h-2.79v1.17Zm8.19,6.88c0,.87-.2,1.29-.76,1.53a9.22,9.22,0,0,1-2.9.25,5,5,0,0,0-.5-1.44c1,0,2,0,2.34,0s.39-.11.39-.37v-5.73h-4.23v-5.59h5.66Zm-4.32-10.15v1.06h2.9v-1.06Zm2.9,3.3v-1.2h-2.9v1.2Z"/><path d="M426.76,135.74a13.67,13.67,0,0,1-1,3.81,7,7,0,0,0-1-.5,11.49,11.49,0,0,0,.84-3.51Zm1.67-1.24v6.22H427.2v-6.13l-2.22.13-.14-1.21,1.05-.06c.25-.33.54-.7.81-1.09a14.35,14.35,0,0,0-1.79-2.11l.71-.93.41.39a17.89,17.89,0,0,0,1.21-2.73l1.23.45c-.52,1-1.17,2.22-1.71,3a9.1,9.1,0,0,1,.66.81,27,27,0,0,0,1.49-2.58l1.16.52c-.84,1.33-1.92,2.92-2.9,4.17l1.77-.1a11.11,11.11,0,0,0-.57-1.12l1-.42a12.26,12.26,0,0,1,1.39,3.1l-1.06.5a8.38,8.38,0,0,0-.27-.92Zm1.35,1a11.6,11.6,0,0,1,.75,2.61l-1.07.33a10.12,10.12,0,0,0-.69-2.64Zm4-.21a7.15,7.15,0,0,1-3.14,4.84,4.41,4.41,0,0,0-.87-1,5.48,5.48,0,0,0,2.52-3h-1.77V135h2.29l.19,0Zm5-.09c-.71.61-1.5,1.27-2.19,1.77a6,6,0,0,0,2.46,2,5.41,5.41,0,0,0-.84,1.13,7.16,7.16,0,0,1-3-3.25v2.46c0,.63-.09,1-.53,1.19a5.09,5.09,0,0,1-2,.21,5,5,0,0,0-.36-1.2c.6,0,1.17,0,1.35,0s.23,0,.23-.21v-5.46H431v-5.38h2.4a12.82,12.82,0,0,0,.55-1.53l1.58.27c-.23.43-.46.87-.69,1.26h3.32v5.38h-3V134a10.24,10.24,0,0,0,.78,2.07,15.22,15.22,0,0,0,1.64-1.65Zm-6.5-4.56h4.58v-1.08h-4.58Zm0,2.12h4.58v-1.08h-4.58Z"/><path d="M438.55,166.62h-6v4.09h-1.47v-4.09H425.2v-1.39h5.88v-2.13h-5v-1.38h5V157h1.47v4.75h5.17v1.38h-5.17v2.13h6Zm-10.42-5.44a15,15,0,0,0-1.62-3.34l1.28-.5a14.39,14.39,0,0,1,1.71,3.27Zm9.18-3.42a31.26,31.26,0,0,1-1.93,3.36l-1.26-.46a18.76,18.76,0,0,0,1.71-3.37Z"/><path d="M437.79,178a15.15,15.15,0,0,1-2,4.67c.44,1.16.95,1.74,1.37,1.74s.43-.42.52-1.89a3.74,3.74,0,0,0,1.14.67c-.21,2.13-.69,2.52-1.79,2.52-.83,0-1.54-.66-2.12-1.89a10.51,10.51,0,0,1-2.14,1.93,9.67,9.67,0,0,0-1.08-1c.21-.12.42-.25.62-.39h-3.17v.72h-1.07v-7.33h5.12v.95h-1.74v.85h1.7v2.9h-1.7v.91h1.86v.2a10.05,10.05,0,0,0,1.06-1.2,27.13,27.13,0,0,1-.91-5.34h-6.08v2.6c0,1.88-.21,4.45-1.46,6.12a5.2,5.2,0,0,0-1.08-.72c1.14-1.54,1.26-3.74,1.26-5.42v-3.76h7.28c0-.39,0-.79-.06-1.2h.29V174H430v1h-1.38v-1h-3.37v-1.16h3.38V172H430v.87h3.58V172H435v.87h3.42V174H435v1h-.37c0,.31,0,.63,0,.93h2.21a7.35,7.35,0,0,0-1.3-1.09l.84-.62a7.39,7.39,0,0,1,1.49,1.18l-.66.53h1.26v1.18h-3.76a27.58,27.58,0,0,0,.55,3.9,13.54,13.54,0,0,0,1.16-3.21Zm-8.62.74v.85h1.3v-.85Zm3,1.74h-3v1.11h3Zm-3,2.92h1.3v-.91h-1.3Z"/><path d="M431.2,193.2h-4.09v7.53h-1.38V187.62h5.47Zm-4.09-4.41v1.06h2.79v-1.06Zm2.79,3.27v-1.17h-2.79v1.17Zm8.19,6.88c0,.87-.2,1.29-.76,1.53a9.22,9.22,0,0,1-2.9.25,5,5,0,0,0-.5-1.44c1,0,2,0,2.34,0s.39-.11.39-.37v-5.73h-4.23v-5.59h5.66Zm-4.32-10.15v1.06h2.9v-1.06Zm2.9,3.3v-1.2h-2.9v1.2Z"/><path d="M424.81,214.54a7.08,7.08,0,0,0,.78-3.39l.8.15a7.55,7.55,0,0,1-.83,3.66Zm6.63-5.25s0,.36,0,.52c-.18,3.63-.34,5-.72,5.45a1.14,1.14,0,0,1-.84.43,7.9,7.9,0,0,1-1.37,0,2.93,2.93,0,0,0-.3-1.11,8.44,8.44,0,0,0,1.08.06.49.49,0,0,0,.42-.17,3.84,3.84,0,0,0,.36-1.65l-.5.19a8.05,8.05,0,0,0-.78-1.93l.6-.21a8.56,8.56,0,0,1,.71,1.51c0-.54.09-1.2.12-2h-4.53v-7.86h5.58v1.16h-2v1.11H431v1.09h-1.74V207H431v1.09h-1.74v1.16Zm-4.11,2.1a15.93,15.93,0,0,1,.21,2.71l-.71.1a16.18,16.18,0,0,0-.18-2.74Zm-.48-7.69v1.11h1.23V203.7Zm1.23,2.2h-1.23V207h1.23Zm-1.23,3.39h1.23v-1.16h-1.23Zm1.41,4.45a11.35,11.35,0,0,0-.52-2.42l.64-.13a11.22,11.22,0,0,1,.57,2.4Zm7.7-4.89c.43,2.58,1.3,4.74,2.94,5.8a4.14,4.14,0,0,0-.9,1.13c-1.91-1.35-2.79-3.81-3.29-6.93h-1.07c0,2.25-.33,5.07-1.62,6.92a5.12,5.12,0,0,0-1.12-.72c1.33-1.91,1.44-4.68,1.44-6.84v-5.67h5.89v6.31Zm-2.31-5v3.75H437v-3.75Z"/><path d="M130.48,274.55a10.8,10.8,0,0,1-.92,3.07,5.7,5.7,0,0,0-.9-.44,8.2,8.2,0,0,0,.8-2.82Zm2.37-3.3a10.78,10.78,0,0,1,1.39,2.5l-.89.44a6.29,6.29,0,0,0-.3-.72l-1.06.07v5h-1.06V273.6l-2.09.11-.11-1,.85,0c.24-.28.49-.58.74-.9a10.58,10.58,0,0,0-1.56-1.55l.54-.74c.1.07.19.16.3.23a15.5,15.5,0,0,0,1.2-2.23l1,.43a27.32,27.32,0,0,1-1.55,2.39,6.91,6.91,0,0,1,.66.68,20.87,20.87,0,0,0,1.4-2.15l1,.47a40.11,40.11,0,0,1-2.6,3.32l1.86-.1c-.18-.31-.37-.63-.56-.91Zm.34,3a11.76,11.76,0,0,1,.95,2.29l-.92.36a13.19,13.19,0,0,0-.91-2.33Zm5,3.12c.56,0,.66-.29.73-1.86a3.78,3.78,0,0,0,1,.46c-.13,1.9-.46,2.45-1.69,2.45h-2.21c-1.31,0-1.72-.34-1.72-1.62v-5h3.77V269.2H134v-1.06h5.19v5.4h-1.12v-.68h-2.65v4c0,.49.11.58.72.58Z"/><path d="M150,277.3c.49,0,.59-.19.66-1.21a3.16,3.16,0,0,0,1,.42c-.14,1.4-.47,1.8-1.57,1.8h-2.25c-1.37,0-1.71-.32-1.71-1.54v-.55l-2.85.44-.17-.92,3-.47v-.91l-2.52.38-.17-.91,2.69-.41v-.85c-.78.12-1.58.24-2.34.32a3.09,3.09,0,0,0-.29-.8,28.76,28.76,0,0,0,5.22-1H143v.47c0,2-.17,5-1.29,7a4.46,4.46,0,0,0-1-.56c1.08-1.85,1.16-4.51,1.16-6.39v-3.48H151v3h-2l.83.66a19.27,19.27,0,0,1-2.59.66v.89l3.25-.48.17.9-3.42.52v.92l4.05-.62.17.9-4.22.66v.71c0,.47.11.54.73.54Zm-7-7.2h6.84V269H143Z"/><path d="M163.62,274.71h-2.57v3.8h-1.18v-3.8h-3.2a5.71,5.71,0,0,1-2.49,3.91,4.76,4.76,0,0,0-1-.82,4.93,4.93,0,0,0,2.25-3.09h-2.39v-1.13h2.58c0-.47.06-1,.06-1.46V271h-2.27v-1.12h2.27v-2.33h1.18v2.33h3v-2.35h1.18v2.35h2.27V271h-2.27v2.59h2.57Zm-3.74-1.13V271h-3v1.13c0,.49,0,1,0,1.46Z"/><path d="M170.37,276.27h-4.17v.91h-.95v-9.1h5.12ZM166.19,269v2.57h1.15V269Zm0,6.24h1.15v-2.7h-1.15Zm3.2-6.24h-1.16v2.57h1.16Zm0,6.24v-2.7h-1.16v2.7Zm6.51-5.33h-1.62v7.18c0,.65-.14,1-.6,1.18a7.42,7.42,0,0,1-2.3.19,4,4,0,0,0-.38-1.12c.79,0,1.61,0,1.85,0s.3-.07.3-.28V270h-2.54v-1.09h5.3Z"/><line class="cls-18" x1="112.26" y1="254.63" x2="126.17" y2="272.06"/><circle cx="112.74" cy="255.39" r="1.75"/></g></svg>