<svg xmlns="http://www.w3.org/2000/svg" xmlns:xlink="http://www.w3.org/1999/xlink" viewBox="0 0 375 250"><defs><style>.cls-1,.cls-10,.cls-11,.cls-12,.cls-13,.cls-16,.cls-18,.cls-5,.cls-6,.cls-7,.cls-8,.cls-9{fill:none;}.cls-2{fill:#cad9e0;}.cls-3{fill:#9bcc9b;}.cls-4{clip-path:url(#clip-path);}.cls-10,.cls-11,.cls-12,.cls-13,.cls-5,.cls-6,.cls-7,.cls-8,.cls-9{stroke:#fff;}.cls-10,.cls-11,.cls-12,.cls-13,.cls-16,.cls-18,.cls-5,.cls-6,.cls-7,.cls-8,.cls-9{stroke-miterlimit:10;}.cls-5{stroke-width:25px;}.cls-6{stroke-width:8.5px;}.cls-7{stroke-width:8px;}.cls-8{stroke-width:9.1px;}.cls-9{stroke-width:7.28px;}.cls-10{stroke-width:12.74px;}.cls-11{stroke-width:7px;}.cls-12{stroke-width:3.64px;}.cls-13{stroke-width:15px;}.cls-14{fill:#8888e2;opacity:0.44;}.cls-15{fill:#6489bf;}.cls-16,.cls-18{stroke:#000;}.cls-16{stroke-width:0.64px;}.cls-17{fill:#ff0039;}.cls-18{stroke-width:0.5px;}</style><clipPath id="clip-path"><rect class="cls-1" x="0.68" y="-6.86" width="385.41" height="256.87"/></clipPath></defs><title>アートボード 6</title><g id="レイヤー_2" data-name="レイヤー 2"><rect class="cls-2" x="-21.93" y="-6.86" width="478.43" height="256.87"/><rect class="cls-3" x="343.59" y="-6.86" width="112.91" height="256.87"/><g class="cls-4"><path d="M258.09,11.67h-3.85v2.63h-.94V11.67h-3.77v-.9h3.77V9.4h-3.18V8.52h3.18V5.47h.94V8.52h3.32V9.4h-3.32v1.37h3.85Zm-6.69-3.5a9.64,9.64,0,0,0-1-2.15l.82-.32a9.19,9.19,0,0,1,1.1,2.1ZM257.29,6a20.16,20.16,0,0,1-1.24,2.16l-.81-.3a12.05,12.05,0,0,0,1.1-2.17Z"/><path d="M257.6,19a9.71,9.71,0,0,1-1.27,3c.28.74.61,1.12.88,1.12s.28-.27.34-1.21a2.41,2.41,0,0,0,.73.43c-.13,1.37-.44,1.62-1.15,1.62-.53,0-1-.42-1.36-1.21A6.73,6.73,0,0,1,254.4,24a6.3,6.3,0,0,0-.69-.62l.4-.25h-2v.46h-.68V18.85h3.28v.61h-1.12V20h1.09v1.86h-1.09v.59h1.19v.13a6.54,6.54,0,0,0,.68-.77,17.45,17.45,0,0,1-.59-3.43h-3.9V20A6.87,6.87,0,0,1,250,24a3.39,3.39,0,0,0-.69-.46,5.93,5.93,0,0,0,.81-3.48V17.62h4.67c0-.25,0-.51,0-.77h.18v-.44h-2.3v.66h-.89v-.66h-2.17v-.74h2.17v-.56h.89v.56h2.3v-.56h.9v.56H258v.74h-2.2V17h-.24c0,.2,0,.4,0,.6H257a4.78,4.78,0,0,0-.84-.7l.54-.4a4.74,4.74,0,0,1,1,.76l-.42.34h.81v.76h-2.42a17.67,17.67,0,0,0,.36,2.5,8.67,8.67,0,0,0,.74-2.06Zm-5.54.47V20h.84v-.55ZM254,20.58h-1.94v.71H254Zm-1.94,1.88h.84v-.59h-.84Z"/><path d="M253.38,28.74h-2.63v4.83h-.89V25.16h3.51Zm-2.63-2.83v.68h1.79v-.68Zm1.79,2.1v-.75h-1.79V28Zm5.26,4.42c0,.56-.13.83-.49,1a5.9,5.9,0,0,1-1.86.16,3.19,3.19,0,0,0-.32-.92c.64,0,1.31,0,1.5,0s.25-.07.25-.24V28.75h-2.71V25.16h3.63ZM255,25.91v.68h1.86v-.68ZM256.88,28v-.77H255V28Z"/><path d="M250.53,40a8.77,8.77,0,0,1-.63,2.45,4.54,4.54,0,0,0-.65-.32,7.38,7.38,0,0,0,.54-2.25Zm1.07-.8v4h-.79V39.27l-1.43.09-.09-.78.67,0c.16-.21.35-.45.52-.7a9.21,9.21,0,0,0-1.15-1.36l.45-.6.26.25a11.55,11.55,0,0,0,.78-1.75l.79.29c-.34.65-.75,1.42-1.1,2a6.05,6.05,0,0,1,.42.52,17.39,17.39,0,0,0,1-1.66l.74.34c-.54.86-1.23,1.88-1.86,2.68l1.14-.07a7.24,7.24,0,0,0-.37-.72l.64-.27a7.85,7.85,0,0,1,.9,2l-.68.32a5.31,5.31,0,0,0-.17-.59Zm.87.65a7.42,7.42,0,0,1,.48,1.68l-.68.21a6.5,6.5,0,0,0-.44-1.69Zm2.54-.13a4.59,4.59,0,0,1-2,3.11,2.83,2.83,0,0,0-.56-.62,3.52,3.52,0,0,0,1.62-1.94h-1.14v-.74h1.47l.13,0Zm3.2-.06c-.45.39-1,.82-1.41,1.14a3.85,3.85,0,0,0,1.58,1.3,3.44,3.44,0,0,0-.54.72,4.6,4.6,0,0,1-1.92-2.09v1.58c0,.4-.06.64-.34.76a3.26,3.26,0,0,1-1.25.13,3.21,3.21,0,0,0-.23-.77H255c.12,0,.14,0,.14-.13v-3.5h-1.89V35.34h1.54a8.18,8.18,0,0,0,.36-1l1,.17c-.14.28-.3.56-.44.81h2.13v3.46h-1.9v.07a6.57,6.57,0,0,0,.5,1.33,9.81,9.81,0,0,0,1-1.06ZM254,36.73H257V36H254Zm0,1.36H257V37.4H254Z"/><path d="M258.09,59.83h-3.85v2.63h-.94V59.83h-3.77v-.9h3.77V57.57h-3.18v-.89h3.18V53.63h.94v3.05h3.32v.89h-3.32v1.37h3.85Zm-6.69-3.5a9.64,9.64,0,0,0-1-2.15l.82-.32a9.19,9.19,0,0,1,1.1,2.1Zm5.89-2.2a20.16,20.16,0,0,1-1.24,2.16l-.81-.3a12.05,12.05,0,0,0,1.1-2.17Z"/><path d="M257.6,67.15a9.71,9.71,0,0,1-1.27,3c.28.74.61,1.12.88,1.12s.28-.27.34-1.21a2.41,2.41,0,0,0,.73.43c-.13,1.37-.44,1.62-1.15,1.62-.53,0-1-.42-1.36-1.21a6.73,6.73,0,0,1-1.38,1.24,6.3,6.3,0,0,0-.69-.62l.4-.25h-2v.46h-.68V67h3.28v.61h-1.12v.55h1.09V70h-1.09v.59h1.19v.13a6.54,6.54,0,0,0,.68-.77,17.45,17.45,0,0,1-.59-3.43h-3.9v1.67a6.87,6.87,0,0,1-.93,3.93,3.39,3.39,0,0,0-.69-.46,5.93,5.93,0,0,0,.81-3.48V65.78h4.67c0-.25,0-.51,0-.77h.18v-.44h-2.3v.66h-.89v-.66h-2.17v-.74h2.17v-.56h.89v.56h2.3v-.56h.9v.56H258v.74h-2.2v.62h-.24c0,.2,0,.4,0,.6H257a4.78,4.78,0,0,0-.84-.7l.54-.4a4.74,4.74,0,0,1,1,.76l-.42.34h.81v.76h-2.42A17.67,17.67,0,0,0,256,69a8.67,8.67,0,0,0,.74-2.06Zm-5.54.47v.55h.84v-.55ZM254,68.74h-1.94v.71H254Zm-1.94,1.88h.84V70h-.84Z"/><path d="M253.38,76.9h-2.63v4.83h-.89V73.32h3.51Zm-2.63-2.83v.68h1.79v-.68Zm1.79,2.1v-.75h-1.79v.75Zm5.26,4.42c0,.56-.13.83-.49,1a5.9,5.9,0,0,1-1.86.16,3.19,3.19,0,0,0-.32-.92c.64,0,1.31,0,1.5,0s.25-.07.25-.24V76.91h-2.71V73.32h3.63ZM255,74.07v.68h1.86v-.68Zm1.86,2.12v-.77H255v.77Z"/><path d="M249.27,90.61a4.54,4.54,0,0,0,.5-2.18l.51.1a4.84,4.84,0,0,1-.53,2.35Zm4.26-3.37s0,.23,0,.34c-.12,2.33-.22,3.2-.46,3.5a.72.72,0,0,1-.54.28,5,5,0,0,1-.88,0,1.87,1.87,0,0,0-.19-.71,5.44,5.44,0,0,0,.69,0,.31.31,0,0,0,.27-.11,2.47,2.47,0,0,0,.23-1.06l-.32.13a5.17,5.17,0,0,0-.5-1.24l.39-.13a5.5,5.5,0,0,1,.45,1c0-.35.06-.77.08-1.29h-2.91v-5h3.58v.74h-1.29v.71h1.12v.7h-1.12v.73h1.12v.7h-1.12v.74Zm-2.64,1.35a10.29,10.29,0,0,1,.13,1.74l-.45.07a10.44,10.44,0,0,0-.12-1.76Zm-.31-4.94v.71h.79v-.71Zm.79,1.42h-.79v.73h.79Zm-.79,2.18h.79v-.74h-.79Zm.91,2.86a7.28,7.28,0,0,0-.34-1.55l.41-.09a7.22,7.22,0,0,1,.37,1.54ZM256.43,87a5.33,5.33,0,0,0,1.89,3.73,2.67,2.67,0,0,0-.58.72c-1.22-.87-1.79-2.45-2.11-4.45h-.68a8.43,8.43,0,0,1-1,4.44,3.3,3.3,0,0,0-.72-.46,7.86,7.86,0,0,0,.92-4.39V82.9h3.78V87Zm-1.48-3.23v2.41h2.14V83.72Z"/></g></g><g id="道-2" data-name="道"><line class="cls-5" x1="-24.54" y1="74.05" x2="334.64" y2="74.05"/><line class="cls-6" x1="15.71" y1="40.88" x2="334.64" y2="40.88"/><line class="cls-5" x1="341.64" y1="-7.34" x2="341.64" y2="250.28"/><line class="cls-7" x1="-24.54" y1="115.63" x2="334.64" y2="115.63"/><line class="cls-7" x1="-24.54" y1="155.44" x2="334.64" y2="155.44"/><line class="cls-7" x1="49.77" y1="195.25" x2="254.13" y2="195.25"/><polyline class="cls-7" points="49.77 226.66 164.38 226.66 204.37 237.9 254.13 243.47"/><line class="cls-8" x1="204.37" y1="-7.34" x2="204.37" y2="250.28"/><line class="cls-9" x1="163.72" y1="74.05" x2="163.72" y2="226.22"/><line class="cls-9" x1="103.96" y1="74.05" x2="103.96" y2="250.28"/><line class="cls-10" x1="49.77" y1="74.05" x2="49.77" y2="250.28"/><line class="cls-11" x1="204.37" y1="220.47" x2="254.13" y2="220.47"/><line class="cls-7" x1="112.91" y1="-9.99" x2="124.85" y2="73.33"/><line class="cls-8" x1="163.23" y1="-7.34" x2="163.23" y2="40.88"/><line class="cls-7" x1="294.39" y1="-7.34" x2="294.39" y2="115.63"/><line class="cls-12" x1="144.34" y1="115.63" x2="144.34" y2="155.44"/><line class="cls-12" x1="74.89" y1="-7.34" x2="73.66" y2="40.88"/><line class="cls-12" x1="117.45" y1="21.28" x2="163.23" y2="21.28"/><line class="cls-9" x1="29.42" y1="-10.86" x2="3.99" y2="2.62"/><line class="cls-13" x1="254.13" y1="250.28" x2="254.13" y2="-7.34"/><line class="cls-10" x1="25" y1="68.74" x2="-3.75" y2="-11.13"/></g><g id="ランドマーク"><polygon class="cls-14" points="-15.46 -11.99 19.59 88.4 41.91 80.56 8.41 -10.89 -15.46 -11.99"/><rect class="cls-14" x="242.87" y="-7.34" width="21.86" height="155.7"/><circle class="cls-15" cx="306.28" cy="93.89" r="5.24"/><circle class="cls-15" cx="311.53" cy="168.48" r="5.24"/><circle class="cls-15" cx="160.62" cy="239.17" r="5.24"/><circle class="cls-15" cx="281.34" cy="241.8" r="5.24"/><circle class="cls-15" cx="214.77" cy="143.65" r="5.24"/><circle class="cls-15" cx="35.63" cy="100.6" r="5.24"/><circle class="cls-15" cx="149.07" cy="93.89" r="5.24"/><circle class="cls-15" cx="21.33" cy="167.63" r="5.24"/><circle class="cls-15" cx="191.39" cy="217" r="5.24"/></g><g id="文字"><path d="M275.36,176.55a2,2,0,0,0,.66-.09l.72.44a2.94,2.94,0,0,0-.25.53,8.65,8.65,0,0,1-1.54,3,7.86,7.86,0,0,1-3.5,2.41l-.81-.73a7,7,0,0,0,3.51-2.18,6.62,6.62,0,0,0,1.33-2.58h-2.74a9,9,0,0,1-2.21,2.13l-.77-.57A7.48,7.48,0,0,0,272.5,176a4.08,4.08,0,0,0,.32-.79l1,.33c-.18.26-.36.59-.46.77s-.08.15-.13.23Zm.7-1.47a12.7,12.7,0,0,1,.71,1.2l-.58.25a10.44,10.44,0,0,0-.69-1.21Zm1-.38a10.2,10.2,0,0,1,.73,1.19l-.57.25a8.72,8.72,0,0,0-.72-1.21Z"/><path d="M284.52,178a2.6,2.6,0,0,0-.13.3,6.27,6.27,0,0,1-1.29,2.46,6.47,6.47,0,0,1-3.13,1.86l-.68-.79a5.92,5.92,0,0,0,3.06-1.57,4.12,4.12,0,0,0,1-1.75h-4.45c-.21,0-.59,0-.93,0v-.91c.34,0,.67.06.93.06h4.48a1.76,1.76,0,0,0,.56-.08Zm-5.78-2.4a8,8,0,0,0,.83,0H283a8.31,8.31,0,0,0,.86,0v.9c-.22,0-.57,0-.87,0h-3.4l-.83,0Z"/><path d="M289,180.25a8.32,8.32,0,0,0,3-3.3l.53,1a9,9,0,0,1-3.07,3.17,9.65,9.65,0,0,1-3.35,1.3l-.59-.9A9.09,9.09,0,0,0,289,180.25Zm-.3-2.8-.69.71a20,20,0,0,0-2.19-1.85l.64-.68A17.73,17.73,0,0,1,288.73,177.46Z"/><path d="M295.19,177.77a28.4,28.4,0,0,1,3.7,1.4l-.38.94a24.31,24.31,0,0,0-3.31-1.36v2.7c0,.27,0,.79.06,1.12H294.2a9.23,9.23,0,0,0,.07-1.12v-5.05a6.21,6.21,0,0,0-.08-1h1.08c0,.29-.07.66-.07,1Zm2.5-.42a8,8,0,0,0-.77-1.34l.59-.25a10.73,10.73,0,0,1,.8,1.32Zm1.14-.46a8.74,8.74,0,0,0-.8-1.31l.59-.27a10.9,10.9,0,0,1,.81,1.29Z"/><path d="M307.54,176.23c-.08.1-.22.26-.29.37a8.67,8.67,0,0,1-2.14,2.41l-.73-.59a5.44,5.44,0,0,0,1.78-1.81h-4.8c-.34,0-.65,0-1,.05v-1a8,8,0,0,0,1,.08h4.89a4.51,4.51,0,0,0,.73-.06ZM304,177.39c0,2.28-.13,4-2.43,5.14l-.8-.66a3.29,3.29,0,0,0,.84-.43c1.25-.8,1.45-1.91,1.45-3.36a3.87,3.87,0,0,0-.05-.7Z"/><path d="M308,178.24c.28,0,.82.05,1.29.05h4.75c.43,0,.77,0,1-.05v1.08c-.19,0-.59,0-1,0h-4.76c-.49,0-1,0-1.29,0Z"/><path d="M323.31,176.69a3,3,0,0,0-.24.53,8.64,8.64,0,0,1-1.54,3,7.94,7.94,0,0,1-3.5,2.42l-.81-.73a7.07,7.07,0,0,0,3.51-2.19,6.57,6.57,0,0,0,1.33-2.58h-2.73a9.09,9.09,0,0,1-2.22,2.13l-.77-.57a7.42,7.42,0,0,0,2.75-2.89,3.86,3.86,0,0,0,.32-.79l1,.33c-.17.26-.36.6-.45.78l-.12.22h2.1a2.07,2.07,0,0,0,.66-.09Z"/><path d="M305.74,189.42h-3.5v2.39h-.86v-2.39H298v-.81h3.43v-1.24H298.5v-.8h2.89v-2.77h.86v2.77h3v.8h-3v1.24h3.5Zm-6.08-3.17a8.76,8.76,0,0,0-.94-1.95l.74-.29a8.38,8.38,0,0,1,1,1.91Zm5.35-2a18.21,18.21,0,0,1-1.13,2l-.73-.27a10.9,10.9,0,0,0,1-2Z"/><path d="M314,187.32a8.82,8.82,0,0,1-1.15,2.72c.25.67.55,1,.8,1s.25-.24.31-1.1a2.17,2.17,0,0,0,.66.39c-.12,1.24-.4,1.47-1,1.47-.48,0-.9-.38-1.23-1.1a6.1,6.1,0,0,1-1.25,1.13,5.79,5.79,0,0,0-.63-.56l.36-.23H309v.42h-.62V187.2h3v.55h-1v.5h1v1.69h-1v.53h1.08v.11a6,6,0,0,0,.62-.7,15.85,15.85,0,0,1-.53-3.11H308v1.51a6.24,6.24,0,0,1-.85,3.57,3.07,3.07,0,0,0-.63-.42,5.39,5.39,0,0,0,.73-3.16v-2.19h4.24c0-.23,0-.46,0-.7h.17V185h-2.09v.6h-.8V185h-2v-.67h2v-.51h.8v.51h2.09v-.51h.81v.51h2V185h-2v.56h-.22c0,.18,0,.37,0,.54h1.29a4.31,4.31,0,0,0-.76-.64l.49-.36a4.29,4.29,0,0,1,.87.69l-.38.31h.73v.69h-2.19a16,16,0,0,0,.32,2.27,7.86,7.86,0,0,0,.67-1.87Zm-5,.43v.5h.76v-.5Zm1.77,1H309v.65h1.77ZM309,190.47h.76v-.53H309Z"/><path d="M318.93,187.43h-2.39v4.39h-.8v-7.64h3.19Zm-2.39-2.57v.62h1.63v-.62Zm1.63,1.91v-.68h-1.63v.68Zm4.77,4c0,.51-.11.75-.45.89a5.38,5.38,0,0,1-1.69.15,2.91,2.91,0,0,0-.29-.84c.58,0,1.19,0,1.36,0s.23-.06.23-.22v-3.34h-2.47v-3.26h3.3Zm-2.52-5.92v.62h1.69v-.62Zm1.69,1.92v-.7h-1.69v.7Z"/><path d="M304.06,101.64a3.59,3.59,0,0,0-.13.48,8.53,8.53,0,0,1-1,3.26,6.24,6.24,0,0,1-3.31,2.47l-.76-.77a5.56,5.56,0,0,0,3.23-2.17,6.54,6.54,0,0,0,.81-2.8h-4.55v1.63a6.12,6.12,0,0,0,0,.63h-1c0-.24,0-.44,0-.63v-1.86c0-.21,0-.44,0-.65.25,0,.59,0,1,0h4.35a3.29,3.29,0,0,0,.67-.05Z"/><path d="M310.49,107.61c0-.12,0-.29,0-.47h-4.14c-.36,0-.8,0-1,0v-1c.25,0,.64,0,1,0h4.19v-3.9h-4.08l-1,0v-1c.31,0,.73.05,1,.05h4.35l.7,0c0,.19,0,.51,0,.73v4.52c0,.31,0,.73,0,.93Z"/><path d="M313.51,103.58c.28,0,.82.05,1.29.05h4.75c.43,0,.77,0,1-.05v1.08c-.19,0-.59,0-1,0h-4.76c-.49,0-1,0-1.29,0Z"/><path d="M321.38,107.21a4.11,4.11,0,0,0,1.5-2.12,15.17,15.17,0,0,0,.25-3.49,2.74,2.74,0,0,0-.07-.71h1a6.52,6.52,0,0,0,0,.7,19.14,19.14,0,0,1-.27,3.73,4.91,4.91,0,0,1-1.56,2.45Zm4,.08a2.54,2.54,0,0,0,.06-.55v-5.18a6.46,6.46,0,0,0-.05-.7h1a5.26,5.26,0,0,0,0,.7v4.83a6.15,6.15,0,0,0,2.38-2l.52.75a9.19,9.19,0,0,1-3,2.41,1.81,1.81,0,0,0-.33.22Z"/><path d="M126.45,238a9.92,9.92,0,0,1-1.2,3c.18.73.39,1.15.63,1.15s.23-.42.25-1.37a1.88,1.88,0,0,0,.59.42c-.1,1.32-.32,1.71-.94,1.71-.46,0-.8-.43-1.08-1.15a6.49,6.49,0,0,1-1.36,1.23,4.26,4.26,0,0,0-.56-.56,5.71,5.71,0,0,0,1.68-1.56,24.18,24.18,0,0,1-.41-3.88h-1.9V238h1.6s0,.2,0,.29c0,2-.06,2.72-.22,2.95a.63.63,0,0,1-.46.25,4.08,4.08,0,0,1-.76,0,1.84,1.84,0,0,0-.19-.67,4.72,4.72,0,0,0,.6,0,.21.21,0,0,0,.21-.1,7.31,7.31,0,0,0,.14-2.1h-.91v.3a6.22,6.22,0,0,1-1.09,4,2.77,2.77,0,0,0-.6-.51,3.59,3.59,0,0,0,.77-1.6l-2.37,1-.26-.8,1-.33v-2.92h-.85V237h.85v-2h.75v2h.77v.75h-.77v2.65l.77-.28.15.71a9,9,0,0,0,.17-1.89v-2.75H124c0-.43,0-.87,0-1.29h.77c0,.44,0,.87,0,1.29h1a7,7,0,0,0-.86-.94l.56-.34a5,5,0,0,1,1,1l-.43.28h.59v.74H124.8c0,1.08.13,2.05.24,2.87a9,9,0,0,0,.67-1.95Z"/><path d="M132.63,236.24v1.12h2.25v5.54h-.82v-.49h-5.39v.51h-.8v-5.55h2v-1.12h-2.4v-.79h7.68v.79Zm1.43,5.4v-1.48a.72.72,0,0,1-.55.17h-.8c-.73,0-.88-.21-.88-.94v-1.29H130.7v.28a2.55,2.55,0,0,1-1.5,2.44,2.53,2.53,0,0,0-.54-.51v1.32Zm-5.39-3.53v2.17a2,2,0,0,0,1.29-1.92v-.25Zm3.17-1.87H130.7v1.12h1.12Zm2.23,1.87h-1.46v1.29c0,.2,0,.22.23.22h.59c.17,0,.21-.07.24-.57a1.5,1.5,0,0,0,.41.2Z"/><path d="M140.73,238.19a6.17,6.17,0,0,0,3.35,4,3.24,3.24,0,0,0-.6.76,6.69,6.69,0,0,1-3.37-4,6,6,0,0,1-3.37,4,2.85,2.85,0,0,0-.62-.68,5.44,5.44,0,0,0,3.28-4.07h-3.1v-.84h3.25a21.91,21.91,0,0,0,.1-2.41h.88a21.92,21.92,0,0,1-.12,2.41h3.52v.84Z"/><path d="M152.69,240.58h-3.44V242c0,.45-.11.67-.47.8a6.1,6.1,0,0,1-1.64.12,4.34,4.34,0,0,0-.34-.79c.61,0,1.22,0,1.4,0s.22,0,.22-.17v-1.43H145v-.75h3.41v-.6h.41a6.91,6.91,0,0,0,1-.66h-3.32v-.71h4.1l.17,0,.52.39a7.85,7.85,0,0,1-2,1.5v.11h3.44Zm-6.78-2.23h-.76v-2h1.26a5.49,5.49,0,0,0-.68-1l.7-.31a5.35,5.35,0,0,1,.81,1.17l-.31.15h1.62a6.5,6.5,0,0,0-.61-1.2l.71-.26a5.15,5.15,0,0,1,.71,1.29l-.43.17h1.48a9.18,9.18,0,0,0,.85-1.36l.86.27c-.25.38-.54.76-.81,1.09h1.27v2h-.8v-1.29h-5.84Z"/><path class="cls-15" d="M344,116.72c0,.45-.11.68-.41.81a4.58,4.58,0,0,1-1.54.14,3.09,3.09,0,0,0-.26-.77c.53,0,1.09,0,1.25,0s.21,0,.21-.2v-4.48H341a6.57,6.57,0,0,1-.13,1,24.64,24.64,0,0,1,2.18,2.17l-.62.5a19.53,19.53,0,0,0-1.79-1.93,4.38,4.38,0,0,1-1.91,2.06,2.71,2.71,0,0,0-.54-.58,3.48,3.48,0,0,0,2-3.24h-2.14v5.44h-.76v-6.18h2.91v-1.38H341v1.38H344Z"/><path class="cls-15" d="M340.21,120.87v.61c0,1.34-.16,3.19-1.28,4.33a2.53,2.53,0,0,0-.57-.45,4,4,0,0,0,1-2l-2.25,1.05-.29-.77c.28-.1.63-.24,1-.39V121H337v-.72h.85v-1.86h.7v1.86h.75V121h-.75V123l.72-.3.14.57a10,10,0,0,0,.12-1.75v-2.85h4.64v2.25Zm0-1.55v.86h3.2v-.86Zm4,4.19v2.33h-.67v-.33H341v.36h-.66v-2.36H341v1.37h.94v-1.69h-1.41v-1.83h.62v1.22h.79V121h.67v1.54h.86v-1.22h.63v1.83h-1.5v1.69h1v-1.37Z"/><path class="cls-15" d="M338.74,132.38a2.16,2.16,0,0,0,1.91.86c.93,0,2.82,0,3.87-.06a3.82,3.82,0,0,0-.25.75c-.95,0-2.67.06-3.63,0a2.74,2.74,0,0,1-2.23-.95c-.39.34-.81.67-1.27,1l-.36-.76a12.89,12.89,0,0,0,1.23-.86v-2h-1.13v-.71h1.86Zm-.36-3.81a6.33,6.33,0,0,0-1.37-1.36l.53-.48a6.53,6.53,0,0,1,1.41,1.28Zm1.86,4.24h-.72v-4.21h2.11c-.44-.21-.94-.43-1.36-.59l.49-.41c.32.12.7.26,1.06.42a6.55,6.55,0,0,0,.9-.55h-3.18v-.6h3.89l.16,0,.46.37a8.14,8.14,0,0,1-1.57,1.12c.21.1.4.2.56.29h1v3.5c0,.35-.06.52-.3.63a3.1,3.1,0,0,1-1.1.11,2.08,2.08,0,0,0-.21-.62c.35,0,.66,0,.76,0s.12,0,.12-.13v-.58h-1.23v1.27h-.69v-1.27h-1.18Zm0-3.64v.6h1.18v-.6Zm1.18,1.78v-.62h-1.18v.62Zm1.92-1.78h-1.23v.6h1.23Zm0,1.78v-.62h-1.23v.62Z"/><path class="cls-15" d="M339.44,135.08a13.48,13.48,0,0,0-.35,2,2.56,2.56,0,0,1,2.08-1.58c1.08,0,1.88,1.07,1.88,2.78,0,2.23-1.38,3.25-3.42,3.62l-.48-.73c1.74-.26,3.05-.91,3.05-2.88,0-1.24-.42-2-1.18-2-1,0-1.85,1.42-1.92,2.48a3.51,3.51,0,0,0,0,.91l-.78.06a9.85,9.85,0,0,1-.09-1.29,22.06,22.06,0,0,1,.23-2.57,6.84,6.84,0,0,0,.07-.75Z"/><path d="M343.63,213v6.9h-.81v-.5h-3.87v.54h-.78V213Zm-4.69.77v2h3.87v-2Zm3.87,4.85v-2.09h-3.87v2.09Z"/><path d="M338.95,226.89l1.93-.42.07.74-3.64.85-.23-.79,1.07-.21v-6.3h.79v2.41h1.74v.75h-1.74Zm4.59.45c.35,0,.4-.29.46-1.44a2.29,2.29,0,0,0,.72.34c-.08,1.36-.3,1.84-1.11,1.84h-1.27c-.86,0-1.09-.28-1.09-1.27v-6.05H342v2.79a12.32,12.32,0,0,0,1.88-1.07l.55.65a18.48,18.48,0,0,1-2.43,1.17v2.52c0,.46.06.53.41.53Z"/><path d="M341.19,230.47a9,9,0,0,0,3.5,2.94,3.25,3.25,0,0,0-.49.67,9.94,9.94,0,0,1-1-.61v3h-.81v-.3h-3.06v.31h-.78v-3a9.08,9.08,0,0,1-1,.63,3.06,3.06,0,0,0-.47-.6,8.83,8.83,0,0,0,3.33-3Zm-1-1.13a8.88,8.88,0,0,1-2.2,2.17,5.8,5.8,0,0,0-.62-.55,6.77,6.77,0,0,0,2.06-1.88Zm2.62,3.81a9.46,9.46,0,0,1-1.92-1.93,8.81,8.81,0,0,1-1.86,1.93Zm-.37,2.33v-1.65h-3.06v1.65Zm1.28-4a11.91,11.91,0,0,0-2.15-2l.6-.41a12,12,0,0,1,2.2,1.92Z"/><path d="M341.21,243.24a6.13,6.13,0,0,1,1.25-1.23l.34.6a9.09,9.09,0,0,0-1.93,2.12,9.09,9.09,0,0,0-1.93-2.12l.34-.6a6.13,6.13,0,0,1,1.25,1.23v-6.11h.69Z"/><path d="M340.52,7.48a6.08,6.08,0,0,1-1.25,1.23l-.34-.6A9.09,9.09,0,0,0,340.86,6,9.09,9.09,0,0,0,342.8,8.1l-.34.6a6.08,6.08,0,0,1-1.25-1.23v6.11h-.69Z"/><path d="M343.78,20.93c.21,0,.25-.2.28-1.21a2.36,2.36,0,0,0,.72.34c-.07,1.22-.27,1.62-.93,1.62h-.91c-.7,0-.94-.25-.94-1.13V17.07H340.3c-.19,2-.77,3.72-2.71,4.73a2.48,2.48,0,0,0-.56-.62c1.77-.87,2.29-2.34,2.46-4.11h-2.06V16.3h2.11c0-.62,0-1.27,0-1.95h.83c0,.67,0,1.32,0,1.95h2.44v4.27c0,.32,0,.36.27.36Z"/><path d="M340.51,28.3l-2.08.34V30h-.72V28.76l-.55.09-.12-.74.67-.1V23.06l.36.11a8.48,8.48,0,0,0,1.86-.69l.64.54a11.32,11.32,0,0,1-2.14.71v.81h1.78v.71h-1.78v.86h1.84v.71h-1.84V27.9l2.06-.31Zm3.79-2.06A5.25,5.25,0,0,1,343,28.55a4.93,4.93,0,0,0,1.72.78,3.3,3.3,0,0,0-.49.67,4.93,4.93,0,0,1-1.81-.95,6.44,6.44,0,0,1-2,1,2.47,2.47,0,0,0-.41-.67,5.74,5.74,0,0,0,1.91-.84,5.49,5.49,0,0,1-1-1.63l.46-.13h-.77v-.69h3.09l.13,0ZM341.74,24a2.23,2.23,0,0,1-1,2.06,2.37,2.37,0,0,0-.52-.52A1.61,1.61,0,0,0,341,24V22.79h2.52v2c0,.16,0,.24,0,.27a.21.21,0,0,0,.12,0h.18a.34.34,0,0,0,.15,0,.29.29,0,0,0,.08-.19,5.59,5.59,0,0,0,0-.68,2.07,2.07,0,0,0,.57.3,3.68,3.68,0,0,1-.09.82.47.47,0,0,1-.26.3.94.94,0,0,1-.41.08h-.43a.75.75,0,0,1-.5-.17c-.13-.12-.18-.27-.18-.76V23.47h-1.1Zm-.15,2.8a4.09,4.09,0,0,0,.83,1.29,4,4,0,0,0,.9-1.29Z"/><path d="M344.55,37.08v.77h-7.36v-.77h3V30.81H341v2.44h3V34h-3v3.06Z"/><path d="M368.92,123.06v.79h-8.46v-.79h3.79v-.71h-2.73v-.74h2.73v-.68h-3.19v-.77h7.28v.77h-3.16v.68h2.74v.74h-2.74v.71Zm-1-3.5h-6.55v-3.49h2.5a7.86,7.86,0,0,0,.28-.85l1.09.09c-.12.27-.24.52-.36.76h3Zm-.93-2.78h-4.72v.69H367Zm0,1.36h-4.72v.72H367Z"/><path d="M365.91,129.57v1h2.34v3.13h-.89v-.3h-3.69v.31h-.86v-3.14H365v-1h-2.69v-.81H365v-.94h-2.86v.31c0,1.65-.14,4-1.17,5.58a3.39,3.39,0,0,0-.79-.47c1-1.47,1.06-3.58,1.06-5.11v-2.78h7.12v2.47h-2.46v.94h3v.81ZM362.15,127h5.31v-.89h-5.31Zm5.21,4.31h-3.69v1.26h3.69Z"/><path class="cls-15" d="M257.8,198.51h-3.29v2.25h-.81v-2.25h-3.22v-.76h3.22v-1.17H251v-.76h2.71v-2.61h.81v2.61h2.84v.76h-2.84v1.17h3.29Zm-5.72-3a8.26,8.26,0,0,0-.89-1.83l.7-.27a7.89,7.89,0,0,1,.94,1.79Zm5-1.87a17.19,17.19,0,0,1-1.06,1.84l-.69-.25a10.24,10.24,0,0,0,.94-1.85Z"/><path class="cls-15" d="M257.38,204.76a8.3,8.3,0,0,1-1.09,2.56c.24.63.52,1,.75,1s.24-.23.29-1a2.05,2.05,0,0,0,.63.37c-.12,1.17-.38,1.38-1,1.38s-.85-.36-1.16-1a5.75,5.75,0,0,1-1.18,1.06,5.38,5.38,0,0,0-.59-.53l.34-.21h-1.74v.39h-.58v-4h2.8v.52h-1v.47h.93v1.59h-.93v.5h1v.11a5.54,5.54,0,0,0,.58-.66,14.92,14.92,0,0,1-.5-2.93h-3.33v1.42a5.87,5.87,0,0,1-.8,3.36,2.83,2.83,0,0,0-.59-.4,5.07,5.07,0,0,0,.69-3v-2.06h4c0-.21,0-.44,0-.66h.16v-.38h-2v.57h-.76v-.57h-1.85v-.63h1.85v-.48h.76v.48h2v-.48h.77v.48h1.87v.63h-1.87v.53h-.21c0,.17,0,.35,0,.51h1.21a4.08,4.08,0,0,0-.72-.6l.46-.34a4,4,0,0,1,.81.65l-.36.29h.69v.65h-2.06a15.17,15.17,0,0,0,.3,2.14,7.41,7.41,0,0,0,.63-1.76Zm-4.73.4v.47h.72v-.47Zm1.66,1h-1.66v.61h1.66Zm-1.66,1.6h.72v-.5h-.72Z"/><path class="cls-15" d="M253.77,213.08h-2.25v4.13h-.76V210h3Zm-2.25-2.42v.58h1.53v-.58Zm1.53,1.79v-.64h-1.53v.64Zm4.49,3.78c0,.48-.11.71-.42.84a5.06,5.06,0,0,1-1.59.14,2.72,2.72,0,0,0-.27-.79c.54,0,1.12,0,1.28,0s.21-.06.21-.21v-3.14h-2.32V210h3.1Zm-2.37-5.57v.58h1.59v-.58Zm1.59,1.81v-.66h-1.59v.66Z"/><path class="cls-15" d="M252.23,223.71a2.16,2.16,0,0,0,1.91.86c.93,0,2.82,0,3.87-.06a3.82,3.82,0,0,0-.25.75c-.95,0-2.67.06-3.63,0a2.74,2.74,0,0,1-2.23-.95c-.39.34-.81.67-1.27,1l-.36-.76a12.89,12.89,0,0,0,1.23-.86v-2h-1.13v-.71h1.86Zm-.36-3.81a6.33,6.33,0,0,0-1.37-1.36l.53-.48a6.53,6.53,0,0,1,1.41,1.28Zm1.86,4.24H253v-4.21h2.11c-.44-.21-.94-.43-1.36-.59l.49-.41c.32.12.7.26,1.06.42a6.55,6.55,0,0,0,.9-.55H253v-.6h3.89l.16,0,.46.37a8.14,8.14,0,0,1-1.57,1.12c.21.1.4.2.56.29h1v3.5c0,.35-.06.52-.3.63a3.1,3.1,0,0,1-1.1.11,2.08,2.08,0,0,0-.21-.62c.35,0,.66,0,.76,0s.12,0,.12-.13v-.58h-1.23v1.27h-.69v-1.27h-1.18Zm0-3.64v.6h1.18v-.6Zm1.18,1.78v-.62h-1.18v.62Zm1.92-1.78h-1.23v.6h1.23Zm0,1.78v-.62h-1.23v.62Z"/><path class="cls-15" d="M252.93,226.41a13.48,13.48,0,0,0-.35,2,2.56,2.56,0,0,1,2.08-1.58c1.08,0,1.88,1.07,1.88,2.78,0,2.23-1.38,3.25-3.42,3.62l-.48-.73c1.74-.26,3.05-.91,3.05-2.88,0-1.24-.42-2-1.18-2-1,0-1.85,1.42-1.92,2.48a3.51,3.51,0,0,0,0,.91l-.78.06a9.85,9.85,0,0,1-.09-1.29,22.06,22.06,0,0,1,.23-2.57,6.84,6.84,0,0,0,.07-.75Z"/><path d="M4.89,13.44c0,.36-.1.73-.17,1.07L9,13.06l1.54,4.54c.15.46.15.74-.14,1a5,5,0,0,1-1.54.67,3.4,3.4,0,0,0-.54-.73c.55-.16,1.09-.34,1.25-.4s.19-.11.14-.25l-.27-.78L5.89,18.3l.6,1.78-.84.28L4.24,16.18a7.58,7.58,0,0,1-.94,1.72,5.1,5.1,0,0,0-.78-.47,8,8,0,0,0,1.43-3.68l-2.15.73-.27-.79L4,12.85a10.37,10.37,0,0,0,0-1.27L5,11.49c0,.34,0,.7,0,1L9.49,11l.27.79Zm3.55.64L4.87,15.29l.27.79,3.57-1.21Zm.78,2.3-.27-.79L5.38,16.79l.27.79Z"/><path d="M6.5,23.64a7,7,0,0,0-1.92-.92L5,22a6.7,6.7,0,0,1,1.94.86Zm1,.72C7,25,6.44,25.67,6,26.22l-.66-.56c.46-.45,1.12-1.18,1.78-1.9Zm3.77,1.47a8.49,8.49,0,0,0,3.63.55,3.72,3.72,0,0,0-.33.91,9,9,0,0,1-3.9-.86l.72,2.13-.86.29-.73-2.16a9,9,0,0,1-2.51,3.14,4.36,4.36,0,0,0-.8-.51A8.72,8.72,0,0,0,9,26.61l-2.83,1-.25-.75,3.56-1.2-.23-.69L8,25.35,6.8,21.82l1.1-.37c0-.33,0-.71-.09-1l1-.19c0,.31,0,.62,0,.89l1.48-.5L11,22.87l.25-.6a12.46,12.46,0,0,1,2.5.58l-.31.82A12.32,12.32,0,0,0,11,23l.4,1.17-1.31.45.23.69L14,24.1l.25.75ZM8.07,23l1.82-.62-.27-.79-1.82.62Zm.48,1.42,1.82-.62-.27-.8-1.82.62Zm3.86-4.53a12.61,12.61,0,0,1-1.06,2l-.77-.2a10.61,10.61,0,0,0,.95-2Z"/><path d="M13.57,36.12,10.4,37.19l.24.69-.72.24L7.57,31.21l3.89-1.32Zm-5-4.42.66,2,.88-.3-.66-2Zm1.61,4.74.88-.3-.69-2.05-.88.3ZM11,30.88l-.88.3.66,2,.88-.3Zm1.61,4.74-.69-2.05-.88.3.7,2.05Zm3.58-5.73-1.23.42,1.85,5.46c.17.49.14.78-.15,1a5.93,5.93,0,0,1-1.7.74,3.19,3.19,0,0,0-.58-.75c.61-.18,1.23-.4,1.41-.47s.21-.13.16-.29L14.06,30.6l-1.93.65-.28-.83,4-1.37Z"/><path d="M13.84,43.87l1.28,3.79-.75.25-1.26-3.73-1.32.54L11.46,44l.63-.25c.09-.25.18-.54.27-.83A9.34,9.34,0,0,0,10.83,42l.24-.71.33.15a11.64,11.64,0,0,0,.18-1.91l.84,0c-.11.73-.25,1.59-.41,2.2a6.12,6.12,0,0,1,.57.36,17.25,17.25,0,0,0,.37-1.87l.81.08c-.24,1-.57,2.17-.9,3.13L13.9,43a7.5,7.5,0,0,0-.58-.57l.52-.46a7.86,7.86,0,0,1,1.49,1.6l-.54.52a5.29,5.29,0,0,0-.35-.5ZM13.08,45a8.75,8.75,0,0,1,.19,2.52,4.76,4.76,0,0,0-.72-.09,7.36,7.36,0,0,0-.21-2.31Zm7.16-2.79c-.3.52-.65,1.08-1,1.53a3.85,3.85,0,0,0,1.91.73,3.39,3.39,0,0,0-.28.86,4.61,4.61,0,0,1-2.49-1.36l.51,1.5c.13.38.15.62-.08.83a3.26,3.26,0,0,1-1.14.53,3.22,3.22,0,0,0-.47-.66c.37-.11.71-.23.82-.28s.13-.07.09-.17L17,42.35,15.25,43l-1.11-3.27,1.46-.49a8.18,8.18,0,0,0,0-1l1-.16c0,.31-.1.63-.16.91l2-.68,1.11,3.27-1.8.61,0,.06a6.64,6.64,0,0,0,.9,1.1,9.84,9.84,0,0,0,.65-1.34Zm-5.37,2a7.42,7.42,0,0,1,1,1.43l-.58.42a6.48,6.48,0,0,0-1-1.46Zm.49-3.46,2.78-.94-.22-.66-2.78.94Zm1.88,2.51a4.59,4.59,0,0,1-.91,3.59,2.85,2.85,0,0,0-.73-.41,3.52,3.52,0,0,0,.91-2.35l-1.08.36-.24-.7,1.4-.47.11-.06ZM15.79,42l2.78-.94-.22-.66-2.78.94Z"/><path d="M19.12,54.39A6.74,6.74,0,0,1,18.84,57a4.83,4.83,0,0,0,3.25-.25l2.83-1a2.61,2.61,0,0,0-.05.87l-2.55.86a5.11,5.11,0,0,1-3.77.2,5.45,5.45,0,0,1-1.29,1.71,2.49,2.49,0,0,0-.7-.47,5.27,5.27,0,0,0,1.3-1.63,5.19,5.19,0,0,1-.93-.91,6.23,6.23,0,0,1-.42,1,5.35,5.35,0,0,0-.72-.43,5.73,5.73,0,0,0,.76-2.53l-1.2.41-.23-.68,1.5-.51-.19-.56-1.28.43-.21-.63,1.28-.43L16,51.94l-1.38.47-.22-.65,1.38-.47-.22-.66.74-.25.22.66,1.33-.45.22.65-1.33.45.17.51,1.21-.41.1.31a5.42,5.42,0,0,0,.51-2.53l.79-.09a6.11,6.11,0,0,1,0,.95l3-1,.11.37c1.21,3.82,1.57,5.1,1.45,5.55a.81.81,0,0,1-.47.56,5.21,5.21,0,0,1-.92.33,2,2,0,0,0-.45-.65c.34-.1.63-.18.78-.25s.2-.08.22-.23c.09-.3-.23-1.48-1.26-4.74l-2.6.88a8,8,0,0,1-.26.88l.2-.15a4.62,4.62,0,0,1,.8,1l-.49.37a4.4,4.4,0,0,0-.71-1,6.34,6.34,0,0,0-.65-.17l.08.24-1.21.41.19.56,1.47-.5.23.68-1.71.58c0,.22,0,.44-.05.65l1.17-.39.12-.06Zm-2,1.18a4.69,4.69,0,0,0,1,1,5.18,5.18,0,0,0,.22-1.45l-1.21.41Zm4.39.73-.62-1.83a6.13,6.13,0,0,1-.68,1.84,2.76,2.76,0,0,0-.66-.34,5.6,5.6,0,0,0,.88-2.13l-1.17.4-.21-.62,1.39-.47-.58-1.71.6-.2.58,1.71,1.3-.44.21.62-1.2.41c.41.13,1.25.45,1.47.54l-.16.73a12.92,12.92,0,0,0-1.23-.69l.68,2Zm.35-5.09c0,.48-.1,1-.17,1.37l-.55,0a8.44,8.44,0,0,0,.1-1.36Z"/><path d="M23.54,65.54l-3.17,1.08.23.69-.72.24-2.34-6.92,3.89-1.32Zm-5-4.41.66,2,.88-.3-.66-2Zm1.61,4.74.88-.3-.7-2.05-.88.3Zm.83-5.57-.88.3.66,2,.88-.3ZM22.55,65,21.85,63l-.88.3.7,2.05Zm3.58-5.73-1.23.42,1.85,5.46c.17.49.14.79-.15,1a5.9,5.9,0,0,1-1.7.74,3.19,3.19,0,0,0-.58-.75c.61-.18,1.23-.4,1.41-.47s.21-.13.16-.29L24,60l-1.93.65-.28-.83,4-1.37Z"/><path d="M25.6,72.54s.07.22.09.32c.64,2.24.82,3.1.68,3.46a.73.73,0,0,1-.42.44,5,5,0,0,1-.83.29,1.86,1.86,0,0,0-.41-.61,5.36,5.36,0,0,0,.67-.19.32.32,0,0,0,.22-.19A2.47,2.47,0,0,0,25.48,75l-.26.22a5.14,5.14,0,0,0-.87-1l.32-.25a5.56,5.56,0,0,1,.74.78c-.08-.34-.19-.75-.34-1.25l-2.75.93L20.7,69.63l3.39-1.15.24.7-1.22.41.23.68,1.06-.36.23.67-1.06.36.23.69,1.06-.36.23.67L24,72.3l.24.7Zm-3.94-2.46.23.67.75-.25-.23-.67Zm1.2,1.09-.75.25.23.69.75-.25Zm-.21,5.93a4.54,4.54,0,0,0-.22-2.22l.51-.07a4.85,4.85,0,0,1,.25,2.39Zm.16-3.61.75-.25-.24-.7-.75.25Zm.72,1.18a10.24,10.24,0,0,1,.69,1.61l-.41.21a10.49,10.49,0,0,0-.67-1.63Zm1.05,1.24a7.24,7.24,0,0,0-.82-1.36l.36-.21A7.25,7.25,0,0,1,25,75.67Zm3.67-4.56a5.34,5.34,0,0,0,3,2.92,2.69,2.69,0,0,0-.32.87c-1.44-.43-2.48-1.74-3.42-3.54l-.65.22a8.42,8.42,0,0,1,.44,4.54,3.29,3.29,0,0,0-.83-.21,7.85,7.85,0,0,0-.53-4.46l-1.17-3.45L28.34,67l1.3,3.84Zm-2.44-2.59L26.58,71l2-.69-.77-2.28Z"/><path class="cls-15" d="M141,76.58c-.16-.2-.49-.53-.8-.81v1.95h-.74V75.79a6.2,6.2,0,0,1-1.23,1.38,3.17,3.17,0,0,0-.49-.55,5.62,5.62,0,0,0,1.57-1.73H138v-.65h1.52v-.75h-1.55v-.65h.85a3.94,3.94,0,0,0-.29-1.06l.56-.14h-1V71h1.44v-.78h.74V71h1.44v.63h-1l.58.13c-.16.39-.31.79-.45,1.07h1v.65h-1.53v.75h1.46v.65h-1.46V75c.3.21,1.05.82,1.24,1Zm-1.93-4.93a3.8,3.8,0,0,1,.33,1.08l-.48.12h1.81l-.57-.12a7.89,7.89,0,0,0,.37-1.08Zm6.32,2h-.86v4.07h-.74V73.61h-1.06v.07a5.69,5.69,0,0,1-1.28,4.07,1.83,1.83,0,0,0-.54-.53A4.84,4.84,0,0,0,142,73.67V70.83l.51.15a10.9,10.9,0,0,0,2.19-.71l.62.55a12.58,12.58,0,0,1-2.58.75V72.9h2.66Z"/><path class="cls-15" d="M148.64,72.11a9.18,9.18,0,0,1-.68,1.2v4.42h-.72V74.27a6.47,6.47,0,0,1-.82.82,5.84,5.84,0,0,0-.46-.69,7,7,0,0,0,2-2.52Zm-1.46.23h-.76v-1.5h3v-.67h.79v.67h3.07v1.39h-.78v-.68h-5.35Zm4.18.74c-.08.25-.16.51-.25.75H153v3.9h-.76v-.29h-2.57v.3H149V73.83h1.36c.06-.24.12-.5.16-.75h-1.87V72.4h4.71v.68Zm.92,1.41h-2.57v.78h2.57Zm0,2.3V75.9h-2.57v.89Z"/><path class="cls-15" d="M156.18,76a2.16,2.16,0,0,0,1.91.86c.93,0,2.82,0,3.87-.06a3.82,3.82,0,0,0-.25.75c-.95,0-2.67.06-3.63,0a2.74,2.74,0,0,1-2.23-.95c-.39.34-.81.67-1.27,1l-.36-.76a12.89,12.89,0,0,0,1.23-.86v-2h-1.13v-.71h1.86Zm-.36-3.81a6.33,6.33,0,0,0-1.37-1.36l.53-.48a6.53,6.53,0,0,1,1.41,1.28Zm1.86,4.24H157V72.22h2.11c-.44-.21-.94-.43-1.36-.59l.49-.41c.32.12.7.26,1.06.42a6.55,6.55,0,0,0,.9-.55H157v-.6h3.89l.16,0,.46.37a8.14,8.14,0,0,1-1.57,1.12c.21.1.4.2.56.29h1v3.5c0,.35-.06.52-.3.63a3.1,3.1,0,0,1-1.1.11,2.08,2.08,0,0,0-.21-.62c.35,0,.66,0,.76,0s.12,0,.12-.13v-.58h-1.23V76.4h-.69V75.14h-1.18Zm0-3.64v.6h1.18v-.6Zm1.18,1.78v-.62h-1.18v.62Zm1.92-1.78h-1.23v.6h1.23Zm0,1.78v-.62h-1.23v.62Z"/><path class="cls-15" d="M164.56,70.57a14.18,14.18,0,0,0-.35,2A2.62,2.62,0,0,1,166.33,71c1.11,0,1.93,1.09,1.93,2.85,0,2.27-1.42,3.31-3.5,3.69l-.49-.74c1.78-.28,3.12-.94,3.12-3,0-1.27-.42-2.1-1.2-2.1-1,0-1.89,1.46-2,2.53a3.68,3.68,0,0,0,0,.94l-.8.06a9.82,9.82,0,0,1-.1-1.32,21.31,21.31,0,0,1,.25-2.62c0-.27.06-.55.07-.76Z"/><path d="M4.45,76.53a6.1,6.1,0,0,1,1.23,1.25l-.6.34a9.08,9.08,0,0,0-2.12-1.93,9.1,9.1,0,0,0,2.12-1.93l.6.34a6.12,6.12,0,0,1-1.23,1.25h6.11v.69Z"/><path d="M10.18,81.37v6.51H9.37v-.49H4.17v.56H3.4V81.37Zm-.81,5.28v-2.2a1.69,1.69,0,0,1-.07.41.54.54,0,0,1-.3.33,1.51,1.51,0,0,1-.49.07H7.95a.93.93,0,0,1-.58-.17c-.15-.12-.21-.27-.21-.79V82.1H6.25c-.09,1.65-.33,2.9-1.53,3.66a2,2,0,0,0-.48-.57c1-.62,1.2-1.69,1.26-3.09H4.17v4.55Zm0-4.55H7.9v2.24c0,.13,0,.22.06.25a.37.37,0,0,0,.18,0h.3a.55.55,0,0,0,.22,0s.09-.07.11-.18a5.52,5.52,0,0,0,0-.72,1.92,1.92,0,0,0,.56.31Z"/><path d="M5.15,92.07l-.81.3a21.27,21.27,0,0,0-.91-2.25l.81-.29C4.45,90.31,5,91.53,5.15,92.07Zm5-2.16a4.93,4.93,0,0,0-.16.54,9.1,9.1,0,0,1-1.35,3,7.22,7.22,0,0,1-3.17,2.35l-.7-.72A6.45,6.45,0,0,0,7.89,93a7.53,7.53,0,0,0,1.27-3.36ZM7.3,91.48l-.8.28a20,20,0,0,0-.81-2.16l.79-.26A21.26,21.26,0,0,1,7.3,91.48Z"/><path d="M7.1,97.84a9,9,0,0,0,3.5,2.94,3.25,3.25,0,0,0-.49.67,9.94,9.94,0,0,1-1-.61v3H8.31v-.3H5.25v.31H4.47v-3a9.08,9.08,0,0,1-1,.63,3.06,3.06,0,0,0-.47-.6,8.83,8.83,0,0,0,3.33-3Zm-1-1.13a8.88,8.88,0,0,1-2.2,2.17,5.8,5.8,0,0,0-.62-.55,6.77,6.77,0,0,0,2.06-1.88Zm2.62,3.81a9.46,9.46,0,0,1-1.92-1.93,8.8,8.8,0,0,1-1.86,1.93Zm-.37,2.33V101.2H5.25v1.65Zm1.28-4a11.91,11.91,0,0,0-2.15-2l.6-.41a12,12,0,0,1,2.2,1.92Z"/><path d="M182.83,145.19c0,.31,0,1.06,0,1.13h-1s0-.24,0-.49h-4.53c0,.24,0,.45,0,.49h-.94c0-.08,0-.78,0-1.13V140.9c0-.23,0-.53,0-.76.34,0,.62,0,.84,0h5.55c0,.24,0,.51,0,.75ZM177.38,141V145h4.54V141Z"/><path d="M184.7,142.32c.28,0,.82.05,1.29.05h4.75c.43,0,.77,0,1-.05v1.08c-.19,0-.59,0-1,0H186c-.49,0-1,0-1.29,0Z"/><path d="M193.78,139.83c.4.59,1.17,1.92,1.49,2.51l-.9.51a21.11,21.11,0,0,0-1.46-2.57Zm3.43,3.54a7.25,7.25,0,0,0,1.07-2.76,5,5,0,0,0,.09-.86l1.1.15c-.08.28-.17.64-.21.83a8.88,8.88,0,0,1-1.2,3.1,7.5,7.5,0,0,1-3.08,2.69l-.82-.71A6.67,6.67,0,0,0,197.21,143.37Z"/><path d="M203.8,144.33a8.32,8.32,0,0,0,3-3.3l.53,1a9,9,0,0,1-3.07,3.17,9.65,9.65,0,0,1-3.35,1.3l-.59-.9A9.09,9.09,0,0,0,203.8,144.33Zm-.3-2.8-.69.71a20,20,0,0,0-2.19-1.85l.64-.68A17.76,17.76,0,0,1,203.51,141.54Z"/><path d="M143.73,105.45a4.86,4.86,0,0,1-2.78,3.06,2.51,2.51,0,0,0-.48-.67,4.18,4.18,0,0,0,2.21-1.84H140.8v-.73h2.27l.14,0Zm4.35-.2a20.73,20.73,0,0,1-1.88,1.27,5.58,5.58,0,0,0,2.42,1.25,3.09,3.09,0,0,0-.52.72,5.83,5.83,0,0,1-3.17-2.3v1.7c0,.44-.09.65-.4.76a4.81,4.81,0,0,1-1.45.12,2.88,2.88,0,0,0-.26-.75c.49,0,1,0,1.12,0s.18,0,.18-.16v-3.15h-2.54v-3.24h2.15a6,6,0,0,0,.35-.79l1,.16c-.13.22-.26.44-.39.64h2.89v3.24h-2.61v.11a5.05,5.05,0,0,0,.79,1.2,12.07,12.07,0,0,0,1.66-1.29Zm-5.69-2.45h4.31v-.68h-4.31Zm0,1.29h4.31v-.69h-4.31Z"/><path d="M157.15,107.88v.67h-6.44v-.67h2.78v-.8h-2.15v-.65h2.15v-.64l-2.31.1,0-.66,1,0c.17-.25.35-.55.5-.83H151a9.31,9.31,0,0,1-1,4.38,3.28,3.28,0,0,0-.73-.42,9.34,9.34,0,0,0,.94-4.73v-2.46h6.5v2.09H151v.48h5.92v.66h-1.63a9.09,9.09,0,0,1,1.63,1.33l-.66.44a5.13,5.13,0,0,0-.44-.45l-1.54.07v.67h2.22v.65h-2.22v.8Zm-6.16-6v.76h4.86v-.76Zm2.5,2.56c-.18.27-.37.55-.55.8l2.19-.07c-.21-.16-.42-.31-.62-.45l.46-.29Z"/><path d="M10.53,177.39a9.38,9.38,0,0,1-2,3.38,8.17,8.17,0,0,0,3.44,1.63,4.41,4.41,0,0,0-.59.8,8.55,8.55,0,0,1-3.53-1.8,10.06,10.06,0,0,1-3.47,1.82,4.23,4.23,0,0,0-.52-.8,9.09,9.09,0,0,0,3.37-1.63,9.92,9.92,0,0,1-2-3.4H4v-.79H7.46v-1.43h.83v1.43h3.54v.79Zm-4.4,0a7.91,7.91,0,0,0,1.74,2.8,7.74,7.74,0,0,0,1.71-2.8Z"/><path d="M19.91,179.7a.19.19,0,0,0,.13,0s.06-.06.07-.16,0-.34,0-.64a1.52,1.52,0,0,0,.47.24,4.59,4.59,0,0,1-.09.8.43.43,0,0,1-.24.27.64.64,0,0,1-.36.09h-.35a.67.67,0,0,1-.46-.17c-.11-.11-.16-.25-.16-.73v-1.5h-.6a3.94,3.94,0,0,1-.13.8,4.05,4.05,0,0,1,.69.49l-.39.5a3.62,3.62,0,0,0-.52-.41,3.21,3.21,0,0,1-1.15,1.19,1.84,1.84,0,0,0-.29-.3c-1.34.1-2.71.2-3.68.25l0-.49,1.57-.08v-.37h-1.2V179h1.2v-.43H15a1,1,0,0,1,0-.31v-.2h-.66c-.14.49-.49.76-1.31.92a1.26,1.26,0,0,0-.29-.39c.65-.1.94-.25,1.06-.52h-.91v-.45h1.53v-.3H13.29v-.44h1.12v-.25h.69v.25h1.11v.44H15.1v.3h1.51v.45H15.5v.2c0,.13,0,.15.14.15H16c.11,0,.15,0,.17-.25a1.25,1.25,0,0,0,.42.15c0,.38-.19.48-.5.48h-.56a.68.68,0,0,1-.46-.11V179h1.22v.44H15.11v.32l1.49-.08v.16a2.66,2.66,0,0,0,.85-1c-.26-.14-.52-.28-.78-.39l.36-.45c.2.08.41.18.63.29a3.17,3.17,0,0,0,.07-.48h-.92v-.59h.94v-.56h.63v.56h1.26v2.11c0,.17,0,.25,0,.27s.05,0,.1,0Zm-7.18,1.68h7.76v.49h-2a8.34,8.34,0,0,1,1.73,1.06l-.56.38a6.3,6.3,0,0,0-.58-.45c-2.09.13-4.28.25-5.74.31l-.09-.55,1.17,0a8.09,8.09,0,0,0,.45-.71H12.73Zm2-5.1h-2v-.58h2v-.53h.79v.53h2.09v-.53h.8v.53h2v.58h-2v.35h-.8v-.35H15.56v.35h-.79Zm4.69,4.24V181H13.83v-.49Zm-3.79,1.35c-.17.24-.35.47-.52.67l3.17-.14c-.22-.11-.43-.22-.63-.31l.38-.23Z"/><path d="M27.41,179a5.24,5.24,0,0,0,2.06,1.52,2.65,2.65,0,0,0-.54.66,5.53,5.53,0,0,1-1.28-.8v2.81h-.84v-.25H23.9v.28h-.8v-2.75a6.73,6.73,0,0,1-1.31.88,2.12,2.12,0,0,0-.52-.65A6,6,0,0,0,23.4,179H21.46v-.67h2.4q.16-.29.29-.58H22.21v-.65H24.4c.06-.18.11-.38.16-.57H21.93v-.66h2.75c0-.22.05-.45.07-.67l.82.06c0,.2,0,.4-.07.6h3.27v.66H25.39c0,.19-.1.38-.15.57H28.5v.65H26.6a6.15,6.15,0,0,0,.31.58h2.33V179Zm-.59,1.22H23.9v.72h2.91Zm0,2.07v-.76H23.9v.76ZM24.38,179c-.13.2-.27.39-.42.59h2.9c-.15-.18-.3-.38-.43-.59Zm.63-1.25c-.08.19-.16.38-.25.58H26a5.76,5.76,0,0,1-.26-.58Z"/><path d="M33,180.49c-.12-.25-.38-.68-.62-1v3.77H31.6v-3.6a8.66,8.66,0,0,1-1.23,2.19A4.16,4.16,0,0,0,30,181a8.62,8.62,0,0,0,1.48-2.58H30.15v-.75H31.6v-1.26c-.41.08-.82.15-1.21.19a2.65,2.65,0,0,0-.24-.63,15.48,15.48,0,0,0,2.85-.7l.52.63a9,9,0,0,1-1.15.34v1.42h1.2v.75h-1.2v.16c.21.22.93,1.07,1.08,1.29Zm3.09-5.3c0,1.2,0,2.31-.1,3.33.3,1.84.91,3.34,2.19,4a2.87,2.87,0,0,0-.51.64,4.76,4.76,0,0,1-2-2.87,4.57,4.57,0,0,1-2.08,2.89,2.3,2.3,0,0,0-.54-.59c2.33-1.35,2.26-4,2.27-7.43Zm-2.65,4.14A5,5,0,0,0,34,177.1l.7.1a5.36,5.36,0,0,1-.59,2.42Zm4.52-2a22.66,22.66,0,0,1-1,2.28l-.68-.2a14,14,0,0,0,.86-2.29Z"/><path d="M33.82,112.08a6.5,6.5,0,0,1-1.37,2.13,7.61,7.61,0,0,0,3.4,1.33,3.9,3.9,0,0,0-.54.78,7.56,7.56,0,0,1-3.51-1.54,9.3,9.3,0,0,1-3.5,1.56,4.56,4.56,0,0,0-.52-.77,8.6,8.6,0,0,0,3.4-1.37,7,7,0,0,1-1.29-2.09l.78-.24a5.29,5.29,0,0,0,1.14,1.78A5,5,0,0,0,33,111.84ZM31,110.66a9.25,9.25,0,0,1-2.41,2.16,6.78,6.78,0,0,0-.67-.64,6.72,6.72,0,0,0,2.25-1.84Zm4.63-.49H28v-.8h3.38v-1.08h.84v1.08h3.41Zm-2.21.12a13,13,0,0,1,2.32,1.89l-.72.56a13.1,13.1,0,0,0-2.26-2Z"/><path d="M41.7,111.37a8.78,8.78,0,0,0,2.92,1.41,3.12,3.12,0,0,0-.53.68c-.24-.08-.48-.17-.72-.27v3.11h-.81V116h-4v.29H37.8v-3.17a8.66,8.66,0,0,1-.81.34,3.13,3.13,0,0,0-.52-.63,8.71,8.71,0,0,0,2.82-1.5H36.7v-.68h1.79a5.24,5.24,0,0,0-.58-1l.46-.17-1,0a2.58,2.58,0,0,0-.17-.63,40.69,40.69,0,0,0,5.92-.54l.52.59a24.71,24.71,0,0,1-2.74.38v1.33H42l-.28-.09a8.7,8.7,0,0,0,.66-1.31l.88.24c-.25.41-.52.85-.75,1.16h1.87v.68Zm1.18,1.58a8,8,0,0,1-2-1.42v1.27h-.8v-1.23a8.83,8.83,0,0,1-1.9,1.38Zm-2.75.64H38.59v.61h1.54Zm-1.54,1.83h1.54v-.66H38.59Zm1.51-6-1.43.09a4.19,4.19,0,0,1,.61,1l-.36.14H40.1Zm2.46,4.16H40.9v.61h1.66Zm0,1.83v-.66H40.9v.66Z"/><path d="M63.49,170.68a7.87,7.87,0,0,1-.67,2.24,4,4,0,0,0-.66-.32,6,6,0,0,0,.59-2.05Zm1.73-2.4a7.87,7.87,0,0,1,1,1.82l-.65.32a4.62,4.62,0,0,0-.22-.52l-.77.05v3.61h-.77V170l-1.52.08-.08-.72.62,0c.17-.2.36-.42.54-.66a7.65,7.65,0,0,0-1.14-1.13l.39-.54.22.17a11.36,11.36,0,0,0,.87-1.63l.73.32a20.12,20.12,0,0,1-1.13,1.74,5,5,0,0,1,.48.5,15.42,15.42,0,0,0,1-1.57l.71.34a29.17,29.17,0,0,1-1.9,2.42l1.36-.07c-.13-.23-.27-.46-.41-.67Zm.24,2.21a8.58,8.58,0,0,1,.69,1.67l-.67.26a9.66,9.66,0,0,0-.66-1.7Zm3.65,2.27c.41,0,.48-.21.53-1.36a2.76,2.76,0,0,0,.75.33c-.1,1.38-.33,1.78-1.23,1.78H67.56c-1,0-1.25-.25-1.25-1.18v-3.66h2.75v-1.91h-3V166h3.79v3.93h-.81v-.5H67.13v2.89c0,.36.08.42.52.42Z"/><path d="M77.72,172.68c.36,0,.43-.14.48-.88a2.34,2.34,0,0,0,.73.31c-.1,1-.34,1.31-1.15,1.31H76.13c-1,0-1.25-.24-1.25-1.12v-.4l-2.08.32-.12-.67,2.2-.34v-.66l-1.84.28-.12-.66,2-.3v-.62c-.57.09-1.15.17-1.71.24a2.27,2.27,0,0,0-.21-.59,20.89,20.89,0,0,0,3.8-.76H72.61v.34a11,11,0,0,1-.94,5.08,3.24,3.24,0,0,0-.73-.41,9.74,9.74,0,0,0,.85-4.66v-2.54h6.63v2.19H77l.6.48a14,14,0,0,1-1.89.48v.65l2.37-.35.12.66-2.49.38v.67l3-.46.12.66-3.08.48v.52c0,.34.08.39.53.39Zm-5.11-5.25h5v-.8h-5Z"/><path d="M87.62,170.79H85.75v2.77H84.9v-2.77H82.56a4.16,4.16,0,0,1-1.82,2.85A3.47,3.47,0,0,0,80,173a3.59,3.59,0,0,0,1.64-2.26H79.92V170H81.8a10.63,10.63,0,0,0,0-1.07v-.82H80.19v-.81h1.65v-1.7h.86v1.7H84.9v-1.71h.86v1.71H87.4v.81H85.75V170h1.87ZM84.9,170v-1.89H82.7v.82c0,.36,0,.72,0,1.07Z"/><path d="M92.53,171.93h-3v.67H88.8V166h3.73Zm-3-5.26v1.87h.84v-1.87Zm0,4.55h.84v-2h-.84Zm2.33-4.55H91v1.87h.85Zm0,4.55v-2H91v2Zm4.75-3.88H95.39v5.24c0,.47-.1.72-.44.86a5.41,5.41,0,0,1-1.68.14,2.89,2.89,0,0,0-.28-.81c.58,0,1.17,0,1.35,0s.22-.05.22-.2v-5.23H92.7v-.8h3.86Z"/><path d="M164,209.53H160.5v3h-.84v-3H156.2v-.82h3.46v-2.87h-3V205h6.85v.8h-3v2.87H164ZM158,206.2a8.77,8.77,0,0,1,.77,1.89l-.78.26a9.52,9.52,0,0,0-.73-1.92Zm3.38,1.93a11.71,11.71,0,0,0,.86-2l.87.24a16.78,16.78,0,0,1-1,2Z"/><path d="M166.34,208.5a18.42,18.42,0,0,0-1.6-.94l.44-.59a16.28,16.28,0,0,1,1.62.87ZM165,211.85a24.62,24.62,0,0,0,1.65-2.76l.59.53c-.45.91-1,2-1.55,2.78Zm7.87-6.05h-.65v5.6c0,.55-.14.8-.51.94a6.66,6.66,0,0,1-2,.16,3.57,3.57,0,0,0-.32-.87c.73,0,1.49,0,1.71,0s.27-.07.27-.26v-5.6H167.2v-.25l-.47.62c-.35-.25-1.08-.68-1.6-1l.46-.59c.51.26,1.22.66,1.61.91V205h5.64ZM168.39,210v.59h-.73v-3.76h2.78V210Zm0-2.43v1.7h1.3v-1.7Z"/><path d="M160.66,217.59a4.56,4.56,0,0,0,3.49,3.13,4,4,0,0,0-.55.78,5,5,0,0,1-3.46-3c-.42,1.19-1.39,2.31-3.58,3a3.07,3.07,0,0,0-.5-.73c2.37-.76,3.17-2,3.42-3.19h-3v-.83h3.05c0-.13,0-.26,0-.38v-1.45h-3.32v-.83h7.64v.83h-3.46v1.46c0,.12,0,.25,0,.38h3.24v.83Z"/><path d="M166.34,217.38a6,6,0,0,0-1.56-.85l.43-.63a6.64,6.64,0,0,1,1.6.79ZM165,220.9a26.34,26.34,0,0,0,1.41-2.79l.64.49c-.38.92-.88,2-1.32,2.78Zm1.67-5.79a6.24,6.24,0,0,0-1.48-1l.48-.58a5.76,5.76,0,0,1,1.5.93Zm3.58,1.44v.64h2.3v3.47c0,.38-.07.59-.33.7a4,4,0,0,1-1.28.1,3,3,0,0,0-.2-.68l.9,0c.11,0,.15,0,.15-.14v-2.75h-1.63v1.6h.59v-1.18h.51v2.14h-.51v-.37H169v.52h-.51v-2.3H169v1.18h.56v-1.6H168v3.58h-.73v-4.29h2.2v-.64H167v-.73h1.47V215h-1.19v-.71h1.19v-.82h.76v.82h1.38v-.82h.78v.82h1.22V215h-1.22v.82h1.47v.73Zm-1.08-.73h1.38V215h-1.38Z"/><path d="M181.24,214.24v2.05h-.83V215H174.7v1.31h-.8v-2.05h3.18v-.79h.86v.79ZM178,217.93c-.06.23-.11.46-.17.67h2.71v2.84h-.85v-.32h-4.17v.34h-.81V218.6H177c0-.22.05-.46.07-.67H175.3v-2.3h4.5v2.3Zm1.7,1.37h-4.17v1.12h4.17Zm-3.62-2H179v-1h-2.92Z"/><path d="M48.06,225.48a5.88,5.88,0,0,1-1.33,2,4.34,4.34,0,0,0-.56-.39,4.52,4.52,0,0,0,1.16-1.78Zm3-.68v3c0,.39-.08.59-.35.71a3.3,3.3,0,0,1-1.21.12,2.64,2.64,0,0,0-.25-.72c.39,0,.79,0,.9,0s.15,0,.15-.13v-3h-1v.4a3.84,3.84,0,0,1-1.67,3.52,2.52,2.52,0,0,0-.54-.53,3.23,3.23,0,0,0,1.49-3v-.39H46.38v-.69h3v-1H47.14v-.68h2.24v-.86h.73v.86h2.45v.68H50.12v1h3.07v.69Zm1.06.44a11.46,11.46,0,0,1,1.23,1.93l-.69.33a10.71,10.71,0,0,0-1.18-2Z"/><path d="M48.75,234.07l-2.3,1-.27-.72c.28-.1.63-.23,1-.39v-2.23h-.86v-.68h.86v-1.72h.67v1.72h.75v.68h-.75v2l.73-.31Zm4.32-2.39a7,7,0,0,1-1.3,3,4.55,4.55,0,0,0,1.61,1,3.25,3.25,0,0,0-.49.64,4.83,4.83,0,0,1-1.62-1.09,5.5,5.5,0,0,1-1.65,1.1,2.49,2.49,0,0,0-.42-.6,4.62,4.62,0,0,0,1.6-1.06,7.52,7.52,0,0,1-1.06-2.11,5.73,5.73,0,0,1-1.26,3.71,2.38,2.38,0,0,0-.55-.46A5.42,5.42,0,0,0,49.07,232v-2.33h4.18v.68H49.76v1.2h2.71l.12,0Zm-2.75.53a6,6,0,0,0,1,1.93,5.75,5.75,0,0,0,.93-1.93Z"/><path d="M50.1,242.73a5.72,5.72,0,0,1,1.17-1.15l.32.56a8.49,8.49,0,0,0-1.81,2,8.51,8.51,0,0,0-1.81-2l.32-.56a5.71,5.71,0,0,1,1.17,1.15V237h.65Z"/><path d="M224.24,142.09a5.61,5.61,0,1,1,5.61,5.61A5.62,5.62,0,0,1,224.24,142.09Zm10.83,0a5.22,5.22,0,1,0-5.22,5.22A5.22,5.22,0,0,0,235.07,142.09Zm-5.56-1.88h-1.3v-.78a4.89,4.89,0,0,0,1.58-.53h.94v6.25h-1.22Z"/><path d="M35,89.57a5.61,5.61,0,1,1,5.61,5.61A5.62,5.62,0,0,1,35,89.57Zm10.83,0a5.22,5.22,0,1,0-5.22,5.22A5.22,5.22,0,0,0,45.84,89.57Zm-5.56-1.88H39v-.78a4.89,4.89,0,0,0,1.58-.53h.94v6.25H40.28Z"/><path d="M224.24,126.25a5.61,5.61,0,1,1,5.61,5.61A5.62,5.62,0,0,1,224.24,126.25Zm10.83,0a5.22,5.22,0,1,0-5.22,5.22A5.22,5.22,0,0,0,235.07,126.25Zm-7.34,2.35c1.9-1.64,3.07-2.73,3.07-3.67a1,1,0,0,0-1.1-1.06,2.09,2.09,0,0,0-1.39.68l-.68-.66a3,3,0,0,1,2.21-1,1.93,1.93,0,0,1,2.16,1.91c0,1.13-1.15,2.28-2.51,3.51.36,0,.82-.06,1.21-.06h1.56v1h-4.52Z"/><path d="M235.47,92.54a5.61,5.61,0,1,1-5.61-5.61A5.62,5.62,0,0,1,235.47,92.54Zm-.4,0a5.22,5.22,0,1,0-5.22,5.22A5.22,5.22,0,0,0,235.07,92.54Zm-3.79-1.87a1.72,1.72,0,0,0-1.14-.47c-.88,0-1.61.56-1.67,2.24a2.33,2.33,0,0,1,1.62-.73,1.79,1.79,0,0,1,2,2,2.06,2.06,0,0,1-2.19,2.07c-1.38,0-2.53-.95-2.53-3.08,0-2.42,1.31-3.45,2.76-3.45a2.56,2.56,0,0,1,1.83.72Zm-.36,3a1,1,0,0,0-1.13-1.12,1.66,1.66,0,0,0-1.28.71c.13,1.09.65,1.52,1.37,1.52A1.06,1.06,0,0,0,230.92,93.7Z"/><polyline class="cls-16" points="241.06 90.89 236.69 93.97 241.06 97.06"/><polyline class="cls-16" points="241.06 124.17 236.69 127.26 241.06 130.35"/><polyline class="cls-16" points="241.06 140.09 236.69 143.18 241.06 146.27"/><path class="cls-17" d="M223.52,172.23c0-2.26,1.45-3.58,3.18-3.58a2.79,2.79,0,0,1,2,.88l-.72.87a1.76,1.76,0,0,0-1.26-.57c-1,0-1.81.89-1.81,2.36s.7,2.39,1.78,2.39a1.9,1.9,0,0,0,1.42-.68l.72.85a2.77,2.77,0,0,1-2.18,1C224.92,175.76,223.52,174.52,223.52,172.23Z"/><path class="cls-17" d="M229.5,173a2.5,2.5,0,1,1,2.49,2.71A2.53,2.53,0,0,1,229.5,173Zm3.59,0c0-1-.4-1.62-1.1-1.62s-1.1.64-1.1,1.62.4,1.6,1.1,1.6S233.09,174,233.09,173Z"/><path class="cls-17" d="M235.29,173a2.59,2.59,0,0,1,2.64-2.73,2.27,2.27,0,0,1,1.51.57l-.65.88a1.18,1.18,0,0,0-.8-.34c-.79,0-1.32.64-1.32,1.62s.54,1.6,1.29,1.6a1.61,1.61,0,0,0,1-.42l.54.9a2.57,2.57,0,0,1-1.69.63A2.48,2.48,0,0,1,235.29,173Z"/><path class="cls-17" d="M239.88,173a2.5,2.5,0,1,1,2.49,2.71A2.53,2.53,0,0,1,239.88,173Zm3.59,0c0-1-.4-1.62-1.1-1.62s-1.1.64-1.1,1.62.4,1.6,1.1,1.6S243.47,174,243.47,173Z"/><path class="cls-17" d="M246,168.25h1.32v4.44h0l1.79-2.24h1.48l-1.79,2.12,2,3.06h-1.47l-1.26-2.15-.75.85v1.29H246Z"/><path class="cls-17" d="M251.59,170.45h1.11l.09.68h0a2.39,2.39,0,0,1,1.68-.81c1.12,0,1.6.78,1.6,2.08v3.23h-1.36v-3.06c0-.79-.22-1.08-.73-1.08a1.49,1.49,0,0,0-1.08.58v3.56h-1.35Z"/><path class="cls-17" d="M257.19,173a2.5,2.5,0,1,1,2.49,2.71A2.53,2.53,0,0,1,257.19,173Zm3.59,0c0-1-.4-1.62-1.1-1.62s-1.1.64-1.1,1.62.4,1.6,1.1,1.6S260.78,174,260.78,173Z"/><path class="cls-17" d="M263.24,173.81v-2.29h-.73v-1l.79-.07.16-1.39h1.14v1.39h1.28v1.07H264.6v2.29c0,.59.24.87.7.87a1.53,1.53,0,0,0,.51-.11l.22,1a3.36,3.36,0,0,1-1.09.19C263.71,175.76,263.24,175,263.24,173.81Z"/><path class="cls-17" d="M266.33,175l.62-.85a2.24,2.24,0,0,0,1.39.56c.52,0,.75-.22.75-.55s-.54-.56-1.08-.78-1.41-.65-1.41-1.51.76-1.59,1.92-1.59a2.9,2.9,0,0,1,1.77.64l-.61.82a2,2,0,0,0-1.12-.44c-.46,0-.68.2-.68.5s.51.52,1.05.72,1.44.6,1.44,1.56-.71,1.64-2.06,1.64A3.27,3.27,0,0,1,266.33,175Z"/><polyline class="cls-16" points="32.88 81.43 37.8 83.55 38.16 78.21"/><path d="M232.31,5.63a6.08,6.08,0,0,1-1.25,1.23l-.34-.6a9.09,9.09,0,0,0,1.93-2.12,9.09,9.09,0,0,0,1.93,2.12l-.34.6A6.08,6.08,0,0,1,233,5.63v6.11h-.69Z"/><path d="M235.57,19.08c.21,0,.25-.2.28-1.21a2.36,2.36,0,0,0,.72.34c-.07,1.22-.27,1.62-.93,1.62h-.91c-.7,0-.94-.25-.94-1.13V15.22H232.1c-.19,2-.77,3.72-2.71,4.73a2.48,2.48,0,0,0-.56-.62c1.77-.87,2.29-2.34,2.46-4.11h-2.06v-.77h2.11c0-.62,0-1.27,0-1.95h.83c0,.67,0,1.32,0,1.95h2.44v4.27c0,.32,0,.36.27.36Z"/><path d="M232.31,26.45l-2.08.34v1.37h-.72V26.91l-.55.09-.12-.74.67-.1V21.22l.36.11a8.48,8.48,0,0,0,1.86-.69l.64.54a11.25,11.25,0,0,1-2.14.71v.81H232v.71h-1.78v.86h1.84V25h-1.84v1.08l2.06-.31Zm3.79-2.06a5.25,5.25,0,0,1-1.31,2.31,4.93,4.93,0,0,0,1.72.78,3.3,3.3,0,0,0-.49.67,4.93,4.93,0,0,1-1.81-.95,6.44,6.44,0,0,1-2,1,2.47,2.47,0,0,0-.41-.67,5.74,5.74,0,0,0,1.91-.84,5.49,5.49,0,0,1-1-1.63l.46-.13h-.77v-.69h3.09l.13,0Zm-2.56-2.27a2.23,2.23,0,0,1-1,2.06,2.37,2.37,0,0,0-.52-.52,1.61,1.61,0,0,0,.84-1.56V20.94h2.52v2c0,.16,0,.24,0,.27a.21.21,0,0,0,.12,0h.18a.34.34,0,0,0,.15,0,.29.29,0,0,0,.08-.19,5.59,5.59,0,0,0,0-.68,2.07,2.07,0,0,0,.57.3,3.68,3.68,0,0,1-.09.82.47.47,0,0,1-.26.3.94.94,0,0,1-.41.08h-.43a.75.75,0,0,1-.5-.17c-.13-.12-.18-.27-.18-.76V21.62h-1.1Zm-.15,2.8a4.08,4.08,0,0,0,.83,1.29,4,4,0,0,0,.9-1.29Z"/><path d="M232.9,30.22v1.39l.14-.17a19.45,19.45,0,0,1,2.86,1.68l-.56.7a18.24,18.24,0,0,0-2.44-1.58v4.14h-.81V30.22H229v-.78h7.26v.78Z"/><line class="cls-18" x1="49.77" y1="155.44" x2="59.5" y2="167.63"/><circle cx="50.25" cy="156.2" r="1.75"/><path class="cls-17" d="M223.78,164.3a4.62,4.62,0,0,1-.36,2l-4,8.5a1.34,1.34,0,0,1-.52.57,1.43,1.43,0,0,1-1.48,0,1.27,1.27,0,0,1-.51-.57l-4-8.5a4.62,4.62,0,0,1-.36-2,5.63,5.63,0,0,1,11.25,0Zm-3.64,2a2.81,2.81,0,1,0-2,.82A2.71,2.71,0,0,0,220.14,166.29Z"/><path d="M258.43,38.26h-3.85v2.63h-.94V38.26h-3.77v-.9h3.77V36h-3.18v-.89h3.18V32.06h.94v3.05h3.32V36h-3.32v1.37h3.85Zm-6.69-3.5a9.64,9.64,0,0,0-1-2.15l.82-.32a9.23,9.23,0,0,1,1.1,2.1Zm5.89-2.2a20.31,20.31,0,0,1-1.24,2.16l-.81-.3a12.08,12.08,0,0,0,1.1-2.17Z"/><path d="M257.93,45.58a9.72,9.72,0,0,1-1.27,3c.28.74.61,1.12.88,1.12s.28-.27.34-1.21a2.4,2.4,0,0,0,.73.43c-.13,1.37-.44,1.62-1.15,1.62-.53,0-1-.42-1.36-1.21a6.72,6.72,0,0,1-1.38,1.24,6.3,6.3,0,0,0-.69-.62l.39-.25h-2v.46h-.68V45.45H255v.61h-1.12v.55H255v1.86h-1.09v.59h1.19v.13a6.5,6.5,0,0,0,.68-.77,17.42,17.42,0,0,1-.59-3.43h-3.9v1.67a6.87,6.87,0,0,1-.93,3.93,3.38,3.38,0,0,0-.69-.46,5.92,5.92,0,0,0,.81-3.47V44.22h4.67c0-.25,0-.51,0-.77h.18V43H253v.67h-.89V43h-2.17v-.74h2.17V41.7H253v.56h2.3V41.7h.9v.56h2.2V43h-2.2v.62h-.24c0,.2,0,.4,0,.6h1.42a4.76,4.76,0,0,0-.84-.7l.54-.39a4.7,4.7,0,0,1,1,.76l-.42.34h.81V45H256a17.84,17.84,0,0,0,.36,2.5,8.67,8.67,0,0,0,.74-2.06Zm-5.54.47v.55h.84v-.55Zm1.95,1.12H252.4v.71h1.95Zm-1.95,1.88h.84v-.59h-.84Z"/><path d="M253.71,55.33h-2.63v4.83h-.89V51.75h3.51Zm-2.63-2.83v.68h1.79V52.5Zm1.79,2.1v-.75h-1.79v.75ZM258.13,59c0,.56-.12.83-.49,1a5.91,5.91,0,0,1-1.86.16,3.21,3.21,0,0,0-.32-.92c.64,0,1.31,0,1.5,0s.25-.07.25-.24V55.34H254.5V51.75h3.63Zm-2.77-6.52v.68h1.86V52.5Zm1.86,2.12v-.77h-1.86v.77Z"/><path d="M250.86,66.6a8.81,8.81,0,0,1-.62,2.45,4.52,4.52,0,0,0-.66-.32,7.35,7.35,0,0,0,.54-2.25Zm1.07-.8v4h-.79V65.86l-1.42.09-.09-.78.67,0c.16-.21.35-.45.52-.7a9.26,9.26,0,0,0-1.15-1.36l.45-.6.26.25a11.46,11.46,0,0,0,.78-1.75l.79.29c-.34.65-.75,1.42-1.1,2a6,6,0,0,1,.42.52,17.18,17.18,0,0,0,1-1.66l.74.34c-.54.86-1.23,1.88-1.86,2.68l1.14-.07a7,7,0,0,0-.37-.72l.64-.27a7.87,7.87,0,0,1,.9,2l-.68.32a5.4,5.4,0,0,0-.17-.59Zm.87.65a7.43,7.43,0,0,1,.48,1.67l-.68.21a6.52,6.52,0,0,0-.44-1.7Zm2.54-.13a4.58,4.58,0,0,1-2,3.11,2.82,2.82,0,0,0-.56-.62,3.52,3.52,0,0,0,1.62-1.93h-1.14v-.74h1.47l.13,0Zm3.2-.06c-.45.39-1,.82-1.41,1.14a3.85,3.85,0,0,0,1.58,1.3,3.45,3.45,0,0,0-.54.72,4.6,4.6,0,0,1-1.92-2.09V68.9c0,.4-.06.63-.34.76a3.26,3.26,0,0,1-1.25.13,3.21,3.21,0,0,0-.23-.77h.87c.12,0,.14,0,.14-.13v-3.5h-1.89V61.93h1.54a8.06,8.06,0,0,0,.36-1l1,.17c-.14.28-.3.56-.44.81h2.13v3.46h-1.9v.07a6.57,6.57,0,0,0,.5,1.33,9.6,9.6,0,0,0,1-1.06Zm-4.17-2.93h2.94v-.69h-2.94Zm0,1.36h2.94V64h-2.94Z"/><path d="M258.43,86.43h-3.85v2.63h-.94V86.43h-3.77v-.9h3.77V84.16h-3.18v-.89h3.18V80.23h.94v3.05h3.32v.89h-3.32v1.37h3.85Zm-6.69-3.5a9.64,9.64,0,0,0-1-2.15l.82-.32a9.23,9.23,0,0,1,1.1,2.1Zm5.89-2.2a20.31,20.31,0,0,1-1.24,2.16l-.81-.3a12.08,12.08,0,0,0,1.1-2.17Z"/><path d="M257.93,93.75a9.72,9.72,0,0,1-1.27,3c.28.74.61,1.12.88,1.12s.28-.27.34-1.21a2.4,2.4,0,0,0,.73.43c-.13,1.37-.44,1.62-1.15,1.62-.53,0-1-.42-1.36-1.21a6.72,6.72,0,0,1-1.38,1.24,6.3,6.3,0,0,0-.69-.62l.39-.25h-2v.46h-.68V93.61H255v.61h-1.12v.55H255v1.86h-1.09v.59h1.19v.13a6.5,6.5,0,0,0,.68-.77,17.42,17.42,0,0,1-.59-3.43h-3.9v1.67a6.87,6.87,0,0,1-.93,3.93,3.38,3.38,0,0,0-.69-.46,5.92,5.92,0,0,0,.81-3.47V92.38h4.67c0-.25,0-.51,0-.77h.18v-.44H253v.67h-.89v-.67h-2.17v-.74h2.17v-.56H253v.56h2.3v-.56h.9v.56h2.2v.74h-2.2v.62h-.24c0,.2,0,.4,0,.6h1.42a4.76,4.76,0,0,0-.84-.7l.54-.39a4.7,4.7,0,0,1,1,.76l-.42.34h.81v.76H256a17.84,17.84,0,0,0,.36,2.5,8.67,8.67,0,0,0,.74-2.06Zm-5.54.47v.55h.84v-.55Zm1.95,1.12H252.4V96h1.95Zm-1.95,1.88h.84v-.59h-.84Z"/><path d="M253.71,103.5h-2.63v4.83h-.89V99.92h3.51Zm-2.63-2.83v.68h1.79v-.68Zm1.79,2.1V102h-1.79v.75Zm5.26,4.42c0,.56-.12.83-.49,1a5.91,5.91,0,0,1-1.86.16,3.21,3.21,0,0,0-.32-.92c.64,0,1.31,0,1.5,0s.25-.07.25-.24v-3.68H254.5V99.92h3.63Zm-2.77-6.52v.68h1.86v-.68Zm1.86,2.12V102h-1.86v.77Z"/><path d="M249.61,117.2a4.54,4.54,0,0,0,.5-2.18l.51.1a4.85,4.85,0,0,1-.53,2.35Zm4.26-3.37s0,.23,0,.34c-.12,2.33-.22,3.2-.46,3.5a.73.73,0,0,1-.54.28,5.13,5.13,0,0,1-.88,0,1.86,1.86,0,0,0-.19-.71,5.44,5.44,0,0,0,.69,0,.31.31,0,0,0,.27-.11,2.45,2.45,0,0,0,.23-1.06l-.32.13a5.17,5.17,0,0,0-.5-1.24l.38-.13a5.49,5.49,0,0,1,.45,1c0-.35.06-.77.08-1.29h-2.91v-5h3.58v.74h-1.29V111h1.12v.7h-1.12v.73h1.12v.7h-1.12v.74Zm-2.64,1.35a10.24,10.24,0,0,1,.13,1.74l-.45.07a10.35,10.35,0,0,0-.12-1.76Zm-.31-4.94V111h.79v-.71Zm.79,1.41h-.79v.73h.79Zm-.79,2.18h.79v-.74h-.79Zm.9,2.86a7.2,7.2,0,0,0-.34-1.55l.41-.09a7.18,7.18,0,0,1,.37,1.54Zm4.94-3.14a5.33,5.33,0,0,0,1.89,3.73,2.67,2.67,0,0,0-.58.72c-1.22-.87-1.79-2.45-2.11-4.45h-.68a8.43,8.43,0,0,1-1,4.44,3.31,3.31,0,0,0-.72-.46,7.86,7.86,0,0,0,.92-4.39V109.5h3.78v4.05Zm-1.48-3.24v2.41h2.14v-2.41Z"/><path d="M297.22,237.46v7.65h-.87v-.43h-5.54v.43H290v-7.65Zm-.87,6.47v-5.72h-5.54v5.72Zm-.41-1.35v.67h-4.66v-.67h1.9v-1.29h-1.55v-.69h1.55v-1.06h-1.77v-.72h4.36v.72h-1.83v1.06h1.63v.69h-1.63v1.29h1.21a5.55,5.55,0,0,0-.78-1l.52-.28a6.2,6.2,0,0,1,.81.91l-.53.32Z"/><path d="M306.27,243.94v.81h-7.81v-.81h4.36a25.52,25.52,0,0,0,1.1-4.08l.93.18a35.36,35.36,0,0,1-1.17,3.91ZM306,239.5h-7.27v-.8h3.17v-1.62h.85v1.62H306Zm-5.34,4.08a13.41,13.41,0,0,0-.78-3.47l.77-.21a13.49,13.49,0,0,1,.84,3.46Z"/><path d="M308.34,241a8.87,8.87,0,0,1-.74,4.07,2.94,2.94,0,0,0-.6-.38,8,8,0,0,0,.65-3.69v-2.42h1.63V237.1H310v.49h1.88v.58H310v.45h1.54l.12,0,.46.11a6.72,6.72,0,0,1-.38,1.35l-.58-.14a6.44,6.44,0,0,0,.18-.69H310v.45l1-.11.06.46-1.11.13v.16c0,.19.05.22.31.22h.93c.18,0,.23-.05.25-.41a1.57,1.57,0,0,0,.51.17c-.05.53-.23.68-.68.68h-1.08c-.68,0-.86-.13-.86-.66v-.09l-.8.09-.06-.47.86-.1v-.52h-1Zm3.54,1.25c-.34.29-.71.59-1,.8.44.25,1.2.71,1.41.86l-.4.56c-.19-.17-.58-.48-.94-.75a1.29,1.29,0,0,1-.36,1.11,1,1,0,0,1-.69.24l-.51,0a1.34,1.34,0,0,0-.19-.57,5.21,5.21,0,0,0,.57,0,.46.46,0,0,0,.38-.12.9.9,0,0,0,.19-.73,7.6,7.6,0,0,1-2,1.13,1.85,1.85,0,0,0-.31-.44,6,6,0,0,0,2.21-1.17,2,2,0,0,0-.13-.28,6.52,6.52,0,0,1-1.46.78,1.82,1.82,0,0,0-.3-.4,4.92,4.92,0,0,0,1.53-.71,2,2,0,0,0-.19-.21,6.62,6.62,0,0,1-1,.39,2.12,2.12,0,0,0-.25-.41,5.79,5.79,0,0,0,1.5-.62h-1.36v-.53H312v.53h-1.36a3.94,3.94,0,0,1-.51.38,2.14,2.14,0,0,1,.46.56,7.63,7.63,0,0,0,.8-.78Zm1.19.72h-.73v-4.9h.73Zm1.65-5.67v6.79c0,.45-.09.68-.38.81a3.82,3.82,0,0,1-1.4.14,3.45,3.45,0,0,0-.25-.79l1.09,0c.13,0,.17,0,.17-.17v-6.79Z"/><path d="M318.61,242.33c-.87.45-1.82.92-2.55,1.27l-.31-.81,1.14-.47V239.7h-1v-.77h1v-1.77h.75v1.77h.88v.77h-.88V242l.8-.37Zm1.7-1a4,4,0,0,1-.32.52h3.65s0,.2,0,.31c-.14,1.75-.27,2.43-.51,2.69a.76.76,0,0,1-.52.25,7.06,7.06,0,0,1-.87,0,1.61,1.61,0,0,0-.18-.66,5.81,5.81,0,0,0,.68,0c.13,0,.2,0,.27-.1a4.56,4.56,0,0,0,.35-1.88h-.52a6,6,0,0,1-1.76,2.66,2.6,2.6,0,0,0-.59-.45,5.07,5.07,0,0,0,1.66-2.2h-.69a6.71,6.71,0,0,1-2.08,2.28,2.24,2.24,0,0,0-.54-.49,5.65,5.65,0,0,0,1.89-1.79h-.73a5.92,5.92,0,0,1-1.08.94,4.35,4.35,0,0,0-.55-.51,4.7,4.7,0,0,0,1.65-1.61h-1.12v-.69h5.46v.69Zm2.92-1.11h-4v-2.87h4Zm-.75-2.28h-2.55v.57h2.55Zm0,1.12h-2.55v.58h2.55Z"/></g></svg>