<svg xmlns="http://www.w3.org/2000/svg" xmlns:xlink="http://www.w3.org/1999/xlink" viewBox="0 0 600 250"><defs><style>.cls-1{fill:url(#名称未設定グラデーション_59);}.cls-2{opacity:0.6;}.cls-3{fill:#fff;}.cls-4,.cls-5,.cls-6,.cls-7{fill:none;stroke:#fff;stroke-miterlimit:10;}.cls-4{stroke-width:0.46px;}.cls-5{stroke-width:0.61px;}.cls-6{stroke-width:0.42px;}.cls-7{stroke-width:0.93px;}.cls-8{fill:#adc7e8;}</style><linearGradient id="名称未設定グラデーション_59" x1="299.82" y1="2.43" x2="299.82" y2="242.98" gradientUnits="userSpaceOnUse"><stop offset="0" stop-color="#fefdfa"/><stop offset="0.15" stop-color="#dce6f2"/><stop offset="0.29" stop-color="#c2d5ed"/><stop offset="0.43" stop-color="#b2cbe9"/><stop offset="0.53" stop-color="#adc7e8"/><stop offset="0.63" stop-color="#b1cae9"/><stop offset="0.74" stop-color="#bdd2ec"/><stop offset="0.84" stop-color="#d2dff0"/><stop offset="0.95" stop-color="#eef2f6"/><stop offset="1" stop-color="#fefdfa"/></linearGradient></defs><title>アートボード 2</title><g id="レイヤー_6" data-name="レイヤー 6"><rect class="cls-1" x="0.45" y="-0.25" width="598.73" height="250.25"/></g><g id="レイヤー_4" data-name="レイヤー 4"><g class="cls-2"><circle class="cls-3" cx="425.63" cy="44.56" r="6.76"/><circle class="cls-3" cx="459.12" cy="70.65" r="3.96"/><circle class="cls-3" cx="402.05" cy="32.86" r="3.96"/><circle class="cls-3" cx="453.85" cy="38.3" r="3.36"/><circle class="cls-3" cx="419.49" cy="78.39" r="3.36"/><circle class="cls-3" cx="430.79" cy="16.62" r="3.36"/><circle class="cls-3" cx="394.56" cy="54.09" r="3.36"/><polyline class="cls-4" points="430.63 17.4 425.45 44.74 402.57 32.96"/><line class="cls-4" x1="425.45" y1="44.74" x2="394.87" y2="54.09"/><polyline class="cls-4" points="459.12 70.65 424.6 46.19 419.49 77.77"/><line class="cls-4" x1="453.85" y1="38.3" x2="425.99" y2="44.8"/></g><g class="cls-2"><circle class="cls-3" cx="320.03" cy="142.2" r="6.76"/><circle class="cls-3" cx="339.95" cy="155.89" r="3.96"/><circle class="cls-3" cx="296.45" cy="130.5" r="3.96"/><circle class="cls-3" cx="348.25" cy="135.94" r="3.36"/><circle class="cls-3" cx="313.88" cy="176.03" r="3.36"/><circle class="cls-3" cx="334.47" cy="111.79" r="3.36"/><circle class="cls-3" cx="261.56" cy="158.39" r="3.36"/><polyline class="cls-4" points="334.32 112.56 319.84 142.38 296.97 130.6"/><line class="cls-4" x1="319.84" y1="142.38" x2="261.87" y2="158.39"/><polyline class="cls-4" points="339.95 155.89 318.99 143.83 313.88 175.41"/><line class="cls-4" x1="348.25" y1="135.94" x2="320.39" y2="142.44"/></g><g class="cls-2"><circle class="cls-3" cx="549.62" cy="145.78" r="6.96"/><circle class="cls-3" cx="537.71" cy="221.28" r="5.21"/><circle class="cls-3" cx="553.04" cy="111.29" r="5.21"/><circle class="cls-3" cx="570.49" cy="177.62" r="4.42"/><circle class="cls-3" cx="505.09" cy="153.98" r="4.42"/><circle class="cls-3" cx="523.4" cy="111.96" r="4.42"/><polyline class="cls-5" points="609.56 142.62 549.31 145.64 553.16 111.98"/><line class="cls-5" x1="549.31" y1="145.64" x2="523.55" y2="112.34"/><polyline class="cls-5" points="537.71 221.28 547.13 145.27 505.85 153.7"/><line class="cls-5" x1="570.49" y1="177.62" x2="549.49" y2="146.33"/></g><g class="cls-2"><circle class="cls-3" cx="415.93" cy="204.35" r="6.1"/><circle class="cls-3" cx="427.54" cy="222.79" r="3.57"/><circle class="cls-3" cx="400.59" cy="186.26" r="3.57"/><circle class="cls-3" cx="441.53" cy="209.24" r="3.03"/><circle class="cls-3" cx="398.78" cy="230.16" r="3.03"/><circle class="cls-3" cx="430.17" cy="183.07" r="3.03"/><circle class="cls-3" cx="386.82" cy="201.15" r="3.03"/><polyline class="cls-6" points="429.76 183.65 415.71 204.44 400.98 186.53"/><line class="cls-6" x1="415.71" y1="204.44" x2="387.07" y2="201.26"/><polyline class="cls-6" points="427.54 222.79 414.49 205.33 399 229.65"/><line class="cls-6" x1="441.53" y1="209.24" x2="416.14" y2="204.68"/></g><g class="cls-2"><circle class="cls-3" cx="224.78" cy="25.09" r="6.1"/><circle class="cls-3" cx="236.38" cy="43.53" r="3.57"/><circle class="cls-3" cx="207.87" cy="-3.34" r="4.66"/><circle class="cls-3" cx="250.37" cy="29.97" r="3.03"/><circle class="cls-3" cx="207.62" cy="50.9" r="3.03"/><circle class="cls-3" cx="239.01" cy="3.8" r="3.03"/><circle class="cls-3" cx="195.66" cy="21.89" r="3.03"/><polyline class="cls-6" points="238.61 4.39 224.56 25.17 208.39 -2.99"/><line class="cls-6" x1="224.56" y1="25.17" x2="195.92" y2="22"/><polyline class="cls-6" points="236.38 43.53 223.34 26.07 207.84 50.39"/><line class="cls-6" x1="250.37" y1="29.97" x2="224.99" y2="25.41"/></g></g><g id="六角形"><polygon class="cls-7" points="433.18 91.49 386.45 91.49 363.09 131.95 386.45 172.42 433.18 172.42 456.54 131.95 433.18 91.49"/><polygon class="cls-7" points="560.38 14.64 513.65 14.64 490.29 55.1 513.65 95.57 560.38 95.57 583.74 55.1 560.38 14.64"/><polygon class="cls-7" points="336.52 179.83 297.82 179.83 278.47 213.35 297.82 246.87 336.52 246.87 355.87 213.35 336.52 179.83"/><polygon class="cls-7" points="494.53 166.54 461.43 166.54 444.87 195.21 461.43 223.88 494.53 223.88 511.09 195.21 494.53 166.54"/><polygon class="cls-7" points="215.4 170.32 182.29 170.32 165.74 199 182.29 227.67 215.4 227.67 231.95 199 215.4 170.32"/><polygon class="cls-7" points="177.49 50.91 152.42 50.91 139.88 72.62 152.42 94.33 177.49 94.33 190.03 72.62 177.49 50.91"/><polygon class="cls-7" points="257.29 106.96 228.43 106.96 214.01 131.95 228.43 156.94 257.29 156.94 271.71 131.95 257.29 106.96"/><polygon class="cls-7" points="302.79 25.86 273.93 25.86 259.5 50.85 273.93 75.83 302.79 75.83 317.21 50.85 302.79 25.86"/><line class="cls-7" x1="271.71" y1="131.95" x2="362.99" y2="131.95"/><path class="cls-3" d="M188.39,186.18h0Z"/><path class="cls-3" d="M212.6,186.17a1.68,1.68,0,0,0-.82-.22,1.55,1.55,0,0,0-.75.19l-2.49,1.35-3.27-1.77a1.71,1.71,0,0,0-.76-.19,1.64,1.64,0,0,0-.75.19l-3.27,1.77-3.26-1.77a1.61,1.61,0,0,0-1.52,0l-3.26,1.77L190,186.14a1.64,1.64,0,0,0-.75-.19,1.71,1.71,0,0,0-.82.22,1.6,1.6,0,0,0-.77,1.37v20.88h1.63v-20.8l2.44,1.32a1.62,1.62,0,0,0,1.52,0l3.26-1.77,3.27,1.77a1.52,1.52,0,0,0,.75.19,1.59,1.59,0,0,0,.76-.19l3.26-1.77,3.27,1.77a1.6,1.6,0,0,0,1.51,0l2.45-1.32v21.26a2.59,2.59,0,0,1-2.58,2.58H189.57a3.82,3.82,0,0,1-3.82-3.82v-17h-1.63v17a5.45,5.45,0,0,0,5.45,5.45h19.59a4.21,4.21,0,0,0,4.21-4.21V187.54A1.6,1.6,0,0,0,212.6,186.17Z"/><rect class="cls-3" x="203.34" y="199.95" width="6.65" height="7.17"/><rect class="cls-3" x="191.13" y="200.06" width="9.81" height="1.09"/><rect class="cls-3" x="191.13" y="205.93" width="9.81" height="1.09"/><rect class="cls-3" x="191.13" y="202.99" width="9.81" height="1.09"/><path class="cls-3" d="M192.28,197.42v-3h0l1.72,3a.13.13,0,0,0,.12.07H195l.08-.07V192.7l-.08-.07h-.8l-.08.07v3.06h0l-1.72-3.06a.13.13,0,0,0-.12-.07h-.86l-.07.07v4.72l.07.07h.81Z"/><polygon class="cls-3" points="197.11 193.54 199.2 193.54 199.27 193.47 199.27 192.7 199.2 192.63 196.09 192.63 196.01 192.7 196.01 197.42 196.09 197.49 199.2 197.49 199.27 197.42 199.27 196.66 199.2 196.58 197.11 196.58 197.06 196.54 197.06 195.53 197.11 195.49 198.85 195.49 198.92 195.42 198.92 194.66 198.85 194.59 197.11 194.59 197.06 194.54 197.06 193.58 197.11 193.54"/><path class="cls-3" d="M205.63,192.63h-.92c-.05,0-.07,0-.08.07l-.67,3.05h0l-.86-3.05-.08-.07h-.62a.11.11,0,0,0-.1.07l-.83,3.05h0l-.7-3.05a.09.09,0,0,0-.09-.07h-.92s-.06,0-.06.07l1.26,4.72.09.07h.71a.11.11,0,0,0,.1-.07l.85-3h0l.84,3a.11.11,0,0,0,.1.07h.71a.1.1,0,0,0,.1-.07l1.25-4.72S205.68,192.63,205.63,192.63Z"/><path class="cls-3" d="M207.92,196.65a2.08,2.08,0,0,1-1.28-.5h-.1l-.55.62v.12a2.85,2.85,0,0,0,1.87.67c1.26,0,1.91-.65,1.91-1.53s-.53-1.34-1.53-1.47l-.25,0c-.56-.08-.76-.26-.76-.54s.22-.52.65-.52a2,2,0,0,1,1.13.37l.1,0,.43-.66s0-.07,0-.1a2.72,2.72,0,0,0-1.65-.51,1.52,1.52,0,0,0-1.73,1.49c0,.86.56,1.32,1.54,1.46l.26,0c.58.08.75.26.75.54S208.42,196.65,207.92,196.65Z"/><circle class="cls-3" cx="486.45" cy="119.33" r="12.31"/><path class="cls-8" d="M493.33,117a1.47,1.47,0,0,0-1.47-1.48h-3.42c-.2,0-.38,0-.5,0h-.14v0s0,0,0-.08a.38.38,0,0,1,0-.1l.84-2.08a1.66,1.66,0,0,0,.12-.61,1.63,1.63,0,0,0-1-1.51,1.66,1.66,0,0,0-.61-.12,1.61,1.61,0,0,0-1.51,1h0l-1.42,3.59h0c-.1.23-.17.44-.25.62a1.63,1.63,0,0,1-.35.6.78.78,0,0,1-.24.13,1.09,1.09,0,0,1-.4.06,1.39,1.39,0,0,0-.3,0h-2.31a1.24,1.24,0,0,0-1.24,1.24v5.6a1.24,1.24,0,0,0,1.24,1.24h1.71a.69.69,0,0,0,.69-.69v-.57a2.25,2.25,0,0,0,.38.19,4.9,4.9,0,0,0,1.73.25h5.31a1.47,1.47,0,0,0,1.48-1.47,1.41,1.41,0,0,0-.11-.54,1.48,1.48,0,0,0,.82-2.13,1.29,1.29,0,0,0,.36-.54,1.89,1.89,0,0,0,.11-.67,1.06,1.06,0,0,0-.09-.42,1.91,1.91,0,0,0-.15-.28A1.46,1.46,0,0,0,493.33,117Zm-1.47.74h-.25a.38.38,0,0,0-.26.11.4.4,0,0,0-.1.26.34.34,0,0,0,.36.36.35.35,0,0,1,.18,0,.5.5,0,0,1,.22.21.51.51,0,0,1,.08.25,1.18,1.18,0,0,1-.1.53.5.5,0,0,1-.11.13.61.61,0,0,1-.18.07.37.37,0,0,0-.16.64.74.74,0,0,1,.28.57.76.76,0,0,1-.75.75h-.17a.35.35,0,0,0-.34.23.35.35,0,0,0,.09.4.74.74,0,0,1,.26.56.76.76,0,0,1-.75.75h-5.31a4.49,4.49,0,0,1-1.35-.17,1.85,1.85,0,0,1-.61-.32,1.06,1.06,0,0,1-.15-.15v-5.18l.21,0a1.77,1.77,0,0,0,.82-.18,1.41,1.41,0,0,0,.43-.33,2.57,2.57,0,0,0,.38-.66c.1-.23.18-.46.28-.69h0l1.43-3.59a.9.9,0,0,1,.84-.56,1.06,1.06,0,0,1,.34.06.9.9,0,0,1,.56.84.83.83,0,0,1-.07.34l-.86,2.13a.29.29,0,0,0,0,.09,1.79,1.79,0,0,0,0,.23,1,1,0,0,0,.07.38.78.78,0,0,0,.16.24.75.75,0,0,0,.34.18,1.15,1.15,0,0,0,.31,0c.2,0,.39,0,.5,0h3.42a.75.75,0,1,1,0,1.49Z"/><path class="cls-3" d="M379.84,114.73c0,7.62,5.62,14.86,12.26,14.86.51,0,1-.37.37-.83a2.92,2.92,0,0,1-1.48-2.37c0-.57.46-1.26,1.95-1.26h9.94a10.4,10.4,0,0,0,0-20.8H390.24A10.4,10.4,0,0,0,379.84,114.73Zm22.64,0a2,2,0,1,1,2,2A2,2,0,0,1,402.48,114.73Zm-7.9,0a2,2,0,1,1,2,2A2,2,0,0,1,394.58,114.73Zm-7.9,0a2,2,0,1,1,2,2A2,2,0,0,1,386.68,114.73Z"/><path class="cls-3" d="M288.77,35.42a1.12,1.12,0,1,0-1.11-1.12A1.12,1.12,0,0,0,288.77,35.42Z"/><path class="cls-3" d="M289.35,39.2a.66.66,0,1,0-.66.66A.67.67,0,0,0,289.35,39.2Z"/><path class="cls-3" d="M289.47,36.85a.79.79,0,1,0,1.57,0,.79.79,0,0,0-1.57,0Z"/><path class="cls-3" d="M299.86,59.74l-6.28-10a5.75,5.75,0,0,1-.87-3.05V40.15H291.6v6.51a6.87,6.87,0,0,0,1,3.64l6.28,10a1.79,1.79,0,0,1,.05,1.84,1.81,1.81,0,0,1-1.58.93h0l-16.61,0a1.81,1.81,0,0,1-1.58-.93,1.86,1.86,0,0,1,.05-1.84l6.31-10a6.88,6.88,0,0,0,1.05-3.64v-6.5H285.5v6.5a5.76,5.76,0,0,1-.88,3.05l-6.31,10a3,3,0,0,0-.44,1.55,2.91,2.91,0,0,0,2.91,2.92l16.62,0v0h0a2.9,2.9,0,0,0,2.51-1.5,2.83,2.83,0,0,0,.37-1.41A2.91,2.91,0,0,0,299.86,59.74Z"/><path class="cls-3" d="M285.27,53.35l-4.34,6.89a1,1,0,0,0,0,1,1,1,0,0,0,.83.51h14.7a1,1,0,0,0,.83-.49,1,1,0,0,0,0-1l-4.32-6.89a1,1,0,0,0-.81-.45h-6A.93.93,0,0,0,285.27,53.35ZM291,58.14a.69.69,0,1,1-.69.69A.69.69,0,0,1,291,58.14Zm-3.33-3a1,1,0,1,1-1,1A1,1,0,0,1,287.66,55.15Z"/><path class="cls-3" d="M337.1,230.88a7.59,7.59,0,0,0-3-4.32,11.9,11.9,0,0,0-2-1.16c-1-.49-2.1-.86-3.09-1.23a16.16,16.16,0,0,1-2.57-1.12,4.76,4.76,0,0,1-.68-.48,2.94,2.94,0,0,1-.7-.81,2.45,2.45,0,0,1-.32-1,8.38,8.38,0,0,1-.05-.84,10.56,10.56,0,0,1,.26-2.16,9.19,9.19,0,0,0,1.22-1.79,18.49,18.49,0,0,0,1.11-2.52A4.82,4.82,0,0,0,328,213a4.93,4.93,0,0,0,1.42-1.48,7.59,7.59,0,0,0,1-2.45,3.29,3.29,0,0,0,.1-.82,3.81,3.81,0,0,0-.36-1.58,3.91,3.91,0,0,0-.58-.91c.12-.44.26-1,.39-1.7a18.79,18.79,0,0,0,.32-3.28,12.72,12.72,0,0,0-.22-2.36,8.34,8.34,0,0,0-.54-1.74,6.44,6.44,0,0,0-1.63-2.29,6.81,6.81,0,0,0-2.58-1.4,10.06,10.06,0,0,0-1.36-1.34,7.4,7.4,0,0,0-2.47-1.31,8.9,8.9,0,0,0-2.55-.34q-.67,0-1.35.06c-.42,0-.78.09-1.09.14a7.61,7.61,0,0,0-1.23.31c-.37.13-.74.28-1.21.47a7.19,7.19,0,0,0-.7.32,12,12,0,0,0-1.82,1.13,11.75,11.75,0,0,0-3,3.31,10.24,10.24,0,0,0-1.08,2.49,10.9,10.9,0,0,0-.42,3.07,13.26,13.26,0,0,0,.19,2.2v.16l0,.3c0,.15,0,.31.05.44s0,.13,0,.18a.43.43,0,0,0,0,.05v0h0v.09l.19.84a4.19,4.19,0,0,0-.69,1,3.7,3.7,0,0,0-.41,1.69,3.27,3.27,0,0,0,.1.81h0a8.16,8.16,0,0,0,.58,1.75,5.43,5.43,0,0,0,1.29,1.79,5.22,5.22,0,0,0,1.2.78,19.89,19.89,0,0,0,1.1,2.52,10.17,10.17,0,0,0,1.22,1.79,9.9,9.9,0,0,1,.27,2.16,6.19,6.19,0,0,1-.05.84,2.82,2.82,0,0,1-.18.76,2.56,2.56,0,0,1-.6.88,5.18,5.18,0,0,1-1,.74,13.34,13.34,0,0,1-1.41.66c-.91.37-1.94.71-3,1.13a17.25,17.25,0,0,0-2.34,1.12,9.71,9.71,0,0,0-1.62,1.18,7.39,7.39,0,0,0-1.85,2.62,9.57,9.57,0,0,0-.71,3.82,1.73,1.73,0,0,0,.12.6,2.27,2.27,0,0,0,.27.48,4.25,4.25,0,0,0,.8.78,9.83,9.83,0,0,0,2.33,1.19,29.09,29.09,0,0,0,6,1.43,69.06,69.06,0,0,0,9.51.59,72.18,72.18,0,0,0,8.46-.45,39.63,39.63,0,0,0,4.59-.81,21,21,0,0,0,2.53-.76,12.9,12.9,0,0,0,1.42-.64,8.62,8.62,0,0,0,.83-.51,3.68,3.68,0,0,0,.87-.84,2.12,2.12,0,0,0,.27-.49,1.56,1.56,0,0,0,.11-.57A10.56,10.56,0,0,0,337.1,230.88Zm-12-6.78-4.76,7.43-.53-3.65,1.35-1.43-.88-1.46,3.69-1.94.33.38A5.17,5.17,0,0,0,325.13,224.1ZM312,215.17a17.61,17.61,0,0,1-1.13-2.63l-.12-.35-.35-.13a3,3,0,0,1-.71-.36,3.37,3.37,0,0,1-1-1,6.54,6.54,0,0,1-.76-1.95h0a2.49,2.49,0,0,1-.05-.46,2.12,2.12,0,0,1,.24-1,3.15,3.15,0,0,1,.52-.71,13.15,13.15,0,0,0,.78,1.1c.36.35.41-.49.24-1.44-.32-1.73.53-.95,2.68-5.12,4.29,1,11.79-3.61,11.79-3.61a7.92,7.92,0,0,0,1.52,4c1.36,1.81,2.13,6.06,2.13,6.06s.18-.35.46-.82a2.91,2.91,0,0,1,.4.61,2.09,2.09,0,0,1,.21.91,1.89,1.89,0,0,1-.06.47,6.65,6.65,0,0,1-.47,1.43,3.74,3.74,0,0,1-.91,1.27,3.05,3.05,0,0,1-1,.62l-.35.13-.13.35a19.55,19.55,0,0,1-1.12,2.64,8.09,8.09,0,0,1-1.13,1.62l-.16.16,0,.21a11.89,11.89,0,0,0-.35,2.71c0,.32,0,.65.05,1a4.72,4.72,0,0,0,.28,1.15s0,0,0,.05l-4.83,2.54-5.35-2.48a4.31,4.31,0,0,0,.33-1.27h0c0-.35.05-.68.05-1a11.82,11.82,0,0,0-.35-2.71l0-.21-.16-.16A7.53,7.53,0,0,1,312,215.17Zm-.05,8.69a4.21,4.21,0,0,0,.76-.76l4.09,1.9-.88,1.45,1.35,1.43-.49,3.44-5.21-7.18C311.67,224.05,311.8,224,311.92,223.86Zm23.89,9.85a1.91,1.91,0,0,1-.39.41,5.31,5.31,0,0,1-.74.48,11.86,11.86,0,0,1-2.22.9,32,32,0,0,1-5.59,1.14,69.42,69.42,0,0,1-8.51.47,70.92,70.92,0,0,1-8.26-.44,37.83,37.83,0,0,1-4.4-.77,20.56,20.56,0,0,1-2.35-.71,12.82,12.82,0,0,1-1.24-.55,7.42,7.42,0,0,1-.64-.4,2.19,2.19,0,0,1-.51-.48.4.4,0,0,1-.07-.12h0a8.83,8.83,0,0,1,.28-2.32,5.83,5.83,0,0,1,.62-1.52,6.22,6.22,0,0,1,1.73-1.91,11.71,11.71,0,0,1,1.73-1c.93-.44,1.94-.8,2.93-1.17a21.52,21.52,0,0,0,2.4-1L318.8,236l7.28-11.37c.37.18.75.36,1.14.52,1,.4,2,.74,3,1.14a17,17,0,0,1,2.15,1,8.81,8.81,0,0,1,1.38,1,5.81,5.81,0,0,1,1.49,2.08,8.12,8.12,0,0,1,.59,3.22S335.83,233.67,335.81,233.71Z"/><rect class="cls-3" x="324.32" y="232.73" width="6.36" height="1.11"/><path class="cls-3" d="M477.9,186.48a5.2,5.2,0,1,0-5.2-5.19A5.19,5.19,0,0,0,477.9,186.48Z"/><rect class="cls-3" x="458.62" y="207.51" width="38.55" height="3.72"/><path class="cls-3" d="M470.54,199.44l.83,6.8h5.95v-3.05a4.06,4.06,0,0,1-3.48-4v-.91a.58.58,0,1,1,1.16,0v.91a2.9,2.9,0,0,0,5.8,0v-.91a.58.58,0,1,1,1.16,0v.91a4.06,4.06,0,0,1-3.48,4v3.05h5.95l.83-6.8.52,6.8h4.48l-.44-9.65c-.35-7.34-8.23-8.13-11.92-8.13s-11.56.79-11.92,8.13l-.44,9.65H470Zm5.33-4a2,2,0,0,1,4.06,0v3.77a2,2,0,0,1-4.06,0v-3.77Z"/><path class="cls-3" d="M426.11,117.77c-9.23-.57-17,5.23-16.82,14.69v.86l-4,7.08a1.37,1.37,0,0,0,.92,2l2.48.69.78,7.5a2.59,2.59,0,0,0,2.87,2.5l2,.16a1.37,1.37,0,0,1,1.52,1.36v5.87h16.74v-4a12.11,12.11,0,0,1,1.14-5c2.71-4.34,7.13-6.65,7.88-15.55S437,118.44,426.11,117.77Z"/><circle class="cls-3" cx="342.03" cy="78.03" r="12.31"/><path class="cls-8" d="M337.91,81a1.11,1.11,0,0,1-.45.5,1.28,1.28,0,0,1-.24.11l-.27-1H335l.67,3.4a.44.44,0,0,0,.44.36h1.26a.47.47,0,0,0,.35-.18.43.43,0,0,0,.07-.38L337.34,82l.11,0a1.48,1.48,0,0,0,.7-.52,1.79,1.79,0,0,0,.32-.74l-.46-.08A2,2,0,0,1,337.91,81Z"/><path class="cls-8" d="M343.4,72.45c-.35,0-.92.61-1.17.85s-1.9,1.89-6.17,1.89v5c4.27,0,6,1.67,6.17,1.89s.82.85,1.17.85a.64.64,0,0,0,.64-.64V73.09A.64.64,0,0,0,343.4,72.45Z"/><path class="cls-8" d="M335.47,75.2a2.5,2.5,0,0,0,0,5Z"/><path class="cls-8" d="M344.56,76.76v1.87a.94.94,0,1,0,0-1.87Z"/><rect class="cls-8" x="347.63" y="77.39" width="2.53" height="0.49"/><polygon class="cls-8" points="349.55 74.08 349.29 73.67 346.99 75.13 347.26 75.54 349.55 74.08"/><polygon class="cls-8" points="346.99 80.33 349.29 81.8 349.55 81.39 347.26 79.92 346.99 80.33"/><path class="cls-3" d="M554.4,25.68a1.82,1.82,0,0,0-1.1-.44h-2.45a1.61,1.61,0,0,0-1.05.48l-1.67,2a.51.51,0,0,1-.81,0l-1.68-2a1.61,1.61,0,0,0-1-.48h-2.45a1.82,1.82,0,0,0-1.09.44l-1.93,1.85a1.63,1.63,0,0,0-.46,1v3.75a1.37,1.37,0,0,0,.52,1l8,5.51a1,1,0,0,0,1,0l8-5.51a1.37,1.37,0,0,0,.52-1V28.57a1.67,1.67,0,0,0-.45-1Z"/><path class="cls-3" d="M527,37.47a4.6,4.6,0,1,0-4.6-4.6A4.59,4.59,0,0,0,527,37.47Z"/><path class="cls-3" d="M536,44c-.94-3.14-3-5.23-5.37-5.23h-7.18c-2.35,0-4.44,2.09-5.37,5.23l-3.38,12A1.89,1.89,0,0,0,516,58.32,1.86,1.86,0,0,0,518.31,57l3.37-12h1l-5.87,20.81h5.53V81.25a2.14,2.14,0,1,0,4.27,0V65.81h1.18V81.25a2.14,2.14,0,1,0,4.28,0V65.81h5.12L531.32,45h1l3.38,12A1.85,1.85,0,0,0,538,58.32,1.9,1.9,0,0,0,539.34,56Z"/><path class="cls-3" d="M552.74,53.69a4,4,0,1,0-4-4A4,4,0,0,0,552.74,53.69Z"/><path class="cls-3" d="M557.37,56.17h-9.81A4.2,4.2,0,0,0,543.78,60v8.74a1.64,1.64,0,0,0,3.28,0V62.18h.75V81.1a2.15,2.15,0,1,0,4.3,0v-11h.7v11a2.15,2.15,0,1,0,4.3,0V62.18h.76v6.51a1.64,1.64,0,1,0,3.27,0V60A4.2,4.2,0,0,0,557.37,56.17Z"/><path class="cls-3" d="M256.49,142.58A4.11,4.11,0,0,0,255,140.8a4.18,4.18,0,0,0-1.13-.53v-.62a4.5,4.5,0,0,0-.36-1.76,4.56,4.56,0,0,0-4.16-2.76,4.5,4.5,0,0,0-1.76.36,4.52,4.52,0,0,0-2.76,4.16v3.1a2.13,2.13,0,0,1-.18.88,2.24,2.24,0,0,1-.82,1,2.25,2.25,0,0,1-2.15.21,2.26,2.26,0,0,1-1-.82,2.2,2.2,0,0,1-.39-1.27V136a10,10,0,0,0,2.57-.66,11.87,11.87,0,0,0,4.36-3.09,12.57,12.57,0,0,0,1.52-2.08,10.57,10.57,0,0,0,1-2.23,10.06,10.06,0,0,0,.51-3.11,7.31,7.31,0,0,0-.19-1.72,4.91,4.91,0,0,0-.41-1.15,3.75,3.75,0,0,0-.48-.76,3.29,3.29,0,0,0-1.06-.86,3.11,3.11,0,0,0-1.38-.32v2.26a.88.88,0,0,1,.24,0l.17.07a1,1,0,0,1,.29.26,2.19,2.19,0,0,1,.4.84,4.82,4.82,0,0,1,.17,1.35,8.2,8.2,0,0,1-.4,2.42,9.2,9.2,0,0,1-1.18,2.37,10.45,10.45,0,0,1-3.12,3,8.4,8.4,0,0,1-2,.89,7.4,7.4,0,0,1-2.17.32,7.62,7.62,0,0,1-2.85-.56,9.27,9.27,0,0,1-1.9-1.05,10.41,10.41,0,0,1-2.3-2.29,9.45,9.45,0,0,1-1.39-2.66,7.89,7.89,0,0,1-.4-2.42,4.79,4.79,0,0,1,.13-1.2,3,3,0,0,1,.23-.66,2,2,0,0,1,.21-.34,1,1,0,0,1,.33-.27.78.78,0,0,1,.37-.08V120a2.94,2.94,0,0,0-.84.12,2.71,2.71,0,0,0-.68.28,3.11,3.11,0,0,0-.93.8,4.49,4.49,0,0,0-.82,1.65,7.25,7.25,0,0,0-.26,2,10.36,10.36,0,0,0,.51,3.11,11.79,11.79,0,0,0,1.47,2.95,12.45,12.45,0,0,0,3.8,3.63,10.26,10.26,0,0,0,4.2,1.48v6.76a4.49,4.49,0,0,0,.35,1.76,4.62,4.62,0,0,0,1.64,2,4.54,4.54,0,0,0,4.28.42,4.57,4.57,0,0,0,2-1.64,4.47,4.47,0,0,0,.77-2.53v-3.1a2.28,2.28,0,0,1,1-1.88,2.29,2.29,0,0,1,1.27-.38,2.16,2.16,0,0,1,.88.18,2.35,2.35,0,0,1,1,.82,2.26,2.26,0,0,1,.38,1.26v.62l-.44.16a4.06,4.06,0,0,0-1.78,1.47,4,4,0,0,0-.37,3.83,4,4,0,0,0,3.72,2.46,4.11,4.11,0,0,0,1.57-.31,4.06,4.06,0,0,0,2.47-3.73A4,4,0,0,0,256.49,142.58ZM254.75,145a2.25,2.25,0,0,1-.78.95,2.17,2.17,0,0,1-2,.19,2.1,2.1,0,0,1-.94-.78,2.13,2.13,0,0,1-.37-1.2,2.09,2.09,0,0,1,.17-.83,2.13,2.13,0,0,1,2-1.31,2.23,2.23,0,0,1,.83.16,2.21,2.21,0,0,1,1,.78,2.18,2.18,0,0,1,.37,1.2A2.14,2.14,0,0,1,254.75,145Z"/><path class="cls-3" d="M234.94,123.23a1.53,1.53,0,0,0,.56-1.17V120.3a1.5,1.5,0,0,0-.56-1.17,1.52,1.52,0,0,0-1.27-.28l-1.18.28v4.1l1.18.28A1.52,1.52,0,0,0,234.94,123.23Z"/><path class="cls-3" d="M243.47,123.23a1.52,1.52,0,0,0,1.27.28l1.17-.28v-4.1l-1.17-.28a1.52,1.52,0,0,0-1.27.28,1.5,1.5,0,0,0-.56,1.17v1.76A1.53,1.53,0,0,0,243.47,123.23Z"/><path class="cls-3" d="M154.13,58.68V85.07h21.28V58.68Zm19.58,24.69h-7.66V78.26H163.5v5.11h-7.67v-23h17.88Z"/><rect class="cls-3" x="158.39" y="62.94" width="2.55" height="2.55"/><rect class="cls-3" x="163.5" y="62.94" width="2.55" height="2.55"/><rect class="cls-3" x="168.6" y="62.94" width="2.55" height="2.55"/><rect class="cls-3" x="158.39" y="68.05" width="2.55" height="2.55"/><rect class="cls-3" x="163.5" y="68.05" width="2.55" height="2.55"/><rect class="cls-3" x="168.6" y="68.05" width="2.55" height="2.55"/><rect class="cls-3" x="158.39" y="73.16" width="2.55" height="2.55"/><rect class="cls-3" x="163.5" y="73.16" width="2.55" height="2.55"/><rect class="cls-3" x="168.6" y="73.16" width="2.55" height="2.55"/><rect class="cls-3" x="158.39" y="78.26" width="2.55" height="2.55"/><rect class="cls-3" x="168.6" y="78.26" width="2.55" height="2.55"/><line class="cls-7" x1="385.49" y1="172.33" x2="355.49" y2="212.33"/><line class="cls-7" x1="273.99" y1="75.63" x2="257.29" y2="106.96"/><line class="cls-7" x1="433.68" y1="91.49" x2="490.88" y2="55.49"/><line class="cls-7" x1="433.68" y1="172.42" x2="444.49" y2="194.33"/><line class="cls-7" x1="231.99" y1="199.83" x2="278.47" y2="213.35"/><line class="cls-7" x1="595.03" y1="241.38" x2="620.43" y2="276.1"/><line class="cls-7" x1="190.03" y1="72.62" x2="228.43" y2="106.96"/><circle class="cls-3" cx="266.52" cy="184.2" r="12.31"/><path class="cls-8" d="M271.36,184.23a3.41,3.41,0,0,1-.88,2.33,2.25,2.25,0,0,1-2.9.57,17.44,17.44,0,0,0-3.12-1.35c-.48-.08-2.15-.11-2.15-.11h-5.4v-.55h5.68a8,8,0,0,1,3.73.55c1.73.79,2.24,1.13,2.93,1s1.39-1.53,1.39-2.4-.63-2.22-1.39-2.41-1.2.17-2.93,1a8,8,0,0,1-3.73.55h-5.68v-.55h5.4s1.67,0,2.15-.11a16.75,16.75,0,0,0,3.12-1.35,2.25,2.25,0,0,1,2.9.58A3.39,3.39,0,0,1,271.36,184.23Z"/><path class="cls-8" d="M261.22,184.23a3.46,3.46,0,0,0,.88,2.33,2.25,2.25,0,0,0,2.9.57,17.44,17.44,0,0,1,3.12-1.35c.48-.08,2.15-.11,2.15-.11h5.4v-.55H270a8,8,0,0,0-3.73.55c-1.73.79-2.24,1.13-2.93,1s-1.39-1.53-1.39-2.4.63-2.22,1.39-2.41,1.2.17,2.93,1a8,8,0,0,0,3.73.55h5.68v-.55h-5.4s-1.67,0-2.15-.11a16.75,16.75,0,0,1-3.12-1.35,2.25,2.25,0,0,0-2.9.58A3.44,3.44,0,0,0,261.22,184.23Z"/></g></svg>