<svg xmlns="http://www.w3.org/2000/svg" xmlns:xlink="http://www.w3.org/1999/xlink" viewBox="0 0 1000 500"><defs><style>.cls-1{fill:url(#名称未設定グラデーション_15);}.cls-2{opacity:0.6;}.cls-3{fill:#fff;}.cls-10,.cls-12,.cls-4,.cls-5,.cls-6,.cls-7,.cls-8,.cls-9{fill:none;stroke:#fff;stroke-miterlimit:10;}.cls-4{stroke-width:0.5px;}.cls-5{stroke-width:0.66px;}.cls-6{stroke-width:0.29px;}.cls-7{stroke-width:0.69px;}.cls-8{stroke-width:0.45px;}.cls-9{stroke-width:0.41px;}.cls-11{fill:#f6c15f;}.cls-12{stroke-width:0.64px;}</style><linearGradient id="名称未設定グラデーション_15" x1="500.33" y1="6.33" x2="500.33" y2="485.68" gradientUnits="userSpaceOnUse"><stop offset="0" stop-color="#fefdfa"/><stop offset="0.05" stop-color="#fdf3e1"/><stop offset="0.17" stop-color="#fae1b2"/><stop offset="0.27" stop-color="#f8d38e"/><stop offset="0.37" stop-color="#f7c974"/><stop offset="0.46" stop-color="#f6c365"/><stop offset="0.53" stop-color="#f6c15f"/><stop offset="0.6" stop-color="#f6c363"/><stop offset="0.68" stop-color="#f7c76f"/><stop offset="0.76" stop-color="#f8cf84"/><stop offset="0.83" stop-color="#f9daa0"/><stop offset="0.91" stop-color="#fbe9c5"/><stop offset="0.99" stop-color="#fefaf2"/><stop offset="1" stop-color="#fefdfa"/></linearGradient></defs><title>アートボード 1</title><g id="レイヤー_6のコピー_2" data-name="レイヤー 6のコピー 2"><rect class="cls-1" x="1" y="1" width="998.67" height="498.67"/></g><g id="放射状"><g class="cls-2"><circle class="cls-3" cx="453.28" cy="128.74" r="7.28"/><circle class="cls-3" cx="489.33" cy="156.83" r="4.26"/><circle class="cls-3" cx="427.9" cy="116.15" r="4.26"/><circle class="cls-3" cx="483.67" cy="122" r="3.61"/><circle class="cls-3" cx="446.67" cy="165.17" r="3.61"/><circle class="cls-3" cx="458.83" cy="98.67" r="3.61"/><circle class="cls-3" cx="419.83" cy="139" r="3.61"/><polyline class="cls-4" points="458.67 99.5 453.08 128.94 428.46 116.26"/><line class="cls-4" x1="453.08" y1="128.94" x2="420.17" y2="139"/><polyline class="cls-4" points="489.33 156.83 452.17 130.5 446.67 164.5"/><line class="cls-4" x1="483.67" y1="122" x2="453.67" y2="129"/></g><g class="cls-2"><circle class="cls-3" cx="287.28" cy="387.41" r="7.28"/><circle class="cls-3" cx="308.73" cy="402.15" r="4.26"/><circle class="cls-3" cx="261.9" cy="374.81" r="4.26"/><circle class="cls-3" cx="317.67" cy="380.67" r="3.61"/><circle class="cls-3" cx="280.67" cy="423.83" r="3.61"/><circle class="cls-3" cx="302.83" cy="354.67" r="3.61"/><circle class="cls-3" cx="224.33" cy="404.83" r="3.61"/><polyline class="cls-4" points="302.67 355.5 287.08 387.61 262.46 374.92"/><line class="cls-4" x1="287.08" y1="387.61" x2="224.67" y2="404.83"/><polyline class="cls-4" points="308.73 402.15 286.17 389.17 280.67 423.17"/><line class="cls-4" x1="317.67" y1="380.67" x2="287.67" y2="387.67"/></g><g class="cls-2"><circle class="cls-3" cx="167.22" cy="258.82" r="9.59"/><circle class="cls-3" cx="200.5" cy="266.97" r="5.61"/><circle class="cls-3" cx="130.09" cy="255.14" r="5.61"/><circle class="cls-3" cx="201.5" cy="236.35" r="4.76"/><circle class="cls-3" cx="176.05" cy="306.76" r="4.76"/><circle class="cls-3" cx="160.04" cy="219.19" r="4.76"/><circle class="cls-3" cx="130.81" cy="287.04" r="4.76"/><polyline class="cls-5" points="160.22 220.29 167.07 259.15 130.83 255.01"/><line class="cls-5" x1="167.07" y1="259.15" x2="131.22" y2="286.88"/><polyline class="cls-5" points="200.5 266.97 166.67 261.5 175.74 305.94"/><line class="cls-5" x1="201.5" y1="236.35" x2="167.81" y2="258.95"/></g><g class="cls-2"><circle class="cls-3" cx="248.91" cy="124.56" r="4.24"/><circle class="cls-3" cx="249.46" cy="139.71" r="2.48"/><circle class="cls-3" cx="245.98" cy="108.32" r="2.48"/><circle class="cls-3" cx="262.61" cy="136.44" r="2.11"/><circle class="cls-3" cx="229.58" cy="134.12" r="2.11"/><circle class="cls-3" cx="264.9" cy="116.72" r="2.11"/><circle class="cls-3" cx="232.5" cy="112.48" r="2.11"/><polyline class="cls-6" points="264.46 116.93 248.75 124.54 246.13 108.62"/><line class="cls-6" x1="248.75" y1="124.54" x2="232.61" y2="112.64"/><polyline class="cls-6" points="249.46 139.72 247.7 124.65 229.89 133.89"/><line class="cls-6" x1="262.61" y1="136.44" x2="248.92" y2="124.83"/></g><g class="cls-2"><circle class="cls-3" cx="277.77" cy="151.94" r="4.24"/><circle class="cls-3" cx="269.3" cy="164.52" r="2.48"/><circle class="cls-3" cx="284.96" cy="137.08" r="2.48"/><circle class="cls-3" cx="281.87" cy="169.6" r="2.11"/><circle class="cls-3" cx="256.51" cy="148.3" r="2.11"/><circle class="cls-3" cx="295.32" cy="155.01" r="2.11"/><circle class="cls-3" cx="271.6" cy="132.52" r="2.11"/><polyline class="cls-6" points="294.83 154.91 277.65 151.83 284.9 137.41"/><line class="cls-6" x1="277.65" y1="151.83" x2="271.6" y2="132.71"/><polyline class="cls-6" points="269.3 164.52 276.74 151.3 256.9 148.29"/><line class="cls-6" x1="281.87" y1="169.6" x2="277.62" y2="152.17"/></g><g class="cls-2"><circle class="cls-3" cx="719.47" cy="317.57" r="7.49"/><circle class="cls-3" cx="706.65" cy="398.86" r="5.61"/><circle class="cls-3" cx="723.15" cy="280.44" r="5.61"/><circle class="cls-3" cx="741.94" cy="351.85" r="4.76"/><circle class="cls-3" cx="671.53" cy="326.4" r="4.76"/><circle class="cls-3" cx="785.1" cy="313.98" r="4.76"/><circle class="cls-3" cx="691.25" cy="281.16" r="4.76"/><polyline class="cls-5" points="784 314.17 719.14 317.42 723.28 281.18"/><line class="cls-5" x1="719.14" y1="317.42" x2="691.4" y2="281.57"/><polyline class="cls-5" points="706.65 398.86 716.79 317.02 672.35 326.09"/><line class="cls-5" x1="741.94" y1="351.85" x2="719.33" y2="318.17"/></g><g class="cls-2"><circle class="cls-3" cx="831.5" cy="159.98" r="10.02"/><circle class="cls-3" cx="867.14" cy="163.43" r="5.87"/><circle class="cls-3" cx="793.25" cy="152.41" r="5.87"/><circle class="cls-3" cx="863.59" cy="131.61" r="4.97"/><circle class="cls-3" cx="847.81" cy="208.23" r="4.97"/><circle class="cls-3" cx="818.15" cy="120.07" r="4.97"/><circle class="cls-3" cx="798.07" cy="194.61" r="4.97"/><polyline class="cls-7" points="818.5 121.18 831.4 160.34 794 152.17"/><line class="cls-7" x1="831.4" y1="160.34" x2="798.47" y2="194.38"/><polyline class="cls-7" points="867.14 163.43 831.33 162.83 847.36 207.43"/><line class="cls-7" x1="863.59" y1="131.61" x2="832.14" y2="160.03"/></g><g class="cls-2"><circle class="cls-3" cx="418.01" cy="266" r="6.56"/><circle class="cls-3" cx="430.5" cy="285.85" r="3.84"/><circle class="cls-3" cx="401.49" cy="246.52" r="3.84"/><circle class="cls-3" cx="445.56" cy="271.26" r="3.26"/><circle class="cls-3" cx="399.54" cy="293.79" r="3.26"/><circle class="cls-3" cx="433.33" cy="243.09" r="3.26"/><circle class="cls-3" cx="386.66" cy="262.56" r="3.26"/><polyline class="cls-8" points="432.9 243.72 417.77 266.09 401.92 246.81"/><line class="cls-8" x1="417.78" y1="266.09" x2="386.94" y2="262.68"/><polyline class="cls-8" points="430.5 285.85 416.46 267.06 399.78 293.24"/><line class="cls-8" x1="445.56" y1="271.26" x2="418.24" y2="266.35"/></g><g class="cls-2"><circle class="cls-3" cx="721.85" cy="158.54" r="6.01"/><circle class="cls-3" cx="733.29" cy="176.72" r="3.52"/><circle class="cls-3" cx="706.72" cy="140.7" r="3.52"/><circle class="cls-3" cx="747.08" cy="163.36" r="2.98"/><circle class="cls-3" cx="704.94" cy="183.99" r="2.98"/><circle class="cls-3" cx="735.88" cy="137.56" r="2.98"/><circle class="cls-3" cx="693.15" cy="155.39" r="2.98"/><polyline class="cls-9" points="735.48 138.14 721.63 158.63 707.11 140.97"/><line class="cls-9" x1="721.64" y1="158.62" x2="693.4" y2="155.5"/><polyline class="cls-9" points="733.29 176.72 720.43 159.51 705.15 183.48"/><line class="cls-9" x1="747.08" y1="163.36" x2="722.06" y2="158.86"/></g><g class="cls-2"><circle class="cls-3" cx="565.1" cy="388.48" r="6.56"/><circle class="cls-3" cx="577.6" cy="408.33" r="3.84"/><circle class="cls-3" cx="546.91" cy="357.88" r="5.02"/><circle class="cls-3" cx="592.66" cy="393.74" r="3.26"/><circle class="cls-3" cx="546.64" cy="416.27" r="3.26"/><circle class="cls-3" cx="580.43" cy="365.57" r="3.26"/><circle class="cls-3" cx="533.76" cy="385.04" r="3.26"/><polyline class="cls-8" points="580 366.2 564.87 388.57 547.47 358.26"/><line class="cls-8" x1="564.87" y1="388.57" x2="534.04" y2="385.16"/><polyline class="cls-8" points="577.6 408.33 563.56 389.54 546.88 415.72"/><line class="cls-8" x1="592.66" y1="393.74" x2="565.33" y2="388.83"/></g></g><g id="六角形"><circle class="cls-3" cx="338.42" cy="281.25" r="13.25"/><circle class="cls-3" cx="387.92" cy="192.75" r="13.25"/><circle class="cls-3" cx="650.17" cy="156.49" r="13.25"/><polygon class="cls-10" points="524.09 182.75 473.79 182.75 448.64 226.31 473.79 269.88 524.09 269.88 549.24 226.31 524.09 182.75"/><polygon class="cls-10" points="593.82 71.27 543.51 71.27 518.36 114.83 543.51 158.39 593.82 158.39 618.97 114.83 593.82 71.27"/><polygon class="cls-10" points="429.18 329.54 387.51 329.54 366.68 365.62 387.51 401.7 429.18 401.7 450.01 365.62 429.18 329.54"/><polygon class="cls-10" points="622.06 270.53 586.41 270.53 568.59 301.4 586.41 332.27 622.06 332.27 639.88 301.4 622.06 270.53"/><polygon class="cls-10" points="253.57 299.92 217.93 299.92 200.11 330.79 217.93 361.65 253.57 361.65 271.39 330.79 253.57 299.92"/><polygon class="cls-10" points="666.15 199.17 639.78 199.17 626.59 222.01 639.78 244.85 666.15 244.85 679.34 222.01 666.15 199.17"/><polygon class="cls-10" points="793.11 216.71 762.05 216.71 746.52 243.61 762.05 270.52 793.11 270.52 808.64 243.61 793.11 216.71"/><polygon class="cls-10" points="194.67 150 167.67 150 154.18 173.38 167.67 196.75 194.67 196.75 208.16 173.38 194.67 150"/><polygon class="cls-10" points="298.67 199.41 267.6 199.41 252.07 226.31 267.6 253.22 298.67 253.22 314.2 226.31 298.67 199.41"/><polygon class="cls-10" points="352.83 105.08 321.77 105.08 306.24 131.98 321.77 158.88 352.83 158.88 368.37 131.98 352.83 105.08"/><line class="cls-10" x1="314.2" y1="226.31" x2="448.17" y2="226.31"/><path class="cls-3" d="M224.5,317Z"/><path class="cls-3" d="M250.56,317a1.72,1.72,0,0,0-1.7,0l-2.68,1.45-3.51-1.9a1.72,1.72,0,0,0-.82-.21,1.66,1.66,0,0,0-.81.21l-3.52,1.9L234,316.5a1.7,1.7,0,0,0-.82-.21,1.66,1.66,0,0,0-.81.21l-3.51,1.9L226.19,317a1.72,1.72,0,0,0-.82-.21,1.62,1.62,0,0,0-.87.25,1.69,1.69,0,0,0-.84,1.47v22.47h1.76V318.54l2.63,1.42a1.72,1.72,0,0,0,.82.21,1.66,1.66,0,0,0,.81-.21l3.51-1.9,3.52,1.9a1.66,1.66,0,0,0,.81.21,1.72,1.72,0,0,0,.82-.21l3.51-1.9,3.52,1.9a1.66,1.66,0,0,0,.81.21A1.72,1.72,0,0,0,247,320l2.63-1.42v22.88a2.77,2.77,0,0,1-2.78,2.78H225.76a4.1,4.1,0,0,1-4.11-4.11V321.77h-1.76v18.32a5.87,5.87,0,0,0,5.87,5.87h21.09a4.54,4.54,0,0,0,4.54-4.54v-23A1.73,1.73,0,0,0,250.56,317Z"/><rect class="cls-3" x="240.58" y="331.82" width="7.16" height="7.72"/><rect class="cls-3" x="227.44" y="331.93" width="10.56" height="1.17"/><rect class="cls-3" x="227.44" y="338.25" width="10.56" height="1.17"/><rect class="cls-3" x="227.44" y="335.09" width="10.56" height="1.17"/><path class="cls-3" d="M228.68,329.09V325.8h0l1.86,3.29a.14.14,0,0,0,.13.08h.92l.07-.08V324l-.07-.08h-.88l-.07.08v3.29h0L228.79,324a.16.16,0,0,0-.13-.08h-.92l-.08.08v5.08l.08.08h.87Z"/><polygon class="cls-3" points="233.88 324.91 236.13 324.91 236.21 324.83 236.21 324.01 236.13 323.93 232.78 323.93 232.7 324.01 232.7 329.09 232.78 329.17 236.13 329.17 236.21 329.09 236.21 328.27 236.13 328.19 233.88 328.19 233.83 328.14 233.83 327.06 233.88 327.01 235.76 327.01 235.84 326.94 235.84 326.12 235.76 326.04 233.88 326.04 233.83 326 233.83 324.96 233.88 324.91"/><path class="cls-3" d="M243.05,323.93h-1c-.06,0-.09,0-.09.08l-.73,3.29h0l-.93-3.29-.09-.08h-.67a.11.11,0,0,0-.1.08l-.89,3.29h0l-.75-3.29a.09.09,0,0,0-.09-.08h-1s-.07,0-.06.08l1.36,5.08.09.08h.77a.11.11,0,0,0,.1-.08l.91-3.26h0l.91,3.26a.09.09,0,0,0,.1.08h.77a.1.1,0,0,0,.1-.08l1.35-5.08C243.12,324,243.11,323.93,243.05,323.93Z"/><path class="cls-3" d="M245.52,328.27a2.18,2.18,0,0,1-1.37-.54H244l-.58.67v.13a3.1,3.1,0,0,0,2,.71c1.35,0,2.05-.7,2.05-1.65s-.56-1.43-1.64-1.58l-.28,0c-.6-.08-.82-.28-.82-.58s.24-.57.71-.57a2.16,2.16,0,0,1,1.21.4l.11,0,.47-.7c0-.05,0-.08,0-.11a2.94,2.94,0,0,0-1.77-.55c-1.14,0-1.86.64-1.86,1.6s.59,1.42,1.65,1.57l.28,0c.63.08.81.28.81.58S246.06,328.27,245.52,328.27Z"/><path class="cls-11" d="M657.74,154.57a1.59,1.59,0,0,0-1.59-1.59h-3.68c-.21,0-.4,0-.54,0h-.15v0a.55.55,0,0,1,0-.09s0-.06,0-.1l.91-2.24a1.92,1.92,0,0,0,.12-.66,1.76,1.76,0,0,0-1.09-1.63,1.92,1.92,0,0,0-.66-.12,1.75,1.75,0,0,0-1.63,1.09h0l-1.54,3.86h0l-.26.67a1.76,1.76,0,0,1-.38.64.81.81,0,0,1-.26.15,1.47,1.47,0,0,1-.43.06,1.66,1.66,0,0,0-.32,0h-2.49a1.34,1.34,0,0,0-1.33,1.33v6a1.34,1.34,0,0,0,1.33,1.33h1.84a.74.74,0,0,0,.74-.74V162a4.09,4.09,0,0,0,.42.2,5.31,5.31,0,0,0,1.85.27h5.73a1.59,1.59,0,0,0,1.58-1.59,1.62,1.62,0,0,0-.11-.58,1.58,1.58,0,0,0,.88-2.29,1.25,1.25,0,0,0,.39-.58,2.21,2.21,0,0,0,.11-.72,1.13,1.13,0,0,0-.09-.45,1.3,1.3,0,0,0-.16-.31A1.59,1.59,0,0,0,657.74,154.57Zm-1.59.81h-.26a.39.39,0,0,0-.28.11.42.42,0,0,0-.12.28.4.4,0,0,0,.12.27.36.36,0,0,0,.28.12.41.41,0,0,1,.19.05.59.59,0,0,1,.24.23.72.72,0,0,1,.08.27,1.22,1.22,0,0,1-.11.57.38.38,0,0,1-.12.13.31.31,0,0,1-.19.08.4.4,0,0,0-.3.29.38.38,0,0,0,.13.4.8.8,0,0,1-.51,1.42h-.18a.39.39,0,0,0-.37.25.37.37,0,0,0,.11.43.82.82,0,0,1,.27.6.8.8,0,0,1-.8.81H648.6a4.73,4.73,0,0,1-1.44-.18,1.93,1.93,0,0,1-.67-.35s-.11-.1-.16-.16v-5.57a.8.8,0,0,1,.23,0,1.87,1.87,0,0,0,.88-.19,1.55,1.55,0,0,0,.47-.36,3.12,3.12,0,0,0,.41-.7c.1-.25.19-.5.3-.75h0l1.54-3.86a1,1,0,0,1,.9-.61.92.92,0,0,1,.36.07,1,1,0,0,1,.54,1.27l-.93,2.29a.29.29,0,0,0,0,.09,2.29,2.29,0,0,0,0,.25,1.07,1.07,0,0,0,.07.41.68.68,0,0,0,.18.26.74.74,0,0,0,.35.2,1.42,1.42,0,0,0,.34,0c.22,0,.42,0,.54,0h3.68a.81.81,0,1,1,0,1.61Z"/><circle class="cls-3" cx="515.58" cy="323.7" r="13.25"/><path class="cls-3" d="M466.67,207.77c0,8.2,6.05,16,13.2,16,.55,0,1.1-.4.4-.9a3.11,3.11,0,0,1-1.6-2.55c0-.6.5-1.35,2.1-1.35h10.7a11.2,11.2,0,0,0,0-22.4h-13.6A11.2,11.2,0,0,0,466.67,207.77Zm24.37,0a2.13,2.13,0,1,1,2.13,2.13A2.13,2.13,0,0,1,491,207.77Zm-8.5,0a2.13,2.13,0,1,1,2.13,2.13A2.12,2.12,0,0,1,482.54,207.77Zm-8.5,0a2.13,2.13,0,1,1,2.12,2.13A2.12,2.12,0,0,1,474,207.77Z"/><path class="cls-3" d="M337.75,115.37a1.2,1.2,0,1,0-1.2-1.2A1.2,1.2,0,0,0,337.75,115.37Z"/><path class="cls-3" d="M338.36,119.44a.69.69,0,0,0-.7-.7.7.7,0,0,0-.71.7.71.71,0,0,0,.71.71A.7.7,0,0,0,338.36,119.44Z"/><path class="cls-3" d="M338.5,116.91a.85.85,0,1,0,.85-.84A.85.85,0,0,0,338.5,116.91Z"/><path class="cls-3" d="M349.69,141.56l-6.76-10.8a6.17,6.17,0,0,1-.95-3.28v-7H340.8v7a7.4,7.4,0,0,0,1.12,3.91l6.76,10.8a2,2,0,0,1,.3,1,2,2,0,0,1-.24.95,2,2,0,0,1-1.7,1h0l-17.89,0a2,2,0,0,1-1.7-1,1.94,1.94,0,0,1,.06-2l6.79-10.79a7.42,7.42,0,0,0,1.13-3.92v-7h-1.2v7a6.2,6.2,0,0,1-.95,3.29l-6.78,10.78a3.14,3.14,0,0,0,2.65,4.81l17.89,0v0h.05a3.13,3.13,0,0,0,2.7-1.61,3.12,3.12,0,0,0-.08-3.19Z"/><path class="cls-3" d="M334,134.67l-4.66,7.42a1,1,0,0,0,0,1,1,1,0,0,0,.89.54H346a1,1,0,0,0,.9-.52,1,1,0,0,0,0-1l-4.65-7.43a1,1,0,0,0-.87-.48h-6.5A1,1,0,0,0,334,134.67Zm6.17,5.16a.75.75,0,1,1-.75.75A.75.75,0,0,1,340.14,139.83Zm-3.59-3.22a1.13,1.13,0,1,1-1.12,1.13A1.13,1.13,0,0,1,336.55,136.61Z"/><path class="cls-3" d="M429.81,384.49a8.57,8.57,0,0,0-.86-2.07,8.3,8.3,0,0,0-2.37-2.58,13.1,13.1,0,0,0-2.17-1.25c-1.12-.53-2.26-.93-3.32-1.32a17.88,17.88,0,0,1-2.77-1.21,6.77,6.77,0,0,1-.74-.51,3.19,3.19,0,0,1-.75-.87,2.89,2.89,0,0,1-.35-1.13c0-.31,0-.61,0-.9a10.85,10.85,0,0,1,.28-2.33,9.71,9.71,0,0,0,1.31-1.93,19.66,19.66,0,0,0,1.19-2.71,5.56,5.56,0,0,0,.75-.41,5.45,5.45,0,0,0,1.52-1.6,8.07,8.07,0,0,0,1-2.63,3.86,3.86,0,0,0,.1-.89,4.07,4.07,0,0,0-.38-1.7,4.32,4.32,0,0,0-.63-1c.13-.47.28-1.1.42-1.83a19.57,19.57,0,0,0,.34-3.53,12.84,12.84,0,0,0-.23-2.54,8.81,8.81,0,0,0-.58-1.87,6.81,6.81,0,0,0-1.76-2.47,7.42,7.42,0,0,0-2.78-1.51,10.4,10.4,0,0,0-1.46-1.44,7.94,7.94,0,0,0-2.65-1.41,9.59,9.59,0,0,0-2.75-.37c-.49,0-1,0-1.46.07s-.83.09-1.17.15a7.48,7.48,0,0,0-1.32.33c-.4.14-.79.3-1.3.51a6.12,6.12,0,0,0-.76.34,13.89,13.89,0,0,0-2,1.22,12.68,12.68,0,0,0-3.28,3.56,11.48,11.48,0,0,0-1.17,2.68,12.19,12.19,0,0,0-.45,3.3,13.38,13.38,0,0,0,.21,2.38v.17l0,.32c0,.17,0,.33,0,.48s0,.13,0,.18v.07h0v.09l.21.91a4.48,4.48,0,0,0-.75,1.07,4.06,4.06,0,0,0-.43,1.81,3.83,3.83,0,0,0,.1.88h0a9.64,9.64,0,0,0,.62,1.88,6,6,0,0,0,1.4,1.92,5.17,5.17,0,0,0,1.29.84,21,21,0,0,0,1.19,2.71,10.15,10.15,0,0,0,1.31,1.93,10.84,10.84,0,0,1,.29,2.33c0,.29,0,.59,0,.91a2.83,2.83,0,0,1-.2.81,2.73,2.73,0,0,1-.65.95,5.13,5.13,0,0,1-1.09.8,13.4,13.4,0,0,1-1.51.71c-1,.39-2.09.77-3.22,1.22a17.53,17.53,0,0,0-2.52,1.2,10.6,10.6,0,0,0-1.74,1.27,7.92,7.92,0,0,0-2,2.82,10.4,10.4,0,0,0-.76,4.11,1.66,1.66,0,0,0,.13.64,2.29,2.29,0,0,0,.29.53,3.85,3.85,0,0,0,.87.83,10.11,10.11,0,0,0,2.5,1.29,31.24,31.24,0,0,0,6.5,1.53,72.46,72.46,0,0,0,10.25.64,75.77,75.77,0,0,0,9.1-.49,42.23,42.23,0,0,0,4.94-.86,25,25,0,0,0,2.72-.83,12.55,12.55,0,0,0,1.54-.69,7.87,7.87,0,0,0,.88-.54,4.14,4.14,0,0,0,.95-.91,2.43,2.43,0,0,0,.28-.53,1.54,1.54,0,0,0,.12-.61A11.65,11.65,0,0,0,429.81,384.49Zm-12.89-7.3-5.13,8-.57-3.93,1.45-1.54-.94-1.56,4-2.1a3.44,3.44,0,0,0,.35.41A6,6,0,0,0,416.92,377.19Zm-14.17-9.61a20.1,20.1,0,0,1-1.21-2.83l-.14-.38-.38-.14a4.15,4.15,0,0,1-.76-.38,3.64,3.64,0,0,1-1-1.09,6.57,6.57,0,0,1-.81-2.1h0a2.2,2.2,0,0,1-.06-.5,2.27,2.27,0,0,1,.26-1.05,2.76,2.76,0,0,1,.56-.77c.39.59.72,1.06.83,1.18.39.39.44-.52.26-1.54-.34-1.87.57-1,2.88-5.52,4.62,1,12.7-3.88,12.7-3.88a8.52,8.52,0,0,0,1.64,4.29c1.46,1.95,2.29,6.52,2.29,6.52s.2-.37.49-.88a2.87,2.87,0,0,1,.44.67,2.37,2.37,0,0,1,.22,1,2.22,2.22,0,0,1-.06.51,7.42,7.42,0,0,1-.5,1.53,4,4,0,0,1-1,1.37,3.27,3.27,0,0,1-1.12.67l-.38.14-.13.38a20.1,20.1,0,0,1-1.21,2.83,8.52,8.52,0,0,1-1.22,1.75l-.16.17,0,.24a12.88,12.88,0,0,0-.37,2.91,10.1,10.1,0,0,0,0,1.08,5,5,0,0,0,.3,1.25.08.08,0,0,1,0,0l-5.2,2.73-5.76-2.67a4.61,4.61,0,0,0,.35-1.36h0a10.19,10.19,0,0,0,.06-1.08,13.66,13.66,0,0,0-.37-2.92l-.05-.23-.17-.17A8.15,8.15,0,0,1,402.75,367.58Zm-.05,9.35a5.23,5.23,0,0,0,.82-.81l4.39,2-.93,1.56,1.45,1.54-.54,3.7-5.6-7.72C402.43,377.14,402.57,377,402.7,376.93Zm25.71,10.61a1.75,1.75,0,0,1-.42.44,4.91,4.91,0,0,1-.79.52,13.89,13.89,0,0,1-2.39,1,34.77,34.77,0,0,1-6,1.22,73.14,73.14,0,0,1-9.15.51,74.41,74.41,0,0,1-8.91-.48,40.41,40.41,0,0,1-4.73-.82,21.55,21.55,0,0,1-2.52-.77,10.94,10.94,0,0,1-1.34-.6,5.66,5.66,0,0,1-.69-.42,2.57,2.57,0,0,1-.55-.51.55.55,0,0,1-.08-.14h0a9.62,9.62,0,0,1,.29-2.49,6.69,6.69,0,0,1,.67-1.65,6.8,6.8,0,0,1,1.87-2.05,11.65,11.65,0,0,1,1.86-1.09c1-.47,2.08-.86,3.15-1.25a24.21,24.21,0,0,0,2.59-1.08l8.85,12.21L418,377.8c.39.2.8.39,1.22.56,1.05.44,2.17.81,3.25,1.24a17,17,0,0,1,2.32,1.09,8.43,8.43,0,0,1,1.48,1.06,6.37,6.37,0,0,1,1.61,2.23,8.75,8.75,0,0,1,.63,3.47S428.44,387.49,428.41,387.54Z"/><rect class="cls-3" x="416.05" y="386.48" width="6.85" height="1.2"/><path class="cls-3" d="M604.15,292a5.6,5.6,0,1,0-5.6-5.59A5.6,5.6,0,0,0,604.15,292Z"/><rect class="cls-3" x="583.4" y="314.63" width="41.51" height="4.01"/><path class="cls-3" d="M596.22,306l.9,7.32h6.41V310a4.38,4.38,0,0,1-3.75-4.32v-1a.63.63,0,0,1,1.25,0v1a3.12,3.12,0,0,0,6.24,0v-1a.63.63,0,0,1,1.25,0v1a4.38,4.38,0,0,1-3.75,4.32v3.28h6.4l.9-7.32.56,7.32h4.82L617,302.89c-.38-7.91-8.86-8.76-12.83-8.76s-12.45.85-12.84,8.76l-.46,10.38h4.82Zm5.75-4.34a2.18,2.18,0,0,1,4.36,0v4.06a2.18,2.18,0,0,1-4.36,0v-4.06Z"/><path class="cls-3" d="M516.48,211c-9.94-.61-18.3,5.64-18.11,15.82v.93L494,235.41a1.47,1.47,0,0,0,1,2.16l2.67.74.83,8.08a2.82,2.82,0,0,0,1,2,2.77,2.77,0,0,0,2.14.66l2.13.17a1.48,1.48,0,0,1,1.63,1.47V257h18v-4.28a13.07,13.07,0,0,1,1.23-5.32c2.92-4.68,7.68-7.16,8.48-16.74S528.22,211.76,516.48,211Z"/><path class="cls-11" d="M383.48,195.91a1.22,1.22,0,0,1-.48.54,1,1,0,0,1-.26.11l-.29-1.08h-2.08l.73,3.66a.47.47,0,0,0,.46.38h1.36a.49.49,0,0,0,.38-.18.49.49,0,0,0,.08-.42l-.51-1.87.12,0a1.68,1.68,0,0,0,.76-.57,2.12,2.12,0,0,0,.34-.79l-.5-.08A1.51,1.51,0,0,1,383.48,195.91Z"/><path class="cls-11" d="M389.4,186.75c-.38,0-1,.65-1.26.92s-2.05,2-6.65,2v5.39c4.6,0,6.42,1.8,6.65,2s.88.92,1.26.92a.69.69,0,0,0,.69-.69v-9.91A.69.69,0,0,0,389.4,186.75Z"/><path class="cls-11" d="M380.86,189.7a2.7,2.7,0,0,0,0,5.39Z"/><path class="cls-11" d="M390.65,191.38v2a1,1,0,0,0,0-2Z"/><rect class="cls-11" x="393.95" y="192.06" width="2.72" height="0.53"/><polygon class="cls-11" points="396.02 188.5 395.74 188.06 393.26 189.63 393.55 190.08 396.02 188.5"/><polygon class="cls-11" points="393.26 195.23 395.74 196.81 396.02 196.37 393.55 194.79 393.26 195.23"/><path class="cls-3" d="M587.37,83.15a1.91,1.91,0,0,0-1.17-.47h-2.64a1.7,1.7,0,0,0-1.13.51l-1.8,2.12a.57.57,0,0,1-.88,0L578,83.19a1.7,1.7,0,0,0-1.13-.51h-2.64a2,2,0,0,0-1.18.47l-2.07,2a1.79,1.79,0,0,0-.49,1.12v4a1.42,1.42,0,0,0,.56,1l8.63,5.94a1.07,1.07,0,0,0,1.12,0l8.63-5.94a1.42,1.42,0,0,0,.56-1v-4a1.79,1.79,0,0,0-.49-1.12Z"/><path class="cls-3" d="M557.88,95.84a4.95,4.95,0,1,0-5-4.94A4.95,4.95,0,0,0,557.88,95.84Z"/><path class="cls-3" d="M567.52,102.9c-1-3.39-3.25-5.63-5.77-5.63H554c-2.52,0-4.77,2.24-5.78,5.63l-3.64,12.92a2.05,2.05,0,0,0,1.49,2.47,2,2,0,0,0,2.45-1.46L552.16,104h1.07l-6.32,22.41h6V143a2.3,2.3,0,0,0,4.6,0V126.36h1.26V143a2.31,2.31,0,0,0,4.61,0V126.36h5.51L562.53,104h1.07l3.63,12.88a2,2,0,0,0,2.45,1.46,2.05,2.05,0,0,0,1.49-2.47Z"/><path class="cls-3" d="M585.59,113.31a4.34,4.34,0,1,0-4.33-4.33A4.33,4.33,0,0,0,585.59,113.31Z"/><path class="cls-3" d="M590.57,116H580A4.51,4.51,0,0,0,576,120v9.41a1.76,1.76,0,1,0,3.52,0v-7h.82v20.37a2.32,2.32,0,0,0,4.63,0V131h.75v11.82a2.32,2.32,0,0,0,4.63,0V122.45h.81v7a1.77,1.77,0,1,0,3.53,0V120A4.51,4.51,0,0,0,590.57,116Z"/><path class="cls-3" d="M775,251.47a.74.74,0,0,1-.22.14.66.66,0,0,1-.37,0,.68.68,0,0,1-.33-.18l-4.79-4.79a.6.6,0,0,1-.14-.21.68.68,0,0,1,0-.37.72.72,0,0,1,.18-.33l9.9-9.9-1.48-1.48-9.9,9.9a2.84,2.84,0,0,0-.6.9,2.78,2.78,0,0,0-.15,1.56,2.74,2.74,0,0,0,.75,1.41l4.79,4.79a2.82,2.82,0,0,0,.91.6,2.74,2.74,0,0,0,1.55.15,2.67,2.67,0,0,0,1.41-.75l9.9-9.89-1.48-1.48Z"/><path class="cls-3" d="M767.2,251.84a.76.76,0,0,0-.14,1l.85.85a.75.75,0,0,0,1.05-.14l1.6-1.6-1.76-1.76Z"/><polygon class="cls-3" points="761.64 258.21 763.22 258.53 767.31 254.44 766.36 253.5 761.64 258.21"/><path class="cls-3" d="M781.11,230.47a1.87,1.87,0,1,0-2.64,2.64l9.22,9.22a1.87,1.87,0,0,0,2.64-2.64Z"/><path class="cls-3" d="M793.09,232.59l-4.88-4.88a1.87,1.87,0,0,0-2.64,2.64l.5.5-1.48,1.48,1.48,1.48,1.48-1.48.92.92L787,234.73l1.48,1.48,1.48-1.48.5.5a1.87,1.87,0,0,0,2.64-2.64Z"/><rect class="cls-3" x="779.97" y="241.25" width="0.9" height="2.5" transform="translate(57.1 622.86) rotate(-45)"/><polygon class="cls-3" points="778.38 246.3 779.02 245.67 777.25 243.9 776.61 244.53 778.38 246.3"/><rect class="cls-3" x="774.87" y="246.35" width="0.9" height="2.5" transform="translate(52.01 620.75) rotate(-45)"/><path class="cls-3" d="M297.81,237.76a4.37,4.37,0,0,0-2.79-2.49v-.67a4.8,4.8,0,0,0-.39-1.89,4.86,4.86,0,0,0-8.51-.83,4.83,4.83,0,0,0-.83,2.72v3.34a2.48,2.48,0,0,1-.19.95,2.45,2.45,0,0,1-.89,1.07,2.36,2.36,0,0,1-1.36.42,2.48,2.48,0,0,1-1-.19,2.45,2.45,0,0,1-1.07-.89,2.36,2.36,0,0,1-.42-1.36v-7.28a10.57,10.57,0,0,0,2.76-.71,12.82,12.82,0,0,0,4.7-3.33,13.89,13.89,0,0,0,1.64-2.23A11.77,11.77,0,0,0,290.6,222a11,11,0,0,0,.55-3.35,7.88,7.88,0,0,0-.21-1.85,5.7,5.7,0,0,0-.44-1.24,4.3,4.3,0,0,0-.52-.81,3.56,3.56,0,0,0-1.14-.93,3.43,3.43,0,0,0-1.49-.34v2.43a1,1,0,0,1,.26,0,.71.71,0,0,1,.18.08,1.07,1.07,0,0,1,.32.27,2.57,2.57,0,0,1,.43.91,5.63,5.63,0,0,1,.18,1.45,8.83,8.83,0,0,1-.43,2.61,10,10,0,0,1-1.27,2.55,11.16,11.16,0,0,1-3.35,3.21,8.94,8.94,0,0,1-2.14,1,8,8,0,0,1-5.4-.26,9.3,9.3,0,0,1-2.05-1.13,11.39,11.39,0,0,1-2.48-2.47,9.93,9.93,0,0,1-1.49-2.86,8.22,8.22,0,0,1-.43-2.61,6.18,6.18,0,0,1,.13-1.29,3.22,3.22,0,0,1,.26-.71,1.49,1.49,0,0,1,.23-.36.88.88,0,0,1,.34-.29.86.86,0,0,1,.41-.09v-2.43a3.44,3.44,0,0,0-.91.12,3.61,3.61,0,0,0-.73.3,3.85,3.85,0,0,0-1,.87,5.16,5.16,0,0,0-.88,1.77,8,8,0,0,0-.27,2.11,11,11,0,0,0,.55,3.35,12.42,12.42,0,0,0,1.58,3.18,13.31,13.31,0,0,0,4.09,3.91,11.47,11.47,0,0,0,2.69,1.21,10.07,10.07,0,0,0,1.83.38v7.28a4.88,4.88,0,0,0,4.86,4.87,4.87,4.87,0,0,0,4.86-4.87V234.6a2.43,2.43,0,0,1,.19-.94,2.48,2.48,0,0,1,.89-1.08,2.42,2.42,0,0,1,1.36-.41,2.3,2.3,0,0,1,1,.19,2.42,2.42,0,0,1,1.07.88,2.38,2.38,0,0,1,.42,1.36v.67c-.17,0-.33.11-.48.17a4.36,4.36,0,0,0-2.32,5.7,4.5,4.5,0,0,0,1.58,1.92,4.38,4.38,0,0,0,2.43.74,4.35,4.35,0,0,0,4-6Zm-1.88,2.59a2.32,2.32,0,0,1-.84,1,2.33,2.33,0,0,1-2.19.21,2.32,2.32,0,0,1-1-.84,2.36,2.36,0,0,1-.39-1.29,2.26,2.26,0,0,1,.18-.9,2.39,2.39,0,0,1,.84-1,2.28,2.28,0,0,1,1.29-.39,2.23,2.23,0,0,1,.9.18,2.32,2.32,0,0,1,1,.84,2.33,2.33,0,0,1,.21,2.19Z"/><path class="cls-3" d="M274.6,216.92a1.58,1.58,0,0,0,.61-1.25v-1.9a1.6,1.6,0,0,0-2-1.56l-1.26.3v4.41l1.26.3A1.61,1.61,0,0,0,274.6,216.92Z"/><path class="cls-3" d="M283.79,216.92a1.63,1.63,0,0,0,1.36.3l1.27-.3v-4.41l-1.27-.3a1.59,1.59,0,0,0-2,1.56v1.89A1.61,1.61,0,0,0,283.79,216.92Z"/><path class="cls-3" d="M653.41,209.25l-12.47,7V235h10v-7.31h4.83V235h10V216.22Zm-6.26,20.82h-2v-2.4h2Zm0-5.33h-2v-2.4h2Zm7.26,0h-2v-2.4h2Zm2.15-7.11h-2v2h-2.25v-2h-2v-2.25h2v-2h2.25v2h2Zm3.1,4.71h1.89v2.4h-1.89Zm2,7.73h-2v-2.4h2Z"/><path class="cls-3" d="M169.52,158.37v28.41h22.91V158.37ZM190.6,185h-8.25v-5.5H179.6V185h-8.25V160.21H190.6Z"/><rect class="cls-3" x="174.1" y="162.96" width="2.75" height="2.75"/><rect class="cls-3" x="179.6" y="162.96" width="2.75" height="2.75"/><rect class="cls-3" x="185.1" y="162.96" width="2.75" height="2.75"/><rect class="cls-3" x="174.1" y="168.46" width="2.75" height="2.75"/><rect class="cls-3" x="179.6" y="168.46" width="2.75" height="2.75"/><rect class="cls-3" x="185.1" y="168.46" width="2.75" height="2.75"/><rect class="cls-3" x="174.1" y="173.95" width="2.75" height="2.75"/><rect class="cls-3" x="179.6" y="173.95" width="2.75" height="2.75"/><rect class="cls-3" x="185.1" y="173.95" width="2.75" height="2.75"/><rect class="cls-3" x="174.1" y="179.45" width="2.75" height="2.75"/><rect class="cls-3" x="185.1" y="179.45" width="2.75" height="2.75"/><line class="cls-10" x1="473.79" y1="269.88" x2="429.18" y2="329.54"/><line class="cls-10" x1="321.83" y1="158.67" x2="298.67" y2="199.41"/><line class="cls-10" x1="524.09" y1="182.75" x2="543.75" y2="158.31"/><line class="cls-10" x1="549.42" y1="226.55" x2="585.7" y2="269.92"/><line class="cls-10" x1="745.67" y1="244.33" x2="679.69" y2="220.97"/><line class="cls-10" x1="271.39" y1="330.79" x2="366.68" y2="365.62"/><line class="cls-12" x1="622.33" y1="270.33" x2="639" y2="245"/><line class="cls-10" x1="208.16" y1="173.38" x2="267.6" y2="199.41"/><path class="cls-11" d="M329.31,280.49c0,4,3,7.88,6.49,7.88.27,0,.55-.2.2-.45a1.53,1.53,0,0,1-.79-1.25c0-.3.25-.67,1-.67h5.26a5.51,5.51,0,1,0,0-11h-6.69A5.51,5.51,0,0,0,329.31,280.49Zm12,0a1,1,0,1,1,1,1.05A1,1,0,0,1,341.31,280.49Zm-4.19,0a1,1,0,1,1,1.05,1.05A1,1,0,0,1,337.12,280.49Zm-4.19,0a1.05,1.05,0,1,1,1.05,1.05A1,1,0,0,1,332.93,280.49Z"/><path class="cls-11" d="M520.79,323.73a3.65,3.65,0,0,1-.95,2.5,2.43,2.43,0,0,1-3.12.63,18.07,18.07,0,0,0-3.36-1.46c-.51-.09-2.31-.12-2.31-.12h-5.82v-.59h6.11a8.64,8.64,0,0,1,4,.59c1.86.85,2.41,1.22,3.16,1s1.5-1.65,1.5-2.59-.69-2.39-1.5-2.59-1.3.18-3.16,1a8.64,8.64,0,0,1-4,.59h-6.11v-.59h5.82s1.8,0,2.31-.12a18.07,18.07,0,0,0,3.36-1.46,2.43,2.43,0,0,1,3.12.63A3.68,3.68,0,0,1,520.79,323.73Z"/><path class="cls-11" d="M509.87,323.73a3.65,3.65,0,0,0,.95,2.5,2.43,2.43,0,0,0,3.12.63,18.07,18.07,0,0,1,3.36-1.46c.51-.09,2.31-.12,2.31-.12h5.82v-.59h-6.12a8.61,8.61,0,0,0-4,.59c-1.86.85-2.41,1.22-3.16,1s-1.5-1.65-1.5-2.59.69-2.39,1.5-2.59,1.3.18,3.16,1a8.61,8.61,0,0,0,4,.59h6.12v-.59h-5.82s-1.8,0-2.31-.12a18.07,18.07,0,0,1-3.36-1.46,2.43,2.43,0,0,0-3.12.63A3.68,3.68,0,0,0,509.87,323.73Z"/></g></svg>