<svg xmlns="http://www.w3.org/2000/svg" xmlns:xlink="http://www.w3.org/1999/xlink" viewBox="0 0 1000 400"><defs><style>.cls-1{fill:url(#名称未設定グラデーション_27);}.cls-2{opacity:0.6;}.cls-3{fill:#fff;}.cls-10,.cls-11,.cls-13,.cls-4,.cls-5,.cls-6,.cls-7,.cls-8,.cls-9{fill:none;stroke:#fff;stroke-miterlimit:10;}.cls-4{stroke-width:0.61px;}.cls-5{stroke-width:0.81px;}.cls-6{stroke-width:0.36px;}.cls-7{stroke-width:0.32px;}.cls-8{stroke-width:0.84px;}.cls-9{stroke-width:0.55px;}.cls-10{stroke-width:0.5px;}.cls-11{stroke-width:1.22px;}.cls-12{fill:#f6c15f;}.cls-13{stroke-width:0.78px;}</style><linearGradient id="名称未設定グラデーション_27" x1="500.33" y1="4.43" x2="500.33" y2="387.85" gradientUnits="userSpaceOnUse"><stop offset="0" stop-color="#f6c15f"/><stop offset="0.13" stop-color="#f6c363"/><stop offset="0.27" stop-color="#f7c86f"/><stop offset="0.4" stop-color="#f7d184"/><stop offset="0.5" stop-color="#f8db99"/><stop offset="0.56" stop-color="#f8d68e"/><stop offset="0.73" stop-color="#f7cb74"/><stop offset="0.88" stop-color="#f6c364"/><stop offset="1" stop-color="#f6c15f"/></linearGradient></defs><title>アートボード 1</title><g id="レイヤー_6のコピー_2" data-name="レイヤー 6のコピー 2"><rect class="cls-1" x="1" y="0.17" width="998.67" height="398.87"/></g><g id="放射状"><g class="cls-2"><circle class="cls-3" cx="443.14" cy="51.83" r="8.91"/><circle class="cls-3" cx="487.23" cy="86.19" r="5.21"/><circle class="cls-3" cx="412.09" cy="36.42" r="5.21"/><circle class="cls-3" cx="480.3" cy="43.58" r="4.42"/><circle class="cls-3" cx="435.05" cy="96.38" r="4.42"/><circle class="cls-3" cx="449.93" cy="15.04" r="4.42"/><circle class="cls-3" cx="402.23" cy="64.38" r="4.42"/><polyline class="cls-4" points="449.73 16.06 442.9 52.07 412.78 36.56"/><line class="cls-4" x1="442.9" y1="52.07" x2="402.63" y2="64.38"/><polyline class="cls-4" points="487.23 86.19 441.77 53.98 435.05 95.56"/><line class="cls-4" x1="480.3" y1="43.58" x2="443.61" y2="52.14"/></g><g class="cls-2"><circle class="cls-3" cx="937.19" cy="314.69" r="8.91"/><circle class="cls-3" cx="963.43" cy="332.71" r="5.21"/><circle class="cls-3" cx="906.14" cy="299.28" r="5.21"/><circle class="cls-3" cx="974.36" cy="306.44" r="4.42"/><circle class="cls-3" cx="929.1" cy="359.24" r="4.42"/><circle class="cls-3" cx="956.22" cy="274.64" r="4.42"/><circle class="cls-3" cx="860.2" cy="336" r="4.42"/><polyline class="cls-4" points="956.01 275.66 936.95 314.93 906.83 299.41"/><line class="cls-4" x1="936.95" y1="314.93" x2="860.61" y2="336"/><polyline class="cls-4" points="963.43 332.71 935.83 316.83 929.11 358.42"/><line class="cls-4" x1="974.36" y1="306.44" x2="937.67" y2="315"/></g><g class="cls-2"><circle class="cls-3" cx="93.24" cy="210.93" r="11.73"/><circle class="cls-3" cx="133.96" cy="220.9" r="6.87"/><circle class="cls-3" cx="47.83" cy="206.43" r="6.87"/><circle class="cls-3" cx="135.17" cy="183.45" r="5.82"/><circle class="cls-3" cx="104.05" cy="269.57" r="5.82"/><circle class="cls-3" cx="84.46" cy="162.46" r="5.82"/><circle class="cls-3" cx="48.71" cy="245.45" r="5.82"/><polyline class="cls-5" points="84.69 163.81 93.06 211.34 48.74 206.27"/><line class="cls-5" x1="93.06" y1="211.34" x2="49.21" y2="245.26"/><polyline class="cls-5" points="133.96 220.9 92.57 214.21 103.67 268.56"/><line class="cls-5" x1="135.17" y1="183.45" x2="93.97" y2="211.09"/></g><g class="cls-2"><circle class="cls-3" cx="193.16" cy="46.72" r="5.19"/><circle class="cls-3" cx="193.84" cy="65.25" r="3.04"/><circle class="cls-3" cx="189.59" cy="26.85" r="3.04"/><circle class="cls-3" cx="209.93" cy="61.24" r="2.58"/><circle class="cls-3" cx="169.52" cy="58.41" r="2.58"/><circle class="cls-3" cx="212.73" cy="37.12" r="2.58"/><circle class="cls-3" cx="173.09" cy="31.94" r="2.58"/><polyline class="cls-6" points="212.18 37.38 192.97 46.69 189.76 27.21"/><line class="cls-6" x1="192.97" y1="46.69" x2="173.23" y2="32.13"/><polyline class="cls-6" points="193.84 65.25 191.68 46.83 169.9 58.12"/><line class="cls-6" x1="209.93" y1="61.24" x2="193.18" y2="47.05"/></g><g class="cls-2"><circle class="cls-3" cx="228.46" cy="80.2" r="5.19"/><circle class="cls-3" cx="218.11" cy="95.59" r="3.04"/><circle class="cls-3" cx="237.26" cy="62.03" r="3.04"/><circle class="cls-3" cx="233.48" cy="101.81" r="2.58"/><circle class="cls-3" cx="202.46" cy="75.75" r="2.58"/><circle class="cls-3" cx="249.93" cy="83.95" r="2.58"/><circle class="cls-3" cx="220.92" cy="56.44" r="2.58"/><polyline class="cls-6" points="249.33 83.84 228.32 80.07 237.18 62.43"/><line class="cls-6" x1="228.32" y1="80.07" x2="220.92" y2="56.68"/><polyline class="cls-6" points="218.11 95.59 227.2 79.42 202.94 75.74"/><line class="cls-6" x1="233.48" y1="101.81" x2="228.28" y2="80.48"/></g><g class="cls-2"><circle class="cls-3" cx="768.72" cy="282.79" r="9.16"/><circle class="cls-3" cx="753.04" cy="382.21" r="6.87"/><circle class="cls-3" cx="773.22" cy="237.37" r="6.87"/><circle class="cls-3" cx="796.2" cy="324.72" r="5.82"/><circle class="cls-3" cx="710.09" cy="293.6" r="5.82"/><circle class="cls-3" cx="849" cy="278.4" r="5.82"/><circle class="cls-3" cx="734.2" cy="238.26" r="5.82"/><polyline class="cls-5" points="847.65 278.63 768.32 282.61 773.38 238.28"/><line class="cls-5" x1="768.32" y1="282.61" x2="734.39" y2="238.76"/><polyline class="cls-5" points="753.04 382.21 765.44 282.12 711.09 293.22"/><line class="cls-5" x1="796.2" y1="324.72" x2="768.56" y2="283.52"/></g><g class="cls-2"><circle class="cls-3" cx="66.61" cy="319.81" r="3.61"/><circle class="cls-3" cx="60.42" cy="359.03" r="2.71"/><circle class="cls-3" cx="68.38" cy="301.9" r="2.71"/><circle class="cls-3" cx="77.45" cy="336.35" r="2.3"/><circle class="cls-3" cx="43.48" cy="324.07" r="2.3"/><circle class="cls-3" cx="98.27" cy="318.08" r="2.3"/><circle class="cls-3" cx="52.99" cy="302.24" r="2.3"/><polyline class="cls-7" points="97.74 318.17 66.45 319.74 68.45 302.25"/><line class="cls-7" x1="66.45" y1="319.74" x2="53.07" y2="302.44"/><polyline class="cls-7" points="60.42 359.02 65.31 319.54 43.88 323.92"/><line class="cls-7" x1="77.45" y1="336.35" x2="66.54" y2="320.1"/></g><g class="cls-2"><circle class="cls-3" cx="905.75" cy="90.03" r="12.26"/><circle class="cls-3" cx="949.35" cy="94.26" r="7.17"/><circle class="cls-3" cx="858.97" cy="80.78" r="7.17"/><circle class="cls-3" cx="945" cy="55.34" r="6.08"/><circle class="cls-3" cx="925.7" cy="149.05" r="6.08"/><circle class="cls-3" cx="889.42" cy="41.22" r="6.08"/><circle class="cls-3" cx="864.86" cy="132.39" r="6.08"/><polyline class="cls-8" points="889.86 42.58 905.63 90.48 859.88 80.48"/><line class="cls-8" x1="905.63" y1="90.48" x2="865.36" y2="132.12"/><polyline class="cls-8" points="949.35 94.26 905.55 93.53 925.15 148.07"/><line class="cls-8" x1="945" y1="55.34" x2="906.53" y2="90.1"/></g><g class="cls-2"><circle class="cls-3" cx="335.72" cy="269.57" r="8.03"/><circle class="cls-3" cx="351" cy="293.85" r="4.7"/><circle class="cls-3" cx="315.52" cy="245.74" r="4.7"/><circle class="cls-3" cx="369.43" cy="276" r="3.99"/><circle class="cls-3" cx="313.13" cy="303.56" r="3.99"/><circle class="cls-3" cx="354.47" cy="241.55" r="3.99"/><circle class="cls-3" cx="297.38" cy="265.36" r="3.99"/><polyline class="cls-9" points="353.93 242.32 335.44 269.68 316.04 246.1"/><line class="cls-9" x1="335.44" y1="269.68" x2="297.72" y2="265.51"/><polyline class="cls-9" points="351 293.85 333.83 270.86 313.42 302.89"/><line class="cls-9" x1="369.43" y1="276" x2="336" y2="270"/></g><g class="cls-2"><circle class="cls-3" cx="736.3" cy="60.94" r="7.35"/><circle class="cls-3" cx="750.29" cy="83.18" r="4.3"/><circle class="cls-3" cx="717.8" cy="39.12" r="4.3"/><circle class="cls-3" cx="767.16" cy="66.83" r="3.65"/><circle class="cls-3" cx="715.61" cy="92.07" r="3.65"/><circle class="cls-3" cx="753.46" cy="35.28" r="3.65"/><circle class="cls-3" cx="701.19" cy="57.09" r="3.65"/><polyline class="cls-10" points="752.98 35.98 736.04 61.05 718.28 39.45"/><line class="cls-10" x1="736.04" y1="61.05" x2="701.5" y2="57.22"/><polyline class="cls-10" points="750.29 83.17 734.56 62.13 715.88 91.45"/><line class="cls-10" x1="767.16" y1="66.83" x2="736.55" y2="61.34"/></g><g class="cls-2"><circle class="cls-3" cx="569.25" cy="346.86" r="8.03"/><circle class="cls-3" cx="584.53" cy="371.14" r="4.7"/><circle class="cls-3" cx="546.99" cy="309.42" r="6.14"/><circle class="cls-3" cx="602.95" cy="353.29" r="3.99"/><circle class="cls-3" cx="546.66" cy="380.85" r="3.99"/><circle class="cls-3" cx="587.99" cy="318.83" r="3.99"/><circle class="cls-3" cx="530.91" cy="342.65" r="3.99"/><polyline class="cls-9" points="587.46 319.61 568.96 346.97 547.67 309.89"/><line class="cls-9" x1="568.96" y1="346.97" x2="531.25" y2="342.8"/><polyline class="cls-9" points="584.53 371.14 567.35 348.15 546.95 380.18"/><line class="cls-9" x1="602.95" y1="353.29" x2="569.53" y2="347.29"/></g></g><g id="六角形"><circle class="cls-3" cx="46.55" cy="61.85" r="16.21"/><circle class="cls-3" cx="257.19" cy="264.79" r="16.21"/><circle class="cls-3" cx="811.96" cy="120.44" r="16.21"/><polygon class="cls-11" points="387.41 107.56 325.89 107.56 295.12 160.84 325.89 214.12 387.41 214.12 418.18 160.84 387.41 107.56"/><polygon class="cls-11" points="667.03 26.86 605.51 26.86 574.74 80.14 605.51 133.43 667.03 133.43 697.8 80.14 667.03 26.86"/><polygon class="cls-11" points="449.79 276.06 398.83 276.06 373.35 320.19 398.83 364.33 449.79 364.33 475.27 320.19 449.79 276.06"/><polygon class="cls-11" points="649.57 225.26 605.98 225.26 584.18 263.01 605.98 300.77 649.57 300.77 671.37 263.01 649.57 225.26"/><polygon class="cls-11" points="218.86 261.2 175.27 261.2 153.47 298.96 175.27 336.71 218.86 336.71 240.66 298.96 218.86 261.2"/><polygon class="cls-11" points="715.53 148.81 683.27 148.81 667.14 176.74 683.27 204.68 715.53 204.68 731.65 176.74 715.53 148.81"/><polygon class="cls-11" points="870.82 184.26 832.82 184.26 813.82 217.17 832.82 250.07 870.82 250.07 889.81 217.17 870.82 184.26"/><polygon class="cls-11" points="126.82 77.83 93.8 77.83 77.29 106.42 93.8 135.01 126.82 135.01 143.32 106.42 126.82 77.83"/><polygon class="cls-11" points="218.02 138.27 180.03 138.27 161.03 171.17 180.03 204.08 218.02 204.08 237.02 171.17 218.02 138.27"/><polygon class="cls-11" points="290.28 42.89 252.28 42.89 233.28 75.79 252.28 108.69 290.28 108.69 309.27 75.79 290.28 42.89"/><line class="cls-11" x1="237.02" y1="171.17" x2="294" y2="164"/><path class="cls-3" d="M183.3,282.08Z"/><path class="cls-3" d="M215.18,282.07a2.15,2.15,0,0,0-1.07-.29,2.06,2.06,0,0,0-1,.25l-3.28,1.78-4.3-2.33a2.12,2.12,0,0,0-2,0l-4.29,2.33-4.3-2.33a2.09,2.09,0,0,0-1-.25,2.12,2.12,0,0,0-1,.25l-4.29,2.33L185.37,282a2.09,2.09,0,0,0-3.09,1.83v27.5h2.15V284l3.22,1.75a2.12,2.12,0,0,0,2,0l4.29-2.33,4.3,2.33a2.11,2.11,0,0,0,2,0l4.3-2.33,4.3,2.33a2.11,2.11,0,0,0,2,0l3.23-1.75v28a3.41,3.41,0,0,1-3.4,3.4h-25.8a5,5,0,0,1-5-5V287.93h-2.15v22.41a7.17,7.17,0,0,0,7.18,7.18h25.8A5.56,5.56,0,0,0,216.2,312v-28.1A2.11,2.11,0,0,0,215.18,282.07Z"/><rect class="cls-3" x="202.98" y="300.22" width="8.76" height="9.45"/><rect class="cls-3" x="186.91" y="300.36" width="12.92" height="1.44"/><rect class="cls-3" x="186.91" y="308.09" width="12.92" height="1.44"/><rect class="cls-3" x="186.91" y="304.22" width="12.92" height="1.44"/><path class="cls-3" d="M188.43,296.88v-4h0l2.27,4a.17.17,0,0,0,.16.1H192l.1-.1v-6.21l-.1-.1H191l-.1.1v4h0l-2.26-4a.18.18,0,0,0-.16-.1h-1.13l-.1.1v6.21l.1.1h1.06Z"/><polygon class="cls-3" points="194.78 291.77 197.54 291.77 197.63 291.68 197.63 290.67 197.54 290.57 193.43 290.57 193.34 290.67 193.34 296.88 193.43 296.98 197.54 296.98 197.63 296.88 197.63 295.88 197.54 295.78 194.78 295.78 194.72 295.73 194.72 294.4 194.78 294.34 197.08 294.34 197.17 294.25 197.17 293.25 197.08 293.15 194.78 293.15 194.72 293.1 194.72 291.83 194.78 291.77"/><path class="cls-3" d="M206,290.57h-1.2a.11.11,0,0,0-.12.1l-.88,4h0l-1.13-4-.11-.1h-.82a.13.13,0,0,0-.13.1l-1.09,4h0l-.92-4a.11.11,0,0,0-.11-.1h-1.22c-.06,0-.08,0-.07.1l1.65,6.21.12.1h.94a.13.13,0,0,0,.12-.1l1.12-4h0l1.11,4a.13.13,0,0,0,.12.1h.95a.12.12,0,0,0,.12-.1l1.65-6.21C206.09,290.61,206.07,290.57,206,290.57Z"/><path class="cls-3" d="M209,295.88a2.74,2.74,0,0,1-1.67-.66h-.15l-.71.81v.16a3.79,3.79,0,0,0,2.47.88c1.65,0,2.51-.86,2.51-2s-.7-1.77-2-1.94l-.33-.05c-.74-.11-1-.34-1-.71s.29-.69.85-.69a2.71,2.71,0,0,1,1.49.48l.13,0,.58-.86c.05-.07,0-.1,0-.14a3.6,3.6,0,0,0-2.18-.67,2,2,0,0,0-2.26,2c0,1.13.72,1.74,2,1.92l.34,0c.76.1,1,.34,1,.71S209.68,295.88,209,295.88Z"/><path class="cls-12" d="M821.22,118.09a1.94,1.94,0,0,0-2-1.94h-4.5c-.26,0-.49,0-.66,0h-.18a.38.38,0,0,1,0-.12.53.53,0,0,1,0-.12l1.11-2.74a2.32,2.32,0,0,0,.15-.81,2.15,2.15,0,0,0-1.34-2,2.22,2.22,0,0,0-.8-.15,2.13,2.13,0,0,0-2,1.34h0l-1.87,4.73h0c-.13.3-.23.58-.33.81a2,2,0,0,1-.47.79.73.73,0,0,1-.31.18,1.45,1.45,0,0,1-.52.08,1.75,1.75,0,0,0-.4,0h-3a1.62,1.62,0,0,0-1.63,1.62v7.39a1.63,1.63,0,0,0,1.63,1.62h2.25a.9.9,0,0,0,.91-.9v-.75a2.88,2.88,0,0,0,.5.24,6.38,6.38,0,0,0,2.27.34h7a2,2,0,0,0,2-1.94,2.09,2.09,0,0,0-.14-.71,1.94,1.94,0,0,0,1.07-2.81,1.55,1.55,0,0,0,.48-.71,2.62,2.62,0,0,0,.14-.88,1.5,1.5,0,0,0-.11-.55,1.9,1.9,0,0,0-.2-.37A2,2,0,0,0,821.22,118.09Zm-1.94,1H819a.48.48,0,0,0-.34.14.49.49,0,0,0-.14.34.48.48,0,0,0,.48.48.48.48,0,0,1,.24.06.78.78,0,0,1,.29.28.75.75,0,0,1,.1.33,1.44,1.44,0,0,1-.14.7.44.44,0,0,1-.14.16.49.49,0,0,1-.23.1.5.5,0,0,0-.37.36.49.49,0,0,0,.16.48,1,1,0,0,1-.62,1.74H818a.48.48,0,0,0-.45.31.49.49,0,0,0,.13.53,1,1,0,0,1,.34.73,1,1,0,0,1-1,1h-7a5.64,5.64,0,0,1-1.76-.22,2.43,2.43,0,0,1-.82-.42,1.8,1.8,0,0,1-.19-.2v-6.81a1,1,0,0,1,.28,0,2.25,2.25,0,0,0,1.07-.23,1.81,1.81,0,0,0,.57-.44,2.88,2.88,0,0,0,.5-.86c.13-.3.24-.61.37-.91h0l1.87-4.73a1.2,1.2,0,0,1,1.11-.75,1.15,1.15,0,0,1,.44.09,1.18,1.18,0,0,1,.75,1.1,1.2,1.2,0,0,1-.09.45L813,115.62l0,.11c0,.11,0,.21,0,.3a1.44,1.44,0,0,0,.09.51.85.85,0,0,0,.21.31,1,1,0,0,0,.44.24,1.58,1.58,0,0,0,.41,0c.27,0,.52,0,.66,0h4.5a1,1,0,1,1,0,2Z"/><circle class="cls-3" cx="668" cy="338.95" r="16.21"/><path class="cls-3" d="M317.18,138.16c0,10,7.4,19.57,16.14,19.57.67,0,1.35-.49.49-1.1a3.85,3.85,0,0,1-2-3.12c0-.74.62-1.65,2.57-1.65h13.09a13.7,13.7,0,0,0,0-27.4H330.88A13.7,13.7,0,0,0,317.18,138.16Zm29.81,0a2.61,2.61,0,1,1,2.6,2.6A2.6,2.6,0,0,1,347,138.16Zm-10.4,0a2.6,2.6,0,1,1,2.6,2.6A2.6,2.6,0,0,1,336.59,138.16Zm-10.4,0a2.6,2.6,0,1,1,2.6,2.6A2.59,2.59,0,0,1,326.19,138.16Z"/><path class="cls-3" d="M271.82,55.47A1.47,1.47,0,1,0,270.36,54,1.47,1.47,0,0,0,271.82,55.47Z"/><path class="cls-3" d="M272.58,60.45a.87.87,0,1,0-.86.87A.87.87,0,0,0,272.58,60.45Z"/><path class="cls-3" d="M272.74,57.36a1,1,0,1,0,1-1A1,1,0,0,0,272.74,57.36Z"/><path class="cls-3" d="M286.43,87.5l-8.27-13.21a7.57,7.57,0,0,1-1.15-4V61.7h-1.47v8.58a9,9,0,0,0,1.38,4.79l8.27,13.21a2.38,2.38,0,0,1-2,3.64h0l-21.87,0a2.39,2.39,0,0,1-2.38-2.38,2.34,2.34,0,0,1,.37-1.27l8.3-13.19a9.05,9.05,0,0,0,1.38-4.8V61.7h-1.46v8.56a7.5,7.5,0,0,1-1.16,4L258,87.47a3.9,3.9,0,0,0-.59,2,3.78,3.78,0,0,0,.48,1.85,3.82,3.82,0,0,0,3.36,2l21.88,0v0h.05a3.85,3.85,0,0,0,3.21-5.88Z"/><path class="cls-3" d="M267.21,79.08l-5.71,9.08a1.24,1.24,0,0,0,0,1.26,1.27,1.27,0,0,0,1.1.67h19.35A1.25,1.25,0,0,0,283,88.18l-5.69-9.09a1.25,1.25,0,0,0-1.06-.58h-8A1.24,1.24,0,0,0,267.21,79.08Zm7.54,6.31a.92.92,0,1,1-.91.91A.92.92,0,0,1,274.75,85.39Zm-4.39-3.93A1.37,1.37,0,1,1,269,82.83,1.37,1.37,0,0,1,270.36,81.46Z"/><path class="cls-3" d="M450.56,343.28a10,10,0,0,0-3.95-5.69,16.45,16.45,0,0,0-2.65-1.54c-1.37-.64-2.77-1.13-4.06-1.61a21.19,21.19,0,0,1-3.4-1.48,8.13,8.13,0,0,1-.89-.62,3.81,3.81,0,0,1-.92-1.07,3.45,3.45,0,0,1-.43-1.37,10.9,10.9,0,0,1-.06-1.11,13.46,13.46,0,0,1,.35-2.84,12.48,12.48,0,0,0,1.61-2.36,25.6,25.6,0,0,0,1.45-3.33,5.87,5.87,0,0,0,.91-.5,6.61,6.61,0,0,0,1.87-1.95,10.16,10.16,0,0,0,1.27-3.22,5.1,5.1,0,0,0,.12-1.08,4.84,4.84,0,0,0-.47-2.08,5.37,5.37,0,0,0-.76-1.21c.15-.57.34-1.34.51-2.24a24.06,24.06,0,0,0,.42-4.32,15.63,15.63,0,0,0-.29-3.1,11,11,0,0,0-.7-2.29,8.42,8.42,0,0,0-2.16-3,8.88,8.88,0,0,0-3.4-1.84,11.93,11.93,0,0,0-1.79-1.77,9.52,9.52,0,0,0-3.24-1.72,11.73,11.73,0,0,0-3.36-.45c-.59,0-1.19,0-1.78.08s-1,.11-1.43.18a10.33,10.33,0,0,0-1.62.41c-.5.17-1,.37-1.6.62-.23.09-.54.23-.92.42a15.93,15.93,0,0,0-2.4,1.49,15.55,15.55,0,0,0-4,4.36,13.61,13.61,0,0,0-1.43,3.28,14.51,14.51,0,0,0-.55,4,17.67,17.67,0,0,0,.25,2.9,1.27,1.27,0,0,0,0,.2c0,.13,0,.26,0,.4s.05.41.06.59a2,2,0,0,1,0,.22.25.25,0,0,1,0,.08v0h0v.11l.25,1.11a5.85,5.85,0,0,0-.91,1.3,5,5,0,0,0-.53,2.22,5.1,5.1,0,0,0,.12,1.08h0a11.69,11.69,0,0,0,.77,2.3,7.16,7.16,0,0,0,1.7,2.35,6.67,6.67,0,0,0,1.58,1,25.18,25.18,0,0,0,1.46,3.31,12.15,12.15,0,0,0,1.6,2.36,13,13,0,0,1,.35,2.85,10.9,10.9,0,0,1-.06,1.11,3.59,3.59,0,0,1-.24,1,3.47,3.47,0,0,1-.79,1.16,6,6,0,0,1-1.34,1,16.05,16.05,0,0,1-1.85.87c-1.19.48-2.55.94-3.94,1.49a22.17,22.17,0,0,0-3.08,1.47,12.78,12.78,0,0,0-2.13,1.56,9.87,9.87,0,0,0-2.44,3.45,12.69,12.69,0,0,0-.93,5,2.05,2.05,0,0,0,.16.78,3.06,3.06,0,0,0,.35.64,5.17,5.17,0,0,0,1.06,1,12.59,12.59,0,0,0,3.07,1.58,38.32,38.32,0,0,0,7.95,1.87,89.92,89.92,0,0,0,12.53.78A94.86,94.86,0,0,0,437,353a52.28,52.28,0,0,0,6-1.06,28.8,28.8,0,0,0,3.34-1,15.85,15.85,0,0,0,1.87-.85,8.49,8.49,0,0,0,1.09-.66,5.09,5.09,0,0,0,1.15-1.11,2.9,2.9,0,0,0,.35-.65,2,2,0,0,0,.14-.74A13.81,13.81,0,0,0,450.56,343.28Zm-15.77-8.94-6.27,9.79-.69-4.8,1.77-1.89-1.15-1.92,4.86-2.55c.14.17.28.34.43.49A7.31,7.31,0,0,0,434.79,334.34Zm-17.33-11.75a25,25,0,0,1-1.48-3.46l-.17-.47-.46-.17a4.51,4.51,0,0,1-.93-.47,4.29,4.29,0,0,1-1.27-1.33,8.12,8.12,0,0,1-1-2.56h0a3.46,3.46,0,0,1-.07-.62,2.88,2.88,0,0,1,.31-1.28,3.9,3.9,0,0,1,.69-1,13.37,13.37,0,0,0,1,1.45c.47.47.53-.64.31-1.88-.41-2.29.7-1.26,3.53-6.75,5.65,1.25,15.52-4.75,15.52-4.75a10.4,10.4,0,0,0,2,5.25c1.78,2.38,2.8,8,2.8,8s.24-.47.61-1.08a3.9,3.9,0,0,1,.53.81,2.92,2.92,0,0,1,.27,1.2,2.74,2.74,0,0,1-.07.62A9.29,9.29,0,0,1,439,316a5.23,5.23,0,0,1-1.2,1.68,4.1,4.1,0,0,1-1.38.81l-.46.17-.16.47a25.64,25.64,0,0,1-1.49,3.47,10.19,10.19,0,0,1-1.48,2.13l-.2.21-.06.29a16,16,0,0,0-.46,3.56,12.18,12.18,0,0,0,.07,1.32,5.71,5.71,0,0,0,.37,1.53l0,.06L426.21,335l-7-3.26a5.61,5.61,0,0,0,.42-1.67h0a12.18,12.18,0,0,0,.07-1.32,16.16,16.16,0,0,0-.45-3.57l-.06-.28-.2-.21A9.68,9.68,0,0,1,417.46,322.59ZM417.4,334a6.3,6.3,0,0,0,1-1l5.37,2.49-1.15,1.91,1.78,1.89-.66,4.52-6.85-9.45C417.07,334.28,417.24,334.16,417.4,334Zm31.45,13a2.1,2.1,0,0,1-.51.54,5.84,5.84,0,0,1-1,.63,16.26,16.26,0,0,1-2.92,1.19,42.1,42.1,0,0,1-7.36,1.5,102,102,0,0,1-22.09,0,47.25,47.25,0,0,1-5.79-1,26.65,26.65,0,0,1-3.09-.93,15.44,15.44,0,0,1-1.63-.73,8.16,8.16,0,0,1-.85-.52,2.77,2.77,0,0,1-.67-.63.53.53,0,0,1-.1-.16v0a12,12,0,0,1,.36-3.05,8.13,8.13,0,0,1,.82-2,8,8,0,0,1,2.28-2.5,13.8,13.8,0,0,1,2.28-1.34c1.22-.58,2.55-1.05,3.85-1.53a31.34,31.34,0,0,0,3.17-1.31l10.83,14.92,9.59-15c.48.25,1,.48,1.49.69,1.29.53,2.66,1,4,1.51a20.57,20.57,0,0,1,2.84,1.33,10.42,10.42,0,0,1,1.81,1.3,7.65,7.65,0,0,1,2,2.73,10.59,10.59,0,0,1,.78,4.24S448.89,346.94,448.85,347Z"/><rect class="cls-3" x="433.73" y="345.71" width="8.37" height="1.47"/><path class="cls-3" d="M627.67,251.52a6.85,6.85,0,1,0-6.85-6.85A6.85,6.85,0,0,0,627.67,251.52Z"/><rect class="cls-3" x="602.29" y="279.2" width="50.77" height="4.9"/><path class="cls-3" d="M618,268.57l1.1,9h7.83v-4a5.35,5.35,0,0,1-4.58-5.29V267a.76.76,0,0,1,1.52,0v1.19a3.82,3.82,0,0,0,7.64,0V267a.76.76,0,0,1,1.52,0v1.19a5.35,5.35,0,0,1-4.58,5.29v4h7.83l1.1-9,.69,9h5.89l-.57-12.7c-.47-9.67-10.84-10.71-15.7-10.71s-15.23,1-15.7,10.71l-.57,12.7h5.89Zm7-5.3a2.67,2.67,0,0,1,5.34,0v5a2.67,2.67,0,1,1-5.34,0v-5Z"/><path class="cls-3" d="M378.1,142.16c-12.15-.75-22.38,6.9-22.15,19.35v1.13L350.66,172a1.82,1.82,0,0,0-.07,1.64,1.8,1.8,0,0,0,1.29,1l3.26.9,1,9.89a3.4,3.4,0,0,0,3.78,3.29l2.61.21a1.78,1.78,0,0,1,1.39.45,1.75,1.75,0,0,1,.6,1.34v7.73H386.6v-5.23c0-1.51.52-4.94,1.5-6.52,3.57-5.71,9.39-8.75,10.37-20.47S392.46,143,378.1,142.16Z"/><path class="cls-12" d="M251.76,268.65a1.43,1.43,0,0,1-.59.66,1.41,1.41,0,0,1-.31.14l-.36-1.33H248l.88,4.48a.6.6,0,0,0,.58.47h1.66a.59.59,0,0,0,.46-.23.58.58,0,0,0,.1-.51L251,270l.14,0a2,2,0,0,0,.93-.7,2.4,2.4,0,0,0,.42-1l-.61-.1A2.07,2.07,0,0,1,251.76,268.65Z"/><path class="cls-12" d="M259,257.45c-.47,0-1.22.79-1.54,1.12s-2.51,2.49-8.14,2.49v6.58c5.63,0,7.86,2.21,8.14,2.5s1.07,1.12,1.54,1.12a.84.84,0,0,0,.84-.85V258.29A.84.84,0,0,0,259,257.45Z"/><path class="cls-12" d="M248.56,261.06a3.29,3.29,0,1,0,0,6.58Z"/><path class="cls-12" d="M260.53,263.12v2.47a1.24,1.24,0,0,0,0-2.47Z"/><rect class="cls-12" x="264.56" y="263.94" width="3.33" height="0.65"/><polygon class="cls-12" points="267.1 259.59 266.75 259.04 263.73 260.97 264.07 261.52 267.1 259.59"/><polygon class="cls-12" points="263.73 267.82 266.75 269.75 267.1 269.21 264.07 267.28 263.73 267.82"/><path class="cls-3" d="M659.15,41.39a2.39,2.39,0,0,0-1.43-.57h-3.24a2,2,0,0,0-1.37.63L650.9,44a.69.69,0,0,1-1.07,0l-2.21-2.59a2,2,0,0,0-1.37-.63H643a2.39,2.39,0,0,0-1.43.57L639,43.83a2.22,2.22,0,0,0-.59,1.38v4.93a1.74,1.74,0,0,0,.68,1.27l10.56,7.26a1.3,1.3,0,0,0,1.37,0l10.56-7.26a1.74,1.74,0,0,0,.68-1.27V45.21a2.17,2.17,0,0,0-.6-1.38Z"/><path class="cls-3" d="M623.08,56.92A6,6,0,1,0,617,50.87,6.05,6.05,0,0,0,623.08,56.92Z"/><path class="cls-3" d="M634.87,65.55c-1.22-4.14-4-6.88-7.06-6.88h-9.46c-3.09,0-5.84,2.74-7.07,6.88l-4.46,15.81a2.49,2.49,0,0,0,1.82,3,2.44,2.44,0,0,0,3-1.78l4.44-15.75h1.32l-7.73,27.4h7.28v20.34a2.82,2.82,0,0,0,5.63,0V94.24h1.55v20.34a2.82,2.82,0,0,0,5.63,0V94.24h6.74l-7.72-27.4h1.31l4.44,15.75a2.45,2.45,0,0,0,3,1.78,2.49,2.49,0,0,0,1.82-3Z"/><path class="cls-3" d="M657,78.29a5.3,5.3,0,1,0-5.3-5.3A5.3,5.3,0,0,0,657,78.29Z"/><path class="cls-3" d="M663.06,81.55H650.15a5.53,5.53,0,0,0-5,5V98a2.16,2.16,0,1,0,4.32,0V89.46h1v24.92a2.84,2.84,0,0,0,5.67,0V99.92h.91v14.46a2.84,2.84,0,0,0,5.67,0V89.46h1V98A2.16,2.16,0,1,0,668,98V86.52A5.52,5.52,0,0,0,663.06,81.55Z"/><path class="cls-3" d="M848.71,226.78a.82.82,0,0,1-1.13,0l-5.85-5.86a.69.69,0,0,1-.17-.26.77.77,0,0,1,0-.45.79.79,0,0,1,.22-.41l12.1-12.1L852,205.89,839.92,218a3.45,3.45,0,0,0-.73,1.11,3.34,3.34,0,0,0,.73,3.63l5.86,5.86a3.3,3.3,0,0,0,1.1.73,3.35,3.35,0,0,0,1.9.19,3.4,3.4,0,0,0,1.73-.92l12.11-12.11-1.81-1.8Z"/><path class="cls-3" d="M839.12,227.23a.94.94,0,0,0-.17,1.29l1,1a.93.93,0,0,0,1.29-.18l2-2-2.16-2.15Z"/><polygon class="cls-3" points="832.32 235.02 834.26 235.41 839.25 230.42 838.09 229.25 832.32 235.02"/><path class="cls-3" d="M856.13,201.09a2.28,2.28,0,1,0-3.23,3.23l11.29,11.28a2.28,2.28,0,1,0,3.23-3.23Z"/><path class="cls-3" d="M870.79,203.69l-6-6a2.28,2.28,0,1,0-3.23,3.23l.62.62-1.81,1.81,1.81,1.81,1.81-1.81,1.12,1.12-1.81,1.81,1.81,1.81,1.8-1.81.62.62a2.28,2.28,0,1,0,3.23-3.23Z"/><rect class="cls-3" x="854.74" y="214.28" width="1.1" height="3.06" transform="translate(97.91 667.99) rotate(-45)"/><polygon class="cls-3" points="852.8 220.46 853.57 219.68 851.41 217.52 850.64 218.3 852.8 220.46"/><rect class="cls-3" x="848.5" y="220.51" width="1.1" height="3.06" transform="translate(91.67 665.4) rotate(-45)"/><path class="cls-3" d="M217,185.17a5.24,5.24,0,0,0-1.92-2.34,5.35,5.35,0,0,0-1.49-.7v-.82a6,6,0,0,0-8.27-5.48,6,6,0,0,0-2.62,2.16,5.91,5.91,0,0,0-1,3.32v4.09a3,3,0,0,1-.24,1.16,3,3,0,0,1-5.73-1.16v-8.91a13,13,0,0,0,3.38-.87,15.52,15.52,0,0,0,5.74-4.07,16.66,16.66,0,0,0,2-2.73,14.88,14.88,0,0,0,1.33-2.95,13.18,13.18,0,0,0,.68-4.1,9.72,9.72,0,0,0-.26-2.26A6.46,6.46,0,0,0,208,158a5,5,0,0,0-.63-1,4.42,4.42,0,0,0-1.4-1.13,4.16,4.16,0,0,0-1.82-.42v3a1,1,0,0,1,.32,0,.85.85,0,0,1,.22.09,1.45,1.45,0,0,1,.39.34,3.28,3.28,0,0,1,.53,1.11,6.64,6.64,0,0,1,.22,1.77,10.58,10.58,0,0,1-.53,3.19,12.2,12.2,0,0,1-1.56,3.13,13.55,13.55,0,0,1-4.09,3.92,11.56,11.56,0,0,1-2.61,1.18,9.93,9.93,0,0,1-6.62-.32,11.55,11.55,0,0,1-2.5-1.39,13.52,13.52,0,0,1-3-3,12.45,12.45,0,0,1-1.83-3.51,10.58,10.58,0,0,1-.53-3.19,6.74,6.74,0,0,1,.17-1.57,4,4,0,0,1,.31-.87,2.94,2.94,0,0,1,.28-.45,1.3,1.3,0,0,1,.43-.35,1,1,0,0,1,.49-.11v-3a4.13,4.13,0,0,0-1.11.15,4.08,4.08,0,0,0-.89.37A4.37,4.37,0,0,0,181,157a6,6,0,0,0-1.07,2.17,9.33,9.33,0,0,0-.33,2.57,13.16,13.16,0,0,0,.67,4.1,14.86,14.86,0,0,0,1.93,3.89,16.6,16.6,0,0,0,5,4.79,14.46,14.46,0,0,0,3.3,1.48,13.56,13.56,0,0,0,2.23.46v8.91a6,6,0,0,0,.46,2.31,6,6,0,0,0,2.16,2.62,5.87,5.87,0,0,0,3.33,1,6,6,0,0,0,2.31-.46,6,6,0,0,0,2.62-2.16,5.92,5.92,0,0,0,1-3.32v-4.09a3,3,0,0,1,.23-1.16,2.94,2.94,0,0,1,1.08-1.31,3,3,0,0,1,1.67-.51,2.93,2.93,0,0,1,2.47,1.32,2.94,2.94,0,0,1,.51,1.66v.82a5.89,5.89,0,0,0-.59.21,5.32,5.32,0,0,0,2.07,10.22,5.31,5.31,0,0,0,4.41-2.35,5.22,5.22,0,0,0,.91-3A5.32,5.32,0,0,0,217,185.17Zm-2.29,3.17a2.93,2.93,0,0,1-1,1.25,2.83,2.83,0,0,1-1.58.48,2.71,2.71,0,0,1-1.1-.23,2.81,2.81,0,0,1-1.24-1,2.76,2.76,0,0,1-.48-1.58,2.7,2.7,0,0,1,.22-1.1,2.83,2.83,0,0,1,3.7-1.51,2.93,2.93,0,0,1,1.25,1,2.83,2.83,0,0,1,.48,1.58A2.88,2.88,0,0,1,214.68,188.34Z"/><path class="cls-3" d="M188.59,159.68a2,2,0,0,0,.74-1.53v-2.32a2,2,0,0,0-2.4-1.91l-1.55.37v5.39l1.55.37A2,2,0,0,0,188.59,159.68Z"/><path class="cls-3" d="M199.83,159.68a2,2,0,0,0,1.67.37l1.54-.37v-5.39l-1.54-.37a2,2,0,0,0-2.41,1.91v2.32A2,2,0,0,0,199.83,159.68Z"/><path class="cls-3" d="M699.94,161.13l-15.25,8.53v23H697v-9h5.9v9h12.3v-23Zm-7.66,25.47h-2.46v-2.94h2.46Zm0-6.52h-2.46v-2.93h2.46Zm8.89,0h-2.46v-2.93h2.46Zm2.62-8.69h-2.48v2.48h-2.75v-2.48h-2.48v-2.75h2.48v-2.48h2.75v2.48h2.48Zm3.8,5.76h2.31v2.93h-2.31Zm2.47,9.45h-2.47v-2.94h2.47Z"/><path class="cls-3" d="M96.06,88.07v34.75h28V88.07Zm25.78,32.51H111.75v-6.73h-3.36v6.73H98.3V90.31h23.54Z"/><rect class="cls-3" x="101.66" y="93.68" width="3.36" height="3.36"/><rect class="cls-3" x="108.39" y="93.68" width="3.36" height="3.36"/><rect class="cls-3" x="115.11" y="93.68" width="3.36" height="3.36"/><rect class="cls-3" x="101.66" y="100.4" width="3.36" height="3.36"/><rect class="cls-3" x="108.39" y="100.4" width="3.36" height="3.36"/><rect class="cls-3" x="115.11" y="100.4" width="3.36" height="3.36"/><rect class="cls-3" x="101.66" y="107.13" width="3.36" height="3.36"/><rect class="cls-3" x="108.39" y="107.13" width="3.36" height="3.36"/><rect class="cls-3" x="115.11" y="107.13" width="3.36" height="3.36"/><rect class="cls-3" x="101.66" y="113.85" width="3.36" height="3.36"/><rect class="cls-3" x="115.11" y="113.85" width="3.36" height="3.36"/><line class="cls-11" x1="386" y1="215" x2="399" y2="274"/><line class="cls-11" x1="252.36" y1="108.43" x2="218.02" y2="138.27"/><line class="cls-11" x1="418" y1="161" x2="605.1" y2="224.51"/><line class="cls-11" x1="812.78" y1="218.05" x2="732.09" y2="175.48"/><line class="cls-11" x1="240.66" y1="298.96" x2="372" y2="320"/><line class="cls-13" x1="649.91" y1="225.01" x2="682.32" y2="204.86"/><line class="cls-11" x1="143.32" y1="106.42" x2="180.03" y2="138.27"/><path class="cls-12" d="M35.41,60.92c0,4.94,3.64,9.64,7.94,9.64.33,0,.66-.24.24-.54a1.9,1.9,0,0,1-1-1.54c0-.37.3-.81,1.26-.81h6.44a6.75,6.75,0,1,0,0-13.49H42.15A6.74,6.74,0,0,0,35.41,60.92Zm14.67,0a1.28,1.28,0,1,1,1.28,1.28A1.28,1.28,0,0,1,50.08,60.92Zm-5.12,0a1.28,1.28,0,1,1,1.28,1.28A1.28,1.28,0,0,1,45,60.92Zm-5.12,0a1.28,1.28,0,1,1,1.28,1.28A1.28,1.28,0,0,1,39.84,60.92Z"/><path class="cls-12" d="M674.37,339a4.47,4.47,0,0,1-1.16,3.06,3,3,0,0,1-3.81.77,22.19,22.19,0,0,0-4.11-1.78c-.63-.11-2.83-.15-2.83-.15h-7.11v-.73h7.47a10.54,10.54,0,0,1,4.91.73c2.28,1,3,1.49,3.87,1.26s1.83-2,1.83-3.16-.84-2.92-1.83-3.17-1.59.23-3.87,1.26a10.54,10.54,0,0,1-4.91.73h-7.47v-.73h7.11s2.2,0,2.83-.14a22.88,22.88,0,0,0,4.11-1.78,3,3,0,0,1,3.81.76A4.52,4.52,0,0,1,674.37,339Z"/><path class="cls-12" d="M661,339a4.47,4.47,0,0,0,1.16,3.06,3,3,0,0,0,3.82.77,22.07,22.07,0,0,1,4.1-1.78c.64-.11,2.84-.15,2.84-.15h7.11v-.73h-7.48a10.54,10.54,0,0,0-4.91.73c-2.28,1-2.95,1.49-3.86,1.26s-1.83-2-1.83-3.16.83-2.92,1.83-3.17,1.58.23,3.86,1.26a10.54,10.54,0,0,0,4.91.73h7.48v-.73h-7.11s-2.2,0-2.84-.14a22.76,22.76,0,0,1-4.1-1.78,3,3,0,0,0-3.82.76A4.52,4.52,0,0,0,661,339Z"/><line class="cls-11" x1="667.03" y1="133.43" x2="683.27" y2="148.8"/></g></svg>