<svg xmlns="http://www.w3.org/2000/svg" xmlns:xlink="http://www.w3.org/1999/xlink" viewBox="0 0 600 250"><defs><style>.cls-1{fill:url(#名称未設定グラデーション_27);}.cls-2{opacity:0.6;}.cls-3{fill:#fff;}.cls-11,.cls-12,.cls-4,.cls-5,.cls-6,.cls-7,.cls-8,.cls-9{fill:none;stroke:#fff;stroke-miterlimit:10;}.cls-4{stroke-width:0.29px;}.cls-5{stroke-width:0.46px;}.cls-6{stroke-width:0.26px;}.cls-7{stroke-width:0.61px;}.cls-8{stroke-width:0.42px;}.cls-9{stroke-width:0.93px;}.cls-10{fill:#f6c15f;}.cls-11{stroke-width:0.92px;}.cls-12{stroke-width:0.75px;}</style><linearGradient id="名称未設定グラデーション_27" x1="299.82" y1="2.43" x2="299.82" y2="242.98" gradientUnits="userSpaceOnUse"><stop offset="0" stop-color="#f6c15f"/><stop offset="0.13" stop-color="#f6c363"/><stop offset="0.27" stop-color="#f7c86f"/><stop offset="0.4" stop-color="#f7d184"/><stop offset="0.5" stop-color="#f8db99"/><stop offset="0.56" stop-color="#f8d68e"/><stop offset="0.73" stop-color="#f7cb74"/><stop offset="0.88" stop-color="#f6c364"/><stop offset="1" stop-color="#f6c15f"/></linearGradient></defs><title>アートボード 2</title><g id="レイヤー_6のコピー_2" data-name="レイヤー 6のコピー 2"><rect class="cls-1" x="0.45" y="-0.25" width="598.73" height="250.25"/></g><g id="放射状"><g class="cls-2"><circle class="cls-3" cx="518.05" cy="64.81" r="4.24"/><circle class="cls-3" cx="505.37" cy="56.51" r="2.48"/><circle class="cls-3" cx="533" cy="71.81" r="2.48"/><circle class="cls-3" cx="500.45" cy="69.14" r="2.11"/><circle class="cls-3" cx="521.43" cy="43.51" r="2.11"/><circle class="cls-3" cx="515.22" cy="82.4" r="2.11"/><circle class="cls-3" cx="537.4" cy="58.4" r="2.11"/><polyline class="cls-4" points="515.3 81.91 518.17 64.69 532.67 71.76"/><line class="cls-4" x1="518.17" y1="64.69" x2="537.2" y2="58.4"/><polyline class="cls-4" points="505.37 56.51 518.68 63.77 521.43 43.9"/><line class="cls-4" x1="500.45" y1="69.14" x2="517.83" y2="64.67"/></g><g class="cls-2"><circle class="cls-3" cx="327.02" cy="40.62" r="6.76"/><circle class="cls-3" cx="360.51" cy="66.71" r="3.96"/><circle class="cls-3" cx="303.44" cy="28.92" r="3.96"/><circle class="cls-3" cx="355.24" cy="34.35" r="3.36"/><circle class="cls-3" cx="320.88" cy="74.45" r="3.36"/><circle class="cls-3" cx="332.18" cy="12.68" r="3.36"/><circle class="cls-3" cx="295.95" cy="50.14" r="3.36"/><polyline class="cls-5" points="332.02 13.45 326.84 40.8 303.96 29.02"/><line class="cls-5" x1="326.84" y1="40.8" x2="296.26" y2="50.14"/><polyline class="cls-5" points="360.51 66.71 325.99 42.25 320.88 73.83"/><line class="cls-5" x1="355.24" y1="34.35" x2="327.38" y2="40.85"/></g><g class="cls-2"><circle class="cls-3" cx="220.12" cy="140.34" r="3.8"/><circle class="cls-3" cx="231.32" cy="148.03" r="2.23"/><circle class="cls-3" cx="206.87" cy="133.77" r="2.23"/><circle class="cls-3" cx="235.99" cy="136.82" r="1.89"/><circle class="cls-3" cx="216.67" cy="159.35" r="1.89"/><circle class="cls-3" cx="228.24" cy="123.25" r="1.89"/><circle class="cls-3" cx="187.27" cy="149.44" r="1.89"/><polyline class="cls-6" points="228.16 123.69 220.02 140.44 207.17 133.82"/><line class="cls-6" x1="220.02" y1="140.44" x2="187.44" y2="149.44"/><polyline class="cls-6" points="231.32 148.03 219.54 141.26 216.67 159"/><line class="cls-6" x1="235.99" y1="136.82" x2="220.33" y2="140.47"/></g><g class="cls-2"><circle class="cls-3" cx="50.6" cy="127.87" r="8.91"/><circle class="cls-3" cx="81.52" cy="135.45" r="5.21"/><circle class="cls-3" cx="16.11" cy="124.46" r="5.21"/><circle class="cls-3" cx="82.45" cy="107" r="4.42"/><circle class="cls-3" cx="58.81" cy="172.4" r="4.42"/><circle class="cls-3" cx="43.94" cy="91.06" r="4.42"/><circle class="cls-3" cx="16.78" cy="154.09" r="4.42"/><polyline class="cls-7" points="44.11 92.09 50.47 128.18 16.8 124.34"/><line class="cls-7" x1="50.47" y1="128.18" x2="17.17" y2="153.94"/><polyline class="cls-7" points="81.52 135.45 50.09 130.37 58.52 171.64"/><line class="cls-7" x1="82.45" y1="107" x2="51.16" y2="128"/></g><g class="cls-2"><circle class="cls-3" cx="438.34" cy="141.84" r="6.96"/><circle class="cls-3" cx="426.43" cy="217.34" r="5.21"/><circle class="cls-3" cx="441.76" cy="107.34" r="5.21"/><circle class="cls-3" cx="459.21" cy="173.68" r="4.42"/><circle class="cls-3" cx="393.81" cy="150.04" r="4.42"/><circle class="cls-3" cx="499.31" cy="138.5" r="4.42"/><circle class="cls-3" cx="412.13" cy="108.02" r="4.42"/><polyline class="cls-7" points="498.28 138.68 438.03 141.7 441.88 108.04"/><line class="cls-7" x1="438.03" y1="141.7" x2="412.27" y2="108.4"/><polyline class="cls-7" points="426.43 217.34 435.85 141.32 394.57 149.75"/><line class="cls-7" x1="459.21" y1="173.68" x2="438.22" y2="142.39"/></g><g class="cls-2"><circle class="cls-3" cx="317.32" cy="200.41" r="6.1"/><circle class="cls-3" cx="328.93" cy="218.85" r="3.57"/><circle class="cls-3" cx="301.98" cy="182.31" r="3.57"/><circle class="cls-3" cx="342.92" cy="205.29" r="3.03"/><circle class="cls-3" cx="300.17" cy="226.22" r="3.03"/><circle class="cls-3" cx="331.56" cy="179.12" r="3.03"/><circle class="cls-3" cx="288.21" cy="197.21" r="3.03"/><polyline class="cls-8" points="331.15 179.71 317.1 200.49 302.37 182.58"/><line class="cls-8" x1="317.1" y1="200.49" x2="288.46" y2="197.32"/><polyline class="cls-8" points="328.93 218.85 315.88 201.39 300.39 225.71"/><line class="cls-8" x1="342.92" y1="205.29" x2="317.53" y2="200.73"/></g><g class="cls-2"><circle class="cls-3" cx="129.93" cy="57.02" r="6.1"/><circle class="cls-3" cx="141.54" cy="75.46" r="3.57"/><circle class="cls-3" cx="113.03" cy="28.59" r="4.66"/><circle class="cls-3" cx="155.53" cy="61.9" r="3.03"/><circle class="cls-3" cx="112.78" cy="82.83" r="3.03"/><circle class="cls-3" cx="144.17" cy="35.73" r="3.03"/><circle class="cls-3" cx="100.82" cy="53.82" r="3.03"/><polyline class="cls-8" points="143.76 36.32 129.72 57.1 113.55 28.94"/><line class="cls-8" x1="129.71" y1="57.1" x2="101.07" y2="53.93"/><polyline class="cls-8" points="141.54 75.46 128.49 58 113 82.32"/><line class="cls-8" x1="155.53" y1="61.9" x2="130.14" y2="57.34"/></g></g><g id="六角形"><polygon class="cls-9" points="334.57 87.54 287.84 87.54 264.48 128.01 287.84 168.47 334.57 168.47 357.93 128.01 334.57 87.54"/><polygon class="cls-9" points="461.77 10.7 415.05 10.7 391.68 51.16 415.05 91.63 461.77 91.63 485.13 51.16 461.77 10.7"/><polygon class="cls-9" points="237.91 175.89 199.21 175.89 179.86 209.41 199.21 242.93 237.91 242.93 257.26 209.41 237.91 175.89"/><polygon class="cls-9" points="395.92 162.6 362.82 162.6 346.26 191.27 362.82 219.94 395.92 219.94 412.48 191.27 395.92 162.6"/><polygon class="cls-9" points="116.79 166.38 83.68 166.38 67.13 195.05 83.68 223.72 116.79 223.72 133.34 195.05 116.79 166.38"/><polygon class="cls-9" points="507.5 165.23 483 165.23 470.75 186.45 483 207.66 507.5 207.66 519.74 186.45 507.5 165.23"/><polygon class="cls-9" points="558.49 88.86 529.64 88.86 515.21 113.85 529.64 138.84 558.49 138.84 572.92 113.85 558.49 88.86"/><polygon class="cls-9" points="78.88 46.96 53.81 46.96 41.27 68.68 53.81 90.39 78.88 90.39 91.42 68.68 78.88 46.96"/><polygon class="cls-9" points="158.68 103.02 129.82 103.02 115.4 128.01 129.82 153 158.68 153 173.1 128.01 158.68 103.02"/><polygon class="cls-9" points="204.17 21.92 175.32 21.92 160.89 46.9 175.32 71.89 204.17 71.89 218.6 46.9 204.17 21.92"/><line class="cls-9" x1="173.1" y1="128.01" x2="264.38" y2="128.01"/><path class="cls-3" d="M89.78,182.23Z"/><path class="cls-3" d="M114,182.23a1.58,1.58,0,0,0-.82-.22,1.55,1.55,0,0,0-.75.19l-2.5,1.35-3.26-1.77a1.62,1.62,0,0,0-1.52,0l-3.26,1.77-3.26-1.77a1.61,1.61,0,0,0-1.52,0l-3.26,1.77-2.49-1.35a1.53,1.53,0,0,0-.76-.19A1.57,1.57,0,0,0,89,183.6v20.88h1.63V183.67L93.08,185a1.62,1.62,0,0,0,1.52,0l3.26-1.77,3.26,1.77a1.61,1.61,0,0,0,1.52,0l3.26-1.77,3.27,1.77a1.52,1.52,0,0,0,.75.19,1.56,1.56,0,0,0,.76-.19l2.45-1.33v21.26a2.58,2.58,0,0,1-2.58,2.58H91a3.81,3.81,0,0,1-3.82-3.81v-17H85.5v17A5.46,5.46,0,0,0,91,209.15h19.59a4.21,4.21,0,0,0,4.21-4.22V183.6A1.6,1.6,0,0,0,114,182.23Z"/><rect class="cls-3" x="104.73" y="196.01" width="6.65" height="7.17"/><rect class="cls-3" x="92.52" y="196.12" width="9.81" height="1.09"/><rect class="cls-3" x="92.52" y="201.98" width="9.81" height="1.09"/><rect class="cls-3" x="92.52" y="199.05" width="9.81" height="1.09"/><path class="cls-3" d="M93.67,193.48v-3.06h0l1.72,3.06a.13.13,0,0,0,.12.07h.85l.08-.07v-4.72l-.08-.07h-.8l-.08.07v3.06h0l-1.72-3.06a.13.13,0,0,0-.12-.07h-.86l-.07.07v4.72l.07.07h.81Z"/><polygon class="cls-3" points="98.5 189.59 100.59 189.59 100.66 189.52 100.66 188.76 100.59 188.69 97.47 188.69 97.4 188.76 97.4 193.48 97.47 193.55 100.59 193.55 100.66 193.48 100.66 192.71 100.59 192.64 98.5 192.64 98.45 192.6 98.45 191.59 98.5 191.55 100.24 191.55 100.31 191.47 100.31 190.72 100.24 190.65 98.5 190.65 98.45 190.6 98.45 189.64 98.5 189.59"/><path class="cls-3" d="M107,188.69h-.92s-.07,0-.08.07l-.67,3.05h0l-.86-3.05-.08-.07h-.62a.1.1,0,0,0-.1.07l-.83,3.05h0l-.7-3.05a.08.08,0,0,0-.09-.07h-.92c-.05,0-.06,0-.06.07l1.26,4.72.09.07h.71a.11.11,0,0,0,.1-.07l.85-3h0l.84,3a.11.11,0,0,0,.1.07h.71a.1.1,0,0,0,.1-.07l1.25-4.72S107.07,188.69,107,188.69Z"/><path class="cls-3" d="M109.31,192.71a2.08,2.08,0,0,1-1.28-.5h-.1l-.55.62V193a2.85,2.85,0,0,0,1.87.67c1.26,0,1.91-.65,1.91-1.53s-.53-1.34-1.53-1.48l-.25,0c-.56-.08-.76-.26-.76-.54s.22-.53.65-.53a2,2,0,0,1,1.13.37l.1,0,.43-.65c0-.05,0-.08,0-.11a2.79,2.79,0,0,0-1.65-.5c-1,0-1.73.59-1.73,1.48s.56,1.33,1.54,1.46l.26,0c.58.08.75.26.75.54S109.81,192.71,109.31,192.71Z"/><circle class="cls-3" cx="387.84" cy="115.38" r="12.31"/><path class="cls-10" d="M394.72,113.08a1.47,1.47,0,0,0-1.47-1.47h-3.43c-.19,0-.37,0-.49,0h-.14a.22.22,0,0,1,0-.09.31.31,0,0,1,0-.09l.84-2.08a1.61,1.61,0,0,0-1.51-2.24,1.61,1.61,0,0,0-1.51,1h0l-1.42,3.59h0c-.1.23-.18.44-.25.62a1.39,1.39,0,0,1-.36.59.53.53,0,0,1-.23.14,1.35,1.35,0,0,1-.4.06,1.39,1.39,0,0,0-.3,0h-2.31a1.24,1.24,0,0,0-1.24,1.23V120a1.25,1.25,0,0,0,1.24,1.24h1.71a.69.69,0,0,0,.69-.69V120l.38.19a4.9,4.9,0,0,0,1.73.25h5.31A1.47,1.47,0,0,0,393,119a1.37,1.37,0,0,0-.11-.54,1.48,1.48,0,0,0,1-1.4,1.38,1.38,0,0,0-.2-.73,1.22,1.22,0,0,0,.37-.54,1.91,1.91,0,0,0,.1-.67,1.16,1.16,0,0,0-.08-.42,1.51,1.51,0,0,0-.15-.28A1.49,1.49,0,0,0,394.72,113.08Zm-1.47.75H393a.36.36,0,0,0-.26.11.4.4,0,0,0-.1.26.39.39,0,0,0,.1.25.36.36,0,0,0,.26.11.34.34,0,0,1,.18,0,.58.58,0,0,1,.22.22.59.59,0,0,1,.08.25,1,1,0,0,1-.11.53.4.4,0,0,1-.1.12.43.43,0,0,1-.18.08.35.35,0,0,0-.28.27.36.36,0,0,0,.12.36.77.77,0,0,1,.28.58.75.75,0,0,1-.75.74h-.18a.37.37,0,0,0-.24.64.74.74,0,0,1-.49,1.3h-5.31a4.22,4.22,0,0,1-1.35-.16,1.69,1.69,0,0,1-.61-.33.67.67,0,0,1-.15-.14v-5.18a.62.62,0,0,1,.21,0,1.77,1.77,0,0,0,.82-.17,1.44,1.44,0,0,0,.43-.34,2.51,2.51,0,0,0,.38-.65c.1-.23.18-.46.28-.69h0l1.43-3.59a.91.91,0,0,1,.84-.57.78.78,0,0,1,.33.07.89.89,0,0,1,.57.84.86.86,0,0,1-.07.34l-.86,2.13a.19.19,0,0,0,0,.08,2,2,0,0,0,0,.23,1,1,0,0,0,.07.39.63.63,0,0,0,.16.23.75.75,0,0,0,.33.19,2,2,0,0,0,.32,0c.2,0,.39,0,.49,0h3.43a.75.75,0,0,1,0,1.49Z"/><path class="cls-3" d="M281.23,110.79c0,7.61,5.62,14.86,12.26,14.86.51,0,1-.37.37-.84a2.89,2.89,0,0,1-1.48-2.36c0-.57.46-1.26,1.95-1.26h9.93a10.41,10.41,0,1,0,0-20.81H291.63A10.41,10.41,0,0,0,281.23,110.79Zm22.64,0a2,2,0,1,1,2,2A2,2,0,0,1,303.87,110.79Zm-7.9,0a2,2,0,1,1,2,2A2,2,0,0,1,296,110.79Zm-7.9,0a2,2,0,1,1,2,2A2,2,0,0,1,288.07,110.79Z"/><path class="cls-3" d="M190.16,31.48a1.12,1.12,0,1,0-1.11-1.12A1.12,1.12,0,0,0,190.16,31.48Z"/><path class="cls-3" d="M190.73,35.26a.65.65,0,0,0-.65-.66.66.66,0,1,0,0,1.31A.65.65,0,0,0,190.73,35.26Z"/><path class="cls-3" d="M190.86,32.91a.79.79,0,1,0,.79-.79A.78.78,0,0,0,190.86,32.91Z"/><path class="cls-3" d="M201.25,55.8l-6.28-10a5.77,5.77,0,0,1-.87-3.05V36.2H193v6.52a6.87,6.87,0,0,0,1,3.64l6.28,10a1.82,1.82,0,0,1,.28,1,1.81,1.81,0,0,1-1.81,1.8H182.16a1.8,1.8,0,0,1-1.8-1.81,1.84,1.84,0,0,1,.27-1l6.31-10A6.88,6.88,0,0,0,188,42.71V36.2h-1.11v6.51a5.78,5.78,0,0,1-.88,3l-6.31,10a2.95,2.95,0,0,0-.08,3,2.91,2.91,0,0,0,2.55,1.51h16.62v0h0a2.9,2.9,0,0,0,2.51-1.5,2.88,2.88,0,0,0-.08-3Z"/><path class="cls-3" d="M186.65,49.4l-4.33,6.89a1,1,0,0,0,0,1,1,1,0,0,0,.83.5h14.7a.94.94,0,0,0,.8-1.45l-4.31-6.9a1,1,0,0,0-.81-.44h-6A1,1,0,0,0,186.65,49.4Zm5.73,4.79a.7.7,0,1,1-.69.7A.7.7,0,0,1,192.38,54.19Zm-3.33-3a1,1,0,0,1,0,2.08,1,1,0,1,1,0-2.08Z"/><path class="cls-3" d="M238.49,226.94a7.51,7.51,0,0,0-3-4.32,12,12,0,0,0-2-1.17c-1-.48-2.1-.86-3.09-1.22a16.13,16.13,0,0,1-2.57-1.13,4.74,4.74,0,0,1-.68-.47,2.94,2.94,0,0,1-.7-.81,2.65,2.65,0,0,1-.33-1,8.39,8.39,0,0,1,0-.84,10.47,10.47,0,0,1,.26-2.16,9.19,9.19,0,0,0,1.22-1.79,18.12,18.12,0,0,0,1.11-2.53,4.73,4.73,0,0,0,.69-.38,5,5,0,0,0,1.42-1.48,7.69,7.69,0,0,0,1-2.45,3.34,3.34,0,0,0,.1-.82,3.81,3.81,0,0,0-.36-1.58,4.2,4.2,0,0,0-.58-.92c.12-.43.26-1,.38-1.69a17.85,17.85,0,0,0,.33-3.29,12.54,12.54,0,0,0-.22-2.35,8.34,8.34,0,0,0-.54-1.74,6.26,6.26,0,0,0-1.64-2.29,6.7,6.7,0,0,0-2.57-1.4,9.5,9.5,0,0,0-1.36-1.34,7.4,7.4,0,0,0-2.47-1.31,8.91,8.91,0,0,0-2.55-.35c-.45,0-.9,0-1.35.07s-.78.08-1.09.14a6.69,6.69,0,0,0-1.23.31c-.37.13-.74.28-1.21.47a6.72,6.72,0,0,0-.7.31,11.44,11.44,0,0,0-1.82,1.14,11.61,11.61,0,0,0-3,3.31,10.07,10.07,0,0,0-1.08,2.49,10.83,10.83,0,0,0-.42,3.06,13.29,13.29,0,0,0,.19,2.21v.15l0,.3c0,.16,0,.32,0,.45s0,.13,0,.17a.35.35,0,0,0,0,.06v0h0v.09l.19.84a4,4,0,0,0-.69,1,3.69,3.69,0,0,0-.41,1.68,3.81,3.81,0,0,0,.09.82h0a8.54,8.54,0,0,0,.59,1.75,5.49,5.49,0,0,0,1.29,1.78,5,5,0,0,0,1.2.79A19.7,19.7,0,0,0,212,212a9,9,0,0,0,1.22,1.79,10,10,0,0,1,.27,2.17,8.38,8.38,0,0,1-.05.84,2.75,2.75,0,0,1-.18.75,2.5,2.5,0,0,1-.6.89,5,5,0,0,1-1,.74,12.27,12.27,0,0,1-1.4.66c-.91.36-1.94.71-3,1.13a16.14,16.14,0,0,0-2.34,1.12,9.18,9.18,0,0,0-1.62,1.18,7.36,7.36,0,0,0-1.86,2.62,9.76,9.76,0,0,0-.7,3.82,1.63,1.63,0,0,0,.12.59,2.12,2.12,0,0,0,.27.49,4.25,4.25,0,0,0,.8.78,9.83,9.83,0,0,0,2.33,1.19,29.09,29.09,0,0,0,6,1.43,69.06,69.06,0,0,0,9.51.59,69.85,69.85,0,0,0,8.46-.46,37.76,37.76,0,0,0,4.59-.8,20.93,20.93,0,0,0,2.53-.77,11.27,11.27,0,0,0,1.42-.64,7,7,0,0,0,.83-.5,3.88,3.88,0,0,0,.87-.84,2.19,2.19,0,0,0,.27-.5,1.47,1.47,0,0,0,.11-.56A10.56,10.56,0,0,0,238.49,226.94Zm-12-6.79-4.76,7.44-.53-3.65,1.35-1.43-.88-1.46,3.69-1.94a4,4,0,0,0,.33.37A4.25,4.25,0,0,0,226.52,220.15Zm-13.16-8.92a18.08,18.08,0,0,1-1.13-2.63l-.12-.35-.36-.13a3.32,3.32,0,0,1-.7-.36,3.37,3.37,0,0,1-1-1,6.28,6.28,0,0,1-.76-1.95h0a2.5,2.5,0,0,1,0-.47,2.08,2.08,0,0,1,.24-1,3.2,3.2,0,0,1,.52-.72,11.54,11.54,0,0,0,.78,1.1c.36.36.41-.48.24-1.43-.32-1.74.53-.95,2.67-5.13,4.3,1,11.8-3.6,11.8-3.6a7.92,7.92,0,0,0,1.52,4c1.36,1.81,2.13,6.05,2.13,6.05s.18-.35.46-.82a3.26,3.26,0,0,1,.4.62,2.24,2.24,0,0,1,.21.91,2,2,0,0,1-.06.47,6.55,6.55,0,0,1-.47,1.42,3.9,3.9,0,0,1-.91,1.28,3.41,3.41,0,0,1-1,.62l-.35.12-.13.36a18.08,18.08,0,0,1-1.13,2.63,7.2,7.2,0,0,1-1.12,1.62l-.16.16,0,.22a11.82,11.82,0,0,0-.35,2.71c0,.32,0,.65.05,1a4.69,4.69,0,0,0,.28,1.16s0,0,0,.05L220,220.69l-5.35-2.49a3.89,3.89,0,0,0,.32-1.26h0a8.78,8.78,0,0,0,.06-1,11.82,11.82,0,0,0-.35-2.71l0-.22-.16-.16A7.7,7.7,0,0,1,213.36,211.23Zm-.05,8.69a5,5,0,0,0,.76-.76l4.09,1.9-.88,1.45,1.35,1.43-.5,3.43-5.2-7.17Zm23.89,9.85a1.91,1.91,0,0,1-.39.41,5.31,5.31,0,0,1-.74.48,11.86,11.86,0,0,1-2.22.9,32,32,0,0,1-5.59,1.14,69.54,69.54,0,0,1-8.51.47,70.92,70.92,0,0,1-8.26-.44,40.08,40.08,0,0,1-4.4-.77,22.79,22.79,0,0,1-2.35-.71,12.66,12.66,0,0,1-1.24-.56,5.63,5.63,0,0,1-.64-.39,2.19,2.19,0,0,1-.51-.48l-.07-.12v0a8.75,8.75,0,0,1,.28-2.31,6,6,0,0,1,.62-1.53,6.18,6.18,0,0,1,1.73-1.9,10.18,10.18,0,0,1,1.73-1,31.37,31.37,0,0,1,2.93-1.17,23.64,23.64,0,0,0,2.4-1l8.23,11.34,7.28-11.38c.37.19.75.36,1.14.52,1,.41,2,.75,3,1.15a15.73,15.73,0,0,1,2.15,1,8.21,8.21,0,0,1,1.38,1,5.89,5.89,0,0,1,1.49,2.07,8.16,8.16,0,0,1,.59,3.22A.41.41,0,0,0,237.2,229.77Z"/><rect class="cls-3" x="225.71" y="228.79" width="6.36" height="1.11"/><path class="cls-3" d="M379.29,182.54a5.2,5.2,0,1,0-5.2-5.2A5.2,5.2,0,0,0,379.29,182.54Z"/><rect class="cls-3" x="360.01" y="203.56" width="38.55" height="3.72"/><path class="cls-3" d="M371.93,195.49l.83,6.81h5.95v-3.05a4.07,4.07,0,0,1-3.48-4v-.9a.58.58,0,1,1,1.16,0v.9a2.9,2.9,0,1,0,5.8,0v-.9a.58.58,0,0,1,1.16,0v.9a4.07,4.07,0,0,1-3.48,4v3.05h5.95l.83-6.81.52,6.81h4.48l-.44-9.65c-.35-7.34-8.23-8.13-11.92-8.13s-11.56.79-11.92,8.13l-.44,9.65h4.48Zm5.33-4a2,2,0,1,1,4.06,0v3.76a2,2,0,1,1-4.06,0v-3.76Z"/><path class="cls-3" d="M327.5,113.82c-9.23-.57-17,5.24-16.82,14.7v.86l-4,7.08a1.33,1.33,0,0,0-.05,1.24,1.36,1.36,0,0,0,1,.77l2.48.68.78,7.51a2.59,2.59,0,0,0,2.87,2.5l2,.16a1.37,1.37,0,0,1,1.52,1.36v5.87H334v-4a12,12,0,0,1,1.14-4.94c2.71-4.34,7.13-6.65,7.88-15.55S338.4,114.49,327.5,113.82Z"/><circle class="cls-3" cx="231.42" cy="93.08" r="12.31"/><path class="cls-10" d="M227.3,96a1.17,1.17,0,0,1-.45.5.82.82,0,0,1-.24.1l-.27-1h-1.93l.67,3.4a.44.44,0,0,0,.44.35h1.25a.46.46,0,0,0,.36-.17.45.45,0,0,0,.07-.39l-.47-1.73.11,0a1.51,1.51,0,0,0,.7-.53,1.75,1.75,0,0,0,.32-.73l-.46-.08A2.42,2.42,0,0,1,227.3,96Z"/><path class="cls-10" d="M232.79,87.51c-.35,0-.92.6-1.17.85s-1.9,1.89-6.18,1.89v5c4.28,0,6,1.68,6.18,1.9s.82.85,1.17.85a.64.64,0,0,0,.64-.64V88.15A.64.64,0,0,0,232.79,87.51Z"/><path class="cls-10" d="M224.86,90.25a2.5,2.5,0,0,0,0,5Z"/><path class="cls-10" d="M234,91.81v1.88a.94.94,0,0,0,0-1.88Z"/><rect class="cls-10" x="237.02" y="92.44" width="2.53" height="0.49"/><polygon class="cls-10" points="238.94 89.14 238.68 88.72 236.38 90.19 236.65 90.6 238.94 89.14"/><polygon class="cls-10" points="236.38 95.39 238.68 96.86 238.94 96.44 236.65 94.98 236.38 95.39"/><path class="cls-3" d="M455.78,21.73a1.79,1.79,0,0,0-1.09-.43h-2.45a1.59,1.59,0,0,0-1.05.47l-1.67,2a.52.52,0,0,1-.81,0l-1.68-2a1.59,1.59,0,0,0-1-.47h-2.45a1.79,1.79,0,0,0-1.09.43l-1.93,1.85a1.68,1.68,0,0,0-.46,1.05v3.74a1.33,1.33,0,0,0,.52,1l8,5.52a1,1,0,0,0,1,0l8-5.52a1.33,1.33,0,0,0,.52-1V24.63a1.72,1.72,0,0,0-.45-1.05Z"/><path class="cls-3" d="M428.39,33.53a4.6,4.6,0,1,0-4.6-4.6A4.6,4.6,0,0,0,428.39,33.53Z"/><path class="cls-3" d="M437.35,40.08c-.94-3.14-3-5.23-5.37-5.23H424.8c-2.35,0-4.44,2.09-5.37,5.23l-3.38,12a1.88,1.88,0,0,0,1.37,2.29A1.86,1.86,0,0,0,419.7,53l3.37-12h1L418.2,61.87h5.53V77.31a2.14,2.14,0,1,0,4.27,0V61.87h1.18V77.31a2.14,2.14,0,1,0,4.27,0V61.87h5.13l-5.87-20.81h1l3.38,12a1.86,1.86,0,0,0,2.27,1.35,1.89,1.89,0,0,0,1.38-2.29Z"/><path class="cls-3" d="M454.13,49.75a4,4,0,1,0-4-4A4,4,0,0,0,454.13,49.75Z"/><path class="cls-3" d="M458.76,52.23H449A4.2,4.2,0,0,0,445.17,56v8.74a1.64,1.64,0,0,0,3.27,0V58.24h.76V77.16a2.15,2.15,0,1,0,4.3,0v-11h.7v11a2.15,2.15,0,1,0,4.3,0V58.24h.76v6.51a1.64,1.64,0,0,0,3.27,0V56A4.2,4.2,0,0,0,458.76,52.23Z"/><path class="cls-3" d="M541.7,121.15a.53.53,0,0,1-.2.13.64.64,0,0,1-.34,0,.58.58,0,0,1-.31-.16l-4.45-4.45a.63.63,0,0,1-.13-.2.66.66,0,0,1,0-.34.55.55,0,0,1,.16-.31l9.19-9.19-1.37-1.37L535,114.47a2.57,2.57,0,0,0-.7,2.29,2.52,2.52,0,0,0,.7,1.31l4.45,4.45a2.34,2.34,0,0,0,.84.56,2.55,2.55,0,0,0,2.76-.56l9.19-9.19L550.89,112Z"/><path class="cls-3" d="M534.42,121.49a.72.72,0,0,0-.13,1l.79.79a.72.72,0,0,0,1-.13l1.49-1.49L535.91,120Z"/><polygon class="cls-3" points="529.26 127.41 530.73 127.7 534.52 123.91 533.64 123.03 529.26 127.41"/><path class="cls-3" d="M547.34,101.64a1.73,1.73,0,0,0-2.45,2.45l8.57,8.57a1.73,1.73,0,0,0,2.45-2.45Z"/><path class="cls-3" d="M558.47,103.61l-4.53-4.53a1.73,1.73,0,0,0-2.45,2.45l.47.47-1.38,1.37,1.38,1.38,1.37-1.38.85.85-1.37,1.38,1.37,1.37,1.37-1.37.47.47a1.74,1.74,0,1,0,2.45-2.46Z"/><rect class="cls-3" x="546.28" y="111.65" width="0.83" height="2.32" transform="translate(80.35 419.62) rotate(-45)"/><polygon class="cls-3" points="544.81 116.35 545.4 115.76 543.76 114.12 543.17 114.71 544.81 116.35"/><rect class="cls-3" x="541.55" y="116.39" width="0.83" height="2.32" transform="translate(75.62 417.66) rotate(-45)"/><path class="cls-3" d="M157.88,138.64a4.11,4.11,0,0,0-1.46-1.78,4.18,4.18,0,0,0-1.13-.53v-.62a4.5,4.5,0,0,0-.36-1.76,4.52,4.52,0,0,0-4.16-2.76,4.51,4.51,0,0,0-4.52,4.52v3.1a2.13,2.13,0,0,1-.18.88,2.29,2.29,0,0,1-.82,1,2.25,2.25,0,0,1-2.15.21,2.28,2.28,0,0,1-1.38-2.09v-6.76a10.44,10.44,0,0,0,2.57-.66,12,12,0,0,0,4.36-3.09,13.17,13.17,0,0,0,1.52-2.08,10.88,10.88,0,0,0,1-2.24,10,10,0,0,0,.51-3.11,7.43,7.43,0,0,0-.19-1.72,5.08,5.08,0,0,0-.41-1.15,3.68,3.68,0,0,0-.48-.75,3.29,3.29,0,0,0-1.06-.86,3.12,3.12,0,0,0-1.39-.32v2.25a.87.87,0,0,1,.25,0,.41.41,0,0,1,.17.07,1,1,0,0,1,.29.25,2.32,2.32,0,0,1,.4.85,4.8,4.8,0,0,1,.17,1.34,8.15,8.15,0,0,1-.4,2.42,9.59,9.59,0,0,1-1.18,2.38,10.45,10.45,0,0,1-3.12,3,8.4,8.4,0,0,1-2,.89,7.45,7.45,0,0,1-2.17.32,7.62,7.62,0,0,1-2.85-.56,8.86,8.86,0,0,1-1.9-1.06,10.46,10.46,0,0,1-2.31-2.29,9.53,9.53,0,0,1-1.38-2.66,7.84,7.84,0,0,1-.4-2.42,4.76,4.76,0,0,1,.13-1.19,3.07,3.07,0,0,1,.23-.67,1.89,1.89,0,0,1,.21-.33.87.87,0,0,1,.33-.27.78.78,0,0,1,.37-.09v-2.25a3.34,3.34,0,0,0-.84.11,3.14,3.14,0,0,0-.68.28,3.48,3.48,0,0,0-.94.81,4.63,4.63,0,0,0-.81,1.65,7.18,7.18,0,0,0-.26,2A10.26,10.26,0,0,0,130,124a11.68,11.68,0,0,0,1.47,3,12.45,12.45,0,0,0,3.8,3.63,10.76,10.76,0,0,0,2.51,1.13,10.33,10.33,0,0,0,1.69.35v6.76a4.49,4.49,0,0,0,.35,1.76,4.62,4.62,0,0,0,1.64,2,4.54,4.54,0,0,0,2.52.77,4.51,4.51,0,0,0,4.52-4.52v-3.1a2.28,2.28,0,0,1,1-1.88,2.26,2.26,0,0,1,1.27-.38,2.23,2.23,0,0,1,1.88,1,2.31,2.31,0,0,1,.38,1.27v.62l-.44.16a4,4,0,0,0-2.47,3.72,4.06,4.06,0,0,0,1.78,3.35,4,4,0,0,0,2.26.69,3.93,3.93,0,0,0,1.57-.32,4,4,0,0,0,2.47-3.72A3.93,3.93,0,0,0,157.88,138.64Zm-1.74,2.41a2.24,2.24,0,0,1-.78.94,2.14,2.14,0,0,1-3-.58,2.13,2.13,0,0,1-.37-1.2,2.05,2.05,0,0,1,.17-.83,2.16,2.16,0,0,1,2-1.32,2.05,2.05,0,0,1,.83.17,2.14,2.14,0,0,1,.95.78,2.21,2.21,0,0,1,.37,1.2A2.33,2.33,0,0,1,156.14,141.05Z"/><path class="cls-3" d="M136.33,119.28a1.49,1.49,0,0,0,.56-1.16v-1.77a1.48,1.48,0,0,0-1.83-1.44l-1.18.28v4.09l1.18.28A1.46,1.46,0,0,0,136.33,119.28Z"/><path class="cls-3" d="M144.86,119.28a1.48,1.48,0,0,0,1.27.28l1.17-.28v-4.09l-1.17-.28a1.48,1.48,0,0,0-1.83,1.44v1.77A1.49,1.49,0,0,0,144.86,119.28Z"/><path class="cls-3" d="M495.66,174.6l-11.58,6.47V198.5h9.33v-6.79h4.49v6.79h9.34V181.07Zm-5.82,19.34H488v-2.23h1.87Zm0-4.95H488v-2.23h1.87Zm6.75,0h-1.87v-2.23h1.87Zm2-6.61H496.7v1.89h-2.09v-1.89h-1.88v-2.09h1.88v-1.88h2.09v1.88h1.88Zm2.89,4.38h1.75V189h-1.75Zm1.87,7.18h-1.87v-2.23h1.87Z"/><path class="cls-3" d="M55.52,54.74V81.13H76.8V54.74ZM75.1,79.43H67.44V74.32H64.89v5.11H57.22v-23H75.1Z"/><rect class="cls-3" x="59.78" y="59" width="2.55" height="2.55"/><rect class="cls-3" x="64.89" y="59" width="2.55" height="2.55"/><rect class="cls-3" x="69.99" y="59" width="2.55" height="2.55"/><rect class="cls-3" x="59.78" y="64.11" width="2.55" height="2.55"/><rect class="cls-3" x="64.89" y="64.11" width="2.55" height="2.55"/><rect class="cls-3" x="69.99" y="64.11" width="2.55" height="2.55"/><rect class="cls-3" x="59.78" y="69.21" width="2.55" height="2.55"/><rect class="cls-3" x="64.89" y="69.21" width="2.55" height="2.55"/><rect class="cls-3" x="69.99" y="69.21" width="2.55" height="2.55"/><rect class="cls-3" x="59.78" y="74.32" width="2.55" height="2.55"/><rect class="cls-3" x="69.99" y="74.32" width="2.55" height="2.55"/><line class="cls-9" x1="286.88" y1="168.39" x2="256.88" y2="208.39"/><line class="cls-9" x1="175.38" y1="71.69" x2="158.68" y2="103.02"/><line class="cls-9" x1="335.07" y1="87.54" x2="392.27" y2="51.55"/><line class="cls-9" x1="335.07" y1="168.48" x2="345.88" y2="190.39"/><line class="cls-11" x1="515.16" y1="113.33" x2="462.09" y2="92.19"/><line class="cls-9" x1="133.38" y1="195.89" x2="179.86" y2="209.41"/><line class="cls-12" x1="529.03" y1="138.72" x2="507.16" y2="165.33"/><line class="cls-9" x1="91.42" y1="68.68" x2="129.82" y2="103.02"/><circle class="cls-3" cx="167.91" cy="180.26" r="12.31"/><path class="cls-10" d="M172.75,180.29a3.43,3.43,0,0,1-.88,2.32,2.25,2.25,0,0,1-2.9.58,16.75,16.75,0,0,0-3.12-1.35c-.48-.08-2.15-.11-2.15-.11h-5.4v-.55H164a8,8,0,0,1,3.73.55c1.73.79,2.24,1.13,2.93,1s1.39-1.53,1.39-2.41-.63-2.21-1.39-2.4-1.2.17-2.93,1a8,8,0,0,1-3.73.55H158.3v-.55h5.4s1.67,0,2.15-.11a17.44,17.44,0,0,0,3.12-1.35,2.25,2.25,0,0,1,2.9.57A3.48,3.48,0,0,1,172.75,180.29Z"/><path class="cls-10" d="M162.61,180.29a3.43,3.43,0,0,0,.88,2.32,2.25,2.25,0,0,0,2.9.58,16.75,16.75,0,0,1,3.12-1.35c.48-.08,2.15-.11,2.15-.11h5.4v-.55h-5.68a8,8,0,0,0-3.73.55c-1.73.79-2.24,1.13-2.93,1s-1.39-1.53-1.39-2.41.63-2.21,1.39-2.4,1.2.17,2.93,1a8,8,0,0,0,3.73.55h5.68v-.55h-5.4s-1.67,0-2.15-.11a17.44,17.44,0,0,1-3.12-1.35,2.25,2.25,0,0,0-2.9.57A3.48,3.48,0,0,0,162.61,180.29Z"/></g></svg>