<svg xmlns="http://www.w3.org/2000/svg" xmlns:xlink="http://www.w3.org/1999/xlink" viewBox="0 0 1000 500"><defs><style>.cls-1{fill:url(#名称未設定グラデーション_59);}.cls-2{opacity:0.6;}.cls-3{fill:#fff;}.cls-4,.cls-5,.cls-6,.cls-7,.cls-8{fill:none;stroke:#fff;stroke-miterlimit:10;}.cls-4{stroke-width:0.5px;}.cls-5{stroke-width:0.66px;}.cls-6{stroke-width:0.69px;}.cls-7{stroke-width:0.45px;}.cls-9{fill:#adc7e8;}</style><linearGradient id="名称未設定グラデーション_59" x1="500.33" y1="6.33" x2="500.33" y2="485.68" gradientUnits="userSpaceOnUse"><stop offset="0" stop-color="#fefdfa"/><stop offset="0.15" stop-color="#dce6f2"/><stop offset="0.29" stop-color="#c2d5ed"/><stop offset="0.43" stop-color="#b2cbe9"/><stop offset="0.53" stop-color="#adc7e8"/><stop offset="0.63" stop-color="#b1cae9"/><stop offset="0.74" stop-color="#bdd2ec"/><stop offset="0.84" stop-color="#d2dff0"/><stop offset="0.95" stop-color="#eef2f6"/><stop offset="1" stop-color="#fefdfa"/></linearGradient></defs><title>アートボード 1</title><g id="レイヤー_6" data-name="レイヤー 6"><rect class="cls-1" x="1" y="1" width="998.67" height="498.67"/></g><g id="レイヤー_4" data-name="レイヤー 4"><g class="cls-2"><circle class="cls-3" cx="639.95" cy="146.74" r="7.28"/><circle class="cls-3" cx="676" cy="174.83" r="4.26"/><circle class="cls-3" cx="614.56" cy="134.15" r="4.26"/><circle class="cls-3" cx="670.33" cy="140" r="3.61"/><circle class="cls-3" cx="633.33" cy="183.17" r="3.61"/><circle class="cls-3" cx="645.5" cy="116.67" r="3.61"/><circle class="cls-3" cx="606.5" cy="157" r="3.61"/><polyline class="cls-4" points="645.33 117.5 639.75 146.94 615.13 134.26"/><line class="cls-4" x1="639.75" y1="146.94" x2="606.83" y2="157"/><polyline class="cls-4" points="676 174.83 638.83 148.5 633.33 182.5"/><line class="cls-4" x1="670.33" y1="140" x2="640.33" y2="147"/></g><g class="cls-2"><circle class="cls-3" cx="441.95" cy="404.08" r="7.28"/><circle class="cls-3" cx="463.4" cy="418.81" r="4.26"/><circle class="cls-3" cx="416.56" cy="391.48" r="4.26"/><circle class="cls-3" cx="472.33" cy="397.33" r="3.61"/><circle class="cls-3" cx="435.33" cy="440.5" r="3.61"/><circle class="cls-3" cx="457.5" cy="371.33" r="3.61"/><circle class="cls-3" cx="379" cy="421.5" r="3.61"/><polyline class="cls-4" points="457.33 372.17 441.75 404.27 417.13 391.59"/><line class="cls-4" x1="441.75" y1="404.27" x2="379.33" y2="421.5"/><polyline class="cls-4" points="463.39 418.81 440.83 405.83 435.33 439.83"/><line class="cls-4" x1="472.33" y1="397.33" x2="442.33" y2="404.33"/></g><g class="cls-2"><circle class="cls-3" cx="321.88" cy="275.49" r="9.59"/><circle class="cls-3" cx="355.17" cy="283.64" r="5.61"/><circle class="cls-3" cx="284.75" cy="271.81" r="5.61"/><circle class="cls-3" cx="356.17" cy="253.02" r="4.76"/><circle class="cls-3" cx="330.72" cy="323.42" r="4.76"/><circle class="cls-3" cx="314.71" cy="235.85" r="4.76"/><circle class="cls-3" cx="285.48" cy="303.71" r="4.76"/><polyline class="cls-5" points="314.89 236.96 321.74 275.82 285.5 271.68"/><line class="cls-5" x1="321.74" y1="275.82" x2="285.89" y2="303.55"/><polyline class="cls-5" points="355.17 283.64 321.33 278.17 330.41 322.6"/><line class="cls-5" x1="356.17" y1="253.02" x2="322.48" y2="275.62"/></g><g class="cls-2"><circle class="cls-3" cx="879.47" cy="352.24" r="7.49"/><circle class="cls-3" cx="866.65" cy="433.52" r="5.61"/><circle class="cls-3" cx="883.15" cy="315.1" r="5.61"/><circle class="cls-3" cx="901.94" cy="386.52" r="4.76"/><circle class="cls-3" cx="831.53" cy="361.07" r="4.76"/><circle class="cls-3" cx="945.1" cy="348.65" r="4.76"/><circle class="cls-3" cx="851.25" cy="315.83" r="4.76"/><polyline class="cls-5" points="944 348.83 879.14 352.09 883.28 315.85"/><line class="cls-5" x1="879.14" y1="352.09" x2="851.4" y2="316.24"/><polyline class="cls-5" points="866.65 433.52 876.79 351.69 832.35 360.76"/><line class="cls-5" x1="901.94" y1="386.52" x2="879.33" y2="352.83"/></g><g class="cls-2"><circle class="cls-3" cx="890.84" cy="192.64" r="10.02"/><circle class="cls-3" cx="926.48" cy="196.1" r="5.87"/><circle class="cls-3" cx="852.58" cy="185.08" r="5.87"/><circle class="cls-3" cx="922.92" cy="164.28" r="4.97"/><circle class="cls-3" cx="907.14" cy="240.9" r="4.97"/><circle class="cls-3" cx="877.48" cy="152.74" r="4.97"/><circle class="cls-3" cx="857.41" cy="227.27" r="4.97"/><polyline class="cls-6" points="877.84 153.85 890.73 193.01 853.33 184.83"/><line class="cls-6" x1="890.73" y1="193.01" x2="857.81" y2="227.05"/><polyline class="cls-6" points="926.48 196.1 890.67 195.5 906.7 240.09"/><line class="cls-6" x1="922.92" y1="164.28" x2="891.47" y2="192.69"/></g><g class="cls-2"><circle class="cls-3" cx="585.34" cy="290.67" r="6.56"/><circle class="cls-3" cx="597.84" cy="310.52" r="3.84"/><circle class="cls-3" cx="568.82" cy="271.19" r="3.84"/><circle class="cls-3" cx="612.9" cy="295.93" r="3.26"/><circle class="cls-3" cx="566.87" cy="318.46" r="3.26"/><circle class="cls-3" cx="600.67" cy="267.75" r="3.26"/><circle class="cls-3" cx="554" cy="287.23" r="3.26"/><polyline class="cls-7" points="600.23 268.38 585.11 290.76 569.25 271.48"/><line class="cls-7" x1="585.11" y1="290.76" x2="554.27" y2="287.35"/><polyline class="cls-7" points="597.84 310.52 583.79 291.73 567.11 317.9"/><line class="cls-7" x1="612.9" y1="295.93" x2="585.57" y2="291.02"/></g><g class="cls-2"><circle class="cls-3" cx="719.77" cy="405.15" r="6.56"/><circle class="cls-3" cx="732.27" cy="425" r="3.84"/><circle class="cls-3" cx="701.57" cy="374.54" r="5.02"/><circle class="cls-3" cx="747.33" cy="410.41" r="3.26"/><circle class="cls-3" cx="701.3" cy="432.94" r="3.26"/><circle class="cls-3" cx="735.1" cy="382.24" r="3.26"/><circle class="cls-3" cx="688.43" cy="401.71" r="3.26"/><polyline class="cls-7" points="734.66 382.87 719.54 405.24 702.13 374.92"/><line class="cls-7" x1="719.54" y1="405.24" x2="688.7" y2="401.83"/><polyline class="cls-7" points="732.27 425 718.22 406.21 701.54 432.39"/><line class="cls-7" x1="747.33" y1="410.41" x2="720" y2="405.5"/></g></g><g id="六角形"><circle class="cls-3" cx="493.08" cy="297.92" r="13.25"/><circle class="cls-3" cx="542.58" cy="209.42" r="13.25"/><circle class="cls-3" cx="787.24" cy="226.7" r="13.25"/><polygon class="cls-8" points="678.76 199.42 628.45 199.42 603.3 242.98 628.45 286.55 678.76 286.55 703.91 242.98 678.76 199.42"/><polygon class="cls-8" points="790.4 73.62 740.1 73.62 714.94 117.19 740.1 160.75 790.4 160.75 815.55 117.19 790.4 73.62"/><polygon class="cls-8" points="583.85 346.2 542.18 346.2 521.35 382.29 542.18 418.37 583.85 418.37 604.68 382.29 583.85 346.2"/><polygon class="cls-8" points="768.49 299.06 732.85 299.06 715.03 329.92 732.85 360.79 768.49 360.79 786.32 329.92 768.49 299.06"/><polygon class="cls-8" points="408.24 316.59 372.59 316.59 354.77 347.45 372.59 378.32 408.24 378.32 426.06 347.45 408.24 316.59"/><polygon class="cls-8" points="822.82 398.67 796.45 398.67 783.26 421.51 796.45 444.35 822.82 444.35 836 421.51 822.82 398.67"/><polygon class="cls-8" points="874.4 252.33 843.33 252.33 827.8 279.23 843.33 306.13 874.4 306.13 889.93 279.23 874.4 252.33"/><polygon class="cls-8" points="349.33 166.67 322.34 166.67 308.84 190.04 322.34 213.42 349.33 213.42 362.83 190.04 349.33 166.67"/><polygon class="cls-8" points="453.33 216.08 422.27 216.08 406.74 242.98 422.27 269.88 453.33 269.88 468.87 242.98 453.33 216.08"/><polygon class="cls-8" points="558.83 105.08 527.77 105.08 512.24 131.98 527.77 158.88 558.83 158.88 574.37 131.98 558.83 105.08"/><line class="cls-8" x1="468.87" y1="242.98" x2="602.83" y2="242.98"/><path class="cls-3" d="M379.16,333.65Z"/><path class="cls-3" d="M405.22,333.65a1.7,1.7,0,0,0-.87-.24,1.72,1.72,0,0,0-.82.21l-2.68,1.45-3.52-1.9a1.66,1.66,0,0,0-.81-.21,1.72,1.72,0,0,0-.82.21l-3.51,1.9-3.51-1.9a1.72,1.72,0,0,0-.82-.21,1.66,1.66,0,0,0-.81.21l-3.52,1.9-2.68-1.45a1.66,1.66,0,0,0-.81-.21,1.7,1.7,0,0,0-1.71,1.71V357.6h1.76V335.2l2.63,1.43a1.66,1.66,0,0,0,.81.21,1.7,1.7,0,0,0,.82-.21l3.51-1.9,3.51,1.9a1.71,1.71,0,0,0,1.64,0l3.51-1.9,3.51,1.9a1.72,1.72,0,0,0,.82.21,1.66,1.66,0,0,0,.81-.21l2.64-1.43v22.89a2.78,2.78,0,0,1-2.78,2.78H380.43a4.1,4.1,0,0,1-4.11-4.11V338.44h-1.76v18.32a5.87,5.87,0,0,0,5.87,5.87h21.09a4.54,4.54,0,0,0,4.54-4.54v-23A1.72,1.72,0,0,0,405.22,333.65Z"/><rect class="cls-3" x="395.25" y="348.48" width="7.16" height="7.72"/><rect class="cls-3" x="382.11" y="348.6" width="10.56" height="1.17"/><rect class="cls-3" x="382.11" y="354.92" width="10.56" height="1.17"/><rect class="cls-3" x="382.11" y="351.76" width="10.56" height="1.17"/><path class="cls-3" d="M383.35,345.76v-3.29h0l1.85,3.29a.15.15,0,0,0,.14.07h.91l.08-.07v-5.08l-.08-.08h-.87l-.08.08V344h0l-1.85-3.29a.14.14,0,0,0-.13-.08h-.93l-.07.08v5.08l.07.07h.87Z"/><polygon class="cls-3" points="388.55 341.58 390.8 341.58 390.88 341.5 390.88 340.68 390.8 340.6 387.44 340.6 387.37 340.68 387.37 345.76 387.44 345.83 390.8 345.83 390.88 345.76 390.88 344.93 390.8 344.86 388.55 344.86 388.5 344.81 388.5 343.73 388.55 343.68 390.42 343.68 390.5 343.6 390.5 342.79 390.42 342.71 388.55 342.71 388.5 342.66 388.5 341.62 388.55 341.58"/><path class="cls-3" d="M397.72,340.6h-1c-.06,0-.09,0-.1.08l-.72,3.28h0l-.92-3.28-.09-.08h-.67a.09.09,0,0,0-.1.08l-.9,3.28h0l-.76-3.28c0-.05,0-.08-.09-.08h-1c-.05,0-.07,0-.06.08l1.35,5.08.09.07h.77a.11.11,0,0,0,.11-.07l.91-3.26h0l.9,3.26a.11.11,0,0,0,.1.07h.77a.1.1,0,0,0,.11-.07l1.34-5.08C397.79,340.63,397.77,340.6,397.72,340.6Z"/><path class="cls-3" d="M400.18,344.93a2.22,2.22,0,0,1-1.37-.54h-.11l-.59.67v.13a3.05,3.05,0,0,0,2,.72c1.35,0,2.05-.7,2.05-1.65s-.57-1.44-1.65-1.58l-.27,0c-.6-.09-.82-.28-.82-.58s.24-.57.7-.57a2.19,2.19,0,0,1,1.22.4l.11,0,.46-.7c0-.06,0-.09,0-.12a3,3,0,0,0-1.78-.54c-1.13,0-1.85.63-1.85,1.6s.59,1.42,1.65,1.57l.28,0c.62.08.81.27.81.58S400.73,344.93,400.18,344.93Z"/><path class="cls-9" d="M794.65,224.22a1.59,1.59,0,0,0-1.59-1.59h-3.68c-.21,0-.4,0-.54,0h-.14v-.21l.91-2.24a1.72,1.72,0,0,0,.13-.66,1.77,1.77,0,0,0-1.1-1.63,1.88,1.88,0,0,0-.66-.12,1.75,1.75,0,0,0-1.63,1.09h0l-1.53,3.87h0c-.11.25-.19.47-.27.67a1.76,1.76,0,0,1-.38.64.87.87,0,0,1-.25.15,1.6,1.6,0,0,1-.44.06,1.66,1.66,0,0,0-.32,0h-2.49a1.34,1.34,0,0,0-1.33,1.33v6a1.34,1.34,0,0,0,1.33,1.33h1.85a.74.74,0,0,0,.74-.74v-.61a2.57,2.57,0,0,0,.41.19,5.1,5.1,0,0,0,1.86.28h5.72a1.59,1.59,0,0,0,1.59-1.59,1.43,1.43,0,0,0-.12-.58,1.58,1.58,0,0,0,1.09-1.51,1.6,1.6,0,0,0-.21-.78,1.35,1.35,0,0,0,.4-.58,2.23,2.23,0,0,0,.11-.73,1.33,1.33,0,0,0-.09-.44,1.82,1.82,0,0,0-.16-.31A1.58,1.58,0,0,0,794.65,224.22Zm-1.59.81h-.26a.43.43,0,0,0-.28.11.39.39,0,0,0-.11.28.39.39,0,0,0,.11.27.39.39,0,0,0,.28.12.42.42,0,0,1,.2.05.56.56,0,0,1,.23.23.47.47,0,0,1,.08.26,1.24,1.24,0,0,1-.11.58.36.36,0,0,1-.11.13.47.47,0,0,1-.19.08.39.39,0,0,0-.3.29.38.38,0,0,0,.13.4.79.79,0,0,1,.29.61.8.8,0,0,1-.8.81H792a.39.39,0,0,0-.26.68.81.81,0,0,1-.53,1.41h-5.72a4.8,4.8,0,0,1-1.45-.18,1.79,1.79,0,0,1-.66-.35,1.21,1.21,0,0,1-.16-.16v-5.57a.69.69,0,0,1,.22,0,1.91,1.91,0,0,0,.89-.19,1.5,1.5,0,0,0,.46-.36,2.51,2.51,0,0,0,.41-.7c.11-.25.19-.5.3-.75h0l1.53-3.87a1,1,0,0,1,1.27-.53,1,1,0,0,1,.53,1.27L788,222.2a.32.32,0,0,0,0,.09,2.29,2.29,0,0,0,0,.25.91.91,0,0,0,.08.41.78.78,0,0,0,.17.26.77.77,0,0,0,.36.2,1.35,1.35,0,0,0,.33,0c.22,0,.42,0,.54,0h3.68a.81.81,0,1,1,0,1.61Z"/><circle class="cls-3" cx="658.24" cy="361.7" r="13.25"/><path class="cls-3" d="M621.33,224.44c0,8.2,6,16,13.2,16,.55,0,1.1-.4.4-.9a3.15,3.15,0,0,1-1.6-2.55c0-.61.5-1.35,2.1-1.35h10.7a11.2,11.2,0,1,0,0-22.4h-13.6A11.2,11.2,0,0,0,621.33,224.44Zm24.38,0a2.13,2.13,0,1,1,2.13,2.13A2.13,2.13,0,0,1,645.71,224.44Zm-8.5,0a2.13,2.13,0,1,1,2.12,2.13A2.12,2.12,0,0,1,637.21,224.44Zm-8.51,0a2.13,2.13,0,1,1,2.13,2.13A2.13,2.13,0,0,1,628.7,224.44Z"/><path class="cls-3" d="M543.75,115.37a1.2,1.2,0,1,0-1.2-1.2A1.2,1.2,0,0,0,543.75,115.37Z"/><path class="cls-3" d="M544.36,119.44a.69.69,0,0,0-.7-.7.7.7,0,0,0-.71.7.71.71,0,0,0,.71.71A.7.7,0,0,0,544.36,119.44Z"/><path class="cls-3" d="M544.5,116.91a.85.85,0,1,0,.85-.84A.85.85,0,0,0,544.5,116.91Z"/><path class="cls-3" d="M555.69,141.56l-6.76-10.8a6.17,6.17,0,0,1-.95-3.28v-7H546.8v7a7.4,7.4,0,0,0,1.12,3.91l6.76,10.8a2,2,0,0,1,.3,1,2,2,0,0,1-.24.95,2,2,0,0,1-1.7,1h0l-17.89,0a2,2,0,0,1-1.7-1,1.94,1.94,0,0,1,.06-2l6.79-10.79a7.42,7.42,0,0,0,1.13-3.92v-7h-1.2v7a6.2,6.2,0,0,1-1,3.29l-6.78,10.78a3.14,3.14,0,0,0,2.65,4.81l17.89,0v0h.05a3.13,3.13,0,0,0,2.7-1.61,3.12,3.12,0,0,0-.08-3.19Z"/><path class="cls-3" d="M540,134.67l-4.66,7.42a1,1,0,0,0,0,1,1,1,0,0,0,.89.54H552a1,1,0,0,0,.9-.52,1,1,0,0,0,0-1l-4.65-7.43a1,1,0,0,0-.87-.48h-6.5A1,1,0,0,0,540,134.67Zm6.17,5.16a.75.75,0,1,1-.75.75A.75.75,0,0,1,546.14,139.83Zm-3.59-3.22a1.13,1.13,0,1,1-1.12,1.13A1.13,1.13,0,0,1,542.55,136.61Z"/><path class="cls-3" d="M584.47,401.16a8,8,0,0,0-.85-2.07,8.43,8.43,0,0,0-2.37-2.58,13.58,13.58,0,0,0-2.17-1.26c-1.12-.52-2.27-.92-3.32-1.31a17.08,17.08,0,0,1-2.78-1.22,5.21,5.21,0,0,1-.73-.51,3.05,3.05,0,0,1-.75-.87,2.79,2.79,0,0,1-.35-1.12c0-.32,0-.62,0-.9a10.76,10.76,0,0,1,.29-2.33,10.15,10.15,0,0,0,1.31-1.93,21.58,21.58,0,0,0,1.19-2.71,5,5,0,0,0,.74-.42,5.31,5.31,0,0,0,1.53-1.59,8.36,8.36,0,0,0,1-2.64,3.77,3.77,0,0,0,.1-.88,4,4,0,0,0-.38-1.7,4.62,4.62,0,0,0-.63-1c.13-.46.28-1.09.41-1.83a19.43,19.43,0,0,0,.35-3.53,13.79,13.79,0,0,0-.23-2.54,9.85,9.85,0,0,0-.58-1.87,7,7,0,0,0-1.76-2.46,7.23,7.23,0,0,0-2.78-1.51,10,10,0,0,0-1.46-1.45,8,8,0,0,0-2.66-1.4,9.55,9.55,0,0,0-2.75-.37c-.48,0-1,0-1.45.07s-.83.09-1.17.14a8.44,8.44,0,0,0-1.32.34c-.41.14-.8.3-1.31.5l-.75.34a14.26,14.26,0,0,0-2,1.22,12.59,12.59,0,0,0-3.28,3.57,11.08,11.08,0,0,0-1.17,2.68,11.75,11.75,0,0,0-.45,3.3,14.21,14.21,0,0,0,.2,2.37.91.91,0,0,0,0,.17,1.93,1.93,0,0,0,0,.33c0,.16,0,.33,0,.48s0,.13,0,.18a.18.18,0,0,1,0,.06v0h0v.1l.2.9a5,5,0,0,0-.74,1.07,4,4,0,0,0-.43,1.81,3.3,3.3,0,0,0,.1.88h0a9.21,9.21,0,0,0,.62,1.88,5.8,5.8,0,0,0,1.4,1.93,5,5,0,0,0,1.29.84,21.58,21.58,0,0,0,1.19,2.71,9.58,9.58,0,0,0,1.31,1.93,10.77,10.77,0,0,1,.28,2.33,7.18,7.18,0,0,1,0,.9,3.11,3.11,0,0,1-.19.81,2.78,2.78,0,0,1-.65,1,5,5,0,0,1-1.09.8,12.72,12.72,0,0,1-1.52.71c-1,.4-2.08.77-3.21,1.22a17.1,17.1,0,0,0-2.52,1.21,9.75,9.75,0,0,0-1.75,1.27,7.93,7.93,0,0,0-2,2.82,10.4,10.4,0,0,0-.76,4.11,1.7,1.7,0,0,0,.13.64,2,2,0,0,0,.29.52,3.82,3.82,0,0,0,.86.84,10.55,10.55,0,0,0,2.51,1.29,30.92,30.92,0,0,0,6.5,1.53,73.83,73.83,0,0,0,10.24.64,78,78,0,0,0,9.11-.49,42.82,42.82,0,0,0,4.94-.87,23.66,23.66,0,0,0,2.72-.82,12.37,12.37,0,0,0,1.53-.69,7.21,7.21,0,0,0,.89-.55,4.06,4.06,0,0,0,.94-.9,2.1,2.1,0,0,0,.29-.53,1.78,1.78,0,0,0,.11-.61A11.22,11.22,0,0,0,584.47,401.16Zm-12.89-7.3-5.12,8-.57-3.93,1.45-1.54-.94-1.57,4-2.09a4.55,4.55,0,0,0,.35.4A7.38,7.38,0,0,0,571.58,393.86Zm-14.17-9.61a20.82,20.82,0,0,1-1.21-2.84l-.13-.37-.38-.14a3.42,3.42,0,0,1-.76-.39,3.53,3.53,0,0,1-1-1.09,6.63,6.63,0,0,1-.82-2.09h0a3,3,0,0,1-.05-.51,2.38,2.38,0,0,1,.25-1,3,3,0,0,1,.57-.78,12.16,12.16,0,0,0,.83,1.19c.39.38.44-.53.26-1.54-.34-1.88.57-1,2.88-5.52,4.62,1,12.69-3.89,12.69-3.89a8.57,8.57,0,0,0,1.64,4.3c1.46,1.95,2.3,6.52,2.3,6.52s.2-.38.49-.88a2.49,2.49,0,0,1,.43.66,2.24,2.24,0,0,1,.23,1,2.35,2.35,0,0,1-.06.51,7.39,7.39,0,0,1-.51,1.53,4.24,4.24,0,0,1-1,1.37,3.55,3.55,0,0,1-1.12.67l-.38.13-.13.39a22.45,22.45,0,0,1-1.22,2.83A8.15,8.15,0,0,1,570,386l-.17.17,0,.23a13.66,13.66,0,0,0-.37,2.92,10.34,10.34,0,0,0,.06,1.08,4.17,4.17,0,0,0,.3,1.24.14.14,0,0,0,0,.06l-5.2,2.73-5.76-2.67a4.61,4.61,0,0,0,.35-1.36h0a10.22,10.22,0,0,0,.05-1.08,13,13,0,0,0-.37-2.92l-.05-.23-.16-.17A7.81,7.81,0,0,1,557.41,384.25Zm0,9.35a5.7,5.7,0,0,0,.82-.81l4.39,2-.94,1.56,1.46,1.54-.54,3.7L557,393.9A4,4,0,0,0,557.37,393.6Zm25.71,10.61a2.17,2.17,0,0,1-.42.44,5.1,5.1,0,0,1-.8.51,12.7,12.7,0,0,1-2.38,1,33.73,33.73,0,0,1-6,1.23,75.17,75.17,0,0,1-9.16.51,74.36,74.36,0,0,1-8.9-.48,39.85,39.85,0,0,1-4.73-.83,22.56,22.56,0,0,1-2.53-.76,12.46,12.46,0,0,1-1.33-.6,5.8,5.8,0,0,1-.7-.43,2.34,2.34,0,0,1-.55-.51.57.57,0,0,1-.07-.13v0a9.7,9.7,0,0,1,.3-2.49,6.4,6.4,0,0,1,.67-1.64,6.54,6.54,0,0,1,1.86-2.05,12.21,12.21,0,0,1,1.87-1.09c1-.48,2.08-.86,3.15-1.26a24.89,24.89,0,0,0,2.58-1.07l8.86,12.2,7.84-12.24c.4.2.8.39,1.22.56,1,.43,2.18.8,3.26,1.23a16.36,16.36,0,0,1,2.31,1.09,9,9,0,0,1,1.49,1.07,6.26,6.26,0,0,1,1.6,2.23,8.7,8.7,0,0,1,.63,3.46A.27.27,0,0,1,583.08,404.21Z"/><rect class="cls-3" x="570.71" y="403.15" width="6.85" height="1.2"/><path class="cls-3" d="M750.59,320.53a5.6,5.6,0,1,0-5.6-5.6A5.6,5.6,0,0,0,750.59,320.53Z"/><rect class="cls-3" x="729.83" y="343.16" width="41.51" height="4.01"/><path class="cls-3" d="M742.66,334.47l.9,7.33H750v-3.29a4.37,4.37,0,0,1-3.74-4.32v-1a.63.63,0,1,1,1.25,0v1a3.12,3.12,0,0,0,6.24,0v-1a.63.63,0,0,1,.62-.63.62.62,0,0,1,.62.63v1a4.37,4.37,0,0,1-3.74,4.32v3.29h6.4l.9-7.33.56,7.33h4.82l-.47-10.39c-.38-7.9-8.86-8.75-12.83-8.75s-12.45.85-12.84,8.75l-.47,10.39h4.82Zm5.74-4.33a2.19,2.19,0,1,1,4.37,0v4.05a2.19,2.19,0,0,1-4.37,0v-4.05Z"/><path class="cls-3" d="M671.15,227.71c-9.94-.61-18.31,5.64-18.12,15.82v.92l-4.32,7.62a1.51,1.51,0,0,0-.06,1.34,1.48,1.48,0,0,0,1.05.83l2.67.74.84,8.08a2.76,2.76,0,0,0,1,2,2.72,2.72,0,0,0,2.13.67l2.13.17a1.5,1.5,0,0,1,1.15.37,1.46,1.46,0,0,1,.49,1.09v6.33h18v-4.28a13,13,0,0,1,1.23-5.33c2.92-4.67,7.68-7.15,8.48-16.74S682.88,228.43,671.15,227.71Z"/><path class="cls-9" d="M538.15,212.57a1.26,1.26,0,0,1-.48.55,1.83,1.83,0,0,1-.26.11l-.29-1.08H535l.72,3.66a.48.48,0,0,0,.47.38h1.36A.5.5,0,0,0,538,216a.47.47,0,0,0,.08-.41l-.51-1.87.12,0a1.66,1.66,0,0,0,.75-.57,2,2,0,0,0,.35-.79l-.5-.09A1.94,1.94,0,0,1,538.15,212.57Z"/><path class="cls-9" d="M544.07,203.42c-.39,0-1,.65-1.27.91s-2,2-6.65,2v5.38c4.61,0,6.42,1.81,6.65,2s.88.92,1.27.92a.69.69,0,0,0,.69-.69v-9.91A.69.69,0,0,0,544.07,203.42Z"/><path class="cls-9" d="M535.53,206.37a2.69,2.69,0,1,0,0,5.38Z"/><path class="cls-9" d="M545.31,208.05v2a1,1,0,0,0,0-2Z"/><rect class="cls-9" x="548.61" y="208.73" width="2.72" height="0.53"/><polygon class="cls-9" points="550.69 205.17 550.4 204.72 547.93 206.3 548.21 206.75 550.69 205.17"/><polygon class="cls-9" points="547.93 211.9 550.4 213.48 550.69 213.03 548.21 211.46 547.93 211.9"/><path class="cls-3" d="M784,85.5a2,2,0,0,0-1.17-.46h-2.64a1.7,1.7,0,0,0-1.13.51l-1.8,2.12a.57.57,0,0,1-.88,0l-1.8-2.12A1.7,1.7,0,0,0,773.4,85h-2.64a2,2,0,0,0-1.18.46l-2.07,2a1.76,1.76,0,0,0-.49,1.12v4a1.42,1.42,0,0,0,.56,1l8.63,5.93a1,1,0,0,0,1.12,0L786,93.7a1.42,1.42,0,0,0,.56-1v-4A1.76,1.76,0,0,0,786,87.5Z"/><path class="cls-3" d="M754.46,98.2a4.95,4.95,0,1,0-5-5A4.95,4.95,0,0,0,754.46,98.2Z"/><path class="cls-3" d="M764.1,105.26c-1-3.39-3.25-5.63-5.77-5.63h-7.74c-2.52,0-4.77,2.24-5.78,5.63l-3.64,12.92a2,2,0,0,0,1.49,2.46,2,2,0,0,0,2.45-1.45l3.63-12.88h1.07l-6.32,22.4h6v16.63a2.3,2.3,0,1,0,4.6,0V128.71h1.26v16.63a2.31,2.31,0,0,0,4.61,0V128.71h5.51l-6.32-22.4h1.07l3.63,12.88a2,2,0,0,0,2.45,1.45,2,2,0,0,0,1.49-2.46Z"/><path class="cls-3" d="M782.17,115.67a4.34,4.34,0,1,0-4.33-4.33A4.33,4.33,0,0,0,782.17,115.67Z"/><path class="cls-3" d="M787.15,118.33H776.59a4.52,4.52,0,0,0-4.06,4.07v9.41a1.76,1.76,0,0,0,3.52,0v-7h.82v20.37a2.32,2.32,0,1,0,4.63,0V133.36h.75v11.81a2.32,2.32,0,1,0,4.63,0V124.8h.81v7a1.77,1.77,0,0,0,3.53,0V122.4A4.52,4.52,0,0,0,787.15,118.33Z"/><path class="cls-3" d="M856.32,287.09a.62.62,0,0,1-.58.17.62.62,0,0,1-.33-.17l-4.79-4.79a.64.64,0,0,1-.14-.21.68.68,0,0,1,0-.37.66.66,0,0,1,.18-.34l9.89-9.89L859,270l-9.89,9.89a2.67,2.67,0,0,0-.6.91,2.75,2.75,0,0,0,.6,3l4.79,4.79a2.84,2.84,0,0,0,.9.6,2.78,2.78,0,0,0,1.56.15,2.82,2.82,0,0,0,1.41-.75l9.89-9.9-1.47-1.48Z"/><path class="cls-3" d="M848.49,287.46a.77.77,0,0,0-.15,1.05l.86.85a.76.76,0,0,0,1-.14l1.6-1.6-1.76-1.77Z"/><polygon class="cls-3" points="842.92 293.83 844.51 294.15 848.59 290.06 847.64 289.11 842.92 293.83"/><path class="cls-3" d="M862.4,266.09a1.87,1.87,0,0,0-2.65,2.64L869,278a1.87,1.87,0,0,0,2.64-2.64Z"/><path class="cls-3" d="M874.38,268.21l-4.89-4.88a1.86,1.86,0,1,0-2.63,2.64l.5.5L865.88,268l1.48,1.48,1.48-1.48.91.92-1.48,1.47,1.48,1.48,1.48-1.48.51.51a1.87,1.87,0,0,0,2.64-2.64Z"/><rect class="cls-3" x="861.25" y="276.87" width="0.9" height="2.5" transform="translate(55.73 690.77) rotate(-45)"/><polygon class="cls-3" points="859.67 281.92 860.3 281.29 858.53 279.52 857.9 280.15 859.67 281.92"/><rect class="cls-3" x="856.16" y="281.96" width="0.9" height="2.5" transform="translate(50.63 688.66) rotate(-45)"/><path class="cls-3" d="M452.48,254.42a4.47,4.47,0,0,0-1.58-1.91,4.39,4.39,0,0,0-1.22-.57v-.67a4.76,4.76,0,0,0-.38-1.89,4.87,4.87,0,0,0-9.35,1.89v3.34a2.3,2.3,0,0,1-.19.95,2.42,2.42,0,0,1-.88,1.07,2.43,2.43,0,0,1-2.31.23,2.54,2.54,0,0,1-1.08-.89,2.42,2.42,0,0,1-.41-1.36v-7.28a11.09,11.09,0,0,0,2.76-.71,12.78,12.78,0,0,0,4.69-3.33,13,13,0,0,0,2.74-4.64,11.3,11.3,0,0,0,.54-3.35,7.89,7.89,0,0,0-.2-1.85,6.28,6.28,0,0,0-.44-1.24,4.34,4.34,0,0,0-.53-.81,3.46,3.46,0,0,0-1.14-.93,3.38,3.38,0,0,0-1.48-.34v2.42a1,1,0,0,1,.26,0l.18.07a1.12,1.12,0,0,1,.31.28,2.65,2.65,0,0,1,.44.91,5.57,5.57,0,0,1,.18,1.45,8.72,8.72,0,0,1-.43,2.6,9.89,9.89,0,0,1-1.28,2.56,11.17,11.17,0,0,1-3.35,3.21,9.72,9.72,0,0,1-2.13,1,8.28,8.28,0,0,1-2.34.34,8.19,8.19,0,0,1-3.07-.6,9.82,9.82,0,0,1-2.05-1.14,11.3,11.3,0,0,1-2.47-2.46,10.42,10.42,0,0,1-1.5-2.87,8.72,8.72,0,0,1-.43-2.6,5.54,5.54,0,0,1,.14-1.29,3.24,3.24,0,0,1,.25-.71,2.39,2.39,0,0,1,.23-.37,1.25,1.25,0,0,1,.35-.29.91.91,0,0,1,.4-.09v-2.42a3.37,3.37,0,0,0-.9.12,3.12,3.12,0,0,0-.73.3,3.26,3.26,0,0,0-1,.87,4.75,4.75,0,0,0-.88,1.77,7.58,7.58,0,0,0-.27,2.11,11.3,11.3,0,0,0,.54,3.35,12.58,12.58,0,0,0,1.58,3.18,13.78,13.78,0,0,0,4.09,3.91,11.73,11.73,0,0,0,2.7,1.21,11.1,11.1,0,0,0,1.82.38v7.28a4.94,4.94,0,0,0,.38,1.89,4.88,4.88,0,0,0,1.77,2.14,4.88,4.88,0,0,0,4.61.45,4.86,4.86,0,0,0,3-4.48v-3.34a2.48,2.48,0,0,1,.19-1,2.47,2.47,0,0,1,2.25-1.49,2.48,2.48,0,0,1,.95.19,2.51,2.51,0,0,1,1.07.89,2.43,2.43,0,0,1,.42,1.36v.67a3.39,3.39,0,0,0-.48.17,4.34,4.34,0,1,0,5.7,2.31ZM450.6,257a2.36,2.36,0,0,1-.84,1,2.29,2.29,0,0,1-1.29.4,2.3,2.3,0,0,1-1.92-1,2.28,2.28,0,0,1-.39-1.29,2.23,2.23,0,0,1,.18-.9,2.32,2.32,0,0,1,3-1.23,2.37,2.37,0,0,1,1,.83,2.29,2.29,0,0,1,.39,1.3A2.26,2.26,0,0,1,450.6,257Z"/><path class="cls-3" d="M429.27,233.59a1.63,1.63,0,0,0,.61-1.26v-1.9a1.6,1.6,0,0,0-.61-1.25,1.58,1.58,0,0,0-1.36-.3l-1.27.3v4.41l1.27.3A1.61,1.61,0,0,0,429.27,233.59Z"/><path class="cls-3" d="M438.46,233.59a1.61,1.61,0,0,0,1.36.3l1.27-.3v-4.41l-1.27-.3a1.58,1.58,0,0,0-1.36.3,1.6,1.6,0,0,0-.61,1.25v1.9A1.63,1.63,0,0,0,438.46,233.59Z"/><path class="cls-3" d="M810.07,408.75l-12.46,7v18.76h10v-7.31h4.83v7.31h10V415.72Zm-6.26,20.82h-2v-2.4h2Zm0-5.33h-2v-2.4h2Zm7.27,0h-2v-2.4h2Zm2.14-7.11h-2v2H809v-2h-2v-2.25h2v-2h2.25v2h2Zm3.11,4.71h1.89v2.4h-1.89Zm2,7.73h-2v-2.4h2Z"/><path class="cls-3" d="M324.18,175v28.41H347.1V175Zm21.08,26.58H337v-5.5h-2.75v5.5H326V176.87h19.24Z"/><rect class="cls-3" x="328.77" y="179.62" width="2.75" height="2.75"/><rect class="cls-3" x="334.27" y="179.62" width="2.75" height="2.75"/><rect class="cls-3" x="339.76" y="179.62" width="2.75" height="2.75"/><rect class="cls-3" x="328.77" y="185.12" width="2.75" height="2.75"/><rect class="cls-3" x="334.27" y="185.12" width="2.75" height="2.75"/><rect class="cls-3" x="339.76" y="185.12" width="2.75" height="2.75"/><rect class="cls-3" x="328.77" y="190.62" width="2.75" height="2.75"/><rect class="cls-3" x="334.27" y="190.62" width="2.75" height="2.75"/><rect class="cls-3" x="339.76" y="190.62" width="2.75" height="2.75"/><rect class="cls-3" x="328.77" y="196.12" width="2.75" height="2.75"/><rect class="cls-3" x="339.76" y="196.12" width="2.75" height="2.75"/><line class="cls-8" x1="628.45" y1="286.55" x2="583.85" y2="346.2"/><line class="cls-8" x1="527.83" y1="158.67" x2="453.33" y2="216.08"/><line class="cls-8" x1="678.76" y1="199.42" x2="740.33" y2="160.67"/><line class="cls-8" x1="678.76" y1="286.55" x2="715.03" y2="329.92"/><line class="cls-8" x1="842.83" y1="306.67" x2="786.31" y2="329.92"/><line class="cls-8" x1="426.06" y1="347.45" x2="521.35" y2="382.29"/><line class="cls-8" x1="768.49" y1="360.79" x2="795.83" y2="398.17"/><line class="cls-8" x1="362.83" y1="190.04" x2="422.27" y2="216.08"/><path class="cls-9" d="M484,297.16c0,4,3,7.87,6.5,7.87.27,0,.54-.19.2-.44a1.54,1.54,0,0,1-.79-1.25c0-.3.25-.67,1-.67h5.27a5.51,5.51,0,0,0,0-11h-6.69A5.51,5.51,0,0,0,484,297.16Zm12,0a1.05,1.05,0,1,1,1,1A1,1,0,0,1,496,297.16Zm-4.18,0a1,1,0,1,1,1,1A1,1,0,0,1,491.79,297.16Zm-4.19,0a1,1,0,1,1,2.09,0,1,1,0,0,1-2.09,0Z"/><path class="cls-9" d="M663.45,361.73a3.69,3.69,0,0,1-.94,2.5,2.43,2.43,0,0,1-3.12.63A18.07,18.07,0,0,0,656,363.4c-.52-.09-2.32-.12-2.32-.12H647.9v-.59H654a8.65,8.65,0,0,1,4,.59c1.86.85,2.41,1.22,3.15,1s1.5-1.65,1.5-2.59-.68-2.39-1.5-2.59-1.29.18-3.15,1a8.65,8.65,0,0,1-4,.59H647.9v-.59h5.81s1.8,0,2.32-.12a18.07,18.07,0,0,0,3.36-1.46,2.43,2.43,0,0,1,3.12.63A3.72,3.72,0,0,1,663.45,361.73Z"/><path class="cls-9" d="M652.54,361.73a3.65,3.65,0,0,0,1,2.5,2.42,2.42,0,0,0,3.12.63A17.67,17.67,0,0,1,660,363.4c.52-.09,2.32-.12,2.32-.12h5.81v-.59H662a8.6,8.6,0,0,0-4,.59c-1.87.85-2.42,1.22-3.16,1s-1.5-1.65-1.5-2.59.68-2.39,1.5-2.59,1.29.18,3.16,1a8.6,8.6,0,0,0,4,.59h6.11v-.59h-5.81s-1.8,0-2.32-.12a17.67,17.67,0,0,1-3.35-1.46,2.42,2.42,0,0,0-3.12.63A3.68,3.68,0,0,0,652.54,361.73Z"/></g></svg>